solid Cheetah3Dfile
 facet normal 0.0000 -0.0000 1.0000
   outer loop
     vertex 0.5673 0.0738 0.0000
     vertex 0.5673 -0.5043 -0.0000
     vertex 0.6494 -0.5043 -0.0000
   endloop
 endfacet
 facet normal 0.0000 -0.0000 1.0000
   outer loop
     vertex 0.5673 0.0738 0.0000
     vertex 0.6494 -0.5043 -0.0000
     vertex 0.6494 0.0738 0.0000
   endloop
 endfacet
 facet normal 0.0000 -0.0000 1.0000
   outer loop
     vertex 0.8775 -0.1598 0.0000
     vertex 0.8775 -0.0801 0.0000
     vertex 0.8005 -0.0801 0.0000
   endloop
 endfacet
 facet normal 0.0000 -0.0000 1.0000
   outer loop
     vertex 0.8775 -0.1598 0.0000
     vertex 0.8005 -0.0801 0.0000
     vertex 0.8005 -0.5043 -0.0000
   endloop
 endfacet
 facet normal 0.0000 -0.0000 1.0000
   outer loop
     vertex 0.8005 -0.5043 -0.0000
     vertex 0.8775 -0.5043 -0.0000
     vertex 0.8775 -0.2200 0.0000
   endloop
 endfacet
 facet normal 0.0000 -0.0000 1.0000
   outer loop
     vertex 0.8775 -0.1598 0.0000
     vertex 0.8005 -0.5043 -0.0000
     vertex 0.8775 -0.2200 0.0000
   endloop
 endfacet
 facet normal -0.0000 -0.0000 1.0000
   outer loop
     vertex 0.8775 -0.1598 0.0000
     vertex 0.8775 -0.2200 0.0000
     vertex 0.9242 -0.1697 0.0000
   endloop
 endfacet
 facet normal -0.0000 -0.0000 1.0000
   outer loop
     vertex 0.9783 -0.0768 0.0000
     vertex 0.8775 -0.1598 0.0000
     vertex 0.9242 -0.1697 0.0000
   endloop
 endfacet
 facet normal -0.0000 -0.0000 1.0000
   outer loop
     vertex 0.9783 -0.0768 0.0000
     vertex 0.9242 -0.1697 0.0000
     vertex 1.0021 -0.1348 0.0000
   endloop
 endfacet
 facet normal 0.0000 -0.0000 1.0000
   outer loop
     vertex 1.0220 -0.0707 0.0000
     vertex 0.9783 -0.0768 0.0000
     vertex 1.0021 -0.1348 0.0000
   endloop
 endfacet
 facet normal 0.0000 -0.0000 1.0000
   outer loop
     vertex 1.0220 -0.0707 0.0000
     vertex 1.0021 -0.1348 0.0000
     vertex 1.0111 -0.1353 0.0000
   endloop
 endfacet
 facet normal 0.0000 -0.0000 1.0000
   outer loop
     vertex 1.1004 -0.0987 0.0000
     vertex 1.0220 -0.0707 0.0000
     vertex 1.0111 -0.1353 0.0000
   endloop
 endfacet
 facet normal 0.0000 -0.0000 1.0000
   outer loop
     vertex 1.1004 -0.0987 0.0000
     vertex 1.0111 -0.1353 0.0000
     vertex 1.0436 -0.1503 0.0000
   endloop
 endfacet
 facet normal 0.0000 -0.0000 1.0000
   outer loop
     vertex 1.1380 -0.1598 0.0000
     vertex 1.1004 -0.0987 0.0000
     vertex 1.0436 -0.1503 0.0000
   endloop
 endfacet
 facet normal 0.0000 -0.0000 1.0000
   outer loop
     vertex 1.1380 -0.1598 0.0000
     vertex 1.0436 -0.1503 0.0000
     vertex 1.0607 -0.2078 0.0000
   endloop
 endfacet
 facet normal 0.0000 -0.0000 1.0000
   outer loop
     vertex 1.0607 -0.5043 -0.0000
     vertex 1.1380 -0.5043 -0.0000
     vertex 1.1380 -0.2200 0.0000
   endloop
 endfacet
 facet normal 0.0000 -0.0000 1.0000
   outer loop
     vertex 1.0607 -0.2078 0.0000
     vertex 1.0607 -0.5043 -0.0000
     vertex 1.1380 -0.2200 0.0000
   endloop
 endfacet
 facet normal 0.0000 -0.0000 1.0000
   outer loop
     vertex 1.1380 -0.1598 0.0000
     vertex 1.0607 -0.2078 0.0000
     vertex 1.1380 -0.2200 0.0000
   endloop
 endfacet
 facet normal -0.0000 -0.0000 1.0000
   outer loop
     vertex 1.1380 -0.1598 0.0000
     vertex 1.1380 -0.2200 0.0000
     vertex 1.1845 -0.1699 0.0000
   endloop
 endfacet
 facet normal -0.0000 -0.0000 1.0000
   outer loop
     vertex 1.2338 -0.0774 0.0000
     vertex 1.1380 -0.1598 0.0000
     vertex 1.1845 -0.1699 0.0000
   endloop
 endfacet
 facet normal 0.0000 -0.0000 1.0000
   outer loop
     vertex 1.2338 -0.0774 0.0000
     vertex 1.1845 -0.1699 0.0000
     vertex 1.2634 -0.1352 0.0000
   endloop
 endfacet
 facet normal -0.0000 -0.0000 1.0000
   outer loop
     vertex 1.2802 -0.0703 0.0000
     vertex 1.2338 -0.0774 0.0000
     vertex 1.2634 -0.1352 0.0000
   endloop
 endfacet
 facet normal -0.0000 -0.0000 1.0000
   outer loop
     vertex 1.2802 -0.0703 0.0000
     vertex 1.2634 -0.1352 0.0000
     vertex 1.2723 -0.1357 0.0000
   endloop
 endfacet
 facet normal 0.0000 -0.0000 1.0000
   outer loop
     vertex 1.3596 -0.0959 0.0000
     vertex 1.2802 -0.0703 0.0000
     vertex 1.2723 -0.1357 0.0000
   endloop
 endfacet
 facet normal 0.0000 -0.0000 1.0000
   outer loop
     vertex 1.3596 -0.0959 0.0000
     vertex 1.2723 -0.1357 0.0000
     vertex 1.3041 -0.1506 0.0000
   endloop
 endfacet
 facet normal 0.0000 -0.0000 1.0000
   outer loop
     vertex 1.3673 -0.1034 0.0000
     vertex 1.3596 -0.0959 0.0000
     vertex 1.3041 -0.1506 0.0000
   endloop
 endfacet
 facet normal 0.0000 -0.0000 1.0000
   outer loop
     vertex 1.3980 -0.1864 0.0000
     vertex 1.3673 -0.1034 0.0000
     vertex 1.3041 -0.1506 0.0000
   endloop
 endfacet
 facet normal 0.0000 -0.0000 1.0000
   outer loop
     vertex 1.3980 -0.1864 0.0000
     vertex 1.3041 -0.1506 0.0000
     vertex 1.3209 -0.2078 0.0000
   endloop
 endfacet
 facet normal -0.0000 -0.0000 1.0000
   outer loop
     vertex 1.3982 -0.1957 0.0000
     vertex 1.3980 -0.1864 0.0000
     vertex 1.3209 -0.2078 0.0000
   endloop
 endfacet
 facet normal -0.0000 -0.0000 1.0000
   outer loop
     vertex 1.3982 -0.5043 -0.0000
     vertex 1.3982 -0.1957 0.0000
     vertex 1.3209 -0.2078 0.0000
   endloop
 endfacet
 facet normal 0.0000 -0.0000 1.0000
   outer loop
     vertex 1.3982 -0.5043 -0.0000
     vertex 1.3209 -0.2078 0.0000
     vertex 1.3209 -0.5043 -0.0000
   endloop
 endfacet
 facet normal 0.0000 -0.0000 1.0000
   outer loop
     vertex 1.5662 -0.1327 0.0000
     vertex 1.5138 -0.2922 0.0000
     vertex 1.5959 -0.2922 0.0000
   endloop
 endfacet
 facet normal -0.0000 -0.0000 1.0000
   outer loop
     vertex 1.5662 -0.1327 0.0000
     vertex 1.5959 -0.2922 0.0000
     vertex 1.5989 -0.2440 0.0000
   endloop
 endfacet
 facet normal 0.0000 -0.0000 1.0000
   outer loop
     vertex 1.5662 -0.1327 0.0000
     vertex 1.5989 -0.2440 0.0000
     vertex 1.6392 -0.1547 0.0000
   endloop
 endfacet
 facet normal -0.0000 -0.0000 1.0000
   outer loop
     vertex 1.5683 -0.1303 0.0000
     vertex 1.5662 -0.1327 0.0000
     vertex 1.6392 -0.1547 0.0000
   endloop
 endfacet
 facet normal 0.0000 -0.0000 1.0000
   outer loop
     vertex 1.6838 -0.0727 0.0000
     vertex 1.5683 -0.1303 0.0000
     vertex 1.6392 -0.1547 0.0000
   endloop
 endfacet
 facet normal 0.0000 -0.0000 1.0000
   outer loop
     vertex 1.6838 -0.0727 0.0000
     vertex 1.6392 -0.1547 0.0000
     vertex 1.7162 -0.1285 0.0000
   endloop
 endfacet
 facet normal 0.0000 -0.0000 1.0000
   outer loop
     vertex 1.7162 -0.0707 0.0000
     vertex 1.6838 -0.0727 0.0000
     vertex 1.7162 -0.1285 0.0000
   endloop
 endfacet
 facet normal 0.0000 -0.0000 1.0000
   outer loop
     vertex 1.8480 -0.1148 0.0000
     vertex 1.7162 -0.0707 0.0000
     vertex 1.7162 -0.1285 0.0000
   endloop
 endfacet
 facet normal -0.0000 -0.0000 1.0000
   outer loop
     vertex 1.8480 -0.1148 0.0000
     vertex 1.7162 -0.1285 0.0000
     vertex 1.7347 -0.1296 0.0000
   endloop
 endfacet
 facet normal -0.0000 -0.0000 1.0000
   outer loop
     vertex 1.8480 -0.1148 0.0000
     vertex 1.7347 -0.1296 0.0000
     vertex 1.7990 -0.1601 0.0000
   endloop
 endfacet
 facet normal 0.0000 -0.0000 1.0000
   outer loop
     vertex 1.5959 -0.2922 0.0000
     vertex 1.5138 -0.2922 0.0000
     vertex 1.5139 -0.3002 0.0000
   endloop
 endfacet
 facet normal 0.0000 -0.0000 1.0000
   outer loop
     vertex 1.5959 -0.2922 0.0000
     vertex 1.5139 -0.3002 0.0000
     vertex 1.5681 -0.4537 -0.0000
   endloop
 endfacet
 facet normal -0.0000 -0.0000 1.0000
   outer loop
     vertex 1.6331 -0.4245 0.0000
     vertex 1.5959 -0.2922 0.0000
     vertex 1.5681 -0.4537 -0.0000
   endloop
 endfacet
 facet normal 0.0000 -0.0000 1.0000
   outer loop
     vertex 1.6331 -0.4245 0.0000
     vertex 1.5681 -0.4537 -0.0000
     vertex 1.5840 -0.4695 -0.0000
   endloop
 endfacet
 facet normal -0.0000 -0.0000 1.0000
   outer loop
     vertex 1.6331 -0.4245 0.0000
     vertex 1.5840 -0.4695 -0.0000
     vertex 1.7134 -0.5141 -0.0000
   endloop
 endfacet
 facet normal 0.0000 -0.0000 1.0000
   outer loop
     vertex 1.6964 -0.4552 -0.0000
     vertex 1.6331 -0.4245 0.0000
     vertex 1.7134 -0.5141 -0.0000
   endloop
 endfacet
 facet normal -0.0000 -0.0000 1.0000
   outer loop
     vertex 1.7146 -0.4563 -0.0000
     vertex 1.6964 -0.4552 -0.0000
     vertex 1.7134 -0.5141 -0.0000
   endloop
 endfacet
 facet normal 0.0000 -0.0000 1.0000
   outer loop
     vertex 1.7146 -0.4563 -0.0000
     vertex 1.7134 -0.5141 -0.0000
     vertex 1.7466 -0.5122 -0.0000
   endloop
 endfacet
 facet normal -0.0000 -0.0000 1.0000
   outer loop
     vertex 1.7929 -0.4299 0.0000
     vertex 1.7146 -0.4563 -0.0000
     vertex 1.7466 -0.5122 -0.0000
   endloop
 endfacet
 facet normal -0.0000 -0.0000 1.0000
   outer loop
     vertex 1.7929 -0.4299 0.0000
     vertex 1.7466 -0.5122 -0.0000
     vertex 1.8638 -0.4547 -0.0000
   endloop
 endfacet
 facet normal -0.0000 -0.0000 1.0000
   outer loop
     vertex 1.8337 -0.3400 0.0000
     vertex 1.7929 -0.4299 0.0000
     vertex 1.8638 -0.4547 -0.0000
   endloop
 endfacet
 facet normal 0.0000 -0.0000 1.0000
   outer loop
     vertex 1.8337 -0.3400 0.0000
     vertex 1.8638 -0.4547 -0.0000
     vertex 1.8681 -0.4499 -0.0000
   endloop
 endfacet
 facet normal -0.0000 -0.0000 1.0000
   outer loop
     vertex 1.8337 -0.3400 0.0000
     vertex 1.8681 -0.4499 -0.0000
     vertex 1.9185 -0.2914 0.0000
   endloop
 endfacet
 facet normal 0.0000 -0.0000 1.0000
   outer loop
     vertex 1.8369 -0.2914 0.0000
     vertex 1.8337 -0.3400 0.0000
     vertex 1.9185 -0.2914 0.0000
   endloop
 endfacet
 facet normal 0.0000 -0.0000 1.0000
   outer loop
     vertex 1.8369 -0.2914 0.0000
     vertex 1.9185 -0.2914 0.0000
     vertex 1.9183 -0.2794 0.0000
   endloop
 endfacet
 facet normal 0.0000 -0.0000 1.0000
   outer loop
     vertex 1.8369 -0.2914 0.0000
     vertex 1.9183 -0.2794 0.0000
     vertex 1.8640 -0.1303 0.0000
   endloop
 endfacet
 facet normal -0.0000 -0.0000 1.0000
   outer loop
     vertex 1.7990 -0.1601 0.0000
     vertex 1.8369 -0.2914 0.0000
     vertex 1.8640 -0.1303 0.0000
   endloop
 endfacet
 facet normal -0.0000 -0.0000 1.0000
   outer loop
     vertex 1.7990 -0.1601 0.0000
     vertex 1.8640 -0.1303 0.0000
     vertex 1.8480 -0.1148 0.0000
   endloop
 endfacet
 facet normal 0.0000 -0.0000 1.0000
   outer loop
     vertex 2.0388 0.1125 0.0000
     vertex 2.0388 -0.5043 -0.0000
     vertex 2.1158 -0.5043 -0.0000
   endloop
 endfacet
 facet normal 0.0000 -0.0000 1.0000
   outer loop
     vertex 2.0388 0.1125 0.0000
     vertex 2.1158 -0.5043 -0.0000
     vertex 2.1158 0.1125 0.0000
   endloop
 endfacet
 facet normal -0.0000 -0.0000 1.0000
   outer loop
     vertex 2.2620 -0.3161 0.0000
     vertex 2.2334 -0.3977 0.0000
     vertex 2.3103 -0.3852 0.0000
   endloop
 endfacet
 facet normal 0.0000 -0.0000 1.0000
   outer loop
     vertex 2.2620 -0.3161 0.0000
     vertex 2.3103 -0.3852 0.0000
     vertex 2.3134 -0.3645 0.0000
   endloop
 endfacet
 facet normal 0.0000 -0.0000 1.0000
   outer loop
     vertex 2.2701 -0.1024 0.0000
     vertex 2.2701 -0.1660 0.0000
     vertex 2.4017 -0.1285 0.0000
   endloop
 endfacet
 facet normal 0.0000 -0.0000 1.0000
   outer loop
     vertex 2.4158 -0.0707 0.0000
     vertex 2.2701 -0.1024 0.0000
     vertex 2.4017 -0.1285 0.0000
   endloop
 endfacet
 facet normal -0.0000 -0.0000 1.0000
   outer loop
     vertex 2.4158 -0.0707 0.0000
     vertex 2.4017 -0.1285 0.0000
     vertex 2.4214 -0.1300 0.0000
   endloop
 endfacet
 facet normal 0.0000 -0.0000 1.0000
   outer loop
     vertex 2.5179 -0.1003 0.0000
     vertex 2.4158 -0.0707 0.0000
     vertex 2.4214 -0.1300 0.0000
   endloop
 endfacet
 facet normal 0.0000 -0.0000 1.0000
   outer loop
     vertex 2.5179 -0.1003 0.0000
     vertex 2.4214 -0.1300 0.0000
     vertex 2.4615 -0.1501 0.0000
   endloop
 endfacet
 facet normal 0.0000 -0.0000 1.0000
   outer loop
     vertex 2.2918 -0.2909 0.0000
     vertex 2.2620 -0.3161 0.0000
     vertex 2.3134 -0.3645 0.0000
   endloop
 endfacet
 facet normal 0.0000 -0.0000 1.0000
   outer loop
     vertex 2.2918 -0.2909 0.0000
     vertex 2.3134 -0.3645 0.0000
     vertex 2.3494 -0.3221 0.0000
   endloop
 endfacet
 facet normal 0.0000 -0.0000 1.0000
   outer loop
     vertex 2.4591 -0.2535 0.0000
     vertex 2.2918 -0.2909 0.0000
     vertex 2.3494 -0.3221 0.0000
   endloop
 endfacet
 facet normal -0.0000 -0.0000 1.0000
   outer loop
     vertex 2.4591 -0.2535 0.0000
     vertex 2.3494 -0.3221 0.0000
     vertex 2.4517 -0.2981 0.0000
   endloop
 endfacet
 facet normal 0.0000 -0.0000 1.0000
   outer loop
     vertex 2.4591 -0.2535 0.0000
     vertex 2.4517 -0.2981 0.0000
     vertex 2.4775 -0.2989 0.0000
   endloop
 endfacet
 facet normal 0.0000 -0.0000 1.0000
   outer loop
     vertex 2.4775 -0.2535 0.0000
     vertex 2.4591 -0.2535 0.0000
     vertex 2.4775 -0.2989 0.0000
   endloop
 endfacet
 facet normal 0.0000 -0.0000 1.0000
   outer loop
     vertex 2.6154 -0.5016 -0.0000
     vertex 2.6099 -0.4590 -0.0000
     vertex 2.5951 -0.4606 -0.0000
   endloop
 endfacet
 facet normal -0.0000 -0.0000 1.0000
   outer loop
     vertex 2.5576 -0.5141 -0.0000
     vertex 2.6154 -0.5016 -0.0000
     vertex 2.5951 -0.4606 -0.0000
   endloop
 endfacet
 facet normal -0.0000 -0.0000 1.0000
   outer loop
     vertex 2.5576 -0.5141 -0.0000
     vertex 2.5951 -0.4606 -0.0000
     vertex 2.5903 -0.4603 -0.0000
   endloop
 endfacet
 facet normal 0.0000 -0.0000 1.0000
   outer loop
     vertex 2.5576 -0.5141 -0.0000
     vertex 2.5903 -0.4603 -0.0000
     vertex 2.5691 -0.4500 -0.0000
   endloop
 endfacet
 facet normal -0.0000 -0.0000 1.0000
   outer loop
     vertex 2.5148 -0.4994 -0.0000
     vertex 2.5576 -0.5141 -0.0000
     vertex 2.5691 -0.4500 -0.0000
   endloop
 endfacet
 facet normal -0.0000 -0.0000 1.0000
   outer loop
     vertex 2.4888 -0.4504 -0.0000
     vertex 2.5148 -0.4994 -0.0000
     vertex 2.5691 -0.4500 -0.0000
   endloop
 endfacet
 facet normal -0.0000 -0.0000 1.0000
   outer loop
     vertex 2.4888 -0.4504 -0.0000
     vertex 2.5691 -0.4500 -0.0000
     vertex 2.5544 -0.3946 0.0000
   endloop
 endfacet
 facet normal 0.0000 -0.0000 1.0000
   outer loop
     vertex 2.5207 -0.1028 0.0000
     vertex 2.5179 -0.1003 0.0000
     vertex 2.4615 -0.1501 0.0000
   endloop
 endfacet
 facet normal -0.0000 -0.0000 1.0000
   outer loop
     vertex 2.5534 -0.1792 0.0000
     vertex 2.5207 -0.1028 0.0000
     vertex 2.4615 -0.1501 0.0000
   endloop
 endfacet
 facet normal -0.0000 -0.0000 1.0000
   outer loop
     vertex 2.5534 -0.1792 0.0000
     vertex 2.4615 -0.1501 0.0000
     vertex 2.4775 -0.2024 0.0000
   endloop
 endfacet
 facet normal 0.0000 -0.0000 1.0000
   outer loop
     vertex 2.5544 -0.2024 0.0000
     vertex 2.5534 -0.1792 0.0000
     vertex 2.4775 -0.2024 0.0000
   endloop
 endfacet
 facet normal 0.0000 -0.0000 1.0000
   outer loop
     vertex 2.5544 -0.2024 0.0000
     vertex 2.4775 -0.2024 0.0000
     vertex 2.4775 -0.2535 0.0000
   endloop
 endfacet
 facet normal -0.0000 -0.0000 1.0000
   outer loop
     vertex 2.5544 -0.3946 0.0000
     vertex 2.5544 -0.2024 0.0000
     vertex 2.4775 -0.2535 0.0000
   endloop
 endfacet
 facet normal 0.0000 -0.0000 1.0000
   outer loop
     vertex 2.5544 -0.3946 0.0000
     vertex 2.4775 -0.2535 0.0000
     vertex 2.4775 -0.2989 0.0000
   endloop
 endfacet
 facet normal -0.0000 -0.0000 1.0000
   outer loop
     vertex 2.5544 -0.3946 0.0000
     vertex 2.4775 -0.2989 0.0000
     vertex 2.4775 -0.4086 0.0000
   endloop
 endfacet
 facet normal 0.0000 -0.0000 1.0000
   outer loop
     vertex 2.4888 -0.4504 -0.0000
     vertex 2.5544 -0.3946 0.0000
     vertex 2.4775 -0.4086 0.0000
   endloop
 endfacet
 facet normal 0.0000 -0.0000 1.0000
   outer loop
     vertex 2.4888 -0.4504 -0.0000
     vertex 2.4775 -0.4086 0.0000
     vertex 2.3775 -0.4512 -0.0000
   endloop
 endfacet
 facet normal 0.0000 -0.0000 1.0000
   outer loop
     vertex 2.3582 -0.5141 -0.0000
     vertex 2.4888 -0.4504 -0.0000
     vertex 2.3775 -0.4512 -0.0000
   endloop
 endfacet
 facet normal -0.0000 -0.0000 1.0000
   outer loop
     vertex 2.3582 -0.5141 -0.0000
     vertex 2.3775 -0.4512 -0.0000
     vertex 2.3730 -0.4511 -0.0000
   endloop
 endfacet
 facet normal -0.0000 -0.0000 1.0000
   outer loop
     vertex 2.3103 -0.3852 0.0000
     vertex 2.2334 -0.3977 0.0000
     vertex 2.2340 -0.4115 0.0000
   endloop
 endfacet
 facet normal 0.0000 -0.0000 1.0000
   outer loop
     vertex 2.3103 -0.3852 0.0000
     vertex 2.2340 -0.4115 0.0000
     vertex 2.2681 -0.4811 -0.0000
   endloop
 endfacet
 facet normal 0.0000 -0.0000 1.0000
   outer loop
     vertex 2.3261 -0.4281 0.0000
     vertex 2.3103 -0.3852 0.0000
     vertex 2.2681 -0.4811 -0.0000
   endloop
 endfacet
 facet normal 0.0000 -0.0000 1.0000
   outer loop
     vertex 2.3261 -0.4281 0.0000
     vertex 2.2681 -0.4811 -0.0000
     vertex 2.2724 -0.4849 -0.0000
   endloop
 endfacet
 facet normal 0.0000 -0.0000 1.0000
   outer loop
     vertex 2.3261 -0.4281 0.0000
     vertex 2.2724 -0.4849 -0.0000
     vertex 2.3556 -0.5141 -0.0000
   endloop
 endfacet
 facet normal -0.0000 -0.0000 1.0000
   outer loop
     vertex 2.3298 -0.4321 0.0000
     vertex 2.3261 -0.4281 0.0000
     vertex 2.3556 -0.5141 -0.0000
   endloop
 endfacet
 facet normal 0.0000 -0.0000 1.0000
   outer loop
     vertex 2.3730 -0.4511 -0.0000
     vertex 2.3298 -0.4321 0.0000
     vertex 2.3556 -0.5141 -0.0000
   endloop
 endfacet
 facet normal -0.0000 -0.0000 1.0000
   outer loop
     vertex 2.3730 -0.4511 -0.0000
     vertex 2.3556 -0.5141 -0.0000
     vertex 2.3582 -0.5141 -0.0000
   endloop
 endfacet
 facet normal -0.0000 0.0000 1.0000
   outer loop
     vertex 5.8944 -6.0982 2.0000
     vertex 6.5583 -5.2615 2.0000
     vertex 6.0509 -4.3331 2.0000
   endloop
 endfacet
 facet normal 0.0000 0.0000 1.0000
   outer loop
     vertex 5.8836 -4.6574 3.0000
     vertex 5.6682 -4.5121 3.0000
     vertex 5.6501 -4.7713 3.0000
   endloop
 endfacet
 facet normal 0.0000 0.0000 1.0000
   outer loop
     vertex 5.8200 -5.1561 3.0000
     vertex 5.6047 -5.0108 3.0000
     vertex 5.5865 -5.2700 3.0000
   endloop
 endfacet
 facet normal 0.0000 0.0000 1.0000
   outer loop
     vertex 5.7652 -5.6645 3.0000
     vertex 5.5498 -5.5192 3.0000
     vertex 5.5317 -5.7784 3.0000
   endloop
 endfacet
 facet normal 0.0000 0.0000 1.0000
   outer loop
     vertex 5.4783 -4.6339 3.0000
     vertex 5.2630 -4.4886 3.0000
     vertex 5.2448 -4.7477 3.0000
   endloop
 endfacet
 facet normal 0.0000 0.0000 1.0000
   outer loop
     vertex 5.4148 -5.1326 3.0000
     vertex 5.1994 -4.9873 3.0000
     vertex 5.1813 -5.2465 3.0000
   endloop
 endfacet
 facet normal 0.0000 0.0000 1.0000
   outer loop
     vertex 5.3600 -5.6410 3.0000
     vertex 5.1446 -5.4957 3.0000
     vertex 5.1265 -5.7549 3.0000
   endloop
 endfacet
 facet normal 0.0000 0.0000 1.0000
   outer loop
     vertex 5.0701 -4.5709 3.0000
     vertex 4.8548 -4.4256 3.0000
     vertex 4.8366 -4.6848 3.0000
   endloop
 endfacet
 facet normal 0.0000 0.0000 1.0000
   outer loop
     vertex 5.0066 -5.0696 3.0000
     vertex 4.7912 -4.9243 3.0000
     vertex 4.7731 -5.1835 3.0000
   endloop
 endfacet
 facet normal 0.0000 0.0000 1.0000
   outer loop
     vertex 4.9518 -5.5780 3.0000
     vertex 4.7364 -5.4327 3.0000
     vertex 4.7183 -5.6919 3.0000
   endloop
 endfacet
 facet normal 0.0000 0.0000 1.0000
   outer loop
     vertex 4.6406 -4.5680 3.0000
     vertex 4.4252 -4.4227 3.0000
     vertex 4.4071 -4.6819 3.0000
   endloop
 endfacet
 facet normal 0.0000 0.0000 1.0000
   outer loop
     vertex 4.5770 -5.0667 3.0000
     vertex 4.3617 -4.9214 3.0000
     vertex 4.3435 -5.1806 3.0000
   endloop
 endfacet
 facet normal 0.0000 0.0000 1.0000
   outer loop
     vertex 4.5222 -5.5751 3.0000
     vertex 4.3068 -5.4298 3.0000
     vertex 4.2887 -5.6890 3.0000
   endloop
 endfacet
 facet normal 0.0000 0.0000 1.0000
   outer loop
     vertex 4.2195 -4.5256 3.0000
     vertex 4.0041 -4.3803 3.0000
     vertex 3.9860 -4.6395 3.0000
   endloop
 endfacet
 facet normal 0.0000 0.0000 1.0000
   outer loop
     vertex 4.1559 -5.0243 3.0000
     vertex 3.9406 -4.8790 3.0000
     vertex 3.9224 -5.1382 3.0000
   endloop
 endfacet
 facet normal 0.0000 0.0000 1.0000
   outer loop
     vertex 4.1011 -5.5327 3.0000
     vertex 3.8857 -5.3874 3.0000
     vertex 3.8676 -5.6466 3.0000
   endloop
 endfacet
 facet normal 0.0000 0.0000 1.0000
   outer loop
     vertex 3.8168 -4.4652 3.0000
     vertex 3.6014 -4.3199 3.0000
     vertex 3.5833 -4.5791 3.0000
   endloop
 endfacet
 facet normal 0.0000 0.0000 1.0000
   outer loop
     vertex 3.7533 -4.9640 3.0000
     vertex 3.5379 -4.8187 3.0000
     vertex 3.5198 -5.0778 3.0000
   endloop
 endfacet
 facet normal 0.0000 0.0000 1.0000
   outer loop
     vertex 3.6985 -5.4723 3.0000
     vertex 3.4831 -5.3271 3.0000
     vertex 3.4650 -5.5862 3.0000
   endloop
 endfacet
 facet normal -0.0000 -0.0000 1.0000
   outer loop
     vertex -0.2816 -5.3586 0.0000
     vertex 7.0141 -5.9936 0.0000
     vertex 6.9715 -4.4942 0.0000
   endloop
 endfacet
 facet normal -0.0000 0.0000 1.0000
   outer loop
     vertex 6.9715 -4.4942 0.0000
     vertex -0.2022 -3.8607 0.0000
     vertex -0.2816 -5.3586 0.0000
   endloop
 endfacet
 facet normal 0.0000 0.0000 1.0000
   outer loop
     vertex 7.0141 -5.9936 0.0000
     vertex 10.6151 -5.4718 0.0000
     vertex 10.2535 -4.0161 0.0000
   endloop
 endfacet
 facet normal 0.0000 0.0000 1.0000
   outer loop
     vertex 10.2535 -4.0161 0.0000
     vertex 6.9715 -4.4942 0.0000
     vertex 7.0141 -5.9936 0.0000
   endloop
 endfacet
 facet normal 0.0000 0.0000 1.0000
   outer loop
     vertex 10.6151 -5.4718 0.0000
     vertex 11.3465 -5.2109 0.0000
     vertex 10.7044 -3.8552 0.0000
   endloop
 endfacet
 facet normal 0.0000 0.0000 1.0000
   outer loop
     vertex 10.7044 -3.8552 0.0000
     vertex 10.2535 -4.0161 0.0000
     vertex 10.6151 -5.4718 0.0000
   endloop
 endfacet
 facet normal 0.0000 0.0000 1.0000
   outer loop
     vertex 11.3465 -5.2109 0.0000
     vertex 11.7036 -4.9962 0.0000
     vertex 10.8116 -3.7902 0.0000
   endloop
 endfacet
 facet normal 0.0000 0.0000 1.0000
   outer loop
     vertex 10.8116 -3.7902 0.0000
     vertex 10.7044 -3.8552 0.0000
     vertex 11.3465 -5.2109 0.0000
   endloop
 endfacet
 facet normal 0.0000 0.0000 1.0000
   outer loop
     vertex 11.7036 -4.9962 0.0000
     vertex 11.9637 -4.7628 0.0000
     vertex 10.8613 -3.7455 0.0000
   endloop
 endfacet
 facet normal 0.0000 0.0000 1.0000
   outer loop
     vertex 10.8613 -3.7455 0.0000
     vertex 10.8116 -3.7902 0.0000
     vertex 11.7036 -4.9962 0.0000
   endloop
 endfacet
 facet normal 0.0000 0.0000 1.0000
   outer loop
     vertex 11.9637 -4.7628 0.0000
     vertex 12.1740 -4.4869 0.0000
     vertex 10.9009 -3.6937 0.0000
   endloop
 endfacet
 facet normal 0.0000 0.0000 1.0000
   outer loop
     vertex 10.9009 -3.6937 0.0000
     vertex 10.8613 -3.7455 0.0000
     vertex 11.9637 -4.7628 0.0000
   endloop
 endfacet
 facet normal 0.0000 0.0000 1.0000
   outer loop
     vertex 12.1740 -4.4869 0.0000
     vertex 12.3400 -4.1615 0.0000
     vertex 10.9855 -3.5170 0.0000
   endloop
 endfacet
 facet normal 0.0000 0.0000 1.0000
   outer loop
     vertex 10.9855 -3.5170 0.0000
     vertex 10.9009 -3.6937 0.0000
     vertex 12.1740 -4.4869 0.0000
   endloop
 endfacet
 facet normal 0.0000 0.0000 1.0000
   outer loop
     vertex 12.3400 -4.1615 0.0000
     vertex 12.5088 -3.7748 0.0000
     vertex 11.2314 -2.9886 0.0000
   endloop
 endfacet
 facet normal 0.0000 0.0000 1.0000
   outer loop
     vertex 11.2314 -2.9886 0.0000
     vertex 10.9855 -3.5170 0.0000
     vertex 12.3400 -4.1615 0.0000
   endloop
 endfacet
 facet normal 0.0000 0.0000 1.0000
   outer loop
     vertex 12.5088 -3.7748 0.0000
     vertex 12.5308 -3.7515 0.0000
     vertex 11.4577 -2.7034 0.0000
   endloop
 endfacet
 facet normal 0.0000 0.0000 1.0000
   outer loop
     vertex 11.4577 -2.7034 0.0000
     vertex 11.2314 -2.9886 0.0000
     vertex 12.5088 -3.7748 0.0000
   endloop
 endfacet
 facet normal 0.0000 0.0000 1.0000
   outer loop
     vertex 12.5308 -3.7515 0.0000
     vertex 12.6219 -3.6744 0.0000
     vertex 11.7702 -2.4396 0.0000
   endloop
 endfacet
 facet normal 0.0000 0.0000 1.0000
   outer loop
     vertex 11.7702 -2.4396 0.0000
     vertex 11.4577 -2.7034 0.0000
     vertex 12.5308 -3.7515 0.0000
   endloop
 endfacet
 facet normal 0.0000 0.0000 1.0000
   outer loop
     vertex 12.6219 -3.6744 0.0000
     vertex 13.1631 -3.3784 0.0000
     vertex 12.4568 -2.0551 0.0000
   endloop
 endfacet
 facet normal 0.0000 0.0000 1.0000
   outer loop
     vertex 12.4568 -2.0551 0.0000
     vertex 11.7702 -2.4396 0.0000
     vertex 12.6219 -3.6744 0.0000
   endloop
 endfacet
 facet normal 0.0000 0.0000 1.0000
   outer loop
     vertex 13.1631 -3.3784 0.0000
     vertex 14.7089 -2.5779 0.0000
     vertex 13.8619 -1.3399 0.0000
   endloop
 endfacet
 facet normal 0.0000 0.0000 1.0000
   outer loop
     vertex 13.8619 -1.3399 0.0000
     vertex 12.4568 -2.0551 0.0000
     vertex 13.1631 -3.3784 0.0000
   endloop
 endfacet
 facet normal 0.0000 0.0000 1.0000
   outer loop
     vertex 14.7089 -2.5779 0.0000
     vertex 15.1351 -2.2023 0.0000
     vertex 14.0293 -1.1889 0.0000
   endloop
 endfacet
 facet normal 0.0000 0.0000 1.0000
   outer loop
     vertex 14.0293 -1.1889 0.0000
     vertex 13.8619 -1.3399 0.0000
     vertex 14.7089 -2.5779 0.0000
   endloop
 endfacet
 facet normal 0.0000 0.0000 1.0000
   outer loop
     vertex 15.1351 -2.2023 0.0000
     vertex 17.2556 0.6503 -0.0000
     vertex 16.0009 1.4724 -0.0000
   endloop
 endfacet
 facet normal 0.0000 0.0000 1.0000
   outer loop
     vertex 16.0009 1.4724 -0.0000
     vertex 14.0293 -1.1889 0.0000
     vertex 15.1351 -2.2023 0.0000
   endloop
 endfacet
 facet normal 0.0000 0.0000 1.0000
   outer loop
     vertex 17.2556 0.6503 -0.0000
     vertex 18.1906 2.2824 -0.0000
     vertex 16.8197 2.8914 -0.0000
   endloop
 endfacet
 facet normal 0.0000 0.0000 1.0000
   outer loop
     vertex 16.8197 2.8914 -0.0000
     vertex 16.0009 1.4724 -0.0000
     vertex 17.2556 0.6503 -0.0000
   endloop
 endfacet
 facet normal 0.0000 0.0000 1.0000
   outer loop
     vertex 18.1906 2.2824 -0.0000
     vertex 18.3866 2.8854 -0.0000
     vertex 16.9196 3.1983 -0.0000
   endloop
 endfacet
 facet normal 0.0000 0.0000 1.0000
   outer loop
     vertex 16.9196 3.1983 -0.0000
     vertex 16.8197 2.8914 -0.0000
     vertex 18.1906 2.2824 -0.0000
   endloop
 endfacet
 facet normal 0.0000 0.0000 1.0000
   outer loop
     vertex 18.3866 2.8854 -0.0000
     vertex 18.4278 3.2710 -0.0000
     vertex 16.9279 3.2784 -0.0000
   endloop
 endfacet
 facet normal 0.0000 0.0000 1.0000
   outer loop
     vertex 16.9279 3.2784 -0.0000
     vertex 16.9196 3.1983 -0.0000
     vertex 18.3866 2.8854 -0.0000
   endloop
 endfacet
 facet normal 0.0000 0.0000 1.0000
   outer loop
     vertex 18.4278 3.2710 -0.0000
     vertex 18.3931 3.6259 -0.0000
     vertex 16.9242 3.3224 -0.0000
   endloop
 endfacet
 facet normal 0.0000 0.0000 1.0000
   outer loop
     vertex 16.9242 3.3224 -0.0000
     vertex 16.9279 3.2784 -0.0000
     vertex 18.4278 3.2710 -0.0000
   endloop
 endfacet
 facet normal 0.0000 0.0000 1.0000
   outer loop
     vertex 18.3931 3.6259 -0.0000
     vertex 18.2913 3.9447 -0.0000
     vertex 16.9153 3.3475 -0.0000
   endloop
 endfacet
 facet normal 0.0000 0.0000 1.0000
   outer loop
     vertex 16.9153 3.3475 -0.0000
     vertex 16.9242 3.3224 -0.0000
     vertex 18.3931 3.6259 -0.0000
   endloop
 endfacet
 facet normal 0.0000 0.0000 1.0000
   outer loop
     vertex 18.2913 3.9447 -0.0000
     vertex 18.1397 4.2184 -0.0000
     vertex 16.8995 3.3747 -0.0000
   endloop
 endfacet
 facet normal 0.0000 0.0000 1.0000
   outer loop
     vertex 16.8995 3.3747 -0.0000
     vertex 16.9153 3.3475 -0.0000
     vertex 18.2913 3.9447 -0.0000
   endloop
 endfacet
 facet normal 0.0000 0.0000 1.0000
   outer loop
     vertex 18.1397 4.2184 -0.0000
     vertex 17.9163 4.4952 -0.0000
     vertex 16.7767 3.5198 -0.0000
   endloop
 endfacet
 facet normal 0.0000 0.0000 1.0000
   outer loop
     vertex 16.7767 3.5198 -0.0000
     vertex 16.8995 3.3747 -0.0000
     vertex 18.1397 4.2184 -0.0000
   endloop
 endfacet
 facet normal 0.0000 0.0000 1.0000
   outer loop
     vertex 17.9163 4.4952 -0.0000
     vertex 17.5329 4.9155 -0.0000
     vertex 16.2930 4.0713 -0.0000
   endloop
 endfacet
 facet normal 0.0000 0.0000 1.0000
   outer loop
     vertex 16.2930 4.0713 -0.0000
     vertex 16.7767 3.5198 -0.0000
     vertex 17.9163 4.4952 -0.0000
   endloop
 endfacet
 facet normal 0.0000 -0.0000 1.0000
   outer loop
     vertex 17.5329 4.9155 -0.0000
     vertex 17.5177 4.9524 -0.0000
     vertex 16.1206 4.4065 -0.0000
   endloop
 endfacet
 facet normal 0.0000 -0.0000 1.0000
   outer loop
     vertex 16.1206 4.4065 -0.0000
     vertex 16.2930 4.0713 -0.0000
     vertex 17.5329 4.9155 -0.0000
   endloop
 endfacet
 facet normal 0.0000 -0.0000 1.0000
   outer loop
     vertex 17.5177 4.9524 -0.0000
     vertex 17.4877 5.0581 -0.0000
     vertex 16.0132 4.7826 -0.0000
   endloop
 endfacet
 facet normal 0.0000 -0.0000 1.0000
   outer loop
     vertex 16.0132 4.7826 -0.0000
     vertex 16.1206 4.4065 -0.0000
     vertex 17.5177 4.9524 -0.0000
   endloop
 endfacet
 facet normal 0.0000 -0.0000 1.0000
   outer loop
     vertex 17.4877 5.0581 -0.0000
     vertex 17.4766 5.1779 -0.0000
     vertex 15.9766 5.1803 -0.0000
   endloop
 endfacet
 facet normal 0.0000 -0.0000 1.0000
   outer loop
     vertex 15.9766 5.1803 -0.0000
     vertex 16.0132 4.7826 -0.0000
     vertex 17.4877 5.0581 -0.0000
   endloop
 endfacet
 facet normal 0.0000 -0.0000 1.0000
   outer loop
     vertex 17.4766 5.1779 -0.0000
     vertex 17.4922 5.3432 -0.0000
     vertex 16.0196 5.6288 -0.0000
   endloop
 endfacet
 facet normal 0.0000 -0.0000 1.0000
   outer loop
     vertex 16.0196 5.6288 -0.0000
     vertex 15.9766 5.1803 -0.0000
     vertex 17.4766 5.1779 -0.0000
   endloop
 endfacet
 facet normal 0.0000 -0.0000 1.0000
   outer loop
     vertex 17.4922 5.3432 -0.0000
     vertex 17.5419 5.5112 -0.0000
     vertex 16.1519 6.0750 -0.0000
   endloop
 endfacet
 facet normal 0.0000 -0.0000 1.0000
   outer loop
     vertex 16.1519 6.0750 -0.0000
     vertex 16.0196 5.6288 -0.0000
     vertex 17.4922 5.3432 -0.0000
   endloop
 endfacet
 facet normal 0.0000 -0.0000 1.0000
   outer loop
     vertex 17.5419 5.5112 -0.0000
     vertex 17.6304 5.6795 -0.0000
     vertex 16.3723 6.4964 -0.0000
   endloop
 endfacet
 facet normal 0.0000 -0.0000 1.0000
   outer loop
     vertex 16.3723 6.4964 -0.0000
     vertex 16.1519 6.0750 -0.0000
     vertex 17.5419 5.5112 -0.0000
   endloop
 endfacet
 facet normal 0.0000 -0.0000 1.0000
   outer loop
     vertex 17.6304 5.6795 -0.0000
     vertex 17.7326 5.8086 -0.0000
     vertex 16.6471 6.8439 -0.0000
   endloop
 endfacet
 facet normal 0.0000 -0.0000 1.0000
   outer loop
     vertex 16.6471 6.8439 -0.0000
     vertex 16.3723 6.4964 -0.0000
     vertex 17.6304 5.6795 -0.0000
   endloop
 endfacet
 facet normal 0.0000 -0.0000 1.0000
   outer loop
     vertex 17.7326 5.8086 -0.0000
     vertex 17.9400 5.9892 -0.0000
     vertex 17.0622 7.2055 -0.0000
   endloop
 endfacet
 facet normal 0.0000 -0.0000 1.0000
   outer loop
     vertex 17.0622 7.2055 -0.0000
     vertex 16.6471 6.8439 -0.0000
     vertex 17.7326 5.8086 -0.0000
   endloop
 endfacet
 facet normal 0.0000 -0.0000 1.0000
   outer loop
     vertex 17.9400 5.9892 -0.0000
     vertex 18.5408 6.3410 -0.0000
     vertex 17.8180 7.6553 -0.0000
   endloop
 endfacet
 facet normal 0.0000 -0.0000 1.0000
   outer loop
     vertex 17.8180 7.6553 -0.0000
     vertex 17.0622 7.2055 -0.0000
     vertex 17.9400 5.9892 -0.0000
   endloop
 endfacet
 facet normal 0.0000 -0.0000 1.0000
   outer loop
     vertex 18.5408 6.3410 -0.0000
     vertex 20.4088 7.3020 -0.0000
     vertex 19.5515 8.5329 -0.0000
   endloop
 endfacet
 facet normal 0.0000 -0.0000 1.0000
   outer loop
     vertex 19.5515 8.5329 -0.0000
     vertex 17.8180 7.6553 -0.0000
     vertex 18.5408 6.3410 -0.0000
   endloop
 endfacet
 facet normal 0.0000 -0.0000 1.0000
   outer loop
     vertex 20.4088 7.3020 -0.0000
     vertex 20.7811 7.6406 -0.0000
     vertex 19.6617 8.6391 -0.0000
   endloop
 endfacet
 facet normal 0.0000 -0.0000 1.0000
   outer loop
     vertex 19.6617 8.6391 -0.0000
     vertex 19.5515 8.5329 -0.0000
     vertex 20.4088 7.3020 -0.0000
   endloop
 endfacet
 facet normal 0.0000 -0.0000 1.0000
   outer loop
     vertex 20.7811 7.6406 -0.0000
     vertex 21.0113 7.9561 -0.0000
     vertex 19.7179 8.7158 -0.0000
   endloop
 endfacet
 facet normal 0.0000 -0.0000 1.0000
   outer loop
     vertex 19.7179 8.7158 -0.0000
     vertex 19.6617 8.6391 -0.0000
     vertex 20.7811 7.6406 -0.0000
   endloop
 endfacet
 facet normal 0.0000 -0.0000 1.0000
   outer loop
     vertex 21.0113 7.9561 -0.0000
     vertex 21.1597 8.2776 -0.0000
     vertex 19.7434 8.7718 -0.0000
   endloop
 endfacet
 facet normal 0.0000 -0.0000 1.0000
   outer loop
     vertex 19.7434 8.7718 -0.0000
     vertex 19.7179 8.7158 -0.0000
     vertex 21.0113 7.9561 -0.0000
   endloop
 endfacet
 facet normal 0.0000 0.0000 1.0000
   outer loop
     vertex 21.1597 8.2776 -0.0000
     vertex 21.2430 8.6174 -0.0000
     vertex 19.7594 8.8381 -0.0000
   endloop
 endfacet
 facet normal 0.0000 0.0000 1.0000
   outer loop
     vertex 19.7594 8.8381 -0.0000
     vertex 19.7434 8.7718 -0.0000
     vertex 21.1597 8.2776 -0.0000
   endloop
 endfacet
 facet normal 0.0000 0.0000 1.0000
   outer loop
     vertex 21.2430 8.6174 -0.0000
     vertex 21.2639 8.9951 -0.0000
     vertex 19.7650 8.9378 -0.0000
   endloop
 endfacet
 facet normal 0.0000 0.0000 1.0000
   outer loop
     vertex 19.7650 8.9378 -0.0000
     vertex 19.7594 8.8381 -0.0000
     vertex 21.2430 8.6174 -0.0000
   endloop
 endfacet
 facet normal 0.0000 0.0000 1.0000
   outer loop
     vertex 21.2639 8.9951 -0.0000
     vertex 21.2099 9.4017 -0.0000
     vertex 19.7481 9.0656 -0.0000
   endloop
 endfacet
 facet normal 0.0000 0.0000 1.0000
   outer loop
     vertex 19.7481 9.0656 -0.0000
     vertex 19.7650 8.9378 -0.0000
     vertex 21.2639 8.9951 -0.0000
   endloop
 endfacet
 facet normal 0.0000 0.0000 1.0000
   outer loop
     vertex 21.2099 9.4017 -0.0000
     vertex 21.0813 9.7904 -0.0000
     vertex 19.7064 9.1908 -0.0000
   endloop
 endfacet
 facet normal 0.0000 0.0000 1.0000
   outer loop
     vertex 19.7064 9.1908 -0.0000
     vertex 19.7481 9.0656 -0.0000
     vertex 21.2099 9.4017 -0.0000
   endloop
 endfacet
 facet normal 0.0000 0.0000 1.0000
   outer loop
     vertex 21.0813 9.7904 -0.0000
     vertex 20.9003 10.1202 -0.0000
     vertex 19.6545 9.2848 -0.0000
   endloop
 endfacet
 facet normal 0.0000 0.0000 1.0000
   outer loop
     vertex 19.6545 9.2848 -0.0000
     vertex 19.7064 9.1908 -0.0000
     vertex 21.0813 9.7904 -0.0000
   endloop
 endfacet
 facet normal 0.0000 0.0000 1.0000
   outer loop
     vertex 20.9003 10.1202 -0.0000
     vertex 20.6808 10.3916 -0.0000
     vertex 19.6069 9.3444 -0.0000
   endloop
 endfacet
 facet normal 0.0000 0.0000 1.0000
   outer loop
     vertex 19.6069 9.3444 -0.0000
     vertex 19.6545 9.2848 -0.0000
     vertex 20.9003 10.1202 -0.0000
   endloop
 endfacet
 facet normal 0.0000 0.0000 1.0000
   outer loop
     vertex 20.6808 10.3916 -0.0000
     vertex 20.4063 10.6244 -0.0000
     vertex 19.5518 9.3916 -0.0000
   endloop
 endfacet
 facet normal 0.0000 0.0000 1.0000
   outer loop
     vertex 19.5518 9.3916 -0.0000
     vertex 19.6069 9.3444 -0.0000
     vertex 20.6808 10.3916 -0.0000
   endloop
 endfacet
 facet normal 0.0000 0.0000 1.0000
   outer loop
     vertex 20.4063 10.6244 -0.0000
     vertex 20.0775 10.8078 -0.0000
     vertex 19.4759 9.4337 -0.0000
   endloop
 endfacet
 facet normal 0.0000 0.0000 1.0000
   outer loop
     vertex 19.4759 9.4337 -0.0000
     vertex 19.5518 9.3916 -0.0000
     vertex 20.4063 10.6244 -0.0000
   endloop
 endfacet
 facet normal 0.0000 0.0000 1.0000
   outer loop
     vertex 20.0775 10.8078 -0.0000
     vertex 19.6648 10.9436 -0.0000
     vertex 19.3280 9.4818 -0.0000
   endloop
 endfacet
 facet normal 0.0000 0.0000 1.0000
   outer loop
     vertex 19.3280 9.4818 -0.0000
     vertex 19.4759 9.4337 -0.0000
     vertex 20.0775 10.8078 -0.0000
   endloop
 endfacet
 facet normal 0.0000 0.0000 1.0000
   outer loop
     vertex 19.6648 10.9436 -0.0000
     vertex 19.0978 11.0209 -0.0000
     vertex 19.0328 9.5223 -0.0000
   endloop
 endfacet
 facet normal 0.0000 0.0000 1.0000
   outer loop
     vertex 19.0328 9.5223 -0.0000
     vertex 19.3280 9.4818 -0.0000
     vertex 19.6648 10.9436 -0.0000
   endloop
 endfacet
 facet normal -0.0000 0.0000 1.0000
   outer loop
     vertex 19.0978 11.0209 -0.0000
     vertex 17.9442 10.9672 -0.0000
     vertex 18.0367 9.4701 -0.0000
   endloop
 endfacet
 facet normal -0.0000 0.0000 1.0000
   outer loop
     vertex 18.0367 9.4701 -0.0000
     vertex 19.0328 9.5223 -0.0000
     vertex 19.0978 11.0209 -0.0000
   endloop
 endfacet
 facet normal -0.0000 0.0000 1.0000
   outer loop
     vertex 17.9442 10.9672 -0.0000
     vertex 12.6650 10.5727 -0.0000
     vertex 12.6595 9.0727 -0.0000
   endloop
 endfacet
 facet normal -0.0000 0.0000 1.0000
   outer loop
     vertex 12.6595 9.0727 -0.0000
     vertex 18.0367 9.4701 -0.0000
     vertex 17.9442 10.9672 -0.0000
   endloop
 endfacet
 facet normal 0.0000 0.0000 1.0000
   outer loop
     vertex 12.6650 10.5727 -0.0000
     vertex 9.5693 10.8200 -0.0000
     vertex 9.6619 9.3228 -0.0000
   endloop
 endfacet
 facet normal 0.0000 0.0000 1.0000
   outer loop
     vertex 9.6619 9.3228 -0.0000
     vertex 12.6595 9.0727 -0.0000
     vertex 12.6650 10.5727 -0.0000
   endloop
 endfacet
 facet normal -0.0000 0.0000 1.0000
   outer loop
     vertex 9.5693 10.8200 -0.0000
     vertex 9.0463 10.7158 -0.0000
     vertex 9.4869 9.2819 -0.0000
   endloop
 endfacet
 facet normal -0.0000 0.0000 1.0000
   outer loop
     vertex 9.4869 9.2819 -0.0000
     vertex 9.6619 9.3228 -0.0000
     vertex 9.5693 10.8200 -0.0000
   endloop
 endfacet
 facet normal -0.0000 0.0000 1.0000
   outer loop
     vertex 9.0463 10.7158 -0.0000
     vertex 8.6161 10.5385 -0.0000
     vertex 9.3112 9.2092 -0.0000
   endloop
 endfacet
 facet normal -0.0000 0.0000 1.0000
   outer loop
     vertex 9.3112 9.2092 -0.0000
     vertex 9.4869 9.2819 -0.0000
     vertex 9.0463 10.7158 -0.0000
   endloop
 endfacet
 facet normal -0.0000 0.0000 1.0000
   outer loop
     vertex 8.6161 10.5385 -0.0000
     vertex 8.2380 10.2948 -0.0000
     vertex 9.1628 9.1138 -0.0000
   endloop
 endfacet
 facet normal -0.0000 0.0000 1.0000
   outer loop
     vertex 9.1628 9.1138 -0.0000
     vertex 9.3112 9.2092 -0.0000
     vertex 8.6161 10.5385 -0.0000
   endloop
 endfacet
 facet normal -0.0000 0.0000 1.0000
   outer loop
     vertex 8.2380 10.2948 -0.0000
     vertex 7.8807 9.9579 -0.0000
     vertex 9.0022 8.9618 -0.0000
   endloop
 endfacet
 facet normal -0.0000 0.0000 1.0000
   outer loop
     vertex 9.0022 8.9618 -0.0000
     vertex 9.1628 9.1138 -0.0000
     vertex 8.2380 10.2948 -0.0000
   endloop
 endfacet
 facet normal -0.0000 0.0000 1.0000
   outer loop
     vertex 7.8807 9.9579 -0.0000
     vertex 7.5495 9.5114 -0.0000
     vertex 8.8282 8.7272 -0.0000
   endloop
 endfacet
 facet normal -0.0000 0.0000 1.0000
   outer loop
     vertex 8.8282 8.7272 -0.0000
     vertex 9.0022 8.9618 -0.0000
     vertex 7.8807 9.9579 -0.0000
   endloop
 endfacet
 facet normal -0.0000 0.0000 1.0000
   outer loop
     vertex 7.5495 9.5114 -0.0000
     vertex 7.3050 9.0202 -0.0000
     vertex 8.7022 8.4745 -0.0000
   endloop
 endfacet
 facet normal -0.0000 0.0000 1.0000
   outer loop
     vertex 8.7022 8.4745 -0.0000
     vertex 8.8282 8.7272 -0.0000
     vertex 7.5495 9.5114 -0.0000
   endloop
 endfacet
 facet normal -0.0000 0.0000 1.0000
   outer loop
     vertex 7.3050 9.0202 -0.0000
     vertex 7.1668 8.5439 -0.0000
     vertex 8.6393 8.2583 -0.0000
   endloop
 endfacet
 facet normal -0.0000 0.0000 1.0000
   outer loop
     vertex 8.6393 8.2583 -0.0000
     vertex 8.7022 8.4745 -0.0000
     vertex 7.3050 9.0202 -0.0000
   endloop
 endfacet
 facet normal -0.0000 0.0000 1.0000
   outer loop
     vertex 7.1668 8.5439 -0.0000
     vertex 7.1178 8.0575 -0.0000
     vertex 8.6177 8.0457 -0.0000
   endloop
 endfacet
 facet normal -0.0000 0.0000 1.0000
   outer loop
     vertex 8.6177 8.0457 -0.0000
     vertex 8.6393 8.2583 -0.0000
     vertex 7.1668 8.5439 -0.0000
   endloop
 endfacet
 facet normal -0.0000 0.0000 1.0000
   outer loop
     vertex 7.1178 8.0575 -0.0000
     vertex 7.1700 7.4227 -0.0000
     vertex 8.6542 7.6398 -0.0000
   endloop
 endfacet
 facet normal -0.0000 0.0000 1.0000
   outer loop
     vertex 8.6542 7.6398 -0.0000
     vertex 8.6177 8.0457 -0.0000
     vertex 7.1178 8.0575 -0.0000
   endloop
 endfacet
 facet normal -0.0000 0.0000 1.0000
   outer loop
     vertex 7.1700 7.4227 -0.0000
     vertex 7.9972 3.4965 -0.0000
     vertex 9.4957 3.5637 -0.0000
   endloop
 endfacet
 facet normal -0.0000 0.0000 1.0000
   outer loop
     vertex 9.4957 3.5637 -0.0000
     vertex 8.6542 7.6398 -0.0000
     vertex 7.1700 7.4227 -0.0000
   endloop
 endfacet
 facet normal -0.0000 0.0000 1.0000
   outer loop
     vertex 7.9972 3.4965 -0.0000
     vertex 7.9442 3.0995 -0.0000
     vertex 9.4130 2.7952 -0.0000
   endloop
 endfacet
 facet normal -0.0000 0.0000 1.0000
   outer loop
     vertex 9.4130 2.7952 -0.0000
     vertex 9.4957 3.5637 -0.0000
     vertex 7.9972 3.4965 -0.0000
   endloop
 endfacet
 facet normal -0.0000 0.0000 1.0000
   outer loop
     vertex 7.9442 3.0995 -0.0000
     vertex 7.8437 2.7660 -0.0000
     vertex 9.2362 2.2084 0.0000
   endloop
 endfacet
 facet normal -0.0000 0.0000 1.0000
   outer loop
     vertex 9.2362 2.2084 0.0000
     vertex 9.4130 2.7952 -0.0000
     vertex 7.9442 3.0995 -0.0000
   endloop
 endfacet
 facet normal -0.0000 0.0000 1.0000
   outer loop
     vertex 7.8437 2.7660 -0.0000
     vertex 7.7276 2.5366 -0.0000
     vertex 8.9988 1.7403 0.0000
   endloop
 endfacet
 facet normal -0.0000 0.0000 1.0000
   outer loop
     vertex 8.9988 1.7403 0.0000
     vertex 9.2362 2.2084 0.0000
     vertex 7.8437 2.7660 -0.0000
   endloop
 endfacet
 facet normal -0.0000 0.0000 1.0000
   outer loop
     vertex 7.7276 2.5366 -0.0000
     vertex 7.6207 2.3956 -0.0000
     vertex 8.7237 1.3790 0.0000
   endloop
 endfacet
 facet normal -0.0000 0.0000 1.0000
   outer loop
     vertex 8.7237 1.3790 0.0000
     vertex 8.9988 1.7403 0.0000
     vertex 7.7276 2.5366 -0.0000
   endloop
 endfacet
 facet normal -0.0000 0.0000 1.0000
   outer loop
     vertex 7.6207 2.3956 -0.0000
     vertex 7.5390 2.3220 -0.0000
     vertex 8.4283 1.1141 0.0000
   endloop
 endfacet
 facet normal -0.0000 0.0000 1.0000
   outer loop
     vertex 8.4283 1.1141 0.0000
     vertex 8.7237 1.3790 0.0000
     vertex 7.6207 2.3956 -0.0000
   endloop
 endfacet
 facet normal -0.0000 0.0000 1.0000
   outer loop
     vertex 7.5390 2.3220 -0.0000
     vertex 7.4614 2.2760 -0.0000
     vertex 8.1049 0.9210 0.0000
   endloop
 endfacet
 facet normal -0.0000 0.0000 1.0000
   outer loop
     vertex 8.1049 0.9210 0.0000
     vertex 8.4283 1.1141 0.0000
     vertex 7.5390 2.3220 -0.0000
   endloop
 endfacet
 facet normal -0.0000 0.0000 1.0000
   outer loop
     vertex 7.4614 2.2760 -0.0000
     vertex 7.3837 2.2479 -0.0000
     vertex 7.7675 0.7979 0.0000
   endloop
 endfacet
 facet normal -0.0000 0.0000 1.0000
   outer loop
     vertex 7.7675 0.7979 0.0000
     vertex 8.1049 0.9210 0.0000
     vertex 7.4614 2.2760 -0.0000
   endloop
 endfacet
 facet normal -0.0000 0.0000 1.0000
   outer loop
     vertex 7.3837 2.2479 -0.0000
     vertex 7.2823 2.2307 -0.0000
     vertex 7.3978 0.7351 0.0000
   endloop
 endfacet
 facet normal -0.0000 0.0000 1.0000
   outer loop
     vertex 7.3978 0.7351 0.0000
     vertex 7.7675 0.7979 0.0000
     vertex 7.3837 2.2479 -0.0000
   endloop
 endfacet
 facet normal 0.0000 0.0000 1.0000
   outer loop
     vertex 7.2823 2.2307 -0.0000
     vertex 7.1387 2.2326 -0.0000
     vertex 6.9798 0.7411 0.0000
   endloop
 endfacet
 facet normal 0.0000 0.0000 1.0000
   outer loop
     vertex 6.9798 0.7411 0.0000
     vertex 7.3978 0.7351 0.0000
     vertex 7.2823 2.2307 -0.0000
   endloop
 endfacet
 facet normal 0.0000 0.0000 1.0000
   outer loop
     vertex 7.1387 2.2326 -0.0000
     vertex 6.8877 2.2862 -0.0000
     vertex 6.5764 0.8189 0.0000
   endloop
 endfacet
 facet normal 0.0000 0.0000 1.0000
   outer loop
     vertex 6.5764 0.8189 0.0000
     vertex 6.9798 0.7411 0.0000
     vertex 7.1387 2.2326 -0.0000
   endloop
 endfacet
 facet normal 0.0000 0.0000 1.0000
   outer loop
     vertex 6.8877 2.2862 -0.0000
     vertex 5.8582 2.5107 -0.0000
     vertex 5.7098 1.0181 0.0000
   endloop
 endfacet
 facet normal 0.0000 0.0000 1.0000
   outer loop
     vertex 5.7098 1.0181 0.0000
     vertex 6.5764 0.8189 0.0000
     vertex 6.8877 2.2862 -0.0000
   endloop
 endfacet
 facet normal -0.0000 0.0000 1.0000
   outer loop
     vertex 5.8582 2.5107 -0.0000
     vertex -0.2240 2.3706 -0.0000
     vertex -0.4865 0.8938 0.0000
   endloop
 endfacet
 facet normal -0.0000 0.0000 1.0000
   outer loop
     vertex -0.4865 0.8938 0.0000
     vertex 5.7098 1.0181 0.0000
     vertex 5.8582 2.5107 -0.0000
   endloop
 endfacet
 facet normal 0.0000 0.0000 1.0000
   outer loop
     vertex -0.2240 2.3706 -0.0000
     vertex -0.2354 2.3870 -0.0000
     vertex -0.9141 1.0493 0.0000
   endloop
 endfacet
 facet normal 0.0000 0.0000 1.0000
   outer loop
     vertex -0.9141 1.0493 0.0000
     vertex -0.4865 0.8938 0.0000
     vertex -0.2240 2.3706 -0.0000
   endloop
 endfacet
 facet normal 0.0000 0.0000 1.0000
   outer loop
     vertex -0.2354 2.3870 -0.0000
     vertex -0.2755 2.4124 -0.0000
     vertex -1.1980 1.2296 0.0000
   endloop
 endfacet
 facet normal 0.0000 0.0000 1.0000
   outer loop
     vertex -1.1980 1.2296 0.0000
     vertex -0.9141 1.0493 0.0000
     vertex -0.2354 2.3870 -0.0000
   endloop
 endfacet
 facet normal 0.0000 0.0000 1.0000
   outer loop
     vertex -0.2755 2.4124 -0.0000
     vertex -0.3455 2.4834 -0.0000
     vertex -1.4055 1.4220 0.0000
   endloop
 endfacet
 facet normal 0.0000 0.0000 1.0000
   outer loop
     vertex -1.4055 1.4220 0.0000
     vertex -1.1980 1.2296 0.0000
     vertex -0.2755 2.4124 -0.0000
   endloop
 endfacet
 facet normal 0.0000 0.0000 1.0000
   outer loop
     vertex -0.3455 2.4834 -0.0000
     vertex -0.8224 2.9759 -0.0000
     vertex -1.7665 1.8103 0.0000
   endloop
 endfacet
 facet normal 0.0000 0.0000 1.0000
   outer loop
     vertex -1.7665 1.8103 0.0000
     vertex -1.4055 1.4220 0.0000
     vertex -0.3455 2.4834 -0.0000
   endloop
 endfacet
 facet normal 0.0000 0.0000 1.0000
   outer loop
     vertex -0.8224 2.9759 -0.0000
     vertex -1.1336 3.1710 -0.0000
     vertex -1.8012 1.8278 0.0000
   endloop
 endfacet
 facet normal 0.0000 0.0000 1.0000
   outer loop
     vertex -1.8012 1.8278 0.0000
     vertex -1.7665 1.8103 0.0000
     vertex -0.8224 2.9759 -0.0000
   endloop
 endfacet
 facet normal 0.0000 0.0000 1.0000
   outer loop
     vertex -1.1336 3.1710 -0.0000
     vertex -1.4350 3.2883 -0.0000
     vertex -1.8487 1.8465 0.0000
   endloop
 endfacet
 facet normal 0.0000 0.0000 1.0000
   outer loop
     vertex -1.8487 1.8465 0.0000
     vertex -1.8012 1.8278 0.0000
     vertex -1.1336 3.1710 -0.0000
   endloop
 endfacet
 facet normal 0.0000 0.0000 1.0000
   outer loop
     vertex -1.4350 3.2883 -0.0000
     vertex -1.7691 3.3516 -0.0000
     vertex -1.9110 1.8583 0.0000
   endloop
 endfacet
 facet normal 0.0000 0.0000 1.0000
   outer loop
     vertex -1.9110 1.8583 0.0000
     vertex -1.8487 1.8465 0.0000
     vertex -1.4350 3.2883 -0.0000
   endloop
 endfacet
 facet normal 0.0000 0.0000 1.0000
   outer loop
     vertex -1.7691 3.3516 -0.0000
     vertex -2.1314 3.3524 -0.0000
     vertex -1.9968 1.8584 0.0000
   endloop
 endfacet
 facet normal 0.0000 0.0000 1.0000
   outer loop
     vertex -1.9968 1.8584 0.0000
     vertex -1.9110 1.8583 0.0000
     vertex -1.7691 3.3516 -0.0000
   endloop
 endfacet
 facet normal -0.0000 0.0000 1.0000
   outer loop
     vertex -2.1314 3.3524 -0.0000
     vertex -2.5574 3.2740 -0.0000
     vertex -2.1516 1.8300 0.0000
   endloop
 endfacet
 facet normal -0.0000 0.0000 1.0000
   outer loop
     vertex -2.1516 1.8300 0.0000
     vertex -1.9968 1.8584 0.0000
     vertex -2.1314 3.3524 -0.0000
   endloop
 endfacet
 facet normal -0.0000 0.0000 1.0000
   outer loop
     vertex -2.5574 3.2740 -0.0000
     vertex -3.1419 3.0503 -0.0000
     vertex -2.4849 1.7019 0.0000
   endloop
 endfacet
 facet normal -0.0000 0.0000 1.0000
   outer loop
     vertex -2.4849 1.7019 0.0000
     vertex -2.1516 1.8300 0.0000
     vertex -2.5574 3.2740 -0.0000
   endloop
 endfacet
 facet normal -0.0000 0.0000 1.0000
   outer loop
     vertex -3.1419 3.0503 -0.0000
     vertex -4.1629 2.4373 -0.0000
     vertex -3.2802 1.2245 0.0000
   endloop
 endfacet
 facet normal -0.0000 0.0000 1.0000
   outer loop
     vertex -3.2802 1.2245 0.0000
     vertex -2.4849 1.7019 0.0000
     vertex -3.1419 3.0503 -0.0000
   endloop
 endfacet
 facet normal -0.0000 0.0000 1.0000
   outer loop
     vertex -4.1629 2.4373 -0.0000
     vertex -6.0234 0.8170 -0.0000
     vertex -5.0239 -0.3015 0.0000
   endloop
 endfacet
 facet normal -0.0000 0.0000 1.0000
   outer loop
     vertex -5.0239 -0.3015 0.0000
     vertex -3.2802 1.2245 0.0000
     vertex -4.1629 2.4373 -0.0000
   endloop
 endfacet
 facet normal -0.0000 0.0000 1.0000
   outer loop
     vertex -6.0234 0.8170 -0.0000
     vertex -8.9364 -1.8527 -0.0000
     vertex -8.0460 -3.0598 0.0000
   endloop
 endfacet
 facet normal -0.0000 0.0000 1.0000
   outer loop
     vertex -8.0460 -3.0598 0.0000
     vertex -5.0239 -0.3015 0.0000
     vertex -6.0234 0.8170 -0.0000
   endloop
 endfacet
 facet normal -0.0000 0.0000 1.0000
   outer loop
     vertex -8.9364 -1.8527 -0.0000
     vertex -12.3930 -3.8893 0.0000
     vertex -11.4050 -5.0180 0.0000
   endloop
 endfacet
 facet normal -0.0000 0.0000 1.0000
   outer loop
     vertex -11.4050 -5.0180 0.0000
     vertex -8.0460 -3.0598 0.0000
     vertex -8.9364 -1.8527 -0.0000
   endloop
 endfacet
 facet normal -0.0000 0.0000 1.0000
   outer loop
     vertex -12.3930 -3.8893 0.0000
     vertex -12.7007 -4.2671 0.0000
     vertex -11.4370 -5.0753 0.0000
   endloop
 endfacet
 facet normal -0.0000 0.0000 1.0000
   outer loop
     vertex -11.4370 -5.0753 0.0000
     vertex -11.4050 -5.0180 0.0000
     vertex -12.3930 -3.8893 0.0000
   endloop
 endfacet
 facet normal -0.0000 0.0000 1.0000
   outer loop
     vertex -12.7007 -4.2671 0.0000
     vertex -12.8672 -4.5908 0.0000
     vertex -11.4757 -5.1509 0.0000
   endloop
 endfacet
 facet normal -0.0000 0.0000 1.0000
   outer loop
     vertex -11.4757 -5.1509 0.0000
     vertex -11.4370 -5.0753 0.0000
     vertex -12.7007 -4.2671 0.0000
   endloop
 endfacet
 facet normal -0.0000 0.0000 1.0000
   outer loop
     vertex -12.8672 -4.5908 0.0000
     vertex -12.9752 -4.9526 0.0000
     vertex -11.5040 -5.2451 0.0000
   endloop
 endfacet
 facet normal -0.0000 0.0000 1.0000
   outer loop
     vertex -11.5040 -5.2451 0.0000
     vertex -11.4757 -5.1509 0.0000
     vertex -12.8672 -4.5908 0.0000
   endloop
 endfacet
 facet normal -0.0000 0.0000 1.0000
   outer loop
     vertex -12.9752 -4.9526 0.0000
     vertex -13.0155 -5.3436 0.0000
     vertex -11.5156 -5.3602 0.0000
   endloop
 endfacet
 facet normal -0.0000 0.0000 1.0000
   outer loop
     vertex -11.5156 -5.3602 0.0000
     vertex -11.5040 -5.2451 0.0000
     vertex -12.9752 -4.9526 0.0000
   endloop
 endfacet
 facet normal -0.0000 0.0000 1.0000
   outer loop
     vertex -13.0155 -5.3436 0.0000
     vertex -12.9813 -5.7731 0.0000
     vertex -11.5024 -5.5225 0.0000
   endloop
 endfacet
 facet normal -0.0000 0.0000 1.0000
   outer loop
     vertex -11.5024 -5.5225 0.0000
     vertex -11.5156 -5.3602 0.0000
     vertex -13.0155 -5.3436 0.0000
   endloop
 endfacet
 facet normal -0.0000 0.0000 1.0000
   outer loop
     vertex -12.9813 -5.7731 0.0000
     vertex -12.8676 -6.2062 0.0000
     vertex -11.4590 -5.6905 0.0000
   endloop
 endfacet
 facet normal -0.0000 0.0000 1.0000
   outer loop
     vertex -11.4590 -5.6905 0.0000
     vertex -11.5024 -5.5225 0.0000
     vertex -12.9813 -5.7731 0.0000
   endloop
 endfacet
 facet normal -0.0000 -0.0000 1.0000
   outer loop
     vertex -12.8676 -6.2062 0.0000
     vertex -12.6974 -6.5623 0.0000
     vertex -11.4101 -5.7924 0.0000
   endloop
 endfacet
 facet normal -0.0000 -0.0000 1.0000
   outer loop
     vertex -11.4101 -5.7924 0.0000
     vertex -11.4590 -5.6905 0.0000
     vertex -12.8676 -6.2062 0.0000
   endloop
 endfacet
 facet normal -0.0000 -0.0000 1.0000
   outer loop
     vertex -12.6974 -6.5623 0.0000
     vertex -12.4942 -6.8397 0.0000
     vertex -11.3726 -5.8438 0.0000
   endloop
 endfacet
 facet normal -0.0000 -0.0000 1.0000
   outer loop
     vertex -11.3726 -5.8438 0.0000
     vertex -11.4101 -5.7924 0.0000
     vertex -12.6974 -6.5623 0.0000
   endloop
 endfacet
 facet normal -0.0000 -0.0000 1.0000
   outer loop
     vertex -12.4942 -6.8397 0.0000
     vertex -12.2416 -7.0753 0.0000
     vertex -11.3267 -5.8866 0.0000
   endloop
 endfacet
 facet normal -0.0000 -0.0000 1.0000
   outer loop
     vertex -11.3267 -5.8866 0.0000
     vertex -11.3726 -5.8438 0.0000
     vertex -12.4942 -6.8397 0.0000
   endloop
 endfacet
 facet normal -0.0000 -0.0000 1.0000
   outer loop
     vertex -12.2416 -7.0753 0.0000
     vertex -11.9653 -7.2492 0.0000
     vertex -11.2875 -5.9111 0.0000
   endloop
 endfacet
 facet normal -0.0000 -0.0000 1.0000
   outer loop
     vertex -11.2875 -5.9111 0.0000
     vertex -11.3267 -5.8866 0.0000
     vertex -12.2416 -7.0753 0.0000
   endloop
 endfacet
 facet normal -0.0000 -0.0000 1.0000
   outer loop
     vertex -11.9653 -7.2492 0.0000
     vertex -11.6522 -7.3729 0.0000
     vertex -11.2337 -5.9324 0.0000
   endloop
 endfacet
 facet normal -0.0000 -0.0000 1.0000
   outer loop
     vertex -11.2337 -5.9324 0.0000
     vertex -11.2875 -5.9111 0.0000
     vertex -11.9653 -7.2492 0.0000
   endloop
 endfacet
 facet normal -0.0000 -0.0000 1.0000
   outer loop
     vertex -11.6522 -7.3729 0.0000
     vertex -11.3022 -7.4401 0.0000
     vertex -11.1542 -5.9474 0.0000
   endloop
 endfacet
 facet normal -0.0000 -0.0000 1.0000
   outer loop
     vertex -11.1542 -5.9474 0.0000
     vertex -11.2337 -5.9324 0.0000
     vertex -11.6522 -7.3729 0.0000
   endloop
 endfacet
 facet normal -0.0000 -0.0000 1.0000
   outer loop
     vertex -11.3022 -7.4401 0.0000
     vertex -10.8813 -7.4438 0.0000
     vertex -11.0018 -5.9486 0.0000
   endloop
 endfacet
 facet normal -0.0000 -0.0000 1.0000
   outer loop
     vertex -11.0018 -5.9486 0.0000
     vertex -11.1542 -5.9474 0.0000
     vertex -11.3022 -7.4401 0.0000
   endloop
 endfacet
 facet normal 0.0000 -0.0000 1.0000
   outer loop
     vertex -10.8813 -7.4438 0.0000
     vertex -10.2765 -7.3400 0.0000
     vertex -10.6643 -5.8910 0.0000
   endloop
 endfacet
 facet normal 0.0000 -0.0000 1.0000
   outer loop
     vertex -10.6643 -5.8910 0.0000
     vertex -11.0018 -5.9486 0.0000
     vertex -10.8813 -7.4438 0.0000
   endloop
 endfacet
 facet normal 0.0000 -0.0000 1.0000
   outer loop
     vertex -10.2765 -7.3400 0.0000
     vertex -9.0672 -6.8968 0.0000
     vertex -9.6306 -5.5066 0.0000
   endloop
 endfacet
 facet normal 0.0000 -0.0000 1.0000
   outer loop
     vertex -9.6306 -5.5066 0.0000
     vertex -10.6643 -5.8910 0.0000
     vertex -10.2765 -7.3400 0.0000
   endloop
 endfacet
 facet normal 0.0000 -0.0000 1.0000
   outer loop
     vertex -9.0672 -6.8968 0.0000
     vertex -5.6202 -5.3637 0.0000
     vertex -6.0261 -3.9196 0.0000
   endloop
 endfacet
 facet normal 0.0000 -0.0000 1.0000
   outer loop
     vertex -6.0261 -3.9196 0.0000
     vertex -9.6306 -5.5066 0.0000
     vertex -9.0672 -6.8968 0.0000
   endloop
 endfacet
 facet normal 0.0000 -0.0000 1.0000
   outer loop
     vertex -5.6202 -5.3637 0.0000
     vertex -4.8836 -5.2719 0.0000
     vertex -4.9683 -3.7743 0.0000
   endloop
 endfacet
 facet normal 0.0000 -0.0000 1.0000
   outer loop
     vertex -4.9683 -3.7743 0.0000
     vertex -6.0261 -3.9196 0.0000
     vertex -5.6202 -5.3637 0.0000
   endloop
 endfacet
 facet normal -0.0000 0.0000 1.0000
   outer loop
     vertex -4.8836 -5.2719 0.0000
     vertex -0.2816 -5.3586 0.0000
     vertex -0.2022 -3.8607 0.0000
   endloop
 endfacet
 facet normal 0.0000 -0.0000 1.0000
   outer loop
     vertex -0.2022 -3.8607 0.0000
     vertex -4.9683 -3.7743 0.0000
     vertex -4.8836 -5.2719 0.0000
   endloop
 endfacet
endsolid
