solid Cheetah3Dfile
 facet normal 0.0000 -0.0000 1.0000
   outer loop
     vertex -0.3981 -0.6669 0.0000
     vertex -0.3981 -1.1372 0.0000
     vertex -0.3215 -1.1372 0.0000
   endloop
 endfacet
 facet normal 0.0000 -0.0000 1.0000
   outer loop
     vertex -0.3981 -0.6669 0.0000
     vertex -0.3215 -1.1372 0.0000
     vertex -0.3215 -0.5591 0.0000
   endloop
 endfacet
 facet normal 0.0000 -0.0000 1.0000
   outer loop
     vertex -0.3981 -0.6669 0.0000
     vertex -0.3215 -0.5591 0.0000
     vertex -0.4231 -0.5591 0.0000
   endloop
 endfacet
 facet normal -0.0000 -0.0000 1.0000
   outer loop
     vertex -0.3981 -0.6669 0.0000
     vertex -0.4231 -0.5591 0.0000
     vertex -0.5879 -1.0063 0.0000
   endloop
 endfacet
 facet normal -0.0000 -0.0000 1.0000
   outer loop
     vertex -0.5574 -1.0985 0.0000
     vertex -0.3981 -0.6669 0.0000
     vertex -0.5879 -1.0063 0.0000
   endloop
 endfacet
 facet normal 0.0000 -0.0000 1.0000
   outer loop
     vertex -0.6367 -1.0985 0.0000
     vertex -0.5574 -1.0985 0.0000
     vertex -0.5879 -1.0063 0.0000
   endloop
 endfacet
 facet normal 0.0000 -0.0000 1.0000
   outer loop
     vertex -0.7914 -0.6657 0.0000
     vertex -0.6367 -1.0985 0.0000
     vertex -0.5879 -1.0063 0.0000
   endloop
 endfacet
 facet normal 0.0000 -0.0000 1.0000
   outer loop
     vertex -0.7914 -0.6657 0.0000
     vertex -0.5879 -1.0063 0.0000
     vertex -0.7481 -0.5591 0.0000
   endloop
 endfacet
 facet normal 0.0000 -0.0000 1.0000
   outer loop
     vertex -0.7914 -0.6657 0.0000
     vertex -0.7481 -0.5591 0.0000
     vertex -0.8617 -0.5591 0.0000
   endloop
 endfacet
 facet normal -0.0000 -0.0000 1.0000
   outer loop
     vertex -0.7914 -0.6657 0.0000
     vertex -0.8617 -0.5591 0.0000
     vertex -0.8617 -1.1372 0.0000
   endloop
 endfacet
 facet normal 0.0000 -0.0000 1.0000
   outer loop
     vertex -0.7914 -0.6657 0.0000
     vertex -0.8617 -1.1372 0.0000
     vertex -0.7914 -1.1372 0.0000
   endloop
 endfacet
 facet normal 0.0000 -0.0000 1.0000
   outer loop
     vertex -0.1516 -0.7656 0.0000
     vertex -0.2039 -0.9251 0.0000
     vertex -0.1219 -0.9251 0.0000
   endloop
 endfacet
 facet normal 0.0000 -0.0000 1.0000
   outer loop
     vertex -0.1516 -0.7656 0.0000
     vertex -0.1219 -0.9251 0.0000
     vertex -0.1188 -0.8769 0.0000
   endloop
 endfacet
 facet normal 0.0000 -0.0000 1.0000
   outer loop
     vertex -0.1516 -0.7656 0.0000
     vertex -0.1188 -0.8769 0.0000
     vertex -0.0786 -0.7876 0.0000
   endloop
 endfacet
 facet normal -0.0000 -0.0000 1.0000
   outer loop
     vertex -0.1494 -0.7632 0.0000
     vertex -0.1516 -0.7656 0.0000
     vertex -0.0786 -0.7876 0.0000
   endloop
 endfacet
 facet normal 0.0000 -0.0000 1.0000
   outer loop
     vertex -0.0339 -0.7055 0.0000
     vertex -0.1494 -0.7632 0.0000
     vertex -0.0786 -0.7876 0.0000
   endloop
 endfacet
 facet normal 0.0000 -0.0000 1.0000
   outer loop
     vertex -0.0339 -0.7055 0.0000
     vertex -0.0786 -0.7876 0.0000
     vertex -0.0016 -0.7614 0.0000
   endloop
 endfacet
 facet normal 0.0000 -0.0000 1.0000
   outer loop
     vertex -0.0016 -0.7036 0.0000
     vertex -0.0339 -0.7055 0.0000
     vertex -0.0016 -0.7614 0.0000
   endloop
 endfacet
 facet normal 0.0000 -0.0000 1.0000
   outer loop
     vertex 0.1302 -0.7476 0.0000
     vertex -0.0016 -0.7036 0.0000
     vertex -0.0016 -0.7614 0.0000
   endloop
 endfacet
 facet normal 0.0000 -0.0000 1.0000
   outer loop
     vertex 0.1302 -0.7476 0.0000
     vertex -0.0016 -0.7614 0.0000
     vertex 0.0169 -0.7624 0.0000
   endloop
 endfacet
 facet normal -0.0000 -0.0000 1.0000
   outer loop
     vertex 0.1302 -0.7476 0.0000
     vertex 0.0169 -0.7624 0.0000
     vertex 0.0813 -0.7929 0.0000
   endloop
 endfacet
 facet normal 0.0000 -0.0000 1.0000
   outer loop
     vertex -0.1219 -0.9251 0.0000
     vertex -0.2039 -0.9251 0.0000
     vertex -0.2038 -0.9331 0.0000
   endloop
 endfacet
 facet normal -0.0000 -0.0000 1.0000
   outer loop
     vertex -0.1219 -0.9251 0.0000
     vertex -0.2038 -0.9331 0.0000
     vertex -0.1496 -1.0866 0.0000
   endloop
 endfacet
 facet normal -0.0000 -0.0000 1.0000
   outer loop
     vertex -0.0847 -1.0574 0.0000
     vertex -0.1219 -0.9251 0.0000
     vertex -0.1496 -1.0866 0.0000
   endloop
 endfacet
 facet normal -0.0000 -0.0000 1.0000
   outer loop
     vertex -0.0847 -1.0574 0.0000
     vertex -0.1496 -1.0866 0.0000
     vertex -0.1337 -1.1023 0.0000
   endloop
 endfacet
 facet normal 0.0000 -0.0000 1.0000
   outer loop
     vertex -0.0847 -1.0574 0.0000
     vertex -0.1337 -1.1023 0.0000
     vertex -0.0043 -1.1470 -0.0000
   endloop
 endfacet
 facet normal -0.0000 -0.0000 1.0000
   outer loop
     vertex -0.0214 -1.0881 0.0000
     vertex -0.0847 -1.0574 0.0000
     vertex -0.0043 -1.1470 -0.0000
   endloop
 endfacet
 facet normal -0.0000 -0.0000 1.0000
   outer loop
     vertex -0.0032 -1.0891 0.0000
     vertex -0.0214 -1.0881 0.0000
     vertex -0.0043 -1.1470 -0.0000
   endloop
 endfacet
 facet normal -0.0000 -0.0000 1.0000
   outer loop
     vertex -0.0032 -1.0891 0.0000
     vertex -0.0043 -1.1470 -0.0000
     vertex 0.0288 -1.1450 -0.0000
   endloop
 endfacet
 facet normal -0.0000 -0.0000 1.0000
   outer loop
     vertex 0.0751 -1.0628 0.0000
     vertex -0.0032 -1.0891 0.0000
     vertex 0.0288 -1.1450 -0.0000
   endloop
 endfacet
 facet normal 0.0000 -0.0000 1.0000
   outer loop
     vertex 0.0751 -1.0628 0.0000
     vertex 0.0288 -1.1450 -0.0000
     vertex 0.1461 -1.0876 0.0000
   endloop
 endfacet
 facet normal 0.0000 -0.0000 1.0000
   outer loop
     vertex 0.1160 -0.9728 0.0000
     vertex 0.0751 -1.0628 0.0000
     vertex 0.1461 -1.0876 0.0000
   endloop
 endfacet
 facet normal -0.0000 -0.0000 1.0000
   outer loop
     vertex 0.1160 -0.9728 0.0000
     vertex 0.1461 -1.0876 0.0000
     vertex 0.1504 -1.0828 0.0000
   endloop
 endfacet
 facet normal 0.0000 -0.0000 1.0000
   outer loop
     vertex 0.1160 -0.9728 0.0000
     vertex 0.1504 -1.0828 0.0000
     vertex 0.2008 -0.9243 0.0000
   endloop
 endfacet
 facet normal 0.0000 -0.0000 1.0000
   outer loop
     vertex 0.1191 -0.9243 0.0000
     vertex 0.1160 -0.9728 0.0000
     vertex 0.2008 -0.9243 0.0000
   endloop
 endfacet
 facet normal 0.0000 -0.0000 1.0000
   outer loop
     vertex 0.1191 -0.9243 0.0000
     vertex 0.2008 -0.9243 0.0000
     vertex 0.2006 -0.9123 0.0000
   endloop
 endfacet
 facet normal -0.0000 -0.0000 1.0000
   outer loop
     vertex 0.1191 -0.9243 0.0000
     vertex 0.2006 -0.9123 0.0000
     vertex 0.1463 -0.7632 0.0000
   endloop
 endfacet
 facet normal -0.0000 -0.0000 1.0000
   outer loop
     vertex 0.0813 -0.7929 0.0000
     vertex 0.1191 -0.9243 0.0000
     vertex 0.1463 -0.7632 0.0000
   endloop
 endfacet
 facet normal -0.0000 -0.0000 1.0000
   outer loop
     vertex 0.0813 -0.7929 0.0000
     vertex 0.1463 -0.7632 0.0000
     vertex 0.1302 -0.7476 0.0000
   endloop
 endfacet
 facet normal 0.0000 -0.0000 1.0000
   outer loop
     vertex 0.3980 -0.7927 0.0000
     vertex 0.3980 -0.7130 0.0000
     vertex 0.3211 -0.7130 0.0000
   endloop
 endfacet
 facet normal 0.0000 -0.0000 1.0000
   outer loop
     vertex 0.3980 -0.7927 0.0000
     vertex 0.3211 -0.7130 0.0000
     vertex 0.3211 -1.1372 0.0000
   endloop
 endfacet
 facet normal 0.0000 -0.0000 1.0000
   outer loop
     vertex 0.3211 -1.1372 0.0000
     vertex 0.3980 -1.1372 0.0000
     vertex 0.3980 -0.8626 0.0000
   endloop
 endfacet
 facet normal 0.0000 -0.0000 1.0000
   outer loop
     vertex 0.3980 -0.7927 0.0000
     vertex 0.3211 -1.1372 0.0000
     vertex 0.3980 -0.8626 0.0000
   endloop
 endfacet
 facet normal -0.0000 -0.0000 1.0000
   outer loop
     vertex 0.3980 -0.7927 0.0000
     vertex 0.3980 -0.8626 0.0000
     vertex 0.4467 -0.8056 0.0000
   endloop
 endfacet
 facet normal -0.0000 -0.0000 1.0000
   outer loop
     vertex 0.5064 -0.7087 0.0000
     vertex 0.3980 -0.7927 0.0000
     vertex 0.4467 -0.8056 0.0000
   endloop
 endfacet
 facet normal 0.0000 -0.0000 1.0000
   outer loop
     vertex 0.5064 -0.7087 0.0000
     vertex 0.4467 -0.8056 0.0000
     vertex 0.5312 -0.7700 0.0000
   endloop
 endfacet
 facet normal 0.0000 -0.0000 1.0000
   outer loop
     vertex 0.5472 -0.7036 0.0000
     vertex 0.5064 -0.7087 0.0000
     vertex 0.5312 -0.7700 0.0000
   endloop
 endfacet
 facet normal -0.0000 -0.0000 1.0000
   outer loop
     vertex 0.5472 -0.7036 0.0000
     vertex 0.5312 -0.7700 0.0000
     vertex 0.5509 -0.7723 0.0000
   endloop
 endfacet
 facet normal -0.0000 -0.0000 1.0000
   outer loop
     vertex 0.6269 -0.7307 0.0000
     vertex 0.5472 -0.7036 0.0000
     vertex 0.5509 -0.7723 0.0000
   endloop
 endfacet
 facet normal -0.0000 -0.0000 1.0000
   outer loop
     vertex 0.6269 -0.7307 0.0000
     vertex 0.5509 -0.7723 0.0000
     vertex 0.5771 -0.7901 0.0000
   endloop
 endfacet
 facet normal 0.0000 -0.0000 1.0000
   outer loop
     vertex 0.6351 -0.7386 0.0000
     vertex 0.6269 -0.7307 0.0000
     vertex 0.5771 -0.7901 0.0000
   endloop
 endfacet
 facet normal 0.0000 -0.0000 1.0000
   outer loop
     vertex 0.6677 -0.8232 0.0000
     vertex 0.6351 -0.7386 0.0000
     vertex 0.5771 -0.7901 0.0000
   endloop
 endfacet
 facet normal 0.0000 -0.0000 1.0000
   outer loop
     vertex 0.6677 -0.8232 0.0000
     vertex 0.5771 -0.7901 0.0000
     vertex 0.5910 -0.8575 0.0000
   endloop
 endfacet
 facet normal 0.0000 -0.0000 1.0000
   outer loop
     vertex 0.6679 -0.8325 0.0000
     vertex 0.6677 -0.8232 0.0000
     vertex 0.5910 -0.8575 0.0000
   endloop
 endfacet
 facet normal 0.0000 -0.0000 1.0000
   outer loop
     vertex 0.6679 -1.1372 0.0000
     vertex 0.6679 -0.8325 0.0000
     vertex 0.5910 -0.8575 0.0000
   endloop
 endfacet
 facet normal 0.0000 -0.0000 1.0000
   outer loop
     vertex 0.6679 -1.1372 0.0000
     vertex 0.5910 -0.8575 0.0000
     vertex 0.5910 -1.1372 0.0000
   endloop
 endfacet
 facet normal 0.0000 -0.0000 1.0000
   outer loop
     vertex 0.8008 -0.7130 0.0000
     vertex 0.8008 -0.7708 0.0000
     vertex 1.0511 -0.7708 0.0000
   endloop
 endfacet
 facet normal 0.0000 -0.0000 1.0000
   outer loop
     vertex 1.1461 -0.7130 0.0000
     vertex 0.8008 -0.7130 0.0000
     vertex 1.0511 -0.7708 0.0000
   endloop
 endfacet
 facet normal 0.0000 -0.0000 1.0000
   outer loop
     vertex 1.1461 -0.7708 0.0000
     vertex 1.1461 -0.7130 0.0000
     vertex 1.0511 -0.7708 0.0000
   endloop
 endfacet
 facet normal 0.0000 -0.0000 1.0000
   outer loop
     vertex 0.8836 -1.0794 0.0000
     vertex 1.1461 -0.7708 0.0000
     vertex 1.0511 -0.7708 0.0000
   endloop
 endfacet
 facet normal 0.0000 -0.0000 1.0000
   outer loop
     vertex 0.8836 -1.0794 0.0000
     vertex 1.0511 -0.7708 0.0000
     vertex 0.7886 -1.0794 0.0000
   endloop
 endfacet
 facet normal 0.0000 -0.0000 1.0000
   outer loop
     vertex 0.8836 -1.0794 0.0000
     vertex 0.7886 -1.0794 0.0000
     vertex 0.7886 -1.1372 0.0000
   endloop
 endfacet
 facet normal 0.0000 -0.0000 1.0000
   outer loop
     vertex 0.8836 -1.0794 0.0000
     vertex 0.7886 -1.1372 0.0000
     vertex 1.1511 -1.1372 0.0000
   endloop
 endfacet
 facet normal 0.0000 -0.0000 1.0000
   outer loop
     vertex 0.8836 -1.0794 0.0000
     vertex 1.1511 -1.1372 0.0000
     vertex 1.1511 -1.0794 0.0000
   endloop
 endfacet
 facet normal 0.0000 -0.0000 1.0000
   outer loop
     vertex 1.2680 -0.9490 0.0000
     vertex 1.2394 -1.0305 0.0000
     vertex 1.3164 -1.0180 0.0000
   endloop
 endfacet
 facet normal -0.0000 -0.0000 1.0000
   outer loop
     vertex 1.2680 -0.9490 0.0000
     vertex 1.3164 -1.0180 0.0000
     vertex 1.3194 -0.9973 0.0000
   endloop
 endfacet
 facet normal 0.0000 -0.0000 1.0000
   outer loop
     vertex 1.2761 -0.7352 0.0000
     vertex 1.2761 -0.7989 0.0000
     vertex 1.4078 -0.7614 0.0000
   endloop
 endfacet
 facet normal 0.0000 -0.0000 1.0000
   outer loop
     vertex 1.4218 -0.7036 0.0000
     vertex 1.2761 -0.7352 0.0000
     vertex 1.4078 -0.7614 0.0000
   endloop
 endfacet
 facet normal 0.0000 -0.0000 1.0000
   outer loop
     vertex 1.4218 -0.7036 0.0000
     vertex 1.4078 -0.7614 0.0000
     vertex 1.4275 -0.7629 0.0000
   endloop
 endfacet
 facet normal 0.0000 -0.0000 1.0000
   outer loop
     vertex 1.5240 -0.7331 0.0000
     vertex 1.4218 -0.7036 0.0000
     vertex 1.4275 -0.7629 0.0000
   endloop
 endfacet
 facet normal 0.0000 -0.0000 1.0000
   outer loop
     vertex 1.5240 -0.7331 0.0000
     vertex 1.4275 -0.7629 0.0000
     vertex 1.4675 -0.7829 0.0000
   endloop
 endfacet
 facet normal -0.0000 -0.0000 1.0000
   outer loop
     vertex 1.2978 -0.9237 0.0000
     vertex 1.2680 -0.9490 0.0000
     vertex 1.3194 -0.9973 0.0000
   endloop
 endfacet
 facet normal 0.0000 -0.0000 1.0000
   outer loop
     vertex 1.2978 -0.9237 0.0000
     vertex 1.3194 -0.9973 0.0000
     vertex 1.3554 -0.9550 0.0000
   endloop
 endfacet
 facet normal 0.0000 -0.0000 1.0000
   outer loop
     vertex 1.4652 -0.8864 0.0000
     vertex 1.2978 -0.9237 0.0000
     vertex 1.3554 -0.9550 0.0000
   endloop
 endfacet
 facet normal -0.0000 -0.0000 1.0000
   outer loop
     vertex 1.4652 -0.8864 0.0000
     vertex 1.3554 -0.9550 0.0000
     vertex 1.4578 -0.9309 0.0000
   endloop
 endfacet
 facet normal 0.0000 -0.0000 1.0000
   outer loop
     vertex 1.4652 -0.8864 0.0000
     vertex 1.4578 -0.9309 0.0000
     vertex 1.4836 -0.9317 0.0000
   endloop
 endfacet
 facet normal 0.0000 -0.0000 1.0000
   outer loop
     vertex 1.4836 -0.8864 0.0000
     vertex 1.4652 -0.8864 0.0000
     vertex 1.4836 -0.9317 0.0000
   endloop
 endfacet
 facet normal -0.0000 -0.0000 1.0000
   outer loop
     vertex 1.6215 -1.1344 0.0000
     vertex 1.6160 -1.0919 0.0000
     vertex 1.6011 -1.0934 0.0000
   endloop
 endfacet
 facet normal 0.0000 -0.0000 1.0000
   outer loop
     vertex 1.5636 -1.1470 -0.0000
     vertex 1.6215 -1.1344 0.0000
     vertex 1.6011 -1.0934 0.0000
   endloop
 endfacet
 facet normal 0.0000 -0.0000 1.0000
   outer loop
     vertex 1.5636 -1.1470 -0.0000
     vertex 1.6011 -1.0934 0.0000
     vertex 1.5964 -1.0932 0.0000
   endloop
 endfacet
 facet normal -0.0000 -0.0000 1.0000
   outer loop
     vertex 1.5636 -1.1470 -0.0000
     vertex 1.5964 -1.0932 0.0000
     vertex 1.5751 -1.0829 0.0000
   endloop
 endfacet
 facet normal 0.0000 -0.0000 1.0000
   outer loop
     vertex 1.5209 -1.1323 0.0000
     vertex 1.5636 -1.1470 -0.0000
     vertex 1.5751 -1.0829 0.0000
   endloop
 endfacet
 facet normal 0.0000 -0.0000 1.0000
   outer loop
     vertex 1.4949 -1.0833 0.0000
     vertex 1.5209 -1.1323 0.0000
     vertex 1.5751 -1.0829 0.0000
   endloop
 endfacet
 facet normal 0.0000 -0.0000 1.0000
   outer loop
     vertex 1.4949 -1.0833 0.0000
     vertex 1.5751 -1.0829 0.0000
     vertex 1.5605 -1.0274 0.0000
   endloop
 endfacet
 facet normal -0.0000 -0.0000 1.0000
   outer loop
     vertex 1.5267 -0.7356 0.0000
     vertex 1.5240 -0.7331 0.0000
     vertex 1.4675 -0.7829 0.0000
   endloop
 endfacet
 facet normal -0.0000 -0.0000 1.0000
   outer loop
     vertex 1.5594 -0.8121 0.0000
     vertex 1.5267 -0.7356 0.0000
     vertex 1.4675 -0.7829 0.0000
   endloop
 endfacet
 facet normal -0.0000 -0.0000 1.0000
   outer loop
     vertex 1.5594 -0.8121 0.0000
     vertex 1.4675 -0.7829 0.0000
     vertex 1.4836 -0.8352 0.0000
   endloop
 endfacet
 facet normal 0.0000 -0.0000 1.0000
   outer loop
     vertex 1.5605 -0.8352 0.0000
     vertex 1.5594 -0.8121 0.0000
     vertex 1.4836 -0.8352 0.0000
   endloop
 endfacet
 facet normal 0.0000 -0.0000 1.0000
   outer loop
     vertex 1.5605 -0.8352 0.0000
     vertex 1.4836 -0.8352 0.0000
     vertex 1.4836 -0.8864 0.0000
   endloop
 endfacet
 facet normal 0.0000 -0.0000 1.0000
   outer loop
     vertex 1.5605 -1.0274 0.0000
     vertex 1.5605 -0.8352 0.0000
     vertex 1.4836 -0.8864 0.0000
   endloop
 endfacet
 facet normal -0.0000 -0.0000 1.0000
   outer loop
     vertex 1.5605 -1.0274 0.0000
     vertex 1.4836 -0.8864 0.0000
     vertex 1.4836 -0.9317 0.0000
   endloop
 endfacet
 facet normal 0.0000 -0.0000 1.0000
   outer loop
     vertex 1.5605 -1.0274 0.0000
     vertex 1.4836 -0.9317 0.0000
     vertex 1.4836 -1.0415 0.0000
   endloop
 endfacet
 facet normal 0.0000 -0.0000 1.0000
   outer loop
     vertex 1.4949 -1.0833 0.0000
     vertex 1.5605 -1.0274 0.0000
     vertex 1.4836 -1.0415 0.0000
   endloop
 endfacet
 facet normal -0.0000 -0.0000 1.0000
   outer loop
     vertex 1.4949 -1.0833 0.0000
     vertex 1.4836 -1.0415 0.0000
     vertex 1.3836 -1.0841 0.0000
   endloop
 endfacet
 facet normal -0.0000 -0.0000 1.0000
   outer loop
     vertex 1.3643 -1.1469 -0.0000
     vertex 1.4949 -1.0833 0.0000
     vertex 1.3836 -1.0841 0.0000
   endloop
 endfacet
 facet normal 0.0000 -0.0000 1.0000
   outer loop
     vertex 1.3643 -1.1469 -0.0000
     vertex 1.3836 -1.0841 0.0000
     vertex 1.3791 -1.0839 0.0000
   endloop
 endfacet
 facet normal 0.0000 -0.0000 1.0000
   outer loop
     vertex 1.3164 -1.0180 0.0000
     vertex 1.2394 -1.0305 0.0000
     vertex 1.2401 -1.0443 0.0000
   endloop
 endfacet
 facet normal 0.0000 -0.0000 1.0000
   outer loop
     vertex 1.3164 -1.0180 0.0000
     vertex 1.2401 -1.0443 0.0000
     vertex 1.2742 -1.1139 0.0000
   endloop
 endfacet
 facet normal 0.0000 -0.0000 1.0000
   outer loop
     vertex 1.3322 -1.0610 0.0000
     vertex 1.3164 -1.0180 0.0000
     vertex 1.2742 -1.1139 0.0000
   endloop
 endfacet
 facet normal -0.0000 -0.0000 1.0000
   outer loop
     vertex 1.3322 -1.0610 0.0000
     vertex 1.2742 -1.1139 0.0000
     vertex 1.2784 -1.1178 0.0000
   endloop
 endfacet
 facet normal 0.0000 -0.0000 1.0000
   outer loop
     vertex 1.3322 -1.0610 0.0000
     vertex 1.2784 -1.1178 0.0000
     vertex 1.3617 -1.1470 -0.0000
   endloop
 endfacet
 facet normal -0.0000 -0.0000 1.0000
   outer loop
     vertex 1.3359 -1.0649 0.0000
     vertex 1.3322 -1.0610 0.0000
     vertex 1.3617 -1.1470 -0.0000
   endloop
 endfacet
 facet normal -0.0000 -0.0000 1.0000
   outer loop
     vertex 1.3791 -1.0839 0.0000
     vertex 1.3359 -1.0649 0.0000
     vertex 1.3617 -1.1470 -0.0000
   endloop
 endfacet
 facet normal 0.0000 -0.0000 1.0000
   outer loop
     vertex 1.3791 -1.0839 0.0000
     vertex 1.3617 -1.1470 -0.0000
     vertex 1.3643 -1.1469 -0.0000
   endloop
 endfacet
 facet normal 0.0000 0.0000 1.0000
   outer loop
     vertex 7.0853 -1.4146 2.0000
     vertex 6.5443 -2.3355 2.0000
     vertex 7.1760 -3.1843 2.0000
   endloop
 endfacet
 facet normal -0.0000 0.0000 1.0000
   outer loop
     vertex 7.2977 -2.8569 3.0000
     vertex 7.5312 -2.9708 3.0000
     vertex 7.5131 -2.7116 3.0000
   endloop
 endfacet
 facet normal -0.0000 0.0000 1.0000
   outer loop
     vertex 7.2912 -2.3542 3.0000
     vertex 7.5247 -2.4681 3.0000
     vertex 7.5066 -2.2089 3.0000
   endloop
 endfacet
 facet normal -0.0000 0.0000 1.0000
   outer loop
     vertex 7.2747 -1.8431 3.0000
     vertex 7.5083 -1.9570 3.0000
     vertex 7.4901 -1.6979 3.0000
   endloop
 endfacet
 facet normal -0.0000 0.0000 1.0000
   outer loop
     vertex 7.7023 -2.8238 3.0000
     vertex 7.9358 -2.9377 3.0000
     vertex 7.9177 -2.6786 3.0000
   endloop
 endfacet
 facet normal -0.0000 0.0000 1.0000
   outer loop
     vertex 7.6958 -2.3211 3.0000
     vertex 7.9293 -2.4350 3.0000
     vertex 7.9112 -2.1758 3.0000
   endloop
 endfacet
 facet normal -0.0000 0.0000 1.0000
   outer loop
     vertex 7.6793 -1.8101 3.0000
     vertex 7.9128 -1.9239 3.0000
     vertex 7.8947 -1.6648 3.0000
   endloop
 endfacet
 facet normal -0.0000 0.0000 1.0000
   outer loop
     vertex 8.1153 -2.8294 3.0000
     vertex 8.3488 -2.9432 3.0000
     vertex 8.3306 -2.6841 3.0000
   endloop
 endfacet
 facet normal -0.0000 0.0000 1.0000
   outer loop
     vertex 8.1088 -2.3266 3.0000
     vertex 8.3423 -2.4405 3.0000
     vertex 8.3241 -2.1814 3.0000
   endloop
 endfacet
 facet normal -0.0000 0.0000 1.0000
   outer loop
     vertex 8.0923 -1.8156 3.0000
     vertex 8.3258 -1.9295 3.0000
     vertex 8.3077 -1.6703 3.0000
   endloop
 endfacet
 facet normal -0.0000 0.0000 1.0000
   outer loop
     vertex 8.5411 -2.7725 3.0000
     vertex 8.7746 -2.8864 3.0000
     vertex 8.7565 -2.6272 3.0000
   endloop
 endfacet
 facet normal -0.0000 0.0000 1.0000
   outer loop
     vertex 8.5346 -2.2698 3.0000
     vertex 8.7681 -2.3837 3.0000
     vertex 8.7500 -2.1245 3.0000
   endloop
 endfacet
 facet normal -0.0000 0.0000 1.0000
   outer loop
     vertex 8.5181 -1.7587 3.0000
     vertex 8.7516 -1.8726 3.0000
     vertex 8.7335 -1.6134 3.0000
   endloop
 endfacet
 facet normal -0.0000 0.0000 1.0000
   outer loop
     vertex 8.9640 -2.7558 3.0000
     vertex 9.1975 -2.8697 3.0000
     vertex 9.1793 -2.6106 3.0000
   endloop
 endfacet
 facet normal -0.0000 0.0000 1.0000
   outer loop
     vertex 8.9575 -2.2531 3.0000
     vertex 9.1910 -2.3670 3.0000
     vertex 9.1728 -2.1078 3.0000
   endloop
 endfacet
 facet normal -0.0000 0.0000 1.0000
   outer loop
     vertex 8.9410 -1.7421 3.0000
     vertex 9.1745 -1.8559 3.0000
     vertex 9.1564 -1.5968 3.0000
   endloop
 endfacet
 facet normal -0.0000 0.0000 1.0000
   outer loop
     vertex 9.3711 -2.7596 3.0000
     vertex 9.6046 -2.8735 3.0000
     vertex 9.5865 -2.6143 3.0000
   endloop
 endfacet
 facet normal -0.0000 0.0000 1.0000
   outer loop
     vertex 9.3646 -2.2569 3.0000
     vertex 9.5981 -2.3708 3.0000
     vertex 9.5800 -2.1116 3.0000
   endloop
 endfacet
 facet normal -0.0000 0.0000 1.0000
   outer loop
     vertex 9.3481 -1.7458 3.0000
     vertex 9.5816 -1.8597 3.0000
     vertex 9.5635 -1.6005 3.0000
   endloop
 endfacet
 facet normal -0.0018 -0.0009 1.0000
   outer loop
     vertex 4.2671 -1.6878 0.0000
     vertex -0.5246 -1.8832 -0.0088
     vertex -0.3751 -3.3757 -0.0099
   endloop
 endfacet
 facet normal -0.0021 -0.0001 1.0000
   outer loop
     vertex -0.3751 -3.3757 -0.0099
     vertex 4.3226 -3.1868 0.0000
     vertex 4.2671 -1.6878 0.0000
   endloop
 endfacet
 facet normal -0.0154 -0.0026 0.9999
   outer loop
     vertex -0.5246 -1.8832 -0.0088
     vertex -1.2437 -2.0023 -0.0202
     vertex -1.1792 -3.5010 -0.0231
   endloop
 endfacet
 facet normal -0.0160 -0.0023 0.9999
   outer loop
     vertex -1.1792 -3.5010 -0.0231
     vertex -0.3751 -3.3757 -0.0099
     vertex -0.5246 -1.8832 -0.0088
   endloop
 endfacet
 facet normal -0.0026 -0.0026 1.0000
   outer loop
     vertex -1.2437 -2.0023 -0.0202
     vertex -1.3076 -1.9958 -0.0203
     vertex -1.5555 -3.4752 -0.0248
   endloop
 endfacet
 facet normal -0.0049 -0.0021 1.0000
   outer loop
     vertex -1.5555 -3.4752 -0.0248
     vertex -1.1792 -3.5010 -0.0231
     vertex -1.2437 -2.0023 -0.0202
   endloop
 endfacet
 facet normal 0.0060 -0.0043 1.0000
   outer loop
     vertex -1.3076 -1.9958 -0.0203
     vertex -1.3352 -1.9885 -0.0201
     vertex -1.8526 -3.3965 -0.0231
   endloop
 endfacet
 facet normal 0.0050 -0.0039 1.0000
   outer loop
     vertex -1.8526 -3.3965 -0.0231
     vertex -1.5555 -3.4752 -0.0248
     vertex -1.3076 -1.9958 -0.0203
   endloop
 endfacet
 facet normal 0.0167 -0.0088 0.9998
   outer loop
     vertex -1.3352 -1.9885 -0.0201
     vertex -1.3455 -1.9836 -0.0199
     vertex -2.1145 -3.2715 -0.0183
   endloop
 endfacet
 facet normal 0.0145 -0.0074 0.9999
   outer loop
     vertex -2.1145 -3.2715 -0.0183
     vertex -1.8526 -3.3965 -0.0231
     vertex -1.3352 -1.9885 -0.0201
   endloop
 endfacet
 facet normal 0.0246 -0.0138 0.9996
   outer loop
     vertex -1.3455 -1.9836 -0.0199
     vertex -1.3610 -1.9723 -0.0194
     vertex -2.3549 -3.0957 -0.0104
   endloop
 endfacet
 facet normal 0.0236 -0.0129 0.9996
   outer loop
     vertex -2.3549 -3.0957 -0.0104
     vertex -2.1145 -3.2715 -0.0183
     vertex -1.3455 -1.9836 -0.0199
   endloop
 endfacet
 facet normal 0.0338 -0.0229 0.9992
   outer loop
     vertex -1.3610 -1.9723 -0.0194
     vertex -1.4550 -1.8679 -0.0138
     vertex -2.5850 -2.8542 0.0018
   endloop
 endfacet
 facet normal 0.0317 -0.0201 0.9993
   outer loop
     vertex -2.5850 -2.8542 0.0018
     vertex -2.3549 -3.0957 -0.0104
     vertex -1.3610 -1.9723 -0.0194
   endloop
 endfacet
 facet normal 0.0425 -0.0342 0.9985
   outer loop
     vertex -1.4550 -1.8679 -0.0138
     vertex -1.9780 -1.2335 0.0302
     vertex -3.0021 -2.3294 0.0362
   endloop
 endfacet
 facet normal 0.0419 -0.0322 0.9986
   outer loop
     vertex -3.0021 -2.3294 0.0362
     vertex -2.5850 -2.8542 0.0018
     vertex -1.4550 -1.8679 -0.0138
   endloop
 endfacet
 facet normal 0.0439 -0.0356 0.9984
   outer loop
     vertex -1.9780 -1.2335 0.0302
     vertex -2.2826 -1.0139 0.0514
     vertex -3.0310 -2.3139 0.0379
   endloop
 endfacet
 facet normal 0.0424 -0.0342 0.9985
   outer loop
     vertex -3.0310 -2.3139 0.0379
     vertex -3.0021 -2.3294 0.0362
     vertex -1.9780 -1.2335 0.0302
   endloop
 endfacet
 facet normal 0.0391 -0.0329 0.9987
   outer loop
     vertex -2.2826 -1.0139 0.0514
     vertex -2.5904 -0.8730 0.0681
     vertex -3.0868 -2.2882 0.0409
   endloop
 endfacet
 facet normal 0.0386 -0.0326 0.9987
   outer loop
     vertex -3.0868 -2.2882 0.0409
     vertex -3.0310 -2.3139 0.0379
     vertex -2.2826 -1.0139 0.0514
   endloop
 endfacet
 facet normal 0.0310 -0.0301 0.9991
   outer loop
     vertex -2.5904 -0.8730 0.0681
     vertex -2.9376 -0.7867 0.0815
     vertex -3.1648 -2.2689 0.0439
   endloop
 endfacet
 facet normal 0.0304 -0.0299 0.9991
   outer loop
     vertex -3.1648 -2.2689 0.0439
     vertex -3.0868 -2.2882 0.0409
     vertex -2.5904 -0.8730 0.0681
   endloop
 endfacet
 facet normal 0.0205 -0.0286 0.9994
   outer loop
     vertex -2.9376 -0.7867 0.0815
     vertex -3.3191 -0.7639 0.0900
     vertex -3.2741 -2.2626 0.0462
   endloop
 endfacet
 facet normal 0.0199 -0.0284 0.9994
   outer loop
     vertex -3.2741 -2.2626 0.0462
     vertex -3.1648 -2.2689 0.0439
     vertex -2.9376 -0.7867 0.0815
   endloop
 endfacet
 facet normal 0.0084 -0.0290 0.9995
   outer loop
     vertex -3.3191 -0.7639 0.0900
     vertex -3.7657 -0.8180 0.0922
     vertex -3.4477 -2.2832 0.0470
   endloop
 endfacet
 facet normal 0.0081 -0.0289 0.9995
   outer loop
     vertex -3.4477 -2.2832 0.0470
     vertex -3.2741 -2.2626 0.0462
     vertex -3.3191 -0.7639 0.0900
   endloop
 endfacet
 facet normal -0.0047 -0.0323 0.9995
   outer loop
     vertex -3.7657 -0.8180 0.0922
     vertex -4.5070 -1.0500 0.0812
     vertex -4.0143 -2.4661 0.0377
   endloop
 endfacet
 facet normal -0.0061 -0.0321 0.9995
   outer loop
     vertex -4.0143 -2.4661 0.0377
     vertex -3.4477 -2.2832 0.0470
     vertex -3.7657 -0.8180 0.0922
   endloop
 endfacet
 facet normal -0.0132 -0.0361 0.9993
   outer loop
     vertex -4.5070 -1.0500 0.0812
     vertex -6.2740 -1.7242 0.0335
     vertex -5.9282 -3.1830 -0.0147
   endloop
 endfacet
 facet normal -0.0140 -0.0355 0.9993
   outer loop
     vertex -5.9282 -3.1830 -0.0147
     vertex -4.0143 -2.4661 0.0377
     vertex -4.5070 -1.0500 0.0812
   endloop
 endfacet
 facet normal -0.0126 -0.0361 0.9993
   outer loop
     vertex -6.2740 -1.7242 0.0335
     vertex -6.4259 -1.7372 0.0311
     vertex -6.4177 -3.2362 -0.0230
   endloop
 endfacet
 facet normal -0.0131 -0.0361 0.9993
   outer loop
     vertex -6.4177 -3.2362 -0.0230
     vertex -5.9282 -3.1830 -0.0147
     vertex -6.2740 -1.7242 0.0335
   endloop
 endfacet
 facet normal -0.0126 -0.0363 0.9993
   outer loop
     vertex -6.4259 -1.7372 0.0311
     vertex -6.5175 -1.7286 0.0303
     vertex -6.8007 -3.2005 -0.0267
   endloop
 endfacet
 facet normal -0.0131 -0.0361 0.9993
   outer loop
     vertex -6.8007 -3.2005 -0.0267
     vertex -6.4177 -3.2362 -0.0230
     vertex -6.4259 -1.7372 0.0311
   endloop
 endfacet
 facet normal -0.0141 -0.0361 0.9992
   outer loop
     vertex -6.5175 -1.7286 0.0303
     vertex -6.6697 -1.6825 0.0298
     vertex -7.2132 -3.0794 -0.0283
   endloop
 endfacet
 facet normal -0.0144 -0.0359 0.9993
   outer loop
     vertex -7.2132 -3.0794 -0.0283
     vertex -6.8007 -3.2005 -0.0267
     vertex -6.5175 -1.7286 0.0303
   endloop
 endfacet
 facet normal -0.0179 -0.0348 0.9992
   outer loop
     vertex -6.6697 -1.6825 0.0298
     vertex -7.1026 -1.4714 0.0294
     vertex -7.8752 -2.7557 -0.0292
   endloop
 endfacet
 facet normal -0.0182 -0.0345 0.9992
   outer loop
     vertex -7.8752 -2.7557 -0.0292
     vertex -7.2132 -3.0794 -0.0283
     vertex -6.6697 -1.6825 0.0298
   endloop
 endfacet
 facet normal -0.0231 -0.0319 0.9992
   outer loop
     vertex -7.1026 -1.4714 0.0294
     vertex -7.5153 -1.1712 0.0294
     vertex -8.4989 -2.3021 -0.0294
   endloop
 endfacet
 facet normal -0.0233 -0.0315 0.9992
   outer loop
     vertex -8.4989 -2.3021 -0.0294
     vertex -7.8752 -2.7557 -0.0292
     vertex -7.1026 -1.4714 0.0294
   endloop
 endfacet
 facet normal -0.0283 -0.0277 0.9992
   outer loop
     vertex -7.5153 -1.1712 0.0294
     vertex -7.8347 -0.8410 0.0295
     vertex -9.0051 -1.7774 -0.0295
   endloop
 endfacet
 facet normal -0.0284 -0.0272 0.9992
   outer loop
     vertex -9.0051 -1.7774 -0.0295
     vertex -8.4989 -2.3021 -0.0294
     vertex -7.5153 -1.1712 0.0294
   endloop
 endfacet
 facet normal -0.0331 -0.0220 0.9992
   outer loop
     vertex -7.8347 -0.8410 0.0295
     vertex -8.1169 -0.4117 0.0296
     vertex -9.4395 -1.1168 -0.0296
   endloop
 endfacet
 facet normal -0.0331 -0.0216 0.9992
   outer loop
     vertex -9.4395 -1.1168 -0.0296
     vertex -9.0051 -1.7774 -0.0295
     vertex -7.8347 -0.8410 0.0295
   endloop
 endfacet
 facet normal -0.0367 -0.0156 0.9992
   outer loop
     vertex -8.1169 -0.4117 0.0296
     vertex -8.4915 0.4811 0.0298
     vertex -9.9158 0.0143 -0.0298
   endloop
 endfacet
 facet normal -0.0366 -0.0153 0.9992
   outer loop
     vertex -9.9158 0.0143 -0.0298
     vertex -9.4395 -1.1168 -0.0296
     vertex -8.1169 -0.4117 0.0296
   endloop
 endfacet
 facet normal -0.0386 -0.0116 0.9992
   outer loop
     vertex -8.4915 0.4811 0.0298
     vertex -8.9345 2.3246 0.0342
     vertex -10.4173 2.1062 -0.0256
   endloop
 endfacet
 facet normal -0.0382 -0.0112 0.9992
   outer loop
     vertex -10.4173 2.1062 -0.0256
     vertex -9.9158 0.0143 -0.0298
     vertex -8.4915 0.4811 0.0298
   endloop
 endfacet
 facet normal -0.0385 -0.0118 0.9992
   outer loop
     vertex -8.9345 2.3246 0.0342
     vertex -9.0022 3.5515 0.0461
     vertex -10.5001 3.4970 -0.0123
   endloop
 endfacet
 facet normal -0.0385 -0.0119 0.9992
   outer loop
     vertex -10.5001 3.4970 -0.0123
     vertex -10.4173 2.1062 -0.0256
     vertex -8.9345 2.3246 0.0342
   endloop
 endfacet
 facet normal -0.0382 0.0090 0.9992
   outer loop
     vertex -9.0022 3.5515 0.0461
     vertex -9.0211 4.4900 0.0370
     vertex -10.5079 4.2992 -0.0181
   endloop
 endfacet
 facet normal -0.0392 0.0069 0.9992
   outer loop
     vertex -10.5079 4.2992 -0.0181
     vertex -10.5001 3.4970 -0.0123
     vertex -9.0022 3.5515 0.0461
   endloop
 endfacet
 facet normal -0.0409 0.0299 0.9987
   outer loop
     vertex -9.0211 4.4900 0.0370
     vertex -9.1144 4.8806 0.0214
     vertex -10.5327 4.3944 -0.0221
   endloop
 endfacet
 facet normal -0.0410 0.0308 0.9987
   outer loop
     vertex -10.5327 4.3944 -0.0221
     vertex -10.5079 4.2992 -0.0181
     vertex -9.0211 4.4900 0.0370
   endloop
 endfacet
 facet normal -0.0361 0.0158 0.9992
   outer loop
     vertex -9.1144 4.8806 0.0214
     vertex -9.2479 5.1798 0.0119
     vertex -10.5566 4.4475 -0.0238
   endloop
 endfacet
 facet normal -0.0362 0.0161 0.9992
   outer loop
     vertex -10.5566 4.4475 -0.0238
     vertex -10.5327 4.3944 -0.0221
     vertex -9.1144 4.8806 0.0214
   endloop
 endfacet
 facet normal -0.0219 -0.0095 0.9997
   outer loop
     vertex -9.2479 5.1798 0.0119
     vertex -9.4448 5.4685 0.0103
     vertex -10.6065 4.5202 -0.0242
   endloop
 endfacet
 facet normal -0.0220 -0.0095 0.9997
   outer loop
     vertex -10.6065 4.5202 -0.0242
     vertex -10.5566 4.4475 -0.0238
     vertex -9.2479 5.1798 0.0119
   endloop
 endfacet
 facet normal -0.0081 -0.0266 0.9996
   outer loop
     vertex -9.4448 5.4685 0.0103
     vertex -9.7295 5.7622 0.0158
     vertex -10.7162 4.6331 -0.0221
   endloop
 endfacet
 facet normal -0.0083 -0.0263 0.9996
   outer loop
     vertex -10.7162 4.6331 -0.0221
     vertex -10.6065 4.5202 -0.0242
     vertex -9.4448 5.4685 0.0103
   endloop
 endfacet
 facet normal -0.0096 -0.0252 0.9996
   outer loop
     vertex -9.7295 5.7622 0.0158
     vertex -10.0208 5.9758 0.0184
     vertex -10.7899 4.6886 -0.0214
   endloop
 endfacet
 facet normal -0.0089 -0.0258 0.9996
   outer loop
     vertex -10.7899 4.6886 -0.0214
     vertex -10.7162 4.6331 -0.0221
     vertex -9.7295 5.7622 0.0158
   endloop
 endfacet
 facet normal -0.0394 -0.0088 0.9992
   outer loop
     vertex -10.0208 5.9758 0.0184
     vertex -10.2803 6.1026 0.0093
     vertex -10.9068 4.7402 -0.0274
   endloop
 endfacet
 facet normal -0.0514 -0.0001 0.9987
   outer loop
     vertex -10.9068 4.7402 -0.0274
     vertex -10.7899 4.6886 -0.0214
     vertex -10.0208 5.9758 0.0184
   endloop
 endfacet
 facet normal -0.0777 0.0075 0.9970
   outer loop
     vertex -10.2803 6.1026 0.0093
     vertex -10.7045 6.2873 -0.0251
     vertex -11.4735 5.0004 -0.0754
   endloop
 endfacet
 facet normal -0.0799 0.0099 0.9968
   outer loop
     vertex -11.4735 5.0004 -0.0754
     vertex -10.9068 4.7402 -0.0274
     vertex -10.2803 6.1026 0.0093
   endloop
 endfacet
 facet normal -0.0698 0.0019 0.9976
   outer loop
     vertex -10.7045 6.2873 -0.0251
     vertex -10.7494 6.3247 -0.0284
     vertex -11.7715 5.2290 -0.0978
   endloop
 endfacet
 facet normal -0.0718 0.0039 0.9974
   outer loop
     vertex -11.7715 5.2290 -0.0978
     vertex -11.4735 5.0004 -0.0754
     vertex -10.7045 6.2873 -0.0251
   endloop
 endfacet
 facet normal -0.0615 -0.0061 0.9981
   outer loop
     vertex -10.7494 6.3247 -0.0284
     vertex -10.7901 6.3707 -0.0306
     vertex -11.9969 5.4835 -0.1104
   endloop
 endfacet
 facet normal -0.0619 -0.0055 0.9981
   outer loop
     vertex -11.9969 5.4835 -0.1104
     vertex -11.7715 5.2290 -0.0978
     vertex -10.7494 6.3247 -0.0284
   endloop
 endfacet
 facet normal -0.0534 -0.0175 0.9984
   outer loop
     vertex -10.7901 6.3707 -0.0306
     vertex -10.8350 6.4459 -0.0317
     vertex -12.1829 5.7930 -0.1152
   endloop
 endfacet
 facet normal -0.0537 -0.0168 0.9984
   outer loop
     vertex -12.1829 5.7930 -0.1152
     vertex -11.9969 5.4835 -0.1104
     vertex -10.7901 6.3707 -0.0306
   endloop
 endfacet
 facet normal -0.0479 -0.0293 0.9984
   outer loop
     vertex -10.8350 6.4459 -0.0317
     vertex -10.9627 6.7872 -0.0278
     vertex -12.3975 6.3576 -0.1092
   endloop
 endfacet
 facet normal -0.0479 -0.0287 0.9984
   outer loop
     vertex -12.3975 6.3576 -0.1092
     vertex -12.1829 5.7930 -0.1152
     vertex -10.8350 6.4459 -0.0317
   endloop
 endfacet
 facet normal -0.0486 -0.0289 0.9984
   outer loop
     vertex -10.9627 6.7872 -0.0278
     vertex -11.3560 8.5224 0.0032
     vertex -12.8423 8.3355 -0.0746
   endloop
 endfacet
 facet normal -0.0482 -0.0283 0.9984
   outer loop
     vertex -12.8423 8.3355 -0.0746
     vertex -12.3975 6.3576 -0.1092
     vertex -10.9627 6.7872 -0.0278
   endloop
 endfacet
 facet normal -0.0505 -0.0152 0.9986
   outer loop
     vertex -11.3560 8.5224 0.0032
     vertex -11.3627 8.7571 0.0065
     vertex -12.8579 8.8506 -0.0677
   endloop
 endfacet
 facet normal -0.0504 -0.0149 0.9986
   outer loop
     vertex -12.8579 8.8506 -0.0677
     vertex -12.8423 8.3355 -0.0746
     vertex -11.3560 8.5224 0.0032
   endloop
 endfacet
 facet normal -0.0507 -0.0170 0.9986
   outer loop
     vertex -11.3627 8.7571 0.0065
     vertex -11.3401 8.9042 0.0101
     vertex -12.7932 9.2700 -0.0574
   endloop
 endfacet
 facet normal -0.0506 -0.0166 0.9986
   outer loop
     vertex -12.7932 9.2700 -0.0574
     vertex -12.8579 8.8506 -0.0677
     vertex -11.3627 8.7571 0.0065
   endloop
 endfacet
 facet normal -0.0505 -0.0156 0.9986
   outer loop
     vertex -11.3401 8.9042 0.0101
     vertex -11.2995 9.0206 0.0140
     vertex -12.6582 9.6533 -0.0448
   endloop
 endfacet
 facet normal -0.0503 -0.0151 0.9986
   outer loop
     vertex -12.6582 9.6533 -0.0448
     vertex -12.7932 9.2700 -0.0574
     vertex -11.3401 8.9042 0.0101
   endloop
 endfacet
 facet normal -0.0478 -0.0096 0.9988
   outer loop
     vertex -11.2995 9.0206 0.0140
     vertex -11.2465 9.1103 0.0174
     vertex -12.4618 9.9881 -0.0324
   endloop
 endfacet
 facet normal -0.0476 -0.0093 0.9988
   outer loop
     vertex -12.4618 9.9881 -0.0324
     vertex -12.6582 9.6533 -0.0448
     vertex -11.2995 9.0206 0.0140
   endloop
 endfacet
 facet normal -0.0425 -0.0019 0.9991
   outer loop
     vertex -11.2465 9.1103 0.0174
     vertex -11.1866 9.1789 0.0201
     vertex -12.2178 10.2675 -0.0217
   endloop
 endfacet
 facet normal -0.0421 -0.0016 0.9991
   outer loop
     vertex -12.2178 10.2675 -0.0217
     vertex -12.4618 9.9881 -0.0324
     vertex -11.2465 9.1103 0.0174
   endloop
 endfacet
 facet normal -0.0340 0.0064 0.9994
   outer loop
     vertex -11.1866 9.1789 0.0201
     vertex -11.0772 9.2651 0.0233
     vertex -11.8829 10.5298 -0.0122
   endloop
 endfacet
 facet normal -0.0334 0.0067 0.9994
   outer loop
     vertex -11.8829 10.5298 -0.0122
     vertex -12.2178 10.2675 -0.0217
     vertex -11.1866 9.1789 0.0201
   endloop
 endfacet
 facet normal -0.0217 0.0143 0.9997
   outer loop
     vertex -11.0772 9.2651 0.0233
     vertex -10.8877 9.3610 0.0260
     vertex -11.4397 10.7554 -0.0060
   endloop
 endfacet
 facet normal -0.0214 0.0144 0.9997
   outer loop
     vertex -11.4397 10.7554 -0.0060
     vertex -11.8829 10.5298 -0.0122
     vertex -11.0772 9.2651 0.0233
   endloop
 endfacet
 facet normal -0.0085 0.0197 0.9998
   outer loop
     vertex -10.8877 9.3610 0.0260
     vertex -10.3906 9.5056 0.0274
     vertex -10.6883 10.9754 -0.0041
   endloop
 endfacet
 facet normal -0.0082 0.0197 0.9998
   outer loop
     vertex -10.6883 10.9754 -0.0041
     vertex -11.4397 10.7554 -0.0060
     vertex -10.8877 9.3610 0.0260
   endloop
 endfacet
 facet normal 0.0017 0.0220 0.9998
   outer loop
     vertex -10.3906 9.5056 0.0274
     vertex -9.3856 9.6221 0.0230
     vertex -9.4395 11.1207 -0.0099
   endloop
 endfacet
 facet normal 0.0021 0.0218 0.9998
   outer loop
     vertex -9.4395 11.1207 -0.0099
     vertex -10.6883 10.9754 -0.0041
     vertex -10.3906 9.5056 0.0274
   endloop
 endfacet
 facet normal 0.0054 0.0224 0.9997
   outer loop
     vertex -9.3856 9.6221 0.0230
     vertex -9.0606 9.6096 0.0216
     vertex -8.8360 11.0923 -0.0128
   endloop
 endfacet
 facet normal 0.0059 0.0222 0.9997
   outer loop
     vertex -8.8360 11.0923 -0.0128
     vertex -9.4395 11.1207 -0.0099
     vertex -9.3856 9.6221 0.0230
   endloop
 endfacet
 facet normal 0.0086 0.0220 0.9997
   outer loop
     vertex -9.0606 9.6096 0.0216
     vertex -8.9922 9.5907 0.0214
     vertex -8.4757 10.9986 -0.0140
   endloop
 endfacet
 facet normal 0.0090 0.0218 0.9997
   outer loop
     vertex -8.4757 10.9986 -0.0140
     vertex -8.8360 11.0923 -0.0128
     vertex -9.0606 9.6096 0.0216
   endloop
 endfacet
 facet normal 0.0117 0.0210 0.9997
   outer loop
     vertex -8.9922 9.5907 0.0214
     vertex -8.9372 9.5643 0.0213
     vertex -8.1666 10.8507 -0.0148
   endloop
 endfacet
 facet normal 0.0123 0.0207 0.9997
   outer loop
     vertex -8.1666 10.8507 -0.0148
     vertex -8.4757 10.9986 -0.0140
     vertex -8.9922 9.5907 0.0214
   endloop
 endfacet
 facet normal 0.0151 0.0192 0.9997
   outer loop
     vertex -8.9372 9.5643 0.0213
     vertex -8.8093 9.4706 0.0212
     vertex -7.8115 10.5900 -0.0154
   endloop
 endfacet
 facet normal 0.0154 0.0188 0.9997
   outer loop
     vertex -7.8115 10.5900 -0.0154
     vertex -8.1666 10.8507 -0.0148
     vertex -8.9372 9.5643 0.0213
   endloop
 endfacet
 facet normal 0.0185 0.0164 0.9997
   outer loop
     vertex -8.8093 9.4706 0.0212
     vertex -8.3670 8.9890 0.0209
     vertex -7.2448 9.9836 -0.0161
   endloop
 endfacet
 facet normal 0.0186 0.0161 0.9997
   outer loop
     vertex -7.2448 9.9836 -0.0161
     vertex -7.8115 10.5900 -0.0154
     vertex -8.8093 9.4706 0.0212
   endloop
 endfacet
 facet normal 0.0170 0.0191 0.9997
   outer loop
     vertex -8.3670 8.9890 0.0209
     vertex -1.8456 1.2970 0.0571
     vertex -0.8235 2.3942 0.0188
   endloop
 endfacet
 facet normal 0.0165 0.0186 0.9997
   outer loop
     vertex -0.8235 2.3942 0.0188
     vertex -7.2448 9.9836 -0.0161
     vertex -8.3670 8.9890 0.0209
   endloop
 endfacet
 facet normal 0.0533 -0.0144 0.9985
   outer loop
     vertex -1.8456 1.2970 0.0571
     vertex -1.3444 0.9265 0.0250
     vertex -0.5691 2.2104 0.0022
   endloop
 endfacet
 facet normal 0.0540 -0.0154 0.9984
   outer loop
     vertex -0.5691 2.2104 0.0022
     vertex -0.8235 2.3942 0.0188
     vertex -1.8456 1.2970 0.0571
   endloop
 endfacet
 facet normal 0.0363 -0.0041 0.9993
   outer loop
     vertex -1.3444 0.9265 0.0250
     vertex -0.9574 0.7372 0.0102
     vertex -0.4207 2.1378 -0.0036
   endloop
 endfacet
 facet normal 0.0367 -0.0044 0.9993
   outer loop
     vertex -0.4207 2.1378 -0.0036
     vertex -0.5691 2.2104 0.0022
     vertex -1.3444 0.9265 0.0250
   endloop
 endfacet
 facet normal 0.0127 0.0050 0.9999
   outer loop
     vertex -0.9574 0.7372 0.0102
     vertex -0.5902 0.6326 0.0060
     vertex -0.3096 2.1061 -0.0049
   endloop
 endfacet
 facet normal 0.0132 0.0048 0.9999
   outer loop
     vertex -0.3096 2.1061 -0.0049
     vertex -0.4207 2.1378 -0.0036
     vertex -0.9574 0.7372 0.0102
   endloop
 endfacet
 facet normal -0.0091 0.0092 0.9999
   outer loop
     vertex -0.5902 0.6326 0.0060
     vertex -0.2327 0.5975 0.0096
     vertex -0.2252 2.0974 -0.0041
   endloop
 endfacet
 facet normal -0.0080 0.0089 0.9999
   outer loop
     vertex -0.2252 2.0974 -0.0041
     vertex -0.3096 2.1061 -0.0049
     vertex -0.5902 0.6326 0.0060
   endloop
 endfacet
 facet normal -0.0271 0.0091 0.9996
   outer loop
     vertex -0.2327 0.5975 0.0096
     vertex 0.0643 0.6214 0.0174
     vertex -0.1339 2.1082 -0.0014
   endloop
 endfacet
 facet normal -0.0308 0.0093 0.9995
   outer loop
     vertex -0.1339 2.1082 -0.0014
     vertex -0.2252 2.0974 -0.0041
     vertex -0.2327 0.5975 0.0096
   endloop
 endfacet
 facet normal -0.0404 0.0079 0.9992
   outer loop
     vertex 0.0643 0.6214 0.0174
     vertex 0.5844 0.7218 0.0377
     vertex 0.5405 2.2211 0.0240
   endloop
 endfacet
 facet normal -0.0389 0.0075 0.9992
   outer loop
     vertex 0.5405 2.2211 0.0240
     vertex -0.1339 2.1082 -0.0014
     vertex 0.0643 0.6214 0.0174
   endloop
 endfacet
 facet normal -0.0057 0.0052 1.0000
   outer loop
     vertex 0.5844 0.7218 0.0377
     vertex 0.6062 0.7145 0.0378
     vertex 0.9230 2.1806 0.0320
   endloop
 endfacet
 facet normal -0.0201 0.0085 0.9998
   outer loop
     vertex 0.9230 2.1806 0.0320
     vertex 0.5405 2.2211 0.0240
     vertex 0.5844 0.7218 0.0377
   endloop
 endfacet
 facet normal -0.0038 0.0049 1.0000
   outer loop
     vertex 0.6062 0.7145 0.0378
     vertex 0.6633 0.6963 0.0381
     vertex 1.2518 2.0761 0.0336
   endloop
 endfacet
 facet normal -0.0032 0.0046 1.0000
   outer loop
     vertex 1.2518 2.0761 0.0336
     vertex 0.9230 2.1806 0.0320
     vertex 0.6062 0.7145 0.0378
   endloop
 endfacet
 facet normal 0.0135 -0.0023 0.9999
   outer loop
     vertex 0.6633 0.6963 0.0381
     vertex 0.7168 0.6670 0.0373
     vertex 1.5527 1.9125 0.0290
   endloop
 endfacet
 facet normal 0.0138 -0.0026 0.9999
   outer loop
     vertex 1.5527 1.9125 0.0290
     vertex 1.2518 2.0761 0.0336
     vertex 0.6633 0.6963 0.0381
   endloop
 endfacet
 facet normal 0.0327 -0.0163 0.9993
   outer loop
     vertex 0.7168 0.6670 0.0373
     vertex 0.7684 0.6225 0.0349
     vertex 1.7828 1.7274 0.0198
   endloop
 endfacet
 facet normal 0.0296 -0.0132 0.9995
   outer loop
     vertex 1.7828 1.7274 0.0198
     vertex 1.5527 1.9125 0.0290
     vertex 0.7168 0.6670 0.0373
   endloop
 endfacet
 facet normal 0.0472 -0.0297 0.9984
   outer loop
     vertex 0.7684 0.6225 0.0349
     vertex 1.2689 0.1170 -0.0038
     vertex 2.1647 1.3201 -0.0102
   endloop
 endfacet
 facet normal 0.0470 -0.0294 0.9985
   outer loop
     vertex 2.1647 1.3201 -0.0102
     vertex 1.7828 1.7274 0.0198
     vertex 0.7684 0.6225 0.0349
   endloop
 endfacet
 facet normal 0.0332 -0.0196 0.9993
   outer loop
     vertex 1.2689 0.1170 -0.0038
     vertex 1.5940 -0.0587 -0.0180
     vertex 2.1549 1.3324 -0.0093
   endloop
 endfacet
 facet normal -0.0516 0.0330 -0.9981
   outer loop
     vertex 2.1549 1.3324 -0.0093
     vertex 2.1647 1.3201 -0.0102
     vertex 1.2689 0.1170 -0.0038
   endloop
 endfacet
 facet normal 0.0199 -0.0142 0.9997
   outer loop
     vertex 1.5940 -0.0587 -0.0180
     vertex 2.0122 -0.1825 -0.0281
     vertex 2.2990 1.2897 -0.0129
   endloop
 endfacet
 facet normal 0.0203 -0.0144 0.9997
   outer loop
     vertex 2.2990 1.2897 -0.0129
     vertex 2.1549 1.3324 -0.0093
     vertex 1.5940 -0.0587 -0.0180
   endloop
 endfacet
 facet normal 0.0070 -0.0117 0.9999
   outer loop
     vertex 2.0122 -0.1825 -0.0281
     vertex 3.2186 -0.3021 -0.0379
     vertex 3.2944 1.1959 -0.0209
   endloop
 endfacet
 facet normal 0.0070 -0.0117 0.9999
   outer loop
     vertex 3.2944 1.1959 -0.0209
     vertex 2.2990 1.2897 -0.0129
     vertex 2.0122 -0.1825 -0.0281
   endloop
 endfacet
 facet normal -0.0026 -0.0099 0.9999
   outer loop
     vertex 3.2186 -0.3021 -0.0379
     vertex 12.8231 -0.3369 -0.0137
     vertex 13.0516 1.1455 0.0016
   endloop
 endfacet
 facet normal -0.0024 -0.0112 0.9999
   outer loop
     vertex 13.0516 1.1455 0.0016
     vertex 3.2944 1.1959 -0.0209
     vertex 3.2186 -0.3021 -0.0379
   endloop
 endfacet
 facet normal -0.0150 -0.0072 0.9999
   outer loop
     vertex 12.8231 -0.3369 -0.0137
     vertex 12.8847 -0.3609 -0.0130
     vertex 13.4691 1.0204 0.0057
   endloop
 endfacet
 facet normal -0.0124 -0.0084 0.9999
   outer loop
     vertex 13.4691 1.0204 0.0057
     vertex 13.0516 1.1455 0.0016
     vertex 12.8231 -0.3369 -0.0137
   endloop
 endfacet
 facet normal -0.0155 -0.0068 0.9999
   outer loop
     vertex 12.8847 -0.3609 -0.0130
     vertex 12.9644 -0.4058 -0.0120
     vertex 13.7840 0.8503 0.0092
   endloop
 endfacet
 facet normal -0.0151 -0.0072 0.9999
   outer loop
     vertex 13.7840 0.8503 0.0092
     vertex 13.4691 1.0204 0.0057
     vertex 12.8847 -0.3609 -0.0130
   endloop
 endfacet
 facet normal -0.0137 -0.0078 0.9999
   outer loop
     vertex 12.9644 -0.4058 -0.0120
     vertex 13.1201 -0.5250 -0.0109
     vertex 14.1424 0.5725 0.0117
   endloop
 endfacet
 facet normal -0.0133 -0.0082 0.9999
   outer loop
     vertex 14.1424 0.5725 0.0117
     vertex 13.7840 0.8503 0.0092
     vertex 12.9644 -0.4058 -0.0120
   endloop
 endfacet
 facet normal -0.0110 -0.0101 0.9999
   outer loop
     vertex 13.1201 -0.5250 -0.0109
     vertex 13.1776 -0.5893 -0.0109
     vertex 14.3857 0.2996 0.0114
   endloop
 endfacet
 facet normal -0.0107 -0.0106 0.9999
   outer loop
     vertex 14.3857 0.2996 0.0114
     vertex 14.1424 0.5725 0.0117
     vertex 13.1201 -0.5250 -0.0109
   endloop
 endfacet
 facet normal -0.0092 -0.0120 0.9999
   outer loop
     vertex 13.1776 -0.5893 -0.0109
     vertex 13.1881 -0.6069 -0.0110
     vertex 14.5406 0.0414 0.0093
   endloop
 endfacet
 facet normal -0.0087 -0.0133 0.9999
   outer loop
     vertex 14.5406 0.0414 0.0093
     vertex 14.3857 0.2996 0.0114
     vertex 13.1776 -0.5893 -0.0109
   endloop
 endfacet
 facet normal -0.0081 -0.0131 0.9999
   outer loop
     vertex 13.1881 -0.6069 -0.0110
     vertex 13.1904 -0.6138 -0.0111
     vertex 14.6383 -0.2223 0.0058
   endloop
 endfacet
 facet normal -0.0073 -0.0161 0.9998
   outer loop
     vertex 14.6383 -0.2223 0.0058
     vertex 14.5406 0.0414 0.0093
     vertex 13.1881 -0.6069 -0.0110
   endloop
 endfacet
 facet normal -0.0070 -0.0166 0.9998
   outer loop
     vertex 13.1904 -0.6138 -0.0111
     vertex 13.1971 -0.6526 -0.0117
     vertex 14.6914 -0.5228 0.0009
   endloop
 endfacet
 facet normal -0.0069 -0.0175 0.9998
   outer loop
     vertex 14.6914 -0.5228 0.0009
     vertex 14.6383 -0.2223 0.0058
     vertex 13.1904 -0.6138 -0.0111
   endloop
 endfacet
 facet normal -0.0070 -0.0148 0.9999
   outer loop
     vertex 13.1971 -0.6526 -0.0117
     vertex 13.1970 -0.7318 -0.0128
     vertex 14.6911 -0.8648 -0.0044
   endloop
 endfacet
 facet normal -0.0071 -0.0154 0.9999
   outer loop
     vertex 14.6911 -0.8648 -0.0044
     vertex 14.6914 -0.5228 0.0009
     vertex 13.1971 -0.6526 -0.0117
   endloop
 endfacet
 facet normal -0.0061 -0.0059 1.0000
   outer loop
     vertex 13.1970 -0.7318 -0.0128
     vertex 13.1801 -0.8280 -0.0135
     vertex 14.6269 -1.2241 -0.0070
   endloop
 endfacet
 facet normal -0.0062 -0.0062 1.0000
   outer loop
     vertex 14.6269 -1.2241 -0.0070
     vertex 14.6911 -0.8648 -0.0044
     vertex 13.1970 -0.7318 -0.0128
   endloop
 endfacet
 facet normal -0.0018 0.0094 1.0000
   outer loop
     vertex 13.1801 -0.8280 -0.0135
     vertex 13.1664 -0.8653 -0.0132
     vertex 14.5156 -1.5207 -0.0045
   endloop
 endfacet
 facet normal -0.0021 0.0090 1.0000
   outer loop
     vertex 14.5156 -1.5207 -0.0045
     vertex 14.6269 -1.2241 -0.0070
     vertex 13.1801 -0.8280 -0.0135
   endloop
 endfacet
 facet normal 0.0010 0.0148 0.9999
   outer loop
     vertex 13.1664 -0.8653 -0.0132
     vertex 13.1510 -0.8905 -0.0128
     vertex 14.3549 -1.7852 -0.0008
   endloop
 endfacet
 facet normal 0.0004 0.0140 0.9999
   outer loop
     vertex 14.3549 -1.7852 -0.0008
     vertex 14.5156 -1.5207 -0.0045
     vertex 13.1664 -0.8653 -0.0132
   endloop
 endfacet
 facet normal -0.0077 0.0031 1.0000
   outer loop
     vertex 13.1510 -0.8905 -0.0128
     vertex 13.0424 -1.0101 -0.0132
     vertex 14.0747 -2.0984 -0.0019
   endloop
 endfacet
 facet normal -0.0076 0.0032 1.0000
   outer loop
     vertex 14.0747 -2.0984 -0.0019
     vertex 14.3549 -1.7852 -0.0008
     vertex 13.1510 -0.8905 -0.0128
   endloop
 endfacet
 facet normal -0.0197 -0.0085 0.9998
   outer loop
     vertex 13.0424 -1.0101 -0.0132
     vertex 12.8051 -1.2024 -0.0195
     vertex 13.6398 -2.4487 -0.0137
   endloop
 endfacet
 facet normal -0.0201 -0.0087 0.9998
   outer loop
     vertex 13.6398 -2.4487 -0.0137
     vertex 14.0747 -2.0984 -0.0019
     vertex 13.0424 -1.0101 -0.0132
   endloop
 endfacet
 facet normal -0.0146 -0.0052 0.9999
   outer loop
     vertex 12.8051 -1.2024 -0.0195
     vertex 12.6677 -1.2781 -0.0219
     vertex 13.2620 -2.6553 -0.0204
   endloop
 endfacet
 facet normal -0.0149 -0.0053 0.9999
   outer loop
     vertex 13.2620 -2.6553 -0.0204
     vertex 13.6398 -2.4487 -0.0137
     vertex 12.8051 -1.2024 -0.0195
   endloop
 endfacet
 facet normal -0.0017 0.0003 1.0000
   outer loop
     vertex 12.6677 -1.2781 -0.0219
     vertex 12.5062 -1.3308 -0.0222
     vertex 12.8276 -2.7959 -0.0212
   endloop
 endfacet
 facet normal -0.0020 0.0003 1.0000
   outer loop
     vertex 12.8276 -2.7959 -0.0212
     vertex 13.2620 -2.6553 -0.0204
     vertex 12.6677 -1.2781 -0.0219
   endloop
 endfacet
 facet normal 0.0083 0.0021 1.0000
   outer loop
     vertex 12.5062 -1.3308 -0.0222
     vertex 11.5137 -1.4457 -0.0137
     vertex 11.6274 -2.9413 -0.0114
   endloop
 endfacet
 facet normal 0.0079 0.0024 1.0000
   outer loop
     vertex 11.6274 -2.9413 -0.0114
     vertex 12.8276 -2.7959 -0.0212
     vertex 12.5062 -1.3308 -0.0222
   endloop
 endfacet
 facet normal 0.0019 0.0001 1.0000
   outer loop
     vertex 11.5137 -1.4457 -0.0137
     vertex 4.2671 -1.6878 0.0000
     vertex 4.3226 -3.1868 0.0000
   endloop
 endfacet
 facet normal 0.0015 0.0016 1.0000
   outer loop
     vertex 4.3226 -3.1868 0.0000
     vertex 11.6274 -2.9413 -0.0114
     vertex 11.5137 -1.4457 -0.0137
   endloop
 endfacet
endsolid
