solid Cheetah3Dfile
 facet normal 0.0000 -0.0000 1.0000
   outer loop
     vertex 11.1528 6.7493 0.0000
     vertex 11.1528 6.2790 0.0000
     vertex 11.2294 6.2790 0.0000
   endloop
 endfacet
 facet normal 0.0000 -0.0000 1.0000
   outer loop
     vertex 11.1528 6.7493 0.0000
     vertex 11.2294 6.2790 0.0000
     vertex 11.2294 6.8571 0.0000
   endloop
 endfacet
 facet normal 0.0000 -0.0000 1.0000
   outer loop
     vertex 11.1528 6.7493 0.0000
     vertex 11.2294 6.8571 0.0000
     vertex 11.1278 6.8571 0.0000
   endloop
 endfacet
 facet normal -0.0000 -0.0000 1.0000
   outer loop
     vertex 11.1528 6.7493 0.0000
     vertex 11.1278 6.8571 0.0000
     vertex 10.9630 6.4099 0.0000
   endloop
 endfacet
 facet normal -0.0000 -0.0000 1.0000
   outer loop
     vertex 10.9934 6.3177 0.0000
     vertex 11.1528 6.7493 0.0000
     vertex 10.9630 6.4099 0.0000
   endloop
 endfacet
 facet normal 0.0000 -0.0000 1.0000
   outer loop
     vertex 10.9141 6.3177 0.0000
     vertex 10.9934 6.3177 0.0000
     vertex 10.9630 6.4099 0.0000
   endloop
 endfacet
 facet normal 0.0000 -0.0000 1.0000
   outer loop
     vertex 10.7595 6.7505 0.0000
     vertex 10.9141 6.3177 0.0000
     vertex 10.9630 6.4099 0.0000
   endloop
 endfacet
 facet normal 0.0000 -0.0000 1.0000
   outer loop
     vertex 10.7595 6.7505 0.0000
     vertex 10.9630 6.4099 0.0000
     vertex 10.8028 6.8571 0.0000
   endloop
 endfacet
 facet normal 0.0000 -0.0000 1.0000
   outer loop
     vertex 10.7595 6.7505 0.0000
     vertex 10.8028 6.8571 0.0000
     vertex 10.6891 6.8571 0.0000
   endloop
 endfacet
 facet normal -0.0000 -0.0000 1.0000
   outer loop
     vertex 10.7595 6.7505 0.0000
     vertex 10.6891 6.8571 0.0000
     vertex 10.6891 6.2790 0.0000
   endloop
 endfacet
 facet normal 0.0000 -0.0000 1.0000
   outer loop
     vertex 10.7595 6.7505 0.0000
     vertex 10.6891 6.2790 0.0000
     vertex 10.7595 6.2790 0.0000
   endloop
 endfacet
 facet normal 0.0000 -0.0000 1.0000
   outer loop
     vertex 11.3993 6.6506 0.0000
     vertex 11.3470 6.4911 0.0000
     vertex 11.4290 6.4911 0.0000
   endloop
 endfacet
 facet normal -0.0000 -0.0000 1.0000
   outer loop
     vertex 11.3993 6.6506 0.0000
     vertex 11.4290 6.4911 0.0000
     vertex 11.4321 6.5393 0.0000
   endloop
 endfacet
 facet normal 0.0000 -0.0000 1.0000
   outer loop
     vertex 11.3993 6.6506 0.0000
     vertex 11.4321 6.5393 0.0000
     vertex 11.4723 6.6286 0.0000
   endloop
 endfacet
 facet normal 0.0000 -0.0000 1.0000
   outer loop
     vertex 11.4014 6.6530 0.0000
     vertex 11.3993 6.6506 0.0000
     vertex 11.4723 6.6286 0.0000
   endloop
 endfacet
 facet normal -0.0000 -0.0000 1.0000
   outer loop
     vertex 11.5169 6.7107 0.0000
     vertex 11.4014 6.6530 0.0000
     vertex 11.4723 6.6286 0.0000
   endloop
 endfacet
 facet normal 0.0000 -0.0000 1.0000
   outer loop
     vertex 11.5169 6.7107 0.0000
     vertex 11.4723 6.6286 0.0000
     vertex 11.5493 6.6548 0.0000
   endloop
 endfacet
 facet normal 0.0000 -0.0000 1.0000
   outer loop
     vertex 11.5493 6.7126 0.0000
     vertex 11.5169 6.7107 0.0000
     vertex 11.5493 6.6548 0.0000
   endloop
 endfacet
 facet normal -0.0000 -0.0000 1.0000
   outer loop
     vertex 11.6811 6.6685 0.0000
     vertex 11.5493 6.7126 0.0000
     vertex 11.5493 6.6548 0.0000
   endloop
 endfacet
 facet normal -0.0000 -0.0000 1.0000
   outer loop
     vertex 11.6811 6.6685 0.0000
     vertex 11.5493 6.6548 0.0000
     vertex 11.5678 6.6538 0.0000
   endloop
 endfacet
 facet normal 0.0000 -0.0000 1.0000
   outer loop
     vertex 11.6811 6.6685 0.0000
     vertex 11.5678 6.6538 0.0000
     vertex 11.6321 6.6233 0.0000
   endloop
 endfacet
 facet normal 0.0000 -0.0000 1.0000
   outer loop
     vertex 11.4290 6.4911 0.0000
     vertex 11.3470 6.4911 0.0000
     vertex 11.3470 6.4831 0.0000
   endloop
 endfacet
 facet normal 0.0000 -0.0000 1.0000
   outer loop
     vertex 11.4290 6.4911 0.0000
     vertex 11.3470 6.4831 0.0000
     vertex 11.4013 6.3296 0.0000
   endloop
 endfacet
 facet normal -0.0000 -0.0000 1.0000
   outer loop
     vertex 11.4662 6.3588 0.0000
     vertex 11.4290 6.4911 0.0000
     vertex 11.4013 6.3296 0.0000
   endloop
 endfacet
 facet normal -0.0000 -0.0000 1.0000
   outer loop
     vertex 11.4662 6.3588 0.0000
     vertex 11.4013 6.3296 0.0000
     vertex 11.4172 6.3139 0.0000
   endloop
 endfacet
 facet normal -0.0000 -0.0000 1.0000
   outer loop
     vertex 11.4662 6.3588 0.0000
     vertex 11.4172 6.3139 0.0000
     vertex 11.5466 6.2692 0.0000
   endloop
 endfacet
 facet normal 0.0000 -0.0000 1.0000
   outer loop
     vertex 11.5295 6.3281 0.0000
     vertex 11.4662 6.3588 0.0000
     vertex 11.5466 6.2692 0.0000
   endloop
 endfacet
 facet normal -0.0000 -0.0000 1.0000
   outer loop
     vertex 11.5477 6.3271 0.0000
     vertex 11.5295 6.3281 0.0000
     vertex 11.5466 6.2692 0.0000
   endloop
 endfacet
 facet normal 0.0000 -0.0000 1.0000
   outer loop
     vertex 11.5477 6.3271 0.0000
     vertex 11.5466 6.2692 0.0000
     vertex 11.5797 6.2712 0.0000
   endloop
 endfacet
 facet normal 0.0000 -0.0000 1.0000
   outer loop
     vertex 11.6260 6.3534 0.0000
     vertex 11.5477 6.3271 0.0000
     vertex 11.5797 6.2712 0.0000
   endloop
 endfacet
 facet normal -0.0000 -0.0000 1.0000
   outer loop
     vertex 11.6260 6.3534 0.0000
     vertex 11.5797 6.2712 0.0000
     vertex 11.6970 6.3286 0.0000
   endloop
 endfacet
 facet normal -0.0000 -0.0000 1.0000
   outer loop
     vertex 11.6669 6.4434 0.0000
     vertex 11.6260 6.3534 0.0000
     vertex 11.6970 6.3286 0.0000
   endloop
 endfacet
 facet normal -0.0000 -0.0000 1.0000
   outer loop
     vertex 11.6669 6.4434 0.0000
     vertex 11.6970 6.3286 0.0000
     vertex 11.7012 6.3334 0.0000
   endloop
 endfacet
 facet normal -0.0000 -0.0000 1.0000
   outer loop
     vertex 11.6669 6.4434 0.0000
     vertex 11.7012 6.3334 0.0000
     vertex 11.7516 6.4919 0.0000
   endloop
 endfacet
 facet normal 0.0000 -0.0000 1.0000
   outer loop
     vertex 11.6700 6.4919 0.0000
     vertex 11.6669 6.4434 0.0000
     vertex 11.7516 6.4919 0.0000
   endloop
 endfacet
 facet normal 0.0000 -0.0000 1.0000
   outer loop
     vertex 11.6700 6.4919 0.0000
     vertex 11.7516 6.4919 0.0000
     vertex 11.7514 6.5039 0.0000
   endloop
 endfacet
 facet normal 0.0000 -0.0000 1.0000
   outer loop
     vertex 11.6700 6.4919 0.0000
     vertex 11.7514 6.5039 0.0000
     vertex 11.6972 6.6530 0.0000
   endloop
 endfacet
 facet normal 0.0000 -0.0000 1.0000
   outer loop
     vertex 11.6321 6.6233 0.0000
     vertex 11.6700 6.4919 0.0000
     vertex 11.6972 6.6530 0.0000
   endloop
 endfacet
 facet normal 0.0000 -0.0000 1.0000
   outer loop
     vertex 11.6321 6.6233 0.0000
     vertex 11.6972 6.6530 0.0000
     vertex 11.6811 6.6685 0.0000
   endloop
 endfacet
 facet normal 0.0000 -0.0000 1.0000
   outer loop
     vertex 11.9489 6.6235 0.0000
     vertex 11.9489 6.7032 0.0000
     vertex 11.8720 6.7032 0.0000
   endloop
 endfacet
 facet normal -0.0000 -0.0000 1.0000
   outer loop
     vertex 11.9489 6.6235 0.0000
     vertex 11.8720 6.7032 0.0000
     vertex 11.8720 6.2790 0.0000
   endloop
 endfacet
 facet normal 0.0000 -0.0000 1.0000
   outer loop
     vertex 11.8720 6.2790 0.0000
     vertex 11.9489 6.2790 0.0000
     vertex 11.9489 6.5536 0.0000
   endloop
 endfacet
 facet normal 0.0000 -0.0000 1.0000
   outer loop
     vertex 11.9489 6.6235 0.0000
     vertex 11.8720 6.2790 0.0000
     vertex 11.9489 6.5536 0.0000
   endloop
 endfacet
 facet normal -0.0000 -0.0000 1.0000
   outer loop
     vertex 11.9489 6.6235 0.0000
     vertex 11.9489 6.5536 0.0000
     vertex 11.9976 6.6106 0.0000
   endloop
 endfacet
 facet normal 0.0000 -0.0000 1.0000
   outer loop
     vertex 12.0573 6.7075 0.0000
     vertex 11.9489 6.6235 0.0000
     vertex 11.9976 6.6106 0.0000
   endloop
 endfacet
 facet normal -0.0000 -0.0000 1.0000
   outer loop
     vertex 12.0573 6.7075 0.0000
     vertex 11.9976 6.6106 0.0000
     vertex 12.0821 6.6462 0.0000
   endloop
 endfacet
 facet normal -0.0000 -0.0000 1.0000
   outer loop
     vertex 12.0981 6.7126 0.0000
     vertex 12.0573 6.7075 0.0000
     vertex 12.0821 6.6462 0.0000
   endloop
 endfacet
 facet normal 0.0000 -0.0000 1.0000
   outer loop
     vertex 12.0981 6.7126 0.0000
     vertex 12.0821 6.6462 0.0000
     vertex 12.1018 6.6439 0.0000
   endloop
 endfacet
 facet normal -0.0000 -0.0000 1.0000
   outer loop
     vertex 12.1778 6.6855 0.0000
     vertex 12.0981 6.7126 0.0000
     vertex 12.1018 6.6439 0.0000
   endloop
 endfacet
 facet normal 0.0000 -0.0000 1.0000
   outer loop
     vertex 12.1778 6.6855 0.0000
     vertex 12.1018 6.6439 0.0000
     vertex 12.1280 6.6261 0.0000
   endloop
 endfacet
 facet normal 0.0000 -0.0000 1.0000
   outer loop
     vertex 12.1860 6.6776 0.0000
     vertex 12.1778 6.6855 0.0000
     vertex 12.1280 6.6261 0.0000
   endloop
 endfacet
 facet normal 0.0000 -0.0000 1.0000
   outer loop
     vertex 12.2186 6.5930 0.0000
     vertex 12.1860 6.6776 0.0000
     vertex 12.1280 6.6261 0.0000
   endloop
 endfacet
 facet normal 0.0000 -0.0000 1.0000
   outer loop
     vertex 12.2186 6.5930 0.0000
     vertex 12.1280 6.6261 0.0000
     vertex 12.1419 6.5587 0.0000
   endloop
 endfacet
 facet normal -0.0000 -0.0000 1.0000
   outer loop
     vertex 12.2188 6.5837 0.0000
     vertex 12.2186 6.5930 0.0000
     vertex 12.1419 6.5587 0.0000
   endloop
 endfacet
 facet normal 0.0000 -0.0000 1.0000
   outer loop
     vertex 12.2188 6.2790 0.0000
     vertex 12.2188 6.5837 0.0000
     vertex 12.1419 6.5587 0.0000
   endloop
 endfacet
 facet normal 0.0000 -0.0000 1.0000
   outer loop
     vertex 12.2188 6.2790 0.0000
     vertex 12.1419 6.5587 0.0000
     vertex 12.1419 6.2790 0.0000
   endloop
 endfacet
 facet normal 0.0000 -0.0000 1.0000
   outer loop
     vertex 12.3603 6.4672 0.0000
     vertex 12.3317 6.3857 0.0000
     vertex 12.4087 6.3982 0.0000
   endloop
 endfacet
 facet normal 0.0000 -0.0000 1.0000
   outer loop
     vertex 12.3603 6.4672 0.0000
     vertex 12.4087 6.3982 0.0000
     vertex 12.4117 6.4188 0.0000
   endloop
 endfacet
 facet normal 0.0000 -0.0000 1.0000
   outer loop
     vertex 12.3684 6.6810 0.0000
     vertex 12.3684 6.6173 0.0000
     vertex 12.5001 6.6548 0.0000
   endloop
 endfacet
 facet normal -0.0000 -0.0000 1.0000
   outer loop
     vertex 12.5141 6.7126 0.0000
     vertex 12.3684 6.6810 0.0000
     vertex 12.5001 6.6548 0.0000
   endloop
 endfacet
 facet normal -0.0000 -0.0000 1.0000
   outer loop
     vertex 12.5141 6.7126 0.0000
     vertex 12.5001 6.6548 0.0000
     vertex 12.5198 6.6533 0.0000
   endloop
 endfacet
 facet normal 0.0000 -0.0000 1.0000
   outer loop
     vertex 12.6163 6.6831 0.0000
     vertex 12.5141 6.7126 0.0000
     vertex 12.5198 6.6533 0.0000
   endloop
 endfacet
 facet normal -0.0000 -0.0000 1.0000
   outer loop
     vertex 12.6163 6.6831 0.0000
     vertex 12.5198 6.6533 0.0000
     vertex 12.5598 6.6333 0.0000
   endloop
 endfacet
 facet normal 0.0000 -0.0000 1.0000
   outer loop
     vertex 12.3901 6.4925 0.0000
     vertex 12.3603 6.4672 0.0000
     vertex 12.4117 6.4188 0.0000
   endloop
 endfacet
 facet normal -0.0000 -0.0000 1.0000
   outer loop
     vertex 12.3901 6.4925 0.0000
     vertex 12.4117 6.4188 0.0000
     vertex 12.4477 6.4612 0.0000
   endloop
 endfacet
 facet normal -0.0000 -0.0000 1.0000
   outer loop
     vertex 12.5575 6.5298 0.0000
     vertex 12.3901 6.4925 0.0000
     vertex 12.4477 6.4612 0.0000
   endloop
 endfacet
 facet normal 0.0000 -0.0000 1.0000
   outer loop
     vertex 12.5575 6.5298 0.0000
     vertex 12.4477 6.4612 0.0000
     vertex 12.5501 6.4853 0.0000
   endloop
 endfacet
 facet normal -0.0000 -0.0000 1.0000
   outer loop
     vertex 12.5575 6.5298 0.0000
     vertex 12.5501 6.4853 0.0000
     vertex 12.5759 6.4845 0.0000
   endloop
 endfacet
 facet normal 0.0000 -0.0000 1.0000
   outer loop
     vertex 12.5759 6.5298 0.0000
     vertex 12.5575 6.5298 0.0000
     vertex 12.5759 6.4845 0.0000
   endloop
 endfacet
 facet normal 0.0000 -0.0000 1.0000
   outer loop
     vertex 12.7138 6.2817 0.0000
     vertex 12.7083 6.3243 0.0000
     vertex 12.6934 6.3228 0.0000
   endloop
 endfacet
 facet normal 0.0000 -0.0000 1.0000
   outer loop
     vertex 12.6559 6.2692 0.0000
     vertex 12.7138 6.2817 0.0000
     vertex 12.6934 6.3228 0.0000
   endloop
 endfacet
 facet normal -0.0000 -0.0000 1.0000
   outer loop
     vertex 12.6559 6.2692 0.0000
     vertex 12.6934 6.3228 0.0000
     vertex 12.6887 6.3230 0.0000
   endloop
 endfacet
 facet normal -0.0000 -0.0000 1.0000
   outer loop
     vertex 12.6559 6.2692 0.0000
     vertex 12.6887 6.3230 0.0000
     vertex 12.6674 6.3333 0.0000
   endloop
 endfacet
 facet normal -0.0000 -0.0000 1.0000
   outer loop
     vertex 12.6132 6.2839 0.0000
     vertex 12.6559 6.2692 0.0000
     vertex 12.6674 6.3333 0.0000
   endloop
 endfacet
 facet normal 0.0000 -0.0000 1.0000
   outer loop
     vertex 12.5872 6.3329 0.0000
     vertex 12.6132 6.2839 0.0000
     vertex 12.6674 6.3333 0.0000
   endloop
 endfacet
 facet normal 0.0000 -0.0000 1.0000
   outer loop
     vertex 12.5872 6.3329 0.0000
     vertex 12.6674 6.3333 0.0000
     vertex 12.6528 6.3888 0.0000
   endloop
 endfacet
 facet normal 0.0000 -0.0000 1.0000
   outer loop
     vertex 12.6190 6.6806 0.0000
     vertex 12.6163 6.6831 0.0000
     vertex 12.5598 6.6333 0.0000
   endloop
 endfacet
 facet normal 0.0000 -0.0000 1.0000
   outer loop
     vertex 12.6517 6.6041 0.0000
     vertex 12.6190 6.6806 0.0000
     vertex 12.5598 6.6333 0.0000
   endloop
 endfacet
 facet normal -0.0000 -0.0000 1.0000
   outer loop
     vertex 12.6517 6.6041 0.0000
     vertex 12.5598 6.6333 0.0000
     vertex 12.5759 6.5810 0.0000
   endloop
 endfacet
 facet normal 0.0000 -0.0000 1.0000
   outer loop
     vertex 12.6528 6.5810 0.0000
     vertex 12.6517 6.6041 0.0000
     vertex 12.5759 6.5810 0.0000
   endloop
 endfacet
 facet normal 0.0000 -0.0000 1.0000
   outer loop
     vertex 12.6528 6.5810 0.0000
     vertex 12.5759 6.5810 0.0000
     vertex 12.5759 6.5298 0.0000
   endloop
 endfacet
 facet normal 0.0000 -0.0000 1.0000
   outer loop
     vertex 12.6528 6.3888 0.0000
     vertex 12.6528 6.5810 0.0000
     vertex 12.5759 6.5298 0.0000
   endloop
 endfacet
 facet normal 0.0000 -0.0000 1.0000
   outer loop
     vertex 12.6528 6.3888 0.0000
     vertex 12.5759 6.5298 0.0000
     vertex 12.5759 6.4845 0.0000
   endloop
 endfacet
 facet normal -0.0000 -0.0000 1.0000
   outer loop
     vertex 12.6528 6.3888 0.0000
     vertex 12.5759 6.4845 0.0000
     vertex 12.5759 6.3747 0.0000
   endloop
 endfacet
 facet normal -0.0000 -0.0000 1.0000
   outer loop
     vertex 12.5872 6.3329 0.0000
     vertex 12.6528 6.3888 0.0000
     vertex 12.5759 6.3747 0.0000
   endloop
 endfacet
 facet normal 0.0000 -0.0000 1.0000
   outer loop
     vertex 12.5872 6.3329 0.0000
     vertex 12.5759 6.3747 0.0000
     vertex 12.4759 6.3321 0.0000
   endloop
 endfacet
 facet normal 0.0000 -0.0000 1.0000
   outer loop
     vertex 12.4566 6.2693 0.0000
     vertex 12.5872 6.3329 0.0000
     vertex 12.4759 6.3321 0.0000
   endloop
 endfacet
 facet normal -0.0000 -0.0000 1.0000
   outer loop
     vertex 12.4566 6.2693 0.0000
     vertex 12.4759 6.3321 0.0000
     vertex 12.4714 6.3323 0.0000
   endloop
 endfacet
 facet normal 0.0000 -0.0000 1.0000
   outer loop
     vertex 12.4087 6.3982 0.0000
     vertex 12.3317 6.3857 0.0000
     vertex 12.3324 6.3719 0.0000
   endloop
 endfacet
 facet normal -0.0000 -0.0000 1.0000
   outer loop
     vertex 12.4087 6.3982 0.0000
     vertex 12.3324 6.3719 0.0000
     vertex 12.3665 6.3023 0.0000
   endloop
 endfacet
 facet normal -0.0000 -0.0000 1.0000
   outer loop
     vertex 12.4245 6.3552 0.0000
     vertex 12.4087 6.3982 0.0000
     vertex 12.3665 6.3023 0.0000
   endloop
 endfacet
 facet normal 0.0000 -0.0000 1.0000
   outer loop
     vertex 12.4245 6.3552 0.0000
     vertex 12.3665 6.3023 0.0000
     vertex 12.3707 6.2984 0.0000
   endloop
 endfacet
 facet normal -0.0000 -0.0000 1.0000
   outer loop
     vertex 12.4245 6.3552 0.0000
     vertex 12.3707 6.2984 0.0000
     vertex 12.4540 6.2692 0.0000
   endloop
 endfacet
 facet normal 0.0000 -0.0000 1.0000
   outer loop
     vertex 12.4282 6.3513 0.0000
     vertex 12.4245 6.3552 0.0000
     vertex 12.4540 6.2692 0.0000
   endloop
 endfacet
 facet normal 0.0000 -0.0000 1.0000
   outer loop
     vertex 12.4714 6.3323 0.0000
     vertex 12.4282 6.3513 0.0000
     vertex 12.4540 6.2692 0.0000
   endloop
 endfacet
 facet normal 0.0000 -0.0000 1.0000
   outer loop
     vertex 12.4714 6.3323 0.0000
     vertex 12.4540 6.2692 0.0000
     vertex 12.4566 6.2693 0.0000
   endloop
 endfacet
 facet normal -0.0000 -0.0000 1.0000
   outer loop
     vertex 13.1048 6.2919 0.0000
     vertex 13.1048 6.3583 0.0000
     vertex 12.9962 6.3314 0.0000
   endloop
 endfacet
 facet normal 0.0000 -0.0000 1.0000
   outer loop
     vertex 12.9759 6.2692 0.0000
     vertex 13.1048 6.2919 0.0000
     vertex 12.9962 6.3314 0.0000
   endloop
 endfacet
 facet normal 0.0000 -0.0000 1.0000
   outer loop
     vertex 12.9759 6.2692 0.0000
     vertex 12.9962 6.3314 0.0000
     vertex 12.9733 6.3331 0.0000
   endloop
 endfacet
 facet normal -0.0000 -0.0000 1.0000
   outer loop
     vertex 12.8522 6.3142 0.0000
     vertex 12.9759 6.2692 0.0000
     vertex 12.9733 6.3331 0.0000
   endloop
 endfacet
 facet normal 0.0000 -0.0000 1.0000
   outer loop
     vertex 12.8522 6.3142 0.0000
     vertex 12.9733 6.3331 0.0000
     vertex 12.9001 6.3755 0.0000
   endloop
 endfacet
 facet normal -0.0000 -0.0000 1.0000
   outer loop
     vertex 12.8333 6.3329 0.0000
     vertex 12.8522 6.3142 0.0000
     vertex 12.9001 6.3755 0.0000
   endloop
 endfacet
 facet normal 0.0000 -0.0000 1.0000
   outer loop
     vertex 12.9938 6.6536 0.0000
     vertex 13.1001 6.6345 0.0000
     vertex 13.1001 6.6989 0.0000
   endloop
 endfacet
 facet normal -0.0000 -0.0000 1.0000
   outer loop
     vertex 12.9938 6.6536 0.0000
     vertex 13.1001 6.6989 0.0000
     vertex 12.9891 6.7126 0.0000
   endloop
 endfacet
 facet normal -0.0000 -0.0000 1.0000
   outer loop
     vertex 12.7767 6.4896 0.0000
     vertex 12.8333 6.3329 0.0000
     vertex 12.9001 6.3755 0.0000
   endloop
 endfacet
 facet normal 0.0000 -0.0000 1.0000
   outer loop
     vertex 12.7767 6.4896 0.0000
     vertex 12.9001 6.3755 0.0000
     vertex 12.8634 6.4911 0.0000
   endloop
 endfacet
 facet normal -0.0000 -0.0000 1.0000
   outer loop
     vertex 12.9938 6.6536 0.0000
     vertex 12.9891 6.7126 0.0000
     vertex 12.9619 6.7115 0.0000
   endloop
 endfacet
 facet normal 0.0000 -0.0000 1.0000
   outer loop
     vertex 12.9143 6.6252 0.0000
     vertex 12.9938 6.6536 0.0000
     vertex 12.9619 6.7115 0.0000
   endloop
 endfacet
 facet normal -0.0000 -0.0000 1.0000
   outer loop
     vertex 12.9143 6.6252 0.0000
     vertex 12.9619 6.7115 0.0000
     vertex 12.8327 6.6548 0.0000
   endloop
 endfacet
 facet normal -0.0000 -0.0000 1.0000
   outer loop
     vertex 12.8991 6.6093 0.0000
     vertex 12.9143 6.6252 0.0000
     vertex 12.8327 6.6548 0.0000
   endloop
 endfacet
 facet normal 0.0000 -0.0000 1.0000
   outer loop
     vertex 12.7766 6.4935 0.0000
     vertex 12.7767 6.4896 0.0000
     vertex 12.8634 6.4911 0.0000
   endloop
 endfacet
 facet normal 0.0000 -0.0000 1.0000
   outer loop
     vertex 12.8262 6.6477 0.0000
     vertex 12.7766 6.4935 0.0000
     vertex 12.8634 6.4911 0.0000
   endloop
 endfacet
 facet normal -0.0000 -0.0000 1.0000
   outer loop
     vertex 12.8262 6.6477 0.0000
     vertex 12.8634 6.4911 0.0000
     vertex 12.8991 6.6093 0.0000
   endloop
 endfacet
 facet normal 0.0000 -0.0000 1.0000
   outer loop
     vertex 12.8262 6.6477 0.0000
     vertex 12.8991 6.6093 0.0000
     vertex 12.8327 6.6548 0.0000
   endloop
 endfacet
 facet normal 0.0000 -0.0000 1.0000
   outer loop
     vertex 13.2387 6.6506 0.0000
     vertex 13.1864 6.4911 0.0000
     vertex 13.2684 6.4911 0.0000
   endloop
 endfacet
 facet normal -0.0000 -0.0000 1.0000
   outer loop
     vertex 13.2387 6.6506 0.0000
     vertex 13.2684 6.4911 0.0000
     vertex 13.2715 6.5393 0.0000
   endloop
 endfacet
 facet normal 0.0000 -0.0000 1.0000
   outer loop
     vertex 13.2387 6.6506 0.0000
     vertex 13.2715 6.5393 0.0000
     vertex 13.3118 6.6286 0.0000
   endloop
 endfacet
 facet normal 0.0000 -0.0000 1.0000
   outer loop
     vertex 13.2409 6.6530 0.0000
     vertex 13.2387 6.6506 0.0000
     vertex 13.3118 6.6286 0.0000
   endloop
 endfacet
 facet normal -0.0000 -0.0000 1.0000
   outer loop
     vertex 13.3564 6.7107 0.0000
     vertex 13.2409 6.6530 0.0000
     vertex 13.3118 6.6286 0.0000
   endloop
 endfacet
 facet normal 0.0000 -0.0000 1.0000
   outer loop
     vertex 13.3564 6.7107 0.0000
     vertex 13.3118 6.6286 0.0000
     vertex 13.3888 6.6548 0.0000
   endloop
 endfacet
 facet normal 0.0000 -0.0000 1.0000
   outer loop
     vertex 13.3888 6.7126 0.0000
     vertex 13.3564 6.7107 0.0000
     vertex 13.3888 6.6548 0.0000
   endloop
 endfacet
 facet normal -0.0000 -0.0000 1.0000
   outer loop
     vertex 13.5206 6.6685 0.0000
     vertex 13.3888 6.7126 0.0000
     vertex 13.3888 6.6548 0.0000
   endloop
 endfacet
 facet normal -0.0000 -0.0000 1.0000
   outer loop
     vertex 13.5206 6.6685 0.0000
     vertex 13.3888 6.6548 0.0000
     vertex 13.4073 6.6538 0.0000
   endloop
 endfacet
 facet normal 0.0000 -0.0000 1.0000
   outer loop
     vertex 13.5206 6.6685 0.0000
     vertex 13.4073 6.6538 0.0000
     vertex 13.4716 6.6233 0.0000
   endloop
 endfacet
 facet normal 0.0000 -0.0000 1.0000
   outer loop
     vertex 13.2684 6.4911 0.0000
     vertex 13.1864 6.4911 0.0000
     vertex 13.1865 6.4831 0.0000
   endloop
 endfacet
 facet normal 0.0000 -0.0000 1.0000
   outer loop
     vertex 13.2684 6.4911 0.0000
     vertex 13.1865 6.4831 0.0000
     vertex 13.2407 6.3296 0.0000
   endloop
 endfacet
 facet normal -0.0000 -0.0000 1.0000
   outer loop
     vertex 13.3057 6.3588 0.0000
     vertex 13.2684 6.4911 0.0000
     vertex 13.2407 6.3296 0.0000
   endloop
 endfacet
 facet normal -0.0000 -0.0000 1.0000
   outer loop
     vertex 13.3057 6.3588 0.0000
     vertex 13.2407 6.3296 0.0000
     vertex 13.2566 6.3139 0.0000
   endloop
 endfacet
 facet normal -0.0000 -0.0000 1.0000
   outer loop
     vertex 13.3057 6.3588 0.0000
     vertex 13.2566 6.3139 0.0000
     vertex 13.3860 6.2692 0.0000
   endloop
 endfacet
 facet normal 0.0000 -0.0000 1.0000
   outer loop
     vertex 13.3689 6.3281 0.0000
     vertex 13.3057 6.3588 0.0000
     vertex 13.3860 6.2692 0.0000
   endloop
 endfacet
 facet normal -0.0000 -0.0000 1.0000
   outer loop
     vertex 13.3872 6.3271 0.0000
     vertex 13.3689 6.3281 0.0000
     vertex 13.3860 6.2692 0.0000
   endloop
 endfacet
 facet normal 0.0000 -0.0000 1.0000
   outer loop
     vertex 13.3872 6.3271 0.0000
     vertex 13.3860 6.2692 0.0000
     vertex 13.4191 6.2712 0.0000
   endloop
 endfacet
 facet normal 0.0000 -0.0000 1.0000
   outer loop
     vertex 13.4654 6.3534 0.0000
     vertex 13.3872 6.3271 0.0000
     vertex 13.4191 6.2712 0.0000
   endloop
 endfacet
 facet normal -0.0000 -0.0000 1.0000
   outer loop
     vertex 13.4654 6.3534 0.0000
     vertex 13.4191 6.2712 0.0000
     vertex 13.5364 6.3286 0.0000
   endloop
 endfacet
 facet normal -0.0000 -0.0000 1.0000
   outer loop
     vertex 13.5063 6.4434 0.0000
     vertex 13.4654 6.3534 0.0000
     vertex 13.5364 6.3286 0.0000
   endloop
 endfacet
 facet normal -0.0000 -0.0000 1.0000
   outer loop
     vertex 13.5063 6.4434 0.0000
     vertex 13.5364 6.3286 0.0000
     vertex 13.5407 6.3334 0.0000
   endloop
 endfacet
 facet normal -0.0000 -0.0000 1.0000
   outer loop
     vertex 13.5063 6.4434 0.0000
     vertex 13.5407 6.3334 0.0000
     vertex 13.5911 6.4919 0.0000
   endloop
 endfacet
 facet normal 0.0000 -0.0000 1.0000
   outer loop
     vertex 13.5095 6.4919 0.0000
     vertex 13.5063 6.4434 0.0000
     vertex 13.5911 6.4919 0.0000
   endloop
 endfacet
 facet normal 0.0000 -0.0000 1.0000
   outer loop
     vertex 13.5095 6.4919 0.0000
     vertex 13.5911 6.4919 0.0000
     vertex 13.5909 6.5039 0.0000
   endloop
 endfacet
 facet normal 0.0000 -0.0000 1.0000
   outer loop
     vertex 13.5095 6.4919 0.0000
     vertex 13.5909 6.5039 0.0000
     vertex 13.5366 6.6530 0.0000
   endloop
 endfacet
 facet normal 0.0000 -0.0000 1.0000
   outer loop
     vertex 13.4716 6.6233 0.0000
     vertex 13.5095 6.4919 0.0000
     vertex 13.5366 6.6530 0.0000
   endloop
 endfacet
 facet normal 0.0000 -0.0000 1.0000
   outer loop
     vertex 13.4716 6.6233 0.0000
     vertex 13.5366 6.6530 0.0000
     vertex 13.5206 6.6685 0.0000
   endloop
 endfacet
 facet normal 0.0000 -0.0000 1.0000
   outer loop
     vertex -11.0074 -10.9405 2.0000
     vertex -12.0147 -10.5852 2.0000
     vertex -12.7273 -11.3672 2.0000
   endloop
 endfacet
 facet normal 0.0000 0.0000 1.0000
   outer loop
     vertex -12.3662 -11.4198 3.0000
     vertex -12.4335 -11.6708 3.0000
     vertex -12.1825 -11.6035 3.0000
   endloop
 endfacet
 facet normal 0.0000 0.0000 1.0000
   outer loop
     vertex -11.8740 -11.3175 3.0000
     vertex -11.9412 -11.5685 3.0000
     vertex -11.6903 -11.5012 3.0000
   endloop
 endfacet
 facet normal 0.0000 0.0000 1.0000
   outer loop
     vertex -11.3754 -11.2038 3.0000
     vertex -11.4427 -11.4548 3.0000
     vertex -11.1917 -11.3875 3.0000
   endloop
 endfacet
 facet normal 0.0000 0.0000 1.0000
   outer loop
     vertex -12.2565 -11.8106 3.0000
     vertex -12.3238 -12.0616 3.0000
     vertex -12.0728 -11.9943 3.0000
   endloop
 endfacet
 facet normal 0.0000 0.0000 1.0000
   outer loop
     vertex -11.7643 -11.7083 3.0000
     vertex -11.8316 -11.9593 3.0000
     vertex -11.5806 -11.8920 3.0000
   endloop
 endfacet
 facet normal 0.0000 0.0000 1.0000
   outer loop
     vertex -11.2658 -11.5946 3.0000
     vertex -11.3330 -11.8456 3.0000
     vertex -11.0821 -11.7784 3.0000
   endloop
 endfacet
 facet normal 0.0000 0.0000 1.0000
   outer loop
     vertex -12.1832 -12.2171 3.0000
     vertex -12.2504 -12.4680 3.0000
     vertex -11.9994 -12.4008 3.0000
   endloop
 endfacet
 facet normal 0.0000 0.0000 1.0000
   outer loop
     vertex -11.6909 -12.1148 3.0000
     vertex -11.7582 -12.3657 3.0000
     vertex -11.5072 -12.2985 3.0000
   endloop
 endfacet
 facet normal 0.0000 0.0000 1.0000
   outer loop
     vertex -11.1924 -12.0011 3.0000
     vertex -11.2596 -12.2520 3.0000
     vertex -11.0087 -12.1848 3.0000
   endloop
 endfacet
 facet normal 0.0000 0.0000 1.0000
   outer loop
     vertex -12.0461 -12.6242 3.0000
     vertex -12.1133 -12.8752 3.0000
     vertex -11.8624 -12.8079 3.0000
   endloop
 endfacet
 facet normal 0.0000 0.0000 1.0000
   outer loop
     vertex -11.5538 -12.5219 3.0000
     vertex -11.6211 -12.7729 3.0000
     vertex -11.3701 -12.7056 3.0000
   endloop
 endfacet
 facet normal 0.0000 0.0000 1.0000
   outer loop
     vertex -11.0553 -12.4082 3.0000
     vertex -11.1225 -12.6592 3.0000
     vertex -10.8716 -12.5919 3.0000
   endloop
 endfacet
 facet normal 0.0000 0.0000 1.0000
   outer loop
     vertex -11.9490 -13.0362 3.0000
     vertex -12.0163 -13.2871 3.0000
     vertex -11.7653 -13.2199 3.0000
   endloop
 endfacet
 facet normal 0.0000 0.0000 1.0000
   outer loop
     vertex -11.4568 -12.9339 3.0000
     vertex -11.5241 -13.1848 3.0000
     vertex -11.2731 -13.1176 3.0000
   endloop
 endfacet
 facet normal 0.0000 0.0000 1.0000
   outer loop
     vertex -10.9583 -12.8202 3.0000
     vertex -11.0255 -13.0711 3.0000
     vertex -10.7746 -13.0039 3.0000
   endloop
 endfacet
 facet normal 0.0000 0.0000 1.0000
   outer loop
     vertex -11.8750 -13.4365 3.0000
     vertex -11.9423 -13.6875 3.0000
     vertex -11.6913 -13.6202 3.0000
   endloop
 endfacet
 facet normal 0.0000 0.0000 1.0000
   outer loop
     vertex -11.3828 -13.3342 3.0000
     vertex -11.4501 -13.5852 3.0000
     vertex -11.1991 -13.5179 3.0000
   endloop
 endfacet
 facet normal 0.0000 0.0000 1.0000
   outer loop
     vertex -10.8843 -13.2205 3.0000
     vertex -10.9515 -13.4715 3.0000
     vertex -10.7006 -13.4042 3.0000
   endloop
 endfacet
 facet normal -0.0000 0.0000 1.0000
   outer loop
     vertex -10.4123 -13.9681 0.0000
     vertex -11.4738 -10.1203 0.0000
     vertex -12.9591 -10.3294 0.0000
   endloop
 endfacet
 facet normal -0.0000 0.0000 1.0000
   outer loop
     vertex -12.9591 -10.3294 0.0000
     vertex -11.8679 -14.3303 0.0000
     vertex -10.4123 -13.9681 0.0000
   endloop
 endfacet
 facet normal -0.0000 0.0000 1.0000
   outer loop
     vertex -11.4738 -10.1203 0.0000
     vertex -11.4991 -7.7194 0.0000
     vertex -12.9956 -7.6170 0.0000
   endloop
 endfacet
 facet normal -0.0000 0.0000 1.0000
   outer loop
     vertex -12.9956 -7.6170 0.0000
     vertex -12.9591 -10.3294 0.0000
     vertex -11.4738 -10.1203 0.0000
   endloop
 endfacet
 facet normal -0.0000 0.0000 1.0000
   outer loop
     vertex -11.4991 -7.7194 0.0000
     vertex -11.0093 -4.4442 0.0000
     vertex -12.4669 -4.0901 0.0000
   endloop
 endfacet
 facet normal -0.0000 0.0000 1.0000
   outer loop
     vertex -12.4669 -4.0901 0.0000
     vertex -12.9956 -7.6170 0.0000
     vertex -11.4991 -7.7194 0.0000
   endloop
 endfacet
 facet normal -0.0000 0.0000 1.0000
   outer loop
     vertex -11.0093 -4.4442 0.0000
     vertex -10.1408 -1.8935 0.0000
     vertex -11.5170 -1.2968 0.0000
   endloop
 endfacet
 facet normal -0.0000 0.0000 1.0000
   outer loop
     vertex -11.5170 -1.2968 0.0000
     vertex -12.4669 -4.0901 0.0000
     vertex -11.0093 -4.4442 0.0000
   endloop
 endfacet
 facet normal -0.0000 0.0000 1.0000
   outer loop
     vertex -10.1408 -1.8935 0.0000
     vertex -9.3675 -0.4436 0.0000
     vertex -10.6210 0.3803 -0.0000
   endloop
 endfacet
 facet normal -0.0000 0.0000 1.0000
   outer loop
     vertex -10.6210 0.3803 -0.0000
     vertex -11.5170 -1.2968 0.0000
     vertex -10.1408 -1.8935 0.0000
   endloop
 endfacet
 facet normal -0.0000 0.0000 1.0000
   outer loop
     vertex -9.3675 -0.4436 0.0000
     vertex -9.0315 -0.0214 0.0000
     vertex -10.1115 1.0195 -0.0000
   endloop
 endfacet
 facet normal -0.0000 0.0000 1.0000
   outer loop
     vertex -10.1115 1.0195 -0.0000
     vertex -10.6210 0.3803 -0.0000
     vertex -9.3675 -0.4436 0.0000
   endloop
 endfacet
 facet normal -0.0000 0.0000 1.0000
   outer loop
     vertex -9.0315 -0.0214 0.0000
     vertex -8.8862 0.1035 0.0000
     vertex -9.7500 1.3298 -0.0000
   endloop
 endfacet
 facet normal -0.0000 0.0000 1.0000
   outer loop
     vertex -9.7500 1.3298 -0.0000
     vertex -10.1115 1.0195 -0.0000
     vertex -9.0315 -0.0214 0.0000
   endloop
 endfacet
 facet normal -0.0000 0.0000 1.0000
   outer loop
     vertex -8.8862 0.1035 0.0000
     vertex -8.8016 0.1513 0.0000
     vertex -9.4228 1.5166 -0.0000
   endloop
 endfacet
 facet normal -0.0000 0.0000 1.0000
   outer loop
     vertex -9.4228 1.5166 -0.0000
     vertex -9.7500 1.3298 -0.0000
     vertex -8.8862 0.1035 0.0000
   endloop
 endfacet
 facet normal -0.0000 0.0000 1.0000
   outer loop
     vertex -8.8016 0.1513 0.0000
     vertex -8.7034 0.1857 -0.0000
     vertex -9.0662 1.6411 -0.0000
   endloop
 endfacet
 facet normal -0.0000 0.0000 1.0000
   outer loop
     vertex -9.0662 1.6411 -0.0000
     vertex -9.4228 1.5166 -0.0000
     vertex -8.8016 0.1513 0.0000
   endloop
 endfacet
 facet normal -0.0000 0.0000 1.0000
   outer loop
     vertex -8.7034 0.1857 -0.0000
     vertex -8.4302 0.2253 -0.0000
     vertex -8.5892 1.7168 -0.0000
   endloop
 endfacet
 facet normal -0.0000 0.0000 1.0000
   outer loop
     vertex -8.5892 1.7168 -0.0000
     vertex -9.0662 1.6411 -0.0000
     vertex -8.7034 0.1857 -0.0000
   endloop
 endfacet
 facet normal -0.0000 0.0000 1.0000
   outer loop
     vertex -8.4302 0.2253 -0.0000
     vertex 7.5373 1.1899 -0.0000
     vertex 7.2371 2.6596 -0.0000
   endloop
 endfacet
 facet normal -0.0000 0.0000 1.0000
   outer loop
     vertex 7.2371 2.6596 -0.0000
     vertex -8.5892 1.7168 -0.0000
     vertex -8.4302 0.2253 -0.0000
   endloop
 endfacet
 facet normal -0.0000 0.0000 1.0000
   outer loop
     vertex 7.5373 1.1899 -0.0000
     vertex 8.1712 1.4121 -0.0000
     vertex 7.5336 2.7699 -0.0000
   endloop
 endfacet
 facet normal -0.0000 0.0000 1.0000
   outer loop
     vertex 7.5336 2.7699 -0.0000
     vertex 7.2371 2.6596 -0.0000
     vertex 7.5373 1.1899 -0.0000
   endloop
 endfacet
 facet normal -0.0000 0.0000 1.0000
   outer loop
     vertex 8.1712 1.4121 -0.0000
     vertex 8.7368 1.7464 -0.0000
     vertex 7.8642 2.9665 -0.0000
   endloop
 endfacet
 facet normal -0.0000 0.0000 1.0000
   outer loop
     vertex 7.8642 2.9665 -0.0000
     vertex 7.5336 2.7699 -0.0000
     vertex 8.1712 1.4121 -0.0000
   endloop
 endfacet
 facet normal -0.0000 0.0000 1.0000
   outer loop
     vertex 8.7368 1.7464 -0.0000
     vertex 9.2141 2.1544 -0.0000
     vertex 8.1416 3.2031 -0.0000
   endloop
 endfacet
 facet normal -0.0000 0.0000 1.0000
   outer loop
     vertex 8.1416 3.2031 -0.0000
     vertex 7.8642 2.9665 -0.0000
     vertex 8.7368 1.7464 -0.0000
   endloop
 endfacet
 facet normal -0.0000 0.0000 1.0000
   outer loop
     vertex 9.2141 2.1544 -0.0000
     vertex 9.5350 2.5479 -0.0000
     vertex 8.2916 3.3868 -0.0000
   endloop
 endfacet
 facet normal -0.0000 0.0000 1.0000
   outer loop
     vertex 8.2916 3.3868 -0.0000
     vertex 8.1416 3.2031 -0.0000
     vertex 9.2141 2.1544 -0.0000
   endloop
 endfacet
 facet normal -0.0000 0.0000 1.0000
   outer loop
     vertex 9.5350 2.5479 -0.0000
     vertex 9.7781 2.9900 -0.0000
     vertex 8.4039 3.5911 -0.0000
   endloop
 endfacet
 facet normal -0.0000 0.0000 1.0000
   outer loop
     vertex 8.4039 3.5911 -0.0000
     vertex 8.2916 3.3868 -0.0000
     vertex 9.5350 2.5479 -0.0000
   endloop
 endfacet
 facet normal -0.0000 0.0000 1.0000
   outer loop
     vertex 9.7781 2.9900 -0.0000
     vertex 9.9272 3.4363 -0.0000
     vertex 8.4677 3.7826 -0.0000
   endloop
 endfacet
 facet normal -0.0000 0.0000 1.0000
   outer loop
     vertex 8.4677 3.7826 -0.0000
     vertex 8.4039 3.5911 -0.0000
     vertex 9.7781 2.9900 -0.0000
   endloop
 endfacet
 facet normal -0.0000 0.0000 1.0000
   outer loop
     vertex 9.9272 3.4363 -0.0000
     vertex 9.9809 3.8112 -0.0000
     vertex 8.4826 3.8823 -0.0000
   endloop
 endfacet
 facet normal -0.0000 0.0000 1.0000
   outer loop
     vertex 8.4826 3.8823 -0.0000
     vertex 8.4677 3.7826 -0.0000
     vertex 9.9272 3.4363 -0.0000
   endloop
 endfacet
 facet normal -0.0000 0.0000 1.0000
   outer loop
     vertex 9.9809 3.8112 -0.0000
     vertex 9.9647 4.1462 -0.0000
     vertex 8.4799 3.9327 -0.0000
   endloop
 endfacet
 facet normal -0.0000 0.0000 1.0000
   outer loop
     vertex 8.4799 3.9327 -0.0000
     vertex 8.4826 3.8823 -0.0000
     vertex 9.9809 3.8112 -0.0000
   endloop
 endfacet
 facet normal -0.0000 0.0000 1.0000
   outer loop
     vertex 9.9647 4.1462 -0.0000
     vertex 9.8778 4.5135 -0.0000
     vertex 8.4465 4.0648 -0.0000
   endloop
 endfacet
 facet normal -0.0000 0.0000 1.0000
   outer loop
     vertex 8.4465 4.0648 -0.0000
     vertex 8.4799 3.9327 -0.0000
     vertex 9.9647 4.1462 -0.0000
   endloop
 endfacet
 facet normal -0.0000 0.0000 1.0000
   outer loop
     vertex 9.8778 4.5135 -0.0000
     vertex 8.9342 6.9162 -0.0000
     vertex 7.4660 6.6092 -0.0000
   endloop
 endfacet
 facet normal -0.0000 0.0000 1.0000
   outer loop
     vertex 7.4660 6.6092 -0.0000
     vertex 8.4465 4.0648 -0.0000
     vertex 9.8778 4.5135 -0.0000
   endloop
 endfacet
 facet normal -0.0000 0.0000 1.0000
   outer loop
     vertex 8.9342 6.9162 -0.0000
     vertex 8.9344 7.0777 -0.0000
     vertex 7.4365 7.1578 -0.0000
   endloop
 endfacet
 facet normal -0.0000 0.0000 1.0000
   outer loop
     vertex 7.4365 7.1578 -0.0000
     vertex 7.4660 6.6092 -0.0000
     vertex 8.9342 6.9162 -0.0000
   endloop
 endfacet
 facet normal -0.0000 0.0000 1.0000
   outer loop
     vertex 8.9344 7.0777 -0.0000
     vertex 8.9568 7.2280 -0.0000
     vertex 7.5006 7.5878 -0.0000
   endloop
 endfacet
 facet normal -0.0000 0.0000 1.0000
   outer loop
     vertex 7.5006 7.5878 -0.0000
     vertex 7.4365 7.1578 -0.0000
     vertex 8.9344 7.0777 -0.0000
   endloop
 endfacet
 facet normal -0.0000 0.0000 1.0000
   outer loop
     vertex 8.9568 7.2280 -0.0000
     vertex 9.0042 7.3628 -0.0000
     vertex 7.6391 7.9844 -0.0000
   endloop
 endfacet
 facet normal -0.0000 0.0000 1.0000
   outer loop
     vertex 7.6391 7.9844 -0.0000
     vertex 7.5006 7.5878 -0.0000
     vertex 8.9568 7.2280 -0.0000
   endloop
 endfacet
 facet normal -0.0000 0.0000 1.0000
   outer loop
     vertex 9.0042 7.3628 -0.0000
     vertex 9.1724 7.6583 -0.0000
     vertex 7.9453 8.5211 -0.0000
   endloop
 endfacet
 facet normal -0.0000 0.0000 1.0000
   outer loop
     vertex 7.9453 8.5211 -0.0000
     vertex 7.6391 7.9844 -0.0000
     vertex 9.0042 7.3628 -0.0000
   endloop
 endfacet
 facet normal -0.0000 0.0000 1.0000
   outer loop
     vertex 9.1724 7.6583 -0.0000
     vertex 11.2639 10.1009 -0.0000
     vertex 10.1841 11.1421 -0.0000
   endloop
 endfacet
 facet normal -0.0000 0.0000 1.0000
   outer loop
     vertex 10.1841 11.1421 -0.0000
     vertex 7.9453 8.5211 -0.0000
     vertex 9.1724 7.6583 -0.0000
   endloop
 endfacet
 facet normal -0.0000 0.0000 1.0000
   outer loop
     vertex 11.2639 10.1009 -0.0000
     vertex 12.5924 11.3268 -0.0000
     vertex 11.6935 12.5276 -0.0000
   endloop
 endfacet
 facet normal -0.0000 0.0000 1.0000
   outer loop
     vertex 11.6935 12.5276 -0.0000
     vertex 10.1841 11.1421 -0.0000
     vertex 11.2639 10.1009 -0.0000
   endloop
 endfacet
 facet normal -0.0000 0.0000 1.0000
   outer loop
     vertex 12.5924 11.3268 -0.0000
     vertex 12.8976 11.5098 -0.0000
     vertex 12.2516 12.8636 -0.0000
   endloop
 endfacet
 facet normal -0.0000 0.0000 1.0000
   outer loop
     vertex 12.2516 12.8636 -0.0000
     vertex 11.6935 12.5276 -0.0000
     vertex 12.5924 11.3268 -0.0000
   endloop
 endfacet
 facet normal -0.0000 0.0000 1.0000
   outer loop
     vertex 12.8976 11.5098 -0.0000
     vertex 13.0392 11.5613 -0.0000
     vertex 12.6615 13.0129 -0.0000
   endloop
 endfacet
 facet normal -0.0000 0.0000 1.0000
   outer loop
     vertex 12.6615 13.0129 -0.0000
     vertex 12.2516 12.8636 -0.0000
     vertex 12.8976 11.5098 -0.0000
   endloop
 endfacet
 facet normal -0.0000 0.0000 1.0000
   outer loop
     vertex 13.0392 11.5613 -0.0000
     vertex 13.0966 11.5702 -0.0000
     vertex 12.9907 13.0664 -0.0000
   endloop
 endfacet
 facet normal -0.0000 0.0000 1.0000
   outer loop
     vertex 12.9907 13.0664 -0.0000
     vertex 12.6615 13.0129 -0.0000
     vertex 13.0392 11.5613 -0.0000
   endloop
 endfacet
 facet normal 0.0000 0.0000 1.0000
   outer loop
     vertex 13.0966 11.5702 -0.0000
     vertex 13.1404 11.5696 -0.0000
     vertex 13.3074 13.0603 -0.0000
   endloop
 endfacet
 facet normal 0.0000 0.0000 1.0000
   outer loop
     vertex 13.3074 13.0603 -0.0000
     vertex 12.9907 13.0664 -0.0000
     vertex 13.0966 11.5702 -0.0000
   endloop
 endfacet
 facet normal 0.0000 0.0000 1.0000
   outer loop
     vertex 13.1404 11.5696 -0.0000
     vertex 13.2259 11.5517 -0.0000
     vertex 13.6621 12.9869 -0.0000
   endloop
 endfacet
 facet normal 0.0000 0.0000 1.0000
   outer loop
     vertex 13.6621 12.9869 -0.0000
     vertex 13.3074 13.0603 -0.0000
     vertex 13.1404 11.5696 -0.0000
   endloop
 endfacet
 facet normal 0.0000 0.0000 1.0000
   outer loop
     vertex 13.2259 11.5517 -0.0000
     vertex 13.3071 11.5190 -0.0000
     vertex 13.9992 12.8498 -0.0000
   endloop
 endfacet
 facet normal 0.0000 0.0000 1.0000
   outer loop
     vertex 13.9992 12.8498 -0.0000
     vertex 13.6621 12.9869 -0.0000
     vertex 13.2259 11.5517 -0.0000
   endloop
 endfacet
 facet normal 0.0000 0.0000 1.0000
   outer loop
     vertex 13.3071 11.5190 -0.0000
     vertex 13.3767 11.4743 -0.0000
     vertex 14.3092 12.6492 -0.0000
   endloop
 endfacet
 facet normal 0.0000 0.0000 1.0000
   outer loop
     vertex 14.3092 12.6492 -0.0000
     vertex 13.9992 12.8498 -0.0000
     vertex 13.3071 11.5190 -0.0000
   endloop
 endfacet
 facet normal 0.0000 0.0000 1.0000
   outer loop
     vertex 13.3767 11.4743 -0.0000
     vertex 13.4183 11.4338 -0.0000
     vertex 14.5572 12.4099 -0.0000
   endloop
 endfacet
 facet normal 0.0000 0.0000 1.0000
   outer loop
     vertex 14.5572 12.4099 -0.0000
     vertex 14.3092 12.6492 -0.0000
     vertex 13.3767 11.4743 -0.0000
   endloop
 endfacet
 facet normal 0.0000 0.0000 1.0000
   outer loop
     vertex 13.4183 11.4338 -0.0000
     vertex 13.4399 11.4031 -0.0000
     vertex 14.7413 12.1491 -0.0000
   endloop
 endfacet
 facet normal 0.0000 0.0000 1.0000
   outer loop
     vertex 14.7413 12.1491 -0.0000
     vertex 14.5572 12.4099 -0.0000
     vertex 13.4183 11.4338 -0.0000
   endloop
 endfacet
 facet normal 0.0000 0.0000 1.0000
   outer loop
     vertex 13.4399 11.4031 -0.0000
     vertex 13.4569 11.3663 -0.0000
     vertex 14.8761 11.8518 -0.0000
   endloop
 endfacet
 facet normal 0.0000 0.0000 1.0000
   outer loop
     vertex 14.8761 11.8518 -0.0000
     vertex 14.7413 12.1491 -0.0000
     vertex 13.4399 11.4031 -0.0000
   endloop
 endfacet
 facet normal 0.0000 0.0000 1.0000
   outer loop
     vertex 13.4569 11.3663 -0.0000
     vertex 13.4680 11.3191 -0.0000
     vertex 14.9540 11.5233 -0.0000
   endloop
 endfacet
 facet normal 0.0000 0.0000 1.0000
   outer loop
     vertex 14.9540 11.5233 -0.0000
     vertex 14.8761 11.8518 -0.0000
     vertex 13.4569 11.3663 -0.0000
   endloop
 endfacet
 facet normal 0.0000 0.0000 1.0000
   outer loop
     vertex 13.4680 11.3191 -0.0000
     vertex 13.4716 11.2202 -0.0000
     vertex 14.9697 11.1453 -0.0000
   endloop
 endfacet
 facet normal 0.0000 0.0000 1.0000
   outer loop
     vertex 14.9697 11.1453 -0.0000
     vertex 14.9540 11.5233 -0.0000
     vertex 13.4680 11.3191 -0.0000
   endloop
 endfacet
 facet normal 0.0000 0.0000 1.0000
   outer loop
     vertex 13.4716 11.2202 -0.0000
     vertex 13.4181 10.8592 -0.0000
     vertex 14.8941 10.5916 -0.0000
   endloop
 endfacet
 facet normal 0.0000 0.0000 1.0000
   outer loop
     vertex 14.8941 10.5916 -0.0000
     vertex 14.9697 11.1453 -0.0000
     vertex 13.4716 11.2202 -0.0000
   endloop
 endfacet
 facet normal 0.0000 0.0000 1.0000
   outer loop
     vertex 13.4181 10.8592 -0.0000
     vertex 13.0781 9.2964 -0.0000
     vertex 14.5736 9.1805 -0.0000
   endloop
 endfacet
 facet normal 0.0000 0.0000 1.0000
   outer loop
     vertex 14.5736 9.1805 -0.0000
     vertex 14.8941 10.5916 -0.0000
     vertex 13.4181 10.8592 -0.0000
   endloop
 endfacet
 facet normal 0.0000 0.0000 1.0000
   outer loop
     vertex 13.0781 9.2964 -0.0000
     vertex 13.1003 8.8842 -0.0000
     vertex 14.5815 9.1212 -0.0000
   endloop
 endfacet
 facet normal 0.0000 0.0000 1.0000
   outer loop
     vertex 14.5815 9.1212 -0.0000
     vertex 14.5736 9.1805 -0.0000
     vertex 13.0781 9.2964 -0.0000
   endloop
 endfacet
 facet normal 0.0000 0.0000 1.0000
   outer loop
     vertex 13.1003 8.8842 -0.0000
     vertex 13.1812 8.5723 -0.0000
     vertex 14.5907 9.0853 -0.0000
   endloop
 endfacet
 facet normal 0.0000 0.0000 1.0000
   outer loop
     vertex 14.5907 9.0853 -0.0000
     vertex 14.5815 9.1212 -0.0000
     vertex 13.1003 8.8842 -0.0000
   endloop
 endfacet
 facet normal 0.0000 0.0000 1.0000
   outer loop
     vertex 13.1812 8.5723 -0.0000
     vertex 13.3183 8.2842 -0.0000
     vertex 14.6066 9.0524 -0.0000
   endloop
 endfacet
 facet normal 0.0000 0.0000 1.0000
   outer loop
     vertex 14.6066 9.0524 -0.0000
     vertex 14.5907 9.0853 -0.0000
     vertex 13.1812 8.5723 -0.0000
   endloop
 endfacet
 facet normal 0.0000 0.0000 1.0000
   outer loop
     vertex 13.3183 8.2842 -0.0000
     vertex 13.5084 8.0237 -0.0000
     vertex 14.6330 9.0163 -0.0000
   endloop
 endfacet
 facet normal 0.0000 0.0000 1.0000
   outer loop
     vertex 14.6330 9.0163 -0.0000
     vertex 14.6066 9.0524 -0.0000
     vertex 13.3183 8.2842 -0.0000
   endloop
 endfacet
 facet normal 0.0000 0.0000 1.0000
   outer loop
     vertex 13.5084 8.0237 -0.0000
     vertex 13.7623 7.7848 -0.0000
     vertex 14.6843 8.9680 -0.0000
   endloop
 endfacet
 facet normal 0.0000 0.0000 1.0000
   outer loop
     vertex 14.6843 8.9680 -0.0000
     vertex 14.6330 9.0163 -0.0000
     vertex 13.5084 8.0237 -0.0000
   endloop
 endfacet
 facet normal 0.0000 0.0000 1.0000
   outer loop
     vertex 13.7623 7.7848 -0.0000
     vertex 14.0385 7.6079 -0.0000
     vertex 14.7304 8.9388 -0.0000
   endloop
 endfacet
 facet normal 0.0000 0.0000 1.0000
   outer loop
     vertex 14.7304 8.9388 -0.0000
     vertex 14.6843 8.9680 -0.0000
     vertex 13.7623 7.7848 -0.0000
   endloop
 endfacet
 facet normal 0.0000 0.0000 1.0000
   outer loop
     vertex 14.0385 7.6079 -0.0000
     vertex 14.3225 7.4914 -0.0000
     vertex 14.7628 8.9253 -0.0000
   endloop
 endfacet
 facet normal 0.0000 0.0000 1.0000
   outer loop
     vertex 14.7628 8.9253 -0.0000
     vertex 14.7304 8.9388 -0.0000
     vertex 14.0385 7.6079 -0.0000
   endloop
 endfacet
 facet normal 0.0000 0.0000 1.0000
   outer loop
     vertex 14.3225 7.4914 -0.0000
     vertex 14.6278 7.4278 -0.0000
     vertex 14.7947 8.9185 -0.0000
   endloop
 endfacet
 facet normal 0.0000 0.0000 1.0000
   outer loop
     vertex 14.7947 8.9185 -0.0000
     vertex 14.7628 8.9253 -0.0000
     vertex 14.3225 7.4914 -0.0000
   endloop
 endfacet
 facet normal 0.0000 0.0000 1.0000
   outer loop
     vertex 14.6278 7.4278 -0.0000
     vertex 14.9222 7.4227 -0.0000
     vertex 14.8074 8.9183 -0.0000
   endloop
 endfacet
 facet normal 0.0000 0.0000 1.0000
   outer loop
     vertex 14.8074 8.9183 -0.0000
     vertex 14.7947 8.9185 -0.0000
     vertex 14.6278 7.4278 -0.0000
   endloop
 endfacet
 facet normal -0.0000 0.0000 1.0000
   outer loop
     vertex 14.9222 7.4227 -0.0000
     vertex 15.2388 7.4772 -0.0000
     vertex 14.8470 8.9251 -0.0000
   endloop
 endfacet
 facet normal -0.0000 0.0000 1.0000
   outer loop
     vertex 14.8470 8.9251 -0.0000
     vertex 14.8074 8.9183 -0.0000
     vertex 14.9222 7.4227 -0.0000
   endloop
 endfacet
 facet normal -0.0000 0.0000 1.0000
   outer loop
     vertex 15.2388 7.4772 -0.0000
     vertex 15.5647 7.5990 -0.0000
     vertex 14.9125 8.9498 -0.0000
   endloop
 endfacet
 facet normal -0.0000 0.0000 1.0000
   outer loop
     vertex 14.9125 8.9498 -0.0000
     vertex 14.8470 8.9251 -0.0000
     vertex 15.2388 7.4772 -0.0000
   endloop
 endfacet
 facet normal -0.0000 0.0000 1.0000
   outer loop
     vertex 15.5647 7.5990 -0.0000
     vertex 15.8637 7.7789 -0.0000
     vertex 14.9760 8.9879 -0.0000
   endloop
 endfacet
 facet normal -0.0000 0.0000 1.0000
   outer loop
     vertex 14.9760 8.9879 -0.0000
     vertex 14.9125 8.9498 -0.0000
     vertex 15.5647 7.5990 -0.0000
   endloop
 endfacet
 facet normal 0.0000 0.0000 1.0000
   outer loop
     vertex 15.8637 7.7789 -0.0000
     vertex 16.1253 8.0110 -0.0000
     vertex 15.0285 9.0343 -0.0000
   endloop
 endfacet
 facet normal 0.0000 0.0000 1.0000
   outer loop
     vertex 15.0285 9.0343 -0.0000
     vertex 14.9760 8.9879 -0.0000
     vertex 15.8637 7.7789 -0.0000
   endloop
 endfacet
 facet normal 0.0000 0.0000 1.0000
   outer loop
     vertex 16.1253 8.0110 -0.0000
     vertex 16.3235 8.2687 -0.0000
     vertex 15.0530 9.0660 -0.0000
   endloop
 endfacet
 facet normal 0.0000 0.0000 1.0000
   outer loop
     vertex 15.0530 9.0660 -0.0000
     vertex 15.0285 9.0343 -0.0000
     vertex 16.1253 8.0110 -0.0000
   endloop
 endfacet
 facet normal 0.0000 0.0000 1.0000
   outer loop
     vertex 16.3235 8.2687 -0.0000
     vertex 16.4579 8.5367 -0.0000
     vertex 15.0586 9.0770 -0.0000
   endloop
 endfacet
 facet normal 0.0000 0.0000 1.0000
   outer loop
     vertex 15.0586 9.0770 -0.0000
     vertex 15.0530 9.0660 -0.0000
     vertex 16.3235 8.2687 -0.0000
   endloop
 endfacet
 facet normal 0.0000 0.0000 1.0000
   outer loop
     vertex 16.4579 8.5367 -0.0000
     vertex 16.5445 8.8472 -0.0000
     vertex 15.0676 9.1095 -0.0000
   endloop
 endfacet
 facet normal 0.0000 0.0000 1.0000
   outer loop
     vertex 15.0676 9.1095 -0.0000
     vertex 15.0586 9.0770 -0.0000
     vertex 16.4579 8.5367 -0.0000
   endloop
 endfacet
 facet normal 0.0000 0.0000 1.0000
   outer loop
     vertex 16.5445 8.8472 -0.0000
     vertex 16.5839 9.2976 -0.0000
     vertex 15.0879 9.4081 -0.0000
   endloop
 endfacet
 facet normal 0.0000 0.0000 1.0000
   outer loop
     vertex 15.0879 9.4081 -0.0000
     vertex 15.0676 9.1095 -0.0000
     vertex 16.5445 8.8472 -0.0000
   endloop
 endfacet
 facet normal 0.0000 0.0000 1.0000
   outer loop
     vertex 16.5839 9.2976 -0.0000
     vertex 16.6208 9.9115 -0.0000
     vertex 15.1454 10.1820 -0.0000
   endloop
 endfacet
 facet normal 0.0000 0.0000 1.0000
   outer loop
     vertex 15.1454 10.1820 -0.0000
     vertex 15.0879 9.4081 -0.0000
     vertex 16.5839 9.2976 -0.0000
   endloop
 endfacet
 facet normal 0.0000 0.0000 1.0000
   outer loop
     vertex 16.6208 9.9115 -0.0000
     vertex 16.6814 10.1051 -0.0000
     vertex 15.2913 10.6686 -0.0000
   endloop
 endfacet
 facet normal 0.0000 0.0000 1.0000
   outer loop
     vertex 15.2913 10.6686 -0.0000
     vertex 15.1454 10.1820 -0.0000
     vertex 16.6208 9.9115 -0.0000
   endloop
 endfacet
 facet normal -0.0000 0.0000 1.0000
   outer loop
     vertex 16.6814 10.1051 -0.0000
     vertex 16.7705 10.2780 -0.0000
     vertex 15.5036 11.0811 -0.0000
   endloop
 endfacet
 facet normal -0.0000 0.0000 1.0000
   outer loop
     vertex 15.5036 11.0811 -0.0000
     vertex 15.2913 10.6686 -0.0000
     vertex 16.6814 10.1051 -0.0000
   endloop
 endfacet
 facet normal -0.0000 -0.0000 1.0000
   outer loop
     vertex 16.7705 10.2780 -0.0000
     vertex 16.8520 10.3844 -0.0000
     vertex 15.7498 11.4018 -0.0000
   endloop
 endfacet
 facet normal -0.0000 -0.0000 1.0000
   outer loop
     vertex 15.7498 11.4018 -0.0000
     vertex 15.5036 11.0811 -0.0000
     vertex 16.7705 10.2780 -0.0000
   endloop
 endfacet
 facet normal -0.0000 -0.0000 1.0000
   outer loop
     vertex 16.8520 10.3844 -0.0000
     vertex 16.9239 10.4497 -0.0000
     vertex 16.0287 11.6533 -0.0000
   endloop
 endfacet
 facet normal -0.0000 -0.0000 1.0000
   outer loop
     vertex 16.0287 11.6533 -0.0000
     vertex 15.7498 11.4018 -0.0000
     vertex 16.8520 10.3844 -0.0000
   endloop
 endfacet
 facet normal -0.0000 -0.0000 1.0000
   outer loop
     vertex 16.9239 10.4497 -0.0000
     vertex 16.9808 10.4840 -0.0000
     vertex 16.3256 11.8333 -0.0000
   endloop
 endfacet
 facet normal -0.0000 -0.0000 1.0000
   outer loop
     vertex 16.3256 11.8333 -0.0000
     vertex 16.0287 11.6533 -0.0000
     vertex 16.9239 10.4497 -0.0000
   endloop
 endfacet
 facet normal -0.0000 -0.0000 1.0000
   outer loop
     vertex 16.9808 10.4840 -0.0000
     vertex 17.0456 10.5081 -0.0000
     vertex 16.6456 11.9538 -0.0000
   endloop
 endfacet
 facet normal -0.0000 -0.0000 1.0000
   outer loop
     vertex 16.6456 11.9538 -0.0000
     vertex 16.3256 11.8333 -0.0000
     vertex 16.9808 10.4840 -0.0000
   endloop
 endfacet
 facet normal -0.0000 -0.0000 1.0000
   outer loop
     vertex 17.0456 10.5081 -0.0000
     vertex 17.1159 10.5209 -0.0000
     vertex 16.9790 12.0146 -0.0000
   endloop
 endfacet
 facet normal -0.0000 -0.0000 1.0000
   outer loop
     vertex 16.9790 12.0146 -0.0000
     vertex 16.6456 11.9538 -0.0000
     vertex 17.0456 10.5081 -0.0000
   endloop
 endfacet
 facet normal -0.0000 -0.0000 1.0000
   outer loop
     vertex 17.1159 10.5209 -0.0000
     vertex 17.1866 10.5212 -0.0000
     vertex 17.3184 12.0154 -0.0000
   endloop
 endfacet
 facet normal -0.0000 -0.0000 1.0000
   outer loop
     vertex 17.3184 12.0154 -0.0000
     vertex 16.9790 12.0146 -0.0000
     vertex 17.1159 10.5209 -0.0000
   endloop
 endfacet
 facet normal -0.0000 -0.0000 1.0000
   outer loop
     vertex 17.1866 10.5212 -0.0000
     vertex 17.2527 10.5095 -0.0000
     vertex 17.6567 11.9541 -0.0000
   endloop
 endfacet
 facet normal -0.0000 -0.0000 1.0000
   outer loop
     vertex 17.6567 11.9541 -0.0000
     vertex 17.3184 12.0154 -0.0000
     vertex 17.1866 10.5212 -0.0000
   endloop
 endfacet
 facet normal -0.0000 -0.0000 1.0000
   outer loop
     vertex 17.2527 10.5095 -0.0000
     vertex 17.3152 10.4853 -0.0000
     vertex 17.9803 11.8298 -0.0000
   endloop
 endfacet
 facet normal -0.0000 -0.0000 1.0000
   outer loop
     vertex 17.9803 11.8298 -0.0000
     vertex 17.6567 11.9541 -0.0000
     vertex 17.2527 10.5095 -0.0000
   endloop
 endfacet
 facet normal -0.0000 -0.0000 1.0000
   outer loop
     vertex 17.3152 10.4853 -0.0000
     vertex 17.3544 10.4611 -0.0000
     vertex 18.2543 11.6612 -0.0000
   endloop
 endfacet
 facet normal -0.0000 -0.0000 1.0000
   outer loop
     vertex 18.2543 11.6612 -0.0000
     vertex 17.9803 11.8298 -0.0000
     vertex 17.3152 10.4853 -0.0000
   endloop
 endfacet
 facet normal -0.0000 -0.0000 1.0000
   outer loop
     vertex 17.3544 10.4611 -0.0000
     vertex 17.4112 10.4101 -0.0000
     vertex 18.5176 11.4229 -0.0000
   endloop
 endfacet
 facet normal -0.0000 -0.0000 1.0000
   outer loop
     vertex 18.5176 11.4229 -0.0000
     vertex 18.2543 11.6612 -0.0000
     vertex 17.3544 10.4611 -0.0000
   endloop
 endfacet
 facet normal -0.0000 -0.0000 1.0000
   outer loop
     vertex 17.4112 10.4101 -0.0000
     vertex 17.4769 10.3229 -0.0000
     vertex 18.7532 11.1110 -0.0000
   endloop
 endfacet
 facet normal -0.0000 -0.0000 1.0000
   outer loop
     vertex 18.7532 11.1110 -0.0000
     vertex 18.5176 11.4229 -0.0000
     vertex 17.4112 10.4101 -0.0000
   endloop
 endfacet
 facet normal -0.0000 -0.0000 1.0000
   outer loop
     vertex 17.4769 10.3229 -0.0000
     vertex 17.5290 10.2174 -0.0000
     vertex 18.9288 10.7565 -0.0000
   endloop
 endfacet
 facet normal -0.0000 -0.0000 1.0000
   outer loop
     vertex 18.9288 10.7565 -0.0000
     vertex 18.7532 11.1110 -0.0000
     vertex 17.4769 10.3229 -0.0000
   endloop
 endfacet
 facet normal -0.0000 0.0000 1.0000
   outer loop
     vertex 17.5290 10.2174 -0.0000
     vertex 17.5621 10.1013 -0.0000
     vertex 19.0379 10.3698 -0.0000
   endloop
 endfacet
 facet normal -0.0000 0.0000 1.0000
   outer loop
     vertex 19.0379 10.3698 -0.0000
     vertex 18.9288 10.7565 -0.0000
     vertex 17.5290 10.2174 -0.0000
   endloop
 endfacet
 facet normal -0.0000 0.0000 1.0000
   outer loop
     vertex 17.5621 10.1013 -0.0000
     vertex 17.5724 9.9802 -0.0000
     vertex 19.0723 9.9628 -0.0000
   endloop
 endfacet
 facet normal -0.0000 0.0000 1.0000
   outer loop
     vertex 19.0723 9.9628 -0.0000
     vertex 19.0379 10.3698 -0.0000
     vertex 17.5621 10.1013 -0.0000
   endloop
 endfacet
 facet normal -0.0000 0.0000 1.0000
   outer loop
     vertex 17.5724 9.9802 -0.0000
     vertex 17.5616 9.8823 -0.0000
     vertex 19.0315 9.5837 -0.0000
   endloop
 endfacet
 facet normal -0.0000 0.0000 1.0000
   outer loop
     vertex 19.0315 9.5837 -0.0000
     vertex 19.0723 9.9628 -0.0000
     vertex 17.5724 9.9802 -0.0000
   endloop
 endfacet
 facet normal -0.0000 0.0000 1.0000
   outer loop
     vertex 17.5616 9.8823 -0.0000
     vertex 17.5187 9.7392 -0.0000
     vertex 18.9057 9.1680 -0.0000
   endloop
 endfacet
 facet normal -0.0000 0.0000 1.0000
   outer loop
     vertex 18.9057 9.1680 -0.0000
     vertex 19.0315 9.5837 -0.0000
     vertex 17.5616 9.8823 -0.0000
   endloop
 endfacet
 facet normal -0.0000 0.0000 1.0000
   outer loop
     vertex 17.5187 9.7392 -0.0000
     vertex 17.1313 9.0150 -0.0000
     vertex 18.4159 8.2405 -0.0000
   endloop
 endfacet
 facet normal -0.0000 0.0000 1.0000
   outer loop
     vertex 18.4159 8.2405 -0.0000
     vertex 18.9057 9.1680 -0.0000
     vertex 17.5187 9.7392 -0.0000
   endloop
 endfacet
 facet normal -0.0000 0.0000 1.0000
   outer loop
     vertex 17.1313 9.0150 -0.0000
     vertex 13.9700 4.3573 -0.0000
     vertex 15.1122 3.3850 -0.0000
   endloop
 endfacet
 facet normal -0.0000 0.0000 1.0000
   outer loop
     vertex 15.1122 3.3850 -0.0000
     vertex 18.4159 8.2405 -0.0000
     vertex 17.1313 9.0150 -0.0000
   endloop
 endfacet
 facet normal -0.0000 0.0000 1.0000
   outer loop
     vertex 13.9700 4.3573 -0.0000
     vertex 12.5995 3.0638 -0.0000
     vertex 13.5271 1.8850 -0.0000
   endloop
 endfacet
 facet normal -0.0000 0.0000 1.0000
   outer loop
     vertex 13.5271 1.8850 -0.0000
     vertex 15.1122 3.3850 -0.0000
     vertex 13.9700 4.3573 -0.0000
   endloop
 endfacet
 facet normal -0.0000 0.0000 1.0000
   outer loop
     vertex 12.5995 3.0638 -0.0000
     vertex 10.6252 1.7817 -0.0000
     vertex 11.3321 0.4587 -0.0000
   endloop
 endfacet
 facet normal -0.0000 0.0000 1.0000
   outer loop
     vertex 11.3321 0.4587 -0.0000
     vertex 13.5271 1.8850 -0.0000
     vertex 12.5995 3.0638 -0.0000
   endloop
 endfacet
 facet normal -0.0000 0.0000 1.0000
   outer loop
     vertex 10.6252 1.7817 -0.0000
     vertex 8.4448 0.8457 -0.0000
     vertex 8.9093 -0.5806 0.0000
   endloop
 endfacet
 facet normal -0.0000 0.0000 1.0000
   outer loop
     vertex 8.9093 -0.5806 0.0000
     vertex 11.3321 0.4587 -0.0000
     vertex 10.6252 1.7817 -0.0000
   endloop
 endfacet
 facet normal -0.0000 0.0000 1.0000
   outer loop
     vertex 8.4448 0.8457 -0.0000
     vertex 7.1580 0.5515 -0.0000
     vertex 7.3464 -0.9366 0.0000
   endloop
 endfacet
 facet normal -0.0000 0.0000 1.0000
   outer loop
     vertex 7.3464 -0.9366 0.0000
     vertex 8.9093 -0.5806 0.0000
     vertex 8.4448 0.8457 -0.0000
   endloop
 endfacet
 facet normal -0.0000 0.0000 1.0000
   outer loop
     vertex 7.1580 0.5515 -0.0000
     vertex 5.4639 0.5083 -0.0000
     vertex 5.4751 -0.9916 0.0000
   endloop
 endfacet
 facet normal -0.0000 0.0000 1.0000
   outer loop
     vertex 5.4751 -0.9916 0.0000
     vertex 7.3464 -0.9366 0.0000
     vertex 7.1580 0.5515 -0.0000
   endloop
 endfacet
 facet normal 0.0000 0.0000 1.0000
   outer loop
     vertex 5.4639 0.5083 -0.0000
     vertex 2.6274 0.5382 -0.0000
     vertex 2.7956 -0.9523 0.0000
   endloop
 endfacet
 facet normal 0.0000 0.0000 1.0000
   outer loop
     vertex 2.7956 -0.9523 0.0000
     vertex 5.4751 -0.9916 0.0000
     vertex 5.4639 0.5083 -0.0000
   endloop
 endfacet
 facet normal -0.0000 0.0000 1.0000
   outer loop
     vertex 2.6274 0.5382 -0.0000
     vertex 1.8894 0.3625 -0.0000
     vertex 2.3750 -1.0567 0.0000
   endloop
 endfacet
 facet normal -0.0000 0.0000 1.0000
   outer loop
     vertex 2.3750 -1.0567 0.0000
     vertex 2.7956 -0.9523 0.0000
     vertex 2.6274 0.5382 -0.0000
   endloop
 endfacet
 facet normal -0.0000 0.0000 1.0000
   outer loop
     vertex 1.8894 0.3625 -0.0000
     vertex 1.3389 0.1152 -0.0000
     vertex 2.0764 -1.1909 0.0000
   endloop
 endfacet
 facet normal -0.0000 0.0000 1.0000
   outer loop
     vertex 2.0764 -1.1909 0.0000
     vertex 2.3750 -1.0567 0.0000
     vertex 1.8894 0.3625 -0.0000
   endloop
 endfacet
 facet normal -0.0000 0.0000 1.0000
   outer loop
     vertex 1.3389 0.1152 -0.0000
     vertex 0.9260 -0.1706 0.0000
     vertex 1.8868 -1.3225 0.0000
   endloop
 endfacet
 facet normal -0.0000 0.0000 1.0000
   outer loop
     vertex 1.8868 -1.3225 0.0000
     vertex 2.0764 -1.1909 0.0000
     vertex 1.3389 0.1152 -0.0000
   endloop
 endfacet
 facet normal -0.0000 0.0000 1.0000
   outer loop
     vertex 0.9260 -0.1706 0.0000
     vertex 0.6252 -0.4711 0.0000
     vertex 1.7782 -1.4306 0.0000
   endloop
 endfacet
 facet normal -0.0000 0.0000 1.0000
   outer loop
     vertex 1.7782 -1.4306 0.0000
     vertex 1.8868 -1.3225 0.0000
     vertex 0.9260 -0.1706 0.0000
   endloop
 endfacet
 facet normal -0.0000 0.0000 1.0000
   outer loop
     vertex 0.6252 -0.4711 0.0000
     vertex 0.4006 -0.7955 0.0000
     vertex 1.6901 -1.5618 0.0000
   endloop
 endfacet
 facet normal -0.0000 0.0000 1.0000
   outer loop
     vertex 1.6901 -1.5618 0.0000
     vertex 1.7782 -1.4306 0.0000
     vertex 0.6252 -0.4711 0.0000
   endloop
 endfacet
 facet normal -0.0000 0.0000 1.0000
   outer loop
     vertex 0.4006 -0.7955 0.0000
     vertex 0.0316 -1.5402 0.0000
     vertex 1.2366 -2.4335 0.0000
   endloop
 endfacet
 facet normal -0.0000 0.0000 1.0000
   outer loop
     vertex 1.2366 -2.4335 0.0000
     vertex 1.6901 -1.5618 0.0000
     vertex 0.4006 -0.7955 0.0000
   endloop
 endfacet
 facet normal -0.0000 0.0000 1.0000
   outer loop
     vertex 0.0316 -1.5402 0.0000
     vertex -0.0011 -1.5614 0.0000
     vertex 0.9356 -2.7330 0.0000
   endloop
 endfacet
 facet normal -0.0000 0.0000 1.0000
   outer loop
     vertex 0.9356 -2.7330 0.0000
     vertex 1.2366 -2.4335 0.0000
     vertex 0.0316 -1.5402 0.0000
   endloop
 endfacet
 facet normal -0.0000 0.0000 1.0000
   outer loop
     vertex -0.0011 -1.5614 0.0000
     vertex -0.1128 -1.6350 0.0000
     vertex 0.5981 -2.9558 0.0000
   endloop
 endfacet
 facet normal -0.0000 0.0000 1.0000
   outer loop
     vertex 0.5981 -2.9558 0.0000
     vertex 0.9356 -2.7330 0.0000
     vertex -0.0011 -1.5614 0.0000
   endloop
 endfacet
 facet normal -0.0000 0.0000 1.0000
   outer loop
     vertex -0.1128 -1.6350 0.0000
     vertex -0.2412 -1.6900 0.0000
     vertex 0.2205 -3.1172 0.0000
   endloop
 endfacet
 facet normal -0.0000 0.0000 1.0000
   outer loop
     vertex 0.2205 -3.1172 0.0000
     vertex 0.5981 -2.9558 0.0000
     vertex -0.1128 -1.6350 0.0000
   endloop
 endfacet
 facet normal -0.0000 0.0000 1.0000
   outer loop
     vertex -0.2412 -1.6900 0.0000
     vertex -0.3464 -1.7141 0.0000
     vertex -0.1582 -3.2022 0.0000
   endloop
 endfacet
 facet normal -0.0000 0.0000 1.0000
   outer loop
     vertex -0.1582 -3.2022 0.0000
     vertex 0.2205 -3.1172 0.0000
     vertex -0.2412 -1.6900 0.0000
   endloop
 endfacet
 facet normal -0.0000 0.0000 1.0000
   outer loop
     vertex -0.3464 -1.7141 0.0000
     vertex -0.4194 -1.7164 0.0000
     vertex -0.5208 -3.2129 0.0000
   endloop
 endfacet
 facet normal -0.0000 0.0000 1.0000
   outer loop
     vertex -0.5208 -3.2129 0.0000
     vertex -0.1582 -3.2022 0.0000
     vertex -0.3464 -1.7141 0.0000
   endloop
 endfacet
 facet normal 0.0000 0.0000 1.0000
   outer loop
     vertex -0.4194 -1.7164 0.0000
     vertex -0.4898 -1.7044 0.0000
     vertex -0.8739 -3.1543 0.0000
   endloop
 endfacet
 facet normal 0.0000 0.0000 1.0000
   outer loop
     vertex -0.8739 -3.1543 0.0000
     vertex -0.5208 -3.2129 0.0000
     vertex -0.4194 -1.7164 0.0000
   endloop
 endfacet
 facet normal 0.0000 0.0000 1.0000
   outer loop
     vertex -0.4898 -1.7044 0.0000
     vertex -0.6069 -1.6611 0.0000
     vertex -1.2527 -3.0150 0.0000
   endloop
 endfacet
 facet normal 0.0000 0.0000 1.0000
   outer loop
     vertex -1.2527 -3.0150 0.0000
     vertex -0.8739 -3.1543 0.0000
     vertex -0.4898 -1.7044 0.0000
   endloop
 endfacet
 facet normal 0.0000 0.0000 1.0000
   outer loop
     vertex -0.6069 -1.6611 0.0000
     vertex -0.7826 -1.5563 0.0000
     vertex -1.6645 -2.7697 0.0000
   endloop
 endfacet
 facet normal 0.0000 0.0000 1.0000
   outer loop
     vertex -1.6645 -2.7697 0.0000
     vertex -1.2527 -3.0150 0.0000
     vertex -0.6069 -1.6611 0.0000
   endloop
 endfacet
 facet normal 0.0000 0.0000 1.0000
   outer loop
     vertex -0.7826 -1.5563 0.0000
     vertex -1.0958 -1.2782 0.0000
     vertex -2.1183 -2.3757 0.0000
   endloop
 endfacet
 facet normal 0.0000 0.0000 1.0000
   outer loop
     vertex -2.1183 -2.3757 0.0000
     vertex -1.6645 -2.7697 0.0000
     vertex -0.7826 -1.5563 0.0000
   endloop
 endfacet
 facet normal 0.0000 0.0000 1.0000
   outer loop
     vertex -1.0958 -1.2782 0.0000
     vertex -1.8190 -0.5716 0.0000
     vertex -2.7186 -1.7719 0.0000
   endloop
 endfacet
 facet normal 0.0000 0.0000 1.0000
   outer loop
     vertex -2.7186 -1.7719 0.0000
     vertex -2.1183 -2.3757 0.0000
     vertex -1.0958 -1.2782 0.0000
   endloop
 endfacet
 facet normal 0.0000 0.0000 1.0000
   outer loop
     vertex -1.8190 -0.5716 0.0000
     vertex -2.1506 -0.3834 0.0000
     vertex -2.7541 -1.7567 0.0000
   endloop
 endfacet
 facet normal 0.0000 0.0000 1.0000
   outer loop
     vertex -2.7541 -1.7567 0.0000
     vertex -2.7186 -1.7719 0.0000
     vertex -1.8190 -0.5716 0.0000
   endloop
 endfacet
 facet normal 0.0000 0.0000 1.0000
   outer loop
     vertex -2.1506 -0.3834 0.0000
     vertex -2.5072 -0.2645 0.0000
     vertex -2.8472 -1.7255 0.0000
   endloop
 endfacet
 facet normal 0.0000 0.0000 1.0000
   outer loop
     vertex -2.8472 -1.7255 0.0000
     vertex -2.7541 -1.7567 0.0000
     vertex -2.1506 -0.3834 0.0000
   endloop
 endfacet
 facet normal 0.0000 0.0000 1.0000
   outer loop
     vertex -2.5072 -0.2645 0.0000
     vertex -3.0979 -0.1835 0.0000
     vertex -3.1770 -1.6814 0.0000
   endloop
 endfacet
 facet normal 0.0000 0.0000 1.0000
   outer loop
     vertex -3.1770 -1.6814 0.0000
     vertex -2.8472 -1.7255 0.0000
     vertex -2.5072 -0.2645 0.0000
   endloop
 endfacet
 facet normal -0.0000 0.0000 1.0000
   outer loop
     vertex -3.0979 -0.1835 0.0000
     vertex -6.4136 -0.2817 0.0000
     vertex -6.2487 -1.7726 0.0000
   endloop
 endfacet
 facet normal -0.0000 0.0000 1.0000
   outer loop
     vertex -6.2487 -1.7726 0.0000
     vertex -3.1770 -1.6814 0.0000
     vertex -3.0979 -0.1835 0.0000
   endloop
 endfacet
 facet normal -0.0000 0.0000 1.0000
   outer loop
     vertex -6.4136 -0.2817 0.0000
     vertex -7.3249 -0.4585 0.0000
     vertex -6.9045 -1.8984 0.0000
   endloop
 endfacet
 facet normal -0.0000 0.0000 1.0000
   outer loop
     vertex -6.9045 -1.8984 0.0000
     vertex -6.2487 -1.7726 0.0000
     vertex -6.4136 -0.2817 0.0000
   endloop
 endfacet
 facet normal -0.0000 0.0000 1.0000
   outer loop
     vertex -7.3249 -0.4585 0.0000
     vertex -7.8256 -0.6570 0.0000
     vertex -7.1451 -1.9937 0.0000
   endloop
 endfacet
 facet normal -0.0000 0.0000 1.0000
   outer loop
     vertex -7.1451 -1.9937 0.0000
     vertex -6.9045 -1.8984 0.0000
     vertex -7.3249 -0.4585 0.0000
   endloop
 endfacet
 facet normal -0.0000 0.0000 1.0000
   outer loop
     vertex -7.8256 -0.6570 0.0000
     vertex -8.2261 -0.9106 0.0000
     vertex -7.3084 -2.0971 0.0000
   endloop
 endfacet
 facet normal -0.0000 0.0000 1.0000
   outer loop
     vertex -7.3084 -2.0971 0.0000
     vertex -7.1451 -1.9937 0.0000
     vertex -7.8256 -0.6570 0.0000
   endloop
 endfacet
 facet normal -0.0000 0.0000 1.0000
   outer loop
     vertex -8.2261 -0.9106 0.0000
     vertex -8.5912 -1.2522 0.0000
     vertex -7.4684 -2.2468 0.0000
   endloop
 endfacet
 facet normal -0.0000 0.0000 1.0000
   outer loop
     vertex -7.4684 -2.2468 0.0000
     vertex -7.3084 -2.0971 0.0000
     vertex -8.2261 -0.9106 0.0000
   endloop
 endfacet
 facet normal -0.0000 0.0000 1.0000
   outer loop
     vertex -8.5912 -1.2522 0.0000
     vertex -8.9697 -1.7695 0.0000
     vertex -7.6822 -2.5393 0.0000
   endloop
 endfacet
 facet normal -0.0000 0.0000 1.0000
   outer loop
     vertex -7.6822 -2.5393 0.0000
     vertex -7.4684 -2.2468 0.0000
     vertex -8.5912 -1.2522 0.0000
   endloop
 endfacet
 facet normal -0.0000 0.0000 1.0000
   outer loop
     vertex -8.9697 -1.7695 0.0000
     vertex -9.4606 -2.7933 0.0000
     vertex -8.0611 -3.3333 0.0000
   endloop
 endfacet
 facet normal -0.0000 0.0000 1.0000
   outer loop
     vertex -8.0611 -3.3333 0.0000
     vertex -7.6822 -2.5393 0.0000
     vertex -8.9697 -1.7695 0.0000
   endloop
 endfacet
 facet normal -0.0000 0.0000 1.0000
   outer loop
     vertex -9.4606 -2.7933 0.0000
     vertex -9.9452 -4.4181 0.0000
     vertex -8.4759 -4.7200 0.0000
   endloop
 endfacet
 facet normal -0.0000 0.0000 1.0000
   outer loop
     vertex -8.4759 -4.7200 0.0000
     vertex -8.0611 -3.3333 0.0000
     vertex -9.4606 -2.7933 0.0000
   endloop
 endfacet
 facet normal -0.0000 0.0000 1.0000
   outer loop
     vertex -9.9452 -4.4181 0.0000
     vertex -10.0354 -5.2048 0.0000
     vertex -8.5357 -5.2309 0.0000
   endloop
 endfacet
 facet normal -0.0000 0.0000 1.0000
   outer loop
     vertex -8.5357 -5.2309 0.0000
     vertex -8.4759 -4.7200 0.0000
     vertex -9.9452 -4.4181 0.0000
   endloop
 endfacet
 facet normal -0.0000 0.0000 1.0000
   outer loop
     vertex -10.0354 -5.2048 0.0000
     vertex -9.9990 -5.6620 0.0000
     vertex -8.5216 -5.4023 0.0000
   endloop
 endfacet
 facet normal -0.0000 0.0000 1.0000
   outer loop
     vertex -8.5216 -5.4023 0.0000
     vertex -8.5357 -5.2309 0.0000
     vertex -10.0354 -5.2048 0.0000
   endloop
 endfacet
 facet normal -0.0000 0.0000 1.0000
   outer loop
     vertex -9.9990 -5.6620 0.0000
     vertex -9.9025 -6.0132 0.0000
     vertex -8.4999 -5.4816 0.0000
   endloop
 endfacet
 facet normal -0.0000 0.0000 1.0000
   outer loop
     vertex -8.4999 -5.4816 0.0000
     vertex -8.5216 -5.4023 0.0000
     vertex -9.9990 -5.6620 0.0000
   endloop
 endfacet
 facet normal -0.0000 0.0000 1.0000
   outer loop
     vertex -9.9025 -6.0132 0.0000
     vertex -9.7641 -6.3022 0.0000
     vertex -8.4312 -5.6142 0.0000
   endloop
 endfacet
 facet normal -0.0000 0.0000 1.0000
   outer loop
     vertex -8.4312 -5.6142 0.0000
     vertex -8.4999 -5.4816 0.0000
     vertex -9.9025 -6.0132 0.0000
   endloop
 endfacet
 facet normal -0.0000 0.0000 1.0000
   outer loop
     vertex -9.7641 -6.3022 0.0000
     vertex -9.5791 -6.6316 0.0000
     vertex -8.1803 -6.0899 0.0000
   endloop
 endfacet
 facet normal -0.0000 0.0000 1.0000
   outer loop
     vertex -8.1803 -6.0899 0.0000
     vertex -8.4312 -5.6142 0.0000
     vertex -9.7641 -6.3022 0.0000
   endloop
 endfacet
 facet normal -0.0000 0.0000 1.0000
   outer loop
     vertex -9.5791 -6.6316 0.0000
     vertex -9.5612 -6.7151 0.0000
     vertex -8.0776 -6.4936 0.0000
   endloop
 endfacet
 facet normal -0.0000 0.0000 1.0000
   outer loop
     vertex -8.0776 -6.4936 0.0000
     vertex -8.1803 -6.0899 0.0000
     vertex -9.5791 -6.6316 0.0000
   endloop
 endfacet
 facet normal -0.0000 0.0000 1.0000
   outer loop
     vertex -9.5612 -6.7151 0.0000
     vertex -9.5330 -7.2624 0.0000
     vertex -8.0333 -7.2938 0.0000
   endloop
 endfacet
 facet normal -0.0000 0.0000 1.0000
   outer loop
     vertex -8.0333 -7.2938 0.0000
     vertex -8.0776 -6.4936 0.0000
     vertex -9.5612 -6.7151 0.0000
   endloop
 endfacet
 facet normal -0.0000 0.0000 1.0000
   outer loop
     vertex -9.5330 -7.2624 0.0000
     vertex -9.6901 -8.9024 0.0000
     vertex -8.2117 -9.1563 0.0000
   endloop
 endfacet
 facet normal -0.0000 0.0000 1.0000
   outer loop
     vertex -8.2117 -9.1563 0.0000
     vertex -8.0333 -7.2938 0.0000
     vertex -9.5330 -7.2624 0.0000
   endloop
 endfacet
 facet normal -0.0000 0.0000 1.0000
   outer loop
     vertex -9.6901 -8.9024 0.0000
     vertex -10.2845 -11.3174 0.0000
     vertex -8.7892 -11.4370 0.0000
   endloop
 endfacet
 facet normal -0.0000 0.0000 1.0000
   outer loop
     vertex -8.7892 -11.4370 0.0000
     vertex -8.2117 -9.1563 0.0000
     vertex -9.6901 -8.9024 0.0000
   endloop
 endfacet
 facet normal -0.0000 0.0000 1.0000
   outer loop
     vertex -10.2845 -11.3174 0.0000
     vertex -10.2366 -11.9604 0.0000
     vertex -8.7604 -11.6942 0.0000
   endloop
 endfacet
 facet normal -0.0000 0.0000 1.0000
   outer loop
     vertex -8.7604 -11.6942 0.0000
     vertex -8.7892 -11.4370 0.0000
     vertex -10.2845 -11.3174 0.0000
   endloop
 endfacet
 facet normal -0.0000 0.0000 1.0000
   outer loop
     vertex -10.2366 -11.9604 0.0000
     vertex -10.0637 -12.5805 0.0000
     vertex -8.6627 -12.0448 0.0000
   endloop
 endfacet
 facet normal -0.0000 0.0000 1.0000
   outer loop
     vertex -8.6627 -12.0448 0.0000
     vertex -8.7604 -11.6942 0.0000
     vertex -10.2366 -11.9604 0.0000
   endloop
 endfacet
 facet normal -0.0000 0.0000 1.0000
   outer loop
     vertex -10.0637 -12.5805 0.0000
     vertex -9.6910 -13.3367 0.0000
     vertex -8.4072 -12.5609 0.0000
   endloop
 endfacet
 facet normal -0.0000 0.0000 1.0000
   outer loop
     vertex -8.4072 -12.5609 0.0000
     vertex -8.6627 -12.0448 0.0000
     vertex -10.0637 -12.5805 0.0000
   endloop
 endfacet
 facet normal -0.0000 0.0000 1.0000
   outer loop
     vertex -9.6910 -13.3367 0.0000
     vertex -8.9620 -14.3397 0.0000
     vertex -7.8293 -13.3564 0.0000
   endloop
 endfacet
 facet normal -0.0000 0.0000 1.0000
   outer loop
     vertex -7.8293 -13.3564 0.0000
     vertex -8.4072 -12.5609 0.0000
     vertex -9.6910 -13.3367 0.0000
   endloop
 endfacet
 facet normal -0.0000 0.0000 1.0000
   outer loop
     vertex -8.9620 -14.3397 0.0000
     vertex -8.3039 -14.9797 0.0000
     vertex -7.3156 -13.8513 0.0000
   endloop
 endfacet
 facet normal -0.0000 0.0000 1.0000
   outer loop
     vertex -7.3156 -13.8513 0.0000
     vertex -7.8293 -13.3564 0.0000
     vertex -8.9620 -14.3397 0.0000
   endloop
 endfacet
 facet normal -0.0000 0.0000 1.0000
   outer loop
     vertex -8.3039 -14.9797 0.0000
     vertex -7.3704 -15.7088 0.0000
     vertex -6.2765 -14.6824 0.0000
   endloop
 endfacet
 facet normal -0.0000 0.0000 1.0000
   outer loop
     vertex -6.2765 -14.6824 0.0000
     vertex -7.3156 -13.8513 0.0000
     vertex -8.3039 -14.9797 0.0000
   endloop
 endfacet
 facet normal -0.0000 0.0000 1.0000
   outer loop
     vertex -7.3704 -15.7088 0.0000
     vertex -7.3067 -15.8096 0.0000
     vertex -5.9998 -15.0733 0.0000
   endloop
 endfacet
 facet normal -0.0000 0.0000 1.0000
   outer loop
     vertex -5.9998 -15.0733 0.0000
     vertex -6.2765 -14.6824 0.0000
     vertex -7.3704 -15.7088 0.0000
   endloop
 endfacet
 facet normal -0.0000 0.0000 1.0000
   outer loop
     vertex -7.3067 -15.8096 0.0000
     vertex -7.2629 -15.9077 0.0000
     vertex -5.8432 -15.4232 0.0000
   endloop
 endfacet
 facet normal -0.0000 0.0000 1.0000
   outer loop
     vertex -5.8432 -15.4232 0.0000
     vertex -5.9998 -15.0733 0.0000
     vertex -7.3067 -15.8096 0.0000
   endloop
 endfacet
 facet normal -0.0000 0.0000 1.0000
   outer loop
     vertex -7.2629 -15.9077 0.0000
     vertex -7.2443 -15.9840 0.0000
     vertex -5.7597 -15.7697 0.0000
   endloop
 endfacet
 facet normal -0.0000 0.0000 1.0000
   outer loop
     vertex -5.7597 -15.7697 0.0000
     vertex -5.8432 -15.4232 0.0000
     vertex -7.2629 -15.9077 0.0000
   endloop
 endfacet
 facet normal -0.0000 0.0000 1.0000
   outer loop
     vertex -7.2443 -15.9840 0.0000
     vertex -7.2418 -16.0378 0.0000
     vertex -5.7431 -16.1001 0.0000
   endloop
 endfacet
 facet normal -0.0000 0.0000 1.0000
   outer loop
     vertex -5.7431 -16.1001 0.0000
     vertex -5.7597 -15.7697 0.0000
     vertex -7.2443 -15.9840 0.0000
   endloop
 endfacet
 facet normal -0.0000 0.0000 1.0000
   outer loop
     vertex -7.2418 -16.0378 0.0000
     vertex -7.2466 -16.0727 0.0000
     vertex -5.7833 -16.4027 0.0000
   endloop
 endfacet
 facet normal -0.0000 0.0000 1.0000
   outer loop
     vertex -5.7833 -16.4027 0.0000
     vertex -5.7431 -16.1001 0.0000
     vertex -7.2418 -16.0378 0.0000
   endloop
 endfacet
 facet normal -0.0000 0.0000 1.0000
   outer loop
     vertex -7.2466 -16.0727 0.0000
     vertex -7.2585 -16.1102 0.0000
     vertex -5.8781 -16.6971 0.0000
   endloop
 endfacet
 facet normal -0.0000 0.0000 1.0000
   outer loop
     vertex -5.8781 -16.6971 0.0000
     vertex -5.7833 -16.4027 0.0000
     vertex -7.2466 -16.0727 0.0000
   endloop
 endfacet
 facet normal -0.0000 0.0000 1.0000
   outer loop
     vertex -7.2585 -16.1102 0.0000
     vertex -7.2776 -16.1462 0.0000
     vertex -6.0287 -16.9770 0.0000
   endloop
 endfacet
 facet normal -0.0000 0.0000 1.0000
   outer loop
     vertex -6.0287 -16.9770 0.0000
     vertex -5.8781 -16.6971 0.0000
     vertex -7.2585 -16.1102 0.0000
   endloop
 endfacet
 facet normal -0.0000 0.0000 1.0000
   outer loop
     vertex -7.2776 -16.1462 0.0000
     vertex -7.3055 -16.1808 0.0000
     vertex -6.2353 -17.2319 0.0000
   endloop
 endfacet
 facet normal -0.0000 0.0000 1.0000
   outer loop
     vertex -6.2353 -17.2319 0.0000
     vertex -6.0287 -16.9770 0.0000
     vertex -7.2776 -16.1462 0.0000
   endloop
 endfacet
 facet normal -0.0000 0.0000 1.0000
   outer loop
     vertex -7.3055 -16.1808 0.0000
     vertex -7.3464 -16.2151 0.0000
     vertex -6.4950 -17.4501 0.0000
   endloop
 endfacet
 facet normal -0.0000 0.0000 1.0000
   outer loop
     vertex -6.4950 -17.4501 0.0000
     vertex -6.2353 -17.2319 0.0000
     vertex -7.3055 -16.1808 0.0000
   endloop
 endfacet
 facet normal -0.0000 0.0000 1.0000
   outer loop
     vertex -7.3464 -16.2151 0.0000
     vertex -7.4086 -16.2495 0.0000
     vertex -6.8013 -17.6211 0.0000
   endloop
 endfacet
 facet normal -0.0000 0.0000 1.0000
   outer loop
     vertex -6.8013 -17.6211 0.0000
     vertex -6.4950 -17.4501 0.0000
     vertex -7.3464 -16.2151 0.0000
   endloop
 endfacet
 facet normal -0.0000 0.0000 1.0000
   outer loop
     vertex -7.4086 -16.2495 0.0000
     vertex -7.4979 -16.2796 0.0000
     vertex -7.1495 -17.7385 0.0000
   endloop
 endfacet
 facet normal -0.0000 0.0000 1.0000
   outer loop
     vertex -7.1495 -17.7385 0.0000
     vertex -6.8013 -17.6211 0.0000
     vertex -7.4086 -16.2495 0.0000
   endloop
 endfacet
 facet normal -0.0000 0.0000 1.0000
   outer loop
     vertex -7.4979 -16.2796 0.0000
     vertex -7.6556 -16.3025 0.0000
     vertex -7.5784 -17.8005 0.0000
   endloop
 endfacet
 facet normal -0.0000 0.0000 1.0000
   outer loop
     vertex -7.5784 -17.8005 0.0000
     vertex -7.1495 -17.7385 0.0000
     vertex -7.4979 -16.2796 0.0000
   endloop
 endfacet
 facet normal 0.0000 0.0000 1.0000
   outer loop
     vertex -7.6556 -16.3025 0.0000
     vertex -8.0328 -16.2868 0.0000
     vertex -8.2245 -17.7745 0.0000
   endloop
 endfacet
 facet normal 0.0000 0.0000 1.0000
   outer loop
     vertex -8.2245 -17.7745 0.0000
     vertex -7.5784 -17.8005 0.0000
     vertex -7.6556 -16.3025 0.0000
   endloop
 endfacet
 facet normal 0.0000 0.0000 1.0000
   outer loop
     vertex -8.0328 -16.2868 0.0000
     vertex -8.8299 -16.1118 0.0000
     vertex -9.2701 -17.5457 0.0000
   endloop
 endfacet
 facet normal 0.0000 0.0000 1.0000
   outer loop
     vertex -9.2701 -17.5457 0.0000
     vertex -8.2245 -17.7745 0.0000
     vertex -8.0328 -16.2868 0.0000
   endloop
 endfacet
 facet normal 0.0000 0.0000 1.0000
   outer loop
     vertex -8.8299 -16.1118 0.0000
     vertex -9.5797 -15.8131 0.0000
     vertex -10.2609 -17.1495 0.0000
   endloop
 endfacet
 facet normal 0.0000 0.0000 1.0000
   outer loop
     vertex -10.2609 -17.1495 0.0000
     vertex -9.2701 -17.5457 0.0000
     vertex -8.8299 -16.1118 0.0000
   endloop
 endfacet
 facet normal 0.0000 0.0000 1.0000
   outer loop
     vertex -9.5797 -15.8131 0.0000
     vertex -9.8531 -15.6405 0.0000
     vertex -10.7663 -16.8305 0.0000
   endloop
 endfacet
 facet normal 0.0000 0.0000 1.0000
   outer loop
     vertex -10.7663 -16.8305 0.0000
     vertex -10.2609 -17.1495 0.0000
     vertex -9.5797 -15.8131 0.0000
   endloop
 endfacet
 facet normal 0.0000 0.0000 1.0000
   outer loop
     vertex -9.8531 -15.6405 0.0000
     vertex -9.9768 -15.5262 0.0000
     vertex -11.0917 -16.5297 0.0000
   endloop
 endfacet
 facet normal 0.0000 0.0000 1.0000
   outer loop
     vertex -11.0917 -16.5297 0.0000
     vertex -10.7663 -16.8305 0.0000
     vertex -9.8531 -15.6405 0.0000
   endloop
 endfacet
 facet normal 0.0000 0.0000 1.0000
   outer loop
     vertex -9.9768 -15.5262 0.0000
     vertex -10.0457 -15.4338 0.0000
     vertex -11.3242 -16.2182 0.0000
   endloop
 endfacet
 facet normal 0.0000 0.0000 1.0000
   outer loop
     vertex -11.3242 -16.2182 0.0000
     vertex -11.0917 -16.5297 0.0000
     vertex -9.9768 -15.5262 0.0000
   endloop
 endfacet
 facet normal 0.0000 0.0000 1.0000
   outer loop
     vertex -10.0457 -15.4338 0.0000
     vertex -10.0913 -15.3424 0.0000
     vertex -11.4930 -15.8764 0.0000
   endloop
 endfacet
 facet normal 0.0000 0.0000 1.0000
   outer loop
     vertex -11.4930 -15.8764 0.0000
     vertex -11.3242 -16.2182 0.0000
     vertex -10.0457 -15.4338 0.0000
   endloop
 endfacet
 facet normal 0.0000 0.0000 1.0000
   outer loop
     vertex -10.0913 -15.3424 0.0000
     vertex -10.1787 -15.0125 0.0000
     vertex -11.6342 -15.3751 0.0000
   endloop
 endfacet
 facet normal 0.0000 0.0000 1.0000
   outer loop
     vertex -11.6342 -15.3751 0.0000
     vertex -11.4930 -15.8764 0.0000
     vertex -10.0913 -15.3424 0.0000
   endloop
 endfacet
 facet normal -0.0000 0.0000 1.0000
   outer loop
     vertex -10.1787 -15.0125 0.0000
     vertex -10.4123 -13.9681 0.0000
     vertex -11.8679 -14.3303 0.0000
   endloop
 endfacet
 facet normal 0.0000 0.0000 1.0000
   outer loop
     vertex -11.8679 -14.3303 0.0000
     vertex -11.6342 -15.3751 0.0000
     vertex -10.1787 -15.0125 0.0000
   endloop
 endfacet
endsolid
