solid Exported from Blender-2.72 (sub 0)
facet normal 0.000000 0.000000 1.000000
outer loop
vertex -8.464116 -6.442760 0.000000
vertex -9.513583 -5.525524 0.000000
vertex -9.762433 -5.489597 0.000000
endloop
endfacet
facet normal 0.000000 -0.000000 1.000000
outer loop
vertex -9.762433 -5.489597 0.000000
vertex -10.744133 -6.074584 0.000000
vertex -8.464116 -6.442760 0.000000
endloop
endfacet
facet normal 0.000000 0.000000 1.000000
outer loop
vertex -9.762433 -5.489597 0.000000
vertex -9.807716 -4.883853 0.000000
vertex -10.672355 -4.618357 0.000000
endloop
endfacet
facet normal 0.000000 -0.000000 1.000000
outer loop
vertex -10.672355 -4.618357 0.000000
vertex -10.744133 -6.074584 0.000000
vertex -9.762433 -5.489597 0.000000
endloop
endfacet
facet normal -0.000000 -0.000000 1.000000
outer loop
vertex 2.664883 -6.089732 -0.000001
vertex -2.950944 -7.541192 -0.000001
vertex -2.663655 -7.903892 -0.000001
endloop
endfacet
facet normal -0.000000 -0.000000 1.000000
outer loop
vertex 1.951480 -4.847222 -0.000001
vertex -0.163868 -5.409604 -0.000001
vertex -2.950944 -7.541192 -0.000001
endloop
endfacet
facet normal -0.000000 -0.000000 1.000000
outer loop
vertex 2.664883 -6.089732 -0.000001
vertex 1.951480 -4.847222 -0.000001
vertex -2.950944 -7.541192 -0.000001
endloop
endfacet
facet normal 0.000000 0.000000 1.000000
outer loop
vertex -2.950944 -7.541192 -0.000001
vertex -4.989224 -8.439469 0.000000
vertex -2.663655 -7.903892 -0.000001
endloop
endfacet
facet normal 0.000001 -0.000000 1.000000
outer loop
vertex -3.238233 -7.178492 -0.000001
vertex -4.869760 -7.954744 0.000000
vertex -4.989224 -8.439469 0.000000
endloop
endfacet
facet normal 0.000000 0.000000 1.000000
outer loop
vertex -2.950944 -7.541192 -0.000001
vertex -3.238233 -7.178492 -0.000001
vertex -4.989224 -8.439469 0.000000
endloop
endfacet
facet normal -0.000000 0.000000 1.000000
outer loop
vertex 3.835858 0.389553 -0.000000
vertex 3.671809 -1.248124 -0.000000
vertex 5.219370 -1.806531 0.000000
endloop
endfacet
facet normal -0.000000 0.000000 1.000000
outer loop
vertex 5.219370 -1.806531 0.000000
vertex 6.329746 -0.591639 0.000000
vertex 3.835858 0.389553 -0.000000
endloop
endfacet
facet normal 0.000000 -0.000000 1.000000
outer loop
vertex 3.176116 -0.186984 -0.000000
vertex 3.145650 -0.491123 -0.000000
vertex 3.671809 -1.248124 -0.000000
endloop
endfacet
facet normal 0.000000 -0.000000 1.000000
outer loop
vertex 3.671809 -1.248124 -0.000000
vertex 3.835858 0.389553 -0.000000
vertex 3.176116 -0.186984 -0.000000
endloop
endfacet
facet normal -0.000000 -0.000000 1.000000
outer loop
vertex 6.413648 -5.203530 0.000000
vertex 5.071319 -4.251139 0.000000
vertex 4.167145 -4.792024 -0.000000
endloop
endfacet
facet normal -0.000000 -0.000000 1.000000
outer loop
vertex 4.167145 -4.792024 -0.000000
vertex 4.751822 -6.330545 -0.000000
vertex 6.413648 -5.203530 0.000000
endloop
endfacet
facet normal -0.000000 -0.000000 1.000000
outer loop
vertex 4.751822 -6.330545 -0.000000
vertex 4.167145 -4.792024 -0.000000
vertex 1.951480 -4.847222 -0.000001
endloop
endfacet
facet normal -0.000000 -0.000000 1.000000
outer loop
vertex 1.951480 -4.847222 -0.000001
vertex 2.664883 -6.089732 -0.000001
vertex 4.751822 -6.330545 -0.000000
endloop
endfacet
facet normal -0.000000 -0.000000 1.000000
outer loop
vertex -2.950944 -7.541192 -0.000001
vertex -0.163868 -5.409604 -0.000001
vertex -3.238233 -7.178492 -0.000001
endloop
endfacet
facet normal 0.000000 -0.000000 1.000000
outer loop
vertex 2.124195 0.029588 -0.000000
vertex 2.093729 -0.274551 -0.000000
vertex 3.145650 -0.491123 -0.000000
endloop
endfacet
facet normal 0.000000 0.000000 1.000000
outer loop
vertex 3.145650 -0.491123 -0.000000
vertex 3.176116 -0.186984 -0.000000
vertex 2.124195 0.029588 -0.000000
endloop
endfacet
facet normal 0.000000 0.000000 1.000000
outer loop
vertex 1.272904 0.550300 -0.000000
vertex 2.154661 0.333727 -0.000000
vertex 1.303370 0.854439 -0.000000
endloop
endfacet
facet normal -0.000000 0.000000 1.000000
outer loop
vertex 2.063263 -0.578691 -0.000000
vertex 1.181506 -0.362119 -0.000000
vertex 1.151040 -0.666258 -0.000000
endloop
endfacet
facet normal 0.000000 -0.000000 1.000000
outer loop
vertex 1.211972 -0.057979 -0.000000
vertex 1.181506 -0.362119 -0.000000
vertex 2.063263 -0.578691 -0.000000
endloop
endfacet
facet normal 0.000000 0.000000 1.000000
outer loop
vertex 2.063263 -0.578691 -0.000000
vertex 2.093729 -0.274551 -0.000000
vertex 1.211972 -0.057979 -0.000000
endloop
endfacet
facet normal 0.000000 -0.000000 1.000000
outer loop
vertex 1.242438 0.246160 -0.000000
vertex 1.211972 -0.057979 -0.000000
vertex 2.093729 -0.274551 -0.000000
endloop
endfacet
facet normal 0.000000 0.000000 1.000000
outer loop
vertex 2.093729 -0.274551 -0.000000
vertex 2.124195 0.029588 -0.000000
vertex 1.242438 0.246160 -0.000000
endloop
endfacet
facet normal 0.000000 -0.000000 1.000000
outer loop
vertex 1.272904 0.550300 -0.000000
vertex 1.242438 0.246160 -0.000000
vertex 2.124195 0.029588 -0.000000
endloop
endfacet
facet normal 0.000000 0.000000 1.000000
outer loop
vertex 2.124195 0.029588 -0.000000
vertex 2.154661 0.333727 -0.000000
vertex 1.272904 0.550300 -0.000000
endloop
endfacet
facet normal 0.000000 0.000000 1.000000
outer loop
vertex 0.638184 1.055542 -0.000000
vertex 1.303370 0.854439 -0.000000
vertex 0.668650 1.359681 -0.000000
endloop
endfacet
facet normal -0.000000 0.000000 1.000000
outer loop
vertex 1.151040 -0.666258 -0.000000
vertex 0.485854 -0.465156 -0.000000
vertex 0.455388 -0.769295 -0.000000
endloop
endfacet
facet normal 0.000000 -0.000000 1.000000
outer loop
vertex 0.516320 -0.161016 -0.000000
vertex 0.485854 -0.465156 -0.000000
vertex 1.151040 -0.666258 -0.000000
endloop
endfacet
facet normal 0.000000 0.000000 1.000000
outer loop
vertex 1.151040 -0.666258 -0.000000
vertex 1.181506 -0.362119 -0.000000
vertex 0.516320 -0.161016 -0.000000
endloop
endfacet
facet normal 0.000000 -0.000000 1.000000
outer loop
vertex 0.638184 1.055542 -0.000000
vertex 0.607718 0.751402 -0.000000
vertex 1.272904 0.550300 -0.000000
endloop
endfacet
facet normal 0.000000 0.000000 1.000000
outer loop
vertex 1.272904 0.550300 -0.000000
vertex 1.303370 0.854439 -0.000000
vertex 0.638184 1.055542 -0.000000
endloop
endfacet
facet normal 0.000000 -0.000000 1.000000
outer loop
vertex 0.607718 0.751402 -0.000000
vertex 0.577252 0.447263 -0.000000
vertex 1.242438 0.246160 -0.000000
endloop
endfacet
facet normal 0.000000 0.000000 1.000000
outer loop
vertex 1.242438 0.246160 -0.000000
vertex 1.272904 0.550300 -0.000000
vertex 0.607718 0.751402 -0.000000
endloop
endfacet
facet normal 0.000000 -0.000000 1.000000
outer loop
vertex 0.577252 0.447263 -0.000000
vertex 0.546786 0.143123 -0.000000
vertex 1.211972 -0.057979 -0.000000
endloop
endfacet
facet normal 0.000000 0.000000 1.000000
outer loop
vertex 1.211972 -0.057979 -0.000000
vertex 1.242438 0.246160 -0.000000
vertex 0.577252 0.447263 -0.000000
endloop
endfacet
facet normal 0.000000 -0.000000 1.000000
outer loop
vertex 0.546786 0.143123 -0.000000
vertex 0.516320 -0.161016 -0.000000
vertex 1.181506 -0.362119 -0.000000
endloop
endfacet
facet normal 0.000000 0.000000 1.000000
outer loop
vertex 1.181506 -0.362119 -0.000000
vertex 1.211972 -0.057979 -0.000000
vertex 0.546786 0.143123 -0.000000
endloop
endfacet
facet normal 0.000000 -0.000000 1.000000
outer loop
vertex 0.004405 0.875159 -0.000000
vertex -0.026061 0.571019 -0.000000
vertex 0.577252 0.447263 -0.000000
endloop
endfacet
facet normal 0.000000 0.000000 1.000000
outer loop
vertex 0.577252 0.447263 -0.000000
vertex 0.607718 0.751402 -0.000000
vertex 0.004405 0.875159 -0.000000
endloop
endfacet
facet normal 0.000000 -0.000000 1.000000
outer loop
vertex -0.117458 -0.341399 -0.000000
vertex -0.147924 -0.645539 -0.000000
vertex 0.455388 -0.769295 -0.000000
endloop
endfacet
facet normal 0.000000 0.000000 1.000000
outer loop
vertex 0.455388 -0.769295 -0.000000
vertex 0.485854 -0.465156 -0.000000
vertex -0.117458 -0.341399 -0.000000
endloop
endfacet
facet normal 0.000000 -0.000000 1.000000
outer loop
vertex 0.034871 1.179298 -0.000000
vertex 0.004405 0.875159 -0.000000
vertex 0.607718 0.751402 -0.000000
endloop
endfacet
facet normal 0.000000 0.000000 1.000000
outer loop
vertex 0.607718 0.751402 -0.000000
vertex 0.638184 1.055542 -0.000000
vertex 0.034871 1.179298 -0.000000
endloop
endfacet
facet normal 0.000000 -0.000000 1.000000
outer loop
vertex -0.086993 -0.037260 -0.000000
vertex -0.117458 -0.341399 -0.000000
vertex 0.485854 -0.465156 -0.000000
endloop
endfacet
facet normal 0.000000 0.000000 1.000000
outer loop
vertex 0.485854 -0.465156 -0.000000
vertex 0.516320 -0.161016 -0.000000
vertex -0.086993 -0.037260 -0.000000
endloop
endfacet
facet normal 0.000000 -0.000000 1.000000
outer loop
vertex -0.056527 0.266880 -0.000000
vertex -0.086993 -0.037260 -0.000000
vertex 0.516320 -0.161016 -0.000000
endloop
endfacet
facet normal 0.000000 0.000000 1.000000
outer loop
vertex 0.516320 -0.161016 -0.000000
vertex 0.546786 0.143123 -0.000000
vertex -0.056527 0.266880 -0.000000
endloop
endfacet
facet normal 0.000000 -0.000000 1.000000
outer loop
vertex 0.065337 1.483437 -0.000000
vertex 0.034871 1.179298 -0.000000
vertex 0.638184 1.055542 -0.000000
endloop
endfacet
facet normal 0.000000 0.000000 1.000000
outer loop
vertex 0.638184 1.055542 -0.000000
vertex 0.668650 1.359681 -0.000000
vertex 0.065337 1.483437 -0.000000
endloop
endfacet
facet normal 0.000000 -0.000000 1.000000
outer loop
vertex -0.026061 0.571019 -0.000000
vertex -0.056527 0.266880 -0.000000
vertex 0.546786 0.143123 -0.000000
endloop
endfacet
facet normal 0.000000 0.000000 1.000000
outer loop
vertex 0.546786 0.143123 -0.000000
vertex 0.577252 0.447263 -0.000000
vertex -0.026061 0.571019 -0.000000
endloop
endfacet
facet normal 0.000000 -0.000000 1.000000
outer loop
vertex -7.103783 -9.772094 0.000000
vertex -4.989224 -8.439469 0.000000
vertex -4.869760 -7.954744 0.000000
endloop
endfacet
facet normal 0.000000 0.000000 1.000000
outer loop
vertex -6.714744 -14.489540 0.000000
vertex -5.346093 -10.494324 0.000000
vertex -7.179776 -9.866155 0.000000
endloop
endfacet
facet normal 0.000000 -0.000000 1.000000
outer loop
vertex -7.179776 -9.866155 0.000000
vertex -8.548427 -13.861371 0.000000
vertex -6.714744 -14.489540 0.000000
endloop
endfacet
facet normal 0.000000 0.000000 1.000000
outer loop
vertex -8.052261 -11.731485 2.000000
vertex -6.769655 -14.484800 2.000000
vertex -5.298943 -10.448876 2.000000
endloop
endfacet
facet normal -0.000000 0.000000 1.000000
outer loop
vertex -0.432275 -16.641741 0.000000
vertex -0.271877 -17.604128 0.000000
vertex 1.257172 -14.384169 0.000000
endloop
endfacet
facet normal -0.000000 0.000000 1.000000
outer loop
vertex 1.257172 -14.384169 0.000000
vertex 0.936376 -12.646524 0.000000
vertex -0.432275 -16.641741 0.000000
endloop
endfacet
facet normal 0.000000 -0.000000 1.000000
outer loop
vertex -5.346093 -10.494324 0.000000
vertex -6.714744 -14.489540 0.000000
vertex -0.432275 -16.641741 0.000000
endloop
endfacet
facet normal 0.000000 0.000000 1.000000
outer loop
vertex -0.432275 -16.641741 0.000000
vertex 0.936376 -12.646524 0.000000
vertex -5.346093 -10.494324 0.000000
endloop
endfacet
facet normal -0.000000 -0.000000 1.000000
outer loop
vertex -7.660702 -8.085864 0.000000
vertex -7.010962 -7.327835 0.000000
vertex -7.428652 -7.652704 0.000000
endloop
endfacet
facet normal 0.000000 -0.000000 1.000000
outer loop
vertex -4.869760 -7.954744 0.000000
vertex -6.593273 -7.126725 0.000000
vertex -7.010962 -7.327835 0.000000
endloop
endfacet
facet normal -0.000000 0.000000 1.000000
outer loop
vertex -7.521472 -9.307993 0.000000
vertex -7.103783 -9.772094 0.000000
vertex -4.869760 -7.954744 0.000000
endloop
endfacet
facet normal -0.000000 -0.000000 1.000000
outer loop
vertex -7.660702 -8.085864 0.000000
vertex -7.645232 -8.673723 0.000000
vertex -7.521472 -9.307993 0.000000
endloop
endfacet
facet normal 0.000000 -0.000000 1.000000
outer loop
vertex -7.660702 -8.085864 0.000000
vertex -4.869760 -7.954744 0.000000
vertex -7.010962 -7.327835 0.000000
endloop
endfacet
facet normal 0.000000 -0.000000 1.000000
outer loop
vertex -7.660702 -8.085864 0.000000
vertex -7.521472 -9.307993 0.000000
vertex -4.869760 -7.954744 0.000000
endloop
endfacet
facet normal 0.000000 0.000000 1.000000
outer loop
vertex 0.972526 -12.566505 -0.000000
vertex 1.179971 -11.909429 -0.000000
vertex -4.989224 -8.439469 0.000000
endloop
endfacet
facet normal 0.000000 0.000000 1.000000
outer loop
vertex -4.989224 -8.439469 0.000000
vertex -7.103783 -9.772094 0.000000
vertex 0.972526 -12.566505 -0.000000
endloop
endfacet
facet normal 0.000000 0.000000 1.000000
outer loop
vertex 2.106289 -14.263898 0.000000
vertex 5.241458 -15.960022 0.000000
vertex 5.796706 -14.253682 -0.000000
endloop
endfacet
facet normal 0.000000 0.000000 1.000000
outer loop
vertex 5.796706 -14.253682 -0.000000
vertex 2.246100 -13.938530 -0.000000
vertex 2.106289 -14.263898 0.000000
endloop
endfacet
facet normal 0.000000 0.000000 1.000000
outer loop
vertex 2.159599 -13.571963 -0.000000
vertex 5.455478 -12.214279 -0.000000
vertex 4.155118 -10.654682 -0.000000
endloop
endfacet
facet normal 0.000000 0.000000 1.000000
outer loop
vertex 4.155118 -10.654682 -0.000000
vertex 1.962912 -13.202449 -0.000000
vertex 2.159599 -13.571963 -0.000000
endloop
endfacet
facet normal 0.000000 0.000000 1.000000
outer loop
vertex 2.246100 -13.938530 -0.000000
vertex 5.796706 -14.253682 -0.000000
vertex 5.455478 -12.214279 -0.000000
endloop
endfacet
facet normal -0.000000 0.000000 1.000000
outer loop
vertex 5.455478 -12.214279 -0.000000
vertex 2.159599 -13.571963 -0.000000
vertex 2.246100 -13.938530 -0.000000
endloop
endfacet
facet normal 0.000000 -0.000000 1.000000
outer loop
vertex 1.962912 -13.202449 -0.000000
vertex 4.155118 -10.654682 -0.000000
vertex 3.250929 -10.374794 -0.000000
endloop
endfacet
facet normal 0.000000 -0.000000 1.000000
outer loop
vertex 3.250929 -10.374794 -0.000000
vertex 1.474780 -12.652102 -0.000000
vertex 1.962912 -13.202449 -0.000000
endloop
endfacet
facet normal -0.000000 0.000000 1.000000
outer loop
vertex 1.474780 -12.652102 -0.000000
vertex 3.250929 -10.374794 -0.000000
vertex 1.179971 -11.909429 -0.000000
endloop
endfacet
facet normal 0.000000 0.000000 1.000000
outer loop
vertex 1.179971 -11.909429 -0.000000
vertex 0.972526 -12.566505 -0.000000
vertex 1.474780 -12.652102 -0.000000
endloop
endfacet
facet normal 0.000000 -0.000000 1.000000
outer loop
vertex 1.549281 -14.427302 0.000000
vertex 2.911303 -17.721392 0.000000
vertex 5.241458 -15.960022 0.000000
endloop
endfacet
facet normal 0.000000 0.000000 1.000000
outer loop
vertex 5.241458 -15.960022 0.000000
vertex 2.106289 -14.263898 0.000000
vertex 1.549281 -14.427302 0.000000
endloop
endfacet
facet normal -0.000000 -0.000000 1.000000
outer loop
vertex 1.257172 -14.384169 0.000000
vertex -0.271877 -17.604128 0.000000
vertex 2.911303 -17.721392 0.000000
endloop
endfacet
facet normal -0.000000 -0.000000 1.000000
outer loop
vertex 2.911303 -17.721392 0.000000
vertex 1.549281 -14.427302 0.000000
vertex 1.257172 -14.384169 0.000000
endloop
endfacet
facet normal 0.000000 0.000000 1.000000
outer loop
vertex -9.807716 -4.883853 0.000000
vertex -9.510064 -4.327620 0.000000
vertex -9.984773 -3.153056 0.000000
endloop
endfacet
facet normal 0.000000 -0.000000 1.000000
outer loop
vertex -9.984773 -3.153056 0.000000
vertex -10.672355 -4.618357 0.000000
vertex -9.807716 -4.883853 0.000000
endloop
endfacet
facet normal 0.000000 0.000000 1.000000
outer loop
vertex -9.239886 -4.366625 0.000000
vertex -9.205267 -4.970829 0.000000
vertex -8.073896 -5.037953 0.000000
endloop
endfacet
facet normal -0.000000 0.000000 1.000000
outer loop
vertex -8.073896 -5.037953 0.000000
vertex -8.020119 -3.470306 0.000000
vertex -9.239886 -4.366625 0.000000
endloop
endfacet
facet normal 0.000000 -0.000000 1.000000
outer loop
vertex -3.732624 0.388639 -0.000000
vertex -3.752321 0.191999 -0.000000
vertex -3.270146 -0.332782 -0.000000
endloop
endfacet
facet normal 0.000000 0.000000 1.000000
outer loop
vertex -3.270146 -0.332782 -0.000000
vertex -3.239681 -0.028643 -0.000000
vertex -3.732624 0.388639 -0.000000
endloop
endfacet
facet normal 0.000000 0.000000 1.000000
outer loop
vertex -9.510064 -4.327620 0.000000
vertex -9.239886 -4.366625 0.000000
vertex -8.020119 -3.470306 0.000000
endloop
endfacet
facet normal -0.000000 -0.000000 1.000000
outer loop
vertex -8.020119 -3.470306 0.000000
vertex -9.984773 -3.153056 0.000000
vertex -9.510064 -4.327620 0.000000
endloop
endfacet
facet normal -0.000000 0.000000 1.000000
outer loop
vertex 6.329746 -0.591639 0.000000
vertex 5.219370 -1.806531 0.000000
vertex 5.530623 -3.135620 0.000000
endloop
endfacet
facet normal 0.000000 0.000000 1.000000
outer loop
vertex 5.530623 -3.135620 0.000000
vertex 7.173192 -3.239850 0.000000
vertex 6.329746 -0.591639 0.000000
endloop
endfacet
facet normal -0.000000 -0.000000 1.000000
outer loop
vertex 7.173192 -3.239850 0.000000
vertex 5.530623 -3.135620 0.000000
vertex 5.071319 -4.251139 0.000000
endloop
endfacet
facet normal -0.000000 -0.000000 1.000000
outer loop
vertex 5.071319 -4.251139 0.000000
vertex 6.413648 -5.203530 0.000000
vertex 7.173192 -3.239850 0.000000
endloop
endfacet
facet normal 0.000000 0.000000 1.000000
outer loop
vertex -9.599715 -12.412505 0.000000
vertex -8.214002 -9.176032 0.000000
vertex -8.529780 -8.984086 0.000000
endloop
endfacet
facet normal 0.000000 -0.000000 1.000000
outer loop
vertex -8.529780 -8.984086 0.000000
vertex -10.246480 -11.000211 0.000000
vertex -9.599715 -12.412505 0.000000
endloop
endfacet
facet normal 0.000000 0.000000 1.000000
outer loop
vertex -10.246480 -11.000211 0.000000
vertex -8.529780 -8.984086 0.000000
vertex -8.868747 -8.747625 0.000000
endloop
endfacet
facet normal 0.000000 -0.000000 1.000000
outer loop
vertex -8.868747 -8.747625 0.000000
vertex -10.764109 -9.659291 0.000000
vertex -10.246480 -11.000211 0.000000
endloop
endfacet
facet normal 0.000000 0.000000 1.000000
outer loop
vertex -8.548427 -13.861371 0.000000
vertex -7.179776 -9.866155 0.000000
vertex -8.214002 -9.176032 0.000000
endloop
endfacet
facet normal 0.000000 -0.000000 1.000000
outer loop
vertex -8.214002 -9.176032 0.000000
vertex -9.599715 -12.412505 0.000000
vertex -8.548427 -13.861371 0.000000
endloop
endfacet
facet normal -0.000000 0.000000 -1.000000
outer loop
vertex -4.838563 -11.524264 2.999999
vertex -4.504164 -11.346313 2.999999
vertex -4.660613 -11.858665 2.999999
endloop
endfacet
facet normal -0.000000 0.000000 -1.000000
outer loop
vertex -3.912854 -11.712544 2.999999
vertex -3.578454 -11.534594 2.999999
vertex -3.734904 -12.046945 2.999999
endloop
endfacet
facet normal -0.000000 0.000000 -1.000000
outer loop
vertex -3.096974 -11.963584 2.999999
vertex -2.762574 -11.785633 2.999999
vertex -2.919024 -12.297984 2.999999
endloop
endfacet
facet normal -0.000000 0.000000 -1.000000
outer loop
vertex -3.379394 -13.061883 2.999999
vertex -3.044994 -12.883933 2.999999
vertex -3.201444 -13.396283 2.999999
endloop
endfacet
facet normal -0.000000 0.000000 -1.000000
outer loop
vertex -4.195273 -12.810843 2.999999
vertex -3.860874 -12.632894 2.999999
vertex -4.017323 -13.145244 2.999999
endloop
endfacet
facet normal -0.000000 0.000000 -1.000000
outer loop
vertex -5.120983 -12.622563 2.999999
vertex -4.786583 -12.444613 2.999999
vertex -4.943033 -12.956964 2.999999
endloop
endfacet
facet normal -0.000000 0.000000 -1.000000
outer loop
vertex -3.755954 -14.160182 2.999999
vertex -3.421554 -13.982232 2.999999
vertex -3.578004 -14.494582 2.999999
endloop
endfacet
facet normal -0.000000 0.000000 -1.000000
outer loop
vertex -4.571833 -13.909142 2.999999
vertex -4.237434 -13.731193 2.999999
vertex -4.393883 -14.243543 2.999999
endloop
endfacet
facet normal -0.000000 0.000000 -1.000000
outer loop
vertex -5.497543 -13.720862 2.999999
vertex -5.163143 -13.542912 2.999999
vertex -5.319592 -14.055263 2.999999
endloop
endfacet
facet normal -0.000000 0.000000 -1.000000
outer loop
vertex -0.508125 -12.653943 2.999999
vertex -0.173726 -12.475993 2.999999
vertex -0.330175 -12.988343 2.999999
endloop
endfacet
facet normal -0.000000 0.000000 -1.000000
outer loop
vertex -1.324005 -12.402904 2.999999
vertex -0.989605 -12.224954 2.999999
vertex -1.146054 -12.737304 2.999999
endloop
endfacet
facet normal -0.000000 0.000000 -1.000000
outer loop
vertex -2.249714 -12.214623 2.999999
vertex -1.915315 -12.036674 2.999999
vertex -2.071764 -12.549024 2.999999
endloop
endfacet
facet normal -0.000000 0.000000 -1.000000
outer loop
vertex -0.868995 -13.752242 2.999999
vertex -0.534595 -13.574292 2.999999
vertex -0.691045 -14.086642 2.999999
endloop
endfacet
facet normal -0.000000 0.000000 -1.000000
outer loop
vertex -1.684875 -13.501203 2.999999
vertex -1.350475 -13.323253 2.999999
vertex -1.506924 -13.835603 2.999999
endloop
endfacet
facet normal -0.000000 0.000000 -1.000000
outer loop
vertex -2.610584 -13.312922 2.999999
vertex -2.276185 -13.134973 2.999999
vertex -2.432634 -13.647323 2.999999
endloop
endfacet
facet normal -0.000000 0.000000 -1.000000
outer loop
vertex -1.135725 -14.866232 2.999999
vertex -0.801325 -14.688282 2.999999
vertex -0.957775 -15.200632 2.999999
endloop
endfacet
facet normal -0.000000 0.000000 -1.000000
outer loop
vertex -1.951604 -14.615192 2.999999
vertex -1.617205 -14.437243 2.999999
vertex -1.773654 -14.949593 2.999999
endloop
endfacet
facet normal -0.000000 0.000000 -1.000000
outer loop
vertex -2.877314 -14.426912 2.999999
vertex -2.542914 -14.248962 2.999999
vertex -2.699364 -14.761312 2.999999
endloop
endfacet
facet normal 0.000000 0.000000 1.000000
outer loop
vertex -10.764109 -9.659291 0.000000
vertex -8.868747 -8.747625 0.000000
vertex -8.997768 -8.545382 0.000000
endloop
endfacet
facet normal -0.000000 -0.000000 1.000000
outer loop
vertex -8.997768 -8.545382 0.000000
vertex -11.062887 -8.150344 0.000000
vertex -10.764109 -9.659291 0.000000
endloop
endfacet
facet normal 0.000000 0.000000 1.000000
outer loop
vertex -11.062887 -8.150344 0.000000
vertex -8.997768 -8.545382 0.000000
vertex -9.127482 -8.158308 -0.000000
endloop
endfacet
facet normal 0.000000 -0.000000 1.000000
outer loop
vertex -9.127482 -8.158308 -0.000000
vertex -11.036150 -7.882970 0.000000
vertex -11.062887 -8.150344 0.000000
endloop
endfacet
facet normal 0.000000 -0.000000 1.000000
outer loop
vertex -11.036150 -7.882970 0.000000
vertex -9.127482 -8.158308 -0.000000
vertex -8.882201 -6.639346 -0.000000
endloop
endfacet
facet normal 0.000000 -0.000000 1.000000
outer loop
vertex -8.882201 -6.639346 -0.000000
vertex -10.790869 -6.364008 0.000000
vertex -11.036150 -7.882970 0.000000
endloop
endfacet
facet normal -0.000000 -0.000000 1.000000
outer loop
vertex -10.790869 -6.364008 0.000000
vertex -8.882201 -6.639346 -0.000000
vertex -8.464116 -6.442760 0.000000
endloop
endfacet
facet normal -0.000000 0.000000 1.000000
outer loop
vertex -8.464116 -6.442760 0.000000
vertex -10.744133 -6.074584 0.000000
vertex -10.790869 -6.364008 0.000000
endloop
endfacet
facet normal 0.000000 -0.000000 1.000000
outer loop
vertex -9.205267 -4.970829 0.000000
vertex -9.513583 -5.525524 0.000000
vertex -8.464116 -6.442760 0.000000
endloop
endfacet
facet normal 0.000000 0.000000 1.000000
outer loop
vertex -8.464116 -6.442760 0.000000
vertex -8.073896 -5.037953 0.000000
vertex -9.205267 -4.970829 0.000000
endloop
endfacet
facet normal 0.000000 0.000000 1.000000
outer loop
vertex -9.984773 -3.153056 0.000000
vertex -8.020119 -3.470306 0.000000
vertex -8.076377 -1.677554 0.000000
endloop
endfacet
facet normal 0.000000 -0.000000 1.000000
outer loop
vertex -8.076377 -1.677554 0.000000
vertex -10.163315 -2.666856 0.000000
vertex -9.984773 -3.153056 0.000000
endloop
endfacet
facet normal 0.000000 0.000000 1.000000
outer loop
vertex -10.163315 -2.666856 0.000000
vertex -8.076377 -1.677554 0.000000
vertex -9.214370 -0.491474 0.000000
endloop
endfacet
facet normal 0.000000 -0.000000 1.000000
outer loop
vertex -9.214370 -0.491474 0.000000
vertex -10.540403 -2.382416 0.000000
vertex -10.163315 -2.666856 0.000000
endloop
endfacet
facet normal 0.000000 0.000000 1.000000
outer loop
vertex -10.540403 -2.382416 0.000000
vertex -9.214370 -0.491474 0.000000
vertex -9.426218 -0.262821 0.000000
endloop
endfacet
facet normal 0.000000 -0.000000 1.000000
outer loop
vertex -9.426218 -0.262821 0.000000
vertex -11.665391 -0.828621 0.000000
vertex -10.540403 -2.382416 0.000000
endloop
endfacet
facet normal 0.000000 0.000000 1.000000
outer loop
vertex -11.665391 -0.828621 0.000000
vertex -9.426218 -0.262821 0.000000
vertex -9.395097 -0.008360 0.000000
endloop
endfacet
facet normal -0.000000 0.000000 1.000000
outer loop
vertex -9.395097 -0.008360 0.000000
vertex -11.607388 0.654806 0.000000
vertex -11.665391 -0.828621 0.000000
endloop
endfacet
facet normal 0.000000 0.000000 1.000000
outer loop
vertex -11.607388 0.654806 0.000000
vertex -9.395097 -0.008360 0.000000
vertex -9.205137 0.262279 -0.000000
endloop
endfacet
facet normal 0.000000 0.000000 1.000000
outer loop
vertex -9.205137 0.262279 -0.000000
vertex -10.371389 2.255738 -0.000000
vertex -11.607388 0.654806 0.000000
endloop
endfacet
facet normal 0.000000 0.000000 1.000000
outer loop
vertex -10.371389 2.255738 -0.000000
vertex -9.205137 0.262279 -0.000000
vertex -8.811613 0.421912 -0.000000
endloop
endfacet
facet normal 0.000000 -0.000000 1.000000
outer loop
vertex -8.811613 0.421912 -0.000000
vertex -8.581415 2.719962 -0.000000
vertex -10.371389 2.255738 -0.000000
endloop
endfacet
facet normal 0.000000 -0.000000 1.000000
outer loop
vertex -8.581415 2.719962 -0.000000
vertex -6.713541 1.392692 -0.000000
vertex -6.644599 2.080931 -0.000000
endloop
endfacet
facet normal 0.000000 -0.000000 1.000000
outer loop
vertex -8.811613 0.421912 -0.000000
vertex -6.782483 0.704453 -0.000000
vertex -6.713541 1.392692 -0.000000
endloop
endfacet
facet normal 0.000000 -0.000000 1.000000
outer loop
vertex -8.581415 2.719962 -0.000000
vertex -8.811613 0.421912 -0.000000
vertex -6.713541 1.392692 -0.000000
endloop
endfacet
facet normal 0.000000 -0.000000 1.000000
outer loop
vertex -6.644599 2.080931 -0.000000
vertex -3.634136 1.371837 -0.000000
vertex -3.614438 1.568477 -0.000000
endloop
endfacet
facet normal 0.000000 0.000000 0.000000
outer loop
vertex -3.673531 0.978558 -0.000000
vertex -3.653833 1.175198 -0.000000
vertex -3.634136 1.371837 -0.000000
endloop
endfacet
facet normal 0.000000 0.000000 0.000000
outer loop
vertex -3.712926 0.585279 -0.000000
vertex -3.693228 0.781918 -0.000000
vertex -3.673531 0.978558 -0.000000
endloop
endfacet
facet normal 0.000000 0.000000 0.000000
outer loop
vertex -3.752321 0.191999 -0.000000
vertex -3.732624 0.388639 -0.000000
vertex -3.712926 0.585279 -0.000000
endloop
endfacet
facet normal 0.000000 -0.000000 1.000000
outer loop
vertex -6.713541 1.392692 -0.000000
vertex -6.782483 0.704453 -0.000000
vertex -3.752321 0.191999 -0.000000
endloop
endfacet
facet normal 0.000000 -0.000000 1.000000
outer loop
vertex -6.644599 2.080931 -0.000000
vertex -6.713541 1.392692 -0.000000
vertex -3.634136 1.371837 -0.000000
endloop
endfacet
facet normal 0.000000 0.000000 1.000000
outer loop
vertex -3.712926 0.585279 -0.000000
vertex -3.673531 0.978558 -0.000000
vertex -3.634136 1.371837 -0.000000
endloop
endfacet
facet normal 0.000000 -0.000000 1.000000
outer loop
vertex -6.713541 1.392692 -0.000000
vertex -3.752321 0.191999 -0.000000
vertex -3.712926 0.585279 -0.000000
endloop
endfacet
facet normal 0.000000 -0.000000 1.000000
outer loop
vertex -6.713541 1.392692 -0.000000
vertex -3.712926 0.585279 -0.000000
vertex -3.634136 1.371837 -0.000000
endloop
endfacet
facet normal -0.000000 0.000000 1.000000
outer loop
vertex -0.507736 -0.302305 -0.000000
vertex -0.538202 -0.606444 -0.000000
vertex -0.147924 -0.645539 -0.000000
endloop
endfacet
facet normal -0.000000 0.000000 1.000000
outer loop
vertex -0.147924 -0.645539 -0.000000
vertex -0.117458 -0.341399 -0.000000
vertex -0.507736 -0.302305 -0.000000
endloop
endfacet
facet normal -0.000000 0.000000 1.000000
outer loop
vertex -3.239681 -0.028643 -0.000000
vertex -3.270146 -0.332782 -0.000000
vertex -2.879869 -0.371877 -0.000000
endloop
endfacet
facet normal -0.000000 0.000000 1.000000
outer loop
vertex -2.879869 -0.371877 -0.000000
vertex -2.849403 -0.067738 -0.000000
vertex -3.239681 -0.028643 -0.000000
endloop
endfacet
facet normal -0.000000 0.000000 1.000000
outer loop
vertex -2.849403 -0.067738 -0.000000
vertex -2.879869 -0.371877 -0.000000
vertex -2.489591 -0.410971 -0.000000
endloop
endfacet
facet normal -0.000000 0.000000 1.000000
outer loop
vertex -2.489591 -0.410971 -0.000000
vertex -2.459125 -0.106832 -0.000000
vertex -2.849403 -0.067738 -0.000000
endloop
endfacet
facet normal -0.000000 0.000000 1.000000
outer loop
vertex -2.459125 -0.106832 -0.000000
vertex -2.489591 -0.410971 -0.000000
vertex -2.099313 -0.450066 -0.000000
endloop
endfacet
facet normal -0.000000 0.000000 1.000000
outer loop
vertex -2.099313 -0.450066 -0.000000
vertex -2.068847 -0.145927 -0.000000
vertex -2.459125 -0.106832 -0.000000
endloop
endfacet
facet normal -0.000000 0.000000 1.000000
outer loop
vertex -2.068847 -0.145927 -0.000000
vertex -2.099313 -0.450066 -0.000000
vertex -1.709035 -0.489160 -0.000000
endloop
endfacet
facet normal -0.000000 0.000000 1.000000
outer loop
vertex -1.709035 -0.489160 -0.000000
vertex -1.678569 -0.185021 -0.000000
vertex -2.068847 -0.145927 -0.000000
endloop
endfacet
facet normal -0.000000 0.000000 1.000000
outer loop
vertex -1.678569 -0.185021 -0.000000
vertex -1.709035 -0.489160 -0.000000
vertex -1.318758 -0.528255 -0.000000
endloop
endfacet
facet normal -0.000000 0.000000 1.000000
outer loop
vertex -1.318758 -0.528255 -0.000000
vertex -1.288292 -0.224116 -0.000000
vertex -1.678569 -0.185021 -0.000000
endloop
endfacet
facet normal -0.000000 0.000000 1.000000
outer loop
vertex -1.288292 -0.224116 -0.000000
vertex -1.318758 -0.528255 -0.000000
vertex -0.928480 -0.567349 -0.000000
endloop
endfacet
facet normal -0.000000 0.000000 1.000000
outer loop
vertex -0.928480 -0.567349 -0.000000
vertex -0.898014 -0.263210 -0.000000
vertex -1.288292 -0.224116 -0.000000
endloop
endfacet
facet normal -0.000000 0.000000 1.000000
outer loop
vertex -0.898014 -0.263210 -0.000000
vertex -0.928480 -0.567349 -0.000000
vertex -0.538202 -0.606444 -0.000000
endloop
endfacet
facet normal -0.000000 0.000000 1.000000
outer loop
vertex -0.538202 -0.606444 -0.000000
vertex -0.507736 -0.302305 -0.000000
vertex -0.898014 -0.263210 -0.000000
endloop
endfacet
facet normal 0.000000 -0.000000 1.000000
outer loop
vertex -3.614438 1.568477 -0.000000
vertex -3.634136 1.371837 -0.000000
vertex -3.087351 1.492054 -0.000000
endloop
endfacet
facet normal -0.000000 0.000000 1.000000
outer loop
vertex -3.087351 1.492054 -0.000000
vertex -3.056885 1.796193 -0.000000
vertex -3.614438 1.568477 -0.000000
endloop
endfacet
facet normal 0.000000 -0.000000 1.000000
outer loop
vertex -3.634136 1.371837 -0.000000
vertex -3.653833 1.175198 -0.000000
vertex -3.117817 1.187915 -0.000000
endloop
endfacet
facet normal -0.000000 0.000000 1.000000
outer loop
vertex -3.117817 1.187915 -0.000000
vertex -3.087351 1.492054 -0.000000
vertex -3.634136 1.371837 -0.000000
endloop
endfacet
facet normal 0.000000 -0.000000 1.000000
outer loop
vertex -3.653833 1.175198 -0.000000
vertex -3.673531 0.978558 -0.000000
vertex -3.148283 0.883775 -0.000000
endloop
endfacet
facet normal -0.000000 0.000000 1.000000
outer loop
vertex -3.148283 0.883775 -0.000000
vertex -3.117817 1.187915 -0.000000
vertex -3.653833 1.175198 -0.000000
endloop
endfacet
facet normal 0.000000 -0.000000 1.000000
outer loop
vertex -3.673531 0.978558 -0.000000
vertex -3.693228 0.781918 -0.000000
vertex -3.178749 0.579636 -0.000000
endloop
endfacet
facet normal 0.000000 0.000000 1.000000
outer loop
vertex -3.178749 0.579636 -0.000000
vertex -3.148283 0.883775 -0.000000
vertex -3.673531 0.978558 -0.000000
endloop
endfacet
facet normal 0.000000 -0.000000 1.000000
outer loop
vertex -3.693228 0.781918 -0.000000
vertex -3.712926 0.585279 -0.000000
vertex -3.209215 0.275496 -0.000000
endloop
endfacet
facet normal 0.000000 0.000000 1.000000
outer loop
vertex -3.209215 0.275496 -0.000000
vertex -3.178749 0.579636 -0.000000
vertex -3.693228 0.781918 -0.000000
endloop
endfacet
facet normal 0.000000 -0.000000 1.000000
outer loop
vertex -3.712926 0.585279 -0.000000
vertex -3.732624 0.388639 -0.000000
vertex -3.239681 -0.028643 -0.000000
endloop
endfacet
facet normal 0.000000 0.000000 1.000000
outer loop
vertex -3.239681 -0.028643 -0.000000
vertex -3.209215 0.275496 -0.000000
vertex -3.712926 0.585279 -0.000000
endloop
endfacet
facet normal -0.000000 0.000000 1.000000
outer loop
vertex -0.324941 1.522532 -0.000000
vertex -0.355406 1.218392 -0.000000
vertex 0.034871 1.179298 -0.000000
endloop
endfacet
facet normal -0.000000 0.000000 1.000000
outer loop
vertex 0.034871 1.179298 -0.000000
vertex 0.065337 1.483437 -0.000000
vertex -0.324941 1.522532 -0.000000
endloop
endfacet
facet normal -0.000000 0.000000 1.000000
outer loop
vertex -0.355406 1.218392 -0.000000
vertex -0.385872 0.914253 -0.000000
vertex 0.004405 0.875159 -0.000000
endloop
endfacet
facet normal -0.000000 0.000000 1.000000
outer loop
vertex 0.004405 0.875159 -0.000000
vertex 0.034871 1.179298 -0.000000
vertex -0.355406 1.218392 -0.000000
endloop
endfacet
facet normal -0.000000 0.000000 1.000000
outer loop
vertex -0.385872 0.914253 -0.000000
vertex -0.416338 0.610114 -0.000000
vertex -0.026061 0.571019 -0.000000
endloop
endfacet
facet normal -0.000000 0.000000 1.000000
outer loop
vertex -0.026061 0.571019 -0.000000
vertex 0.004405 0.875159 -0.000000
vertex -0.385872 0.914253 -0.000000
endloop
endfacet
facet normal -0.000000 0.000000 1.000000
outer loop
vertex -0.416338 0.610114 -0.000000
vertex -0.446804 0.305974 -0.000000
vertex -0.056527 0.266880 -0.000000
endloop
endfacet
facet normal -0.000000 0.000000 1.000000
outer loop
vertex -0.056527 0.266880 -0.000000
vertex -0.026061 0.571019 -0.000000
vertex -0.416338 0.610114 -0.000000
endloop
endfacet
facet normal -0.000000 0.000000 1.000000
outer loop
vertex -0.446804 0.305974 -0.000000
vertex -0.477270 0.001835 -0.000000
vertex -0.086993 -0.037260 -0.000000
endloop
endfacet
facet normal -0.000000 0.000000 1.000000
outer loop
vertex -0.086993 -0.037260 -0.000000
vertex -0.056527 0.266880 -0.000000
vertex -0.446804 0.305974 -0.000000
endloop
endfacet
facet normal -0.000000 0.000000 1.000000
outer loop
vertex -0.477270 0.001835 -0.000000
vertex -0.507736 -0.302305 -0.000000
vertex -0.117458 -0.341399 -0.000000
endloop
endfacet
facet normal -0.000000 0.000000 1.000000
outer loop
vertex -0.117458 -0.341399 -0.000000
vertex -0.086993 -0.037260 -0.000000
vertex -0.477270 0.001835 -0.000000
endloop
endfacet
facet normal -0.000000 0.000000 1.000000
outer loop
vertex -3.056885 1.796193 -0.000000
vertex -3.087351 1.492054 -0.000000
vertex -2.697073 1.452960 -0.000000
endloop
endfacet
facet normal -0.000000 0.000000 1.000000
outer loop
vertex -2.697073 1.452960 -0.000000
vertex -2.666607 1.757099 -0.000000
vertex -3.056885 1.796193 -0.000000
endloop
endfacet
facet normal -0.000000 0.000000 1.000000
outer loop
vertex -3.117817 1.187915 -0.000000
vertex -3.148283 0.883775 -0.000000
vertex -2.758005 0.844681 -0.000000
endloop
endfacet
facet normal -0.000000 0.000000 1.000000
outer loop
vertex -2.758005 0.844681 -0.000000
vertex -2.727539 1.148820 -0.000000
vertex -3.117817 1.187915 -0.000000
endloop
endfacet
facet normal -0.000000 0.000000 1.000000
outer loop
vertex -3.178749 0.579636 -0.000000
vertex -3.209215 0.275496 -0.000000
vertex -2.818937 0.236402 -0.000000
endloop
endfacet
facet normal -0.000000 0.000000 1.000000
outer loop
vertex -2.818937 0.236402 -0.000000
vertex -2.788471 0.540541 -0.000000
vertex -3.178749 0.579636 -0.000000
endloop
endfacet
facet normal -0.000000 0.000000 1.000000
outer loop
vertex -2.666607 1.757099 -0.000000
vertex -2.697073 1.452960 -0.000000
vertex -2.306795 1.413865 -0.000000
endloop
endfacet
facet normal -0.000000 0.000000 1.000000
outer loop
vertex -2.306795 1.413865 -0.000000
vertex -2.276329 1.718004 -0.000000
vertex -2.666607 1.757099 -0.000000
endloop
endfacet
facet normal -0.000000 0.000000 1.000000
outer loop
vertex -2.697073 1.452960 -0.000000
vertex -2.727539 1.148820 -0.000000
vertex -2.337261 1.109726 -0.000000
endloop
endfacet
facet normal -0.000000 0.000000 1.000000
outer loop
vertex -2.337261 1.109726 -0.000000
vertex -2.306795 1.413865 -0.000000
vertex -2.697073 1.452960 -0.000000
endloop
endfacet
facet normal -0.000000 0.000000 1.000000
outer loop
vertex -2.727539 1.148820 -0.000000
vertex -2.758005 0.844681 -0.000000
vertex -2.367727 0.805586 -0.000000
endloop
endfacet
facet normal -0.000000 0.000000 1.000000
outer loop
vertex -2.367727 0.805586 -0.000000
vertex -2.337261 1.109726 -0.000000
vertex -2.727539 1.148820 -0.000000
endloop
endfacet
facet normal -0.000000 0.000000 1.000000
outer loop
vertex -2.758005 0.844681 -0.000000
vertex -2.788471 0.540541 -0.000000
vertex -2.398193 0.501447 -0.000000
endloop
endfacet
facet normal -0.000000 0.000000 1.000000
outer loop
vertex -2.398193 0.501447 -0.000000
vertex -2.367727 0.805586 -0.000000
vertex -2.758005 0.844681 -0.000000
endloop
endfacet
facet normal -0.000000 0.000000 1.000000
outer loop
vertex -2.788471 0.540541 -0.000000
vertex -2.818937 0.236402 -0.000000
vertex -2.428659 0.197307 -0.000000
endloop
endfacet
facet normal -0.000000 0.000000 1.000000
outer loop
vertex -2.428659 0.197307 -0.000000
vertex -2.398193 0.501447 -0.000000
vertex -2.788471 0.540541 -0.000000
endloop
endfacet
facet normal -0.000000 0.000000 1.000000
outer loop
vertex -2.818937 0.236402 -0.000000
vertex -2.849403 -0.067738 -0.000000
vertex -2.459125 -0.106832 -0.000000
endloop
endfacet
facet normal -0.000000 0.000000 1.000000
outer loop
vertex -2.459125 -0.106832 -0.000000
vertex -2.428659 0.197307 -0.000000
vertex -2.818937 0.236402 -0.000000
endloop
endfacet
facet normal -0.000000 0.000000 1.000000
outer loop
vertex -2.276329 1.718004 -0.000000
vertex -2.306795 1.413865 -0.000000
vertex -1.916517 1.374771 -0.000000
endloop
endfacet
facet normal -0.000000 0.000000 1.000000
outer loop
vertex -1.916517 1.374771 -0.000000
vertex -1.886052 1.678910 -0.000000
vertex -2.276329 1.718004 -0.000000
endloop
endfacet
facet normal -0.000000 0.000000 1.000000
outer loop
vertex -2.306795 1.413865 -0.000000
vertex -2.337261 1.109726 -0.000000
vertex -1.946984 1.070631 -0.000000
endloop
endfacet
facet normal -0.000000 0.000000 1.000000
outer loop
vertex -1.946984 1.070631 -0.000000
vertex -1.916517 1.374771 -0.000000
vertex -2.306795 1.413865 -0.000000
endloop
endfacet
facet normal -0.000000 0.000000 1.000000
outer loop
vertex -2.337261 1.109726 -0.000000
vertex -2.367727 0.805586 -0.000000
vertex -1.977450 0.766492 -0.000000
endloop
endfacet
facet normal -0.000000 0.000000 1.000000
outer loop
vertex -1.977450 0.766492 -0.000000
vertex -1.946984 1.070631 -0.000000
vertex -2.337261 1.109726 -0.000000
endloop
endfacet
facet normal -0.000000 0.000000 1.000000
outer loop
vertex -2.367727 0.805586 -0.000000
vertex -2.398193 0.501447 -0.000000
vertex -2.007915 0.462352 -0.000000
endloop
endfacet
facet normal -0.000000 0.000000 1.000000
outer loop
vertex -2.007915 0.462352 -0.000000
vertex -1.977450 0.766492 -0.000000
vertex -2.367727 0.805586 -0.000000
endloop
endfacet
facet normal -0.000000 0.000000 1.000000
outer loop
vertex -2.398193 0.501447 -0.000000
vertex -2.428659 0.197307 -0.000000
vertex -2.038381 0.158213 -0.000000
endloop
endfacet
facet normal -0.000000 0.000000 1.000000
outer loop
vertex -2.038381 0.158213 -0.000000
vertex -2.007915 0.462352 -0.000000
vertex -2.398193 0.501447 -0.000000
endloop
endfacet
facet normal -0.000000 0.000000 1.000000
outer loop
vertex -2.428659 0.197307 -0.000000
vertex -2.459125 -0.106832 -0.000000
vertex -2.068847 -0.145927 -0.000000
endloop
endfacet
facet normal -0.000000 0.000000 1.000000
outer loop
vertex -2.068847 -0.145927 -0.000000
vertex -2.038381 0.158213 -0.000000
vertex -2.428659 0.197307 -0.000000
endloop
endfacet
facet normal -0.000000 0.000000 1.000000
outer loop
vertex -1.886052 1.678910 -0.000000
vertex -1.916517 1.374771 -0.000000
vertex -1.526240 1.335676 -0.000000
endloop
endfacet
facet normal -0.000000 0.000000 1.000000
outer loop
vertex -1.526240 1.335676 -0.000000
vertex -1.495774 1.639815 -0.000000
vertex -1.886052 1.678910 -0.000000
endloop
endfacet
facet normal -0.000000 0.000000 1.000000
outer loop
vertex -1.916517 1.374771 -0.000000
vertex -1.946984 1.070631 -0.000000
vertex -1.556706 1.031537 -0.000000
endloop
endfacet
facet normal -0.000000 0.000000 1.000000
outer loop
vertex -1.556706 1.031537 -0.000000
vertex -1.526240 1.335676 -0.000000
vertex -1.916517 1.374771 -0.000000
endloop
endfacet
facet normal -0.000000 0.000000 1.000000
outer loop
vertex -1.977450 0.766492 -0.000000
vertex -2.007915 0.462352 -0.000000
vertex -1.617637 0.423258 -0.000000
endloop
endfacet
facet normal -0.000000 0.000000 1.000000
outer loop
vertex -1.617637 0.423258 -0.000000
vertex -1.587172 0.727397 -0.000000
vertex -1.977450 0.766492 -0.000000
endloop
endfacet
facet normal -0.000000 0.000000 1.000000
outer loop
vertex -2.038381 0.158213 -0.000000
vertex -2.068847 -0.145927 -0.000000
vertex -1.678569 -0.185021 -0.000000
endloop
endfacet
facet normal -0.000000 0.000000 1.000000
outer loop
vertex -1.678569 -0.185021 -0.000000
vertex -1.648103 0.119118 -0.000000
vertex -2.038381 0.158213 -0.000000
endloop
endfacet
facet normal -0.000000 0.000000 1.000000
outer loop
vertex -1.495774 1.639815 -0.000000
vertex -1.526240 1.335676 -0.000000
vertex -1.135962 1.296582 -0.000000
endloop
endfacet
facet normal -0.000000 0.000000 1.000000
outer loop
vertex -1.135962 1.296582 -0.000000
vertex -1.105496 1.600721 -0.000000
vertex -1.495774 1.639815 -0.000000
endloop
endfacet
facet normal -0.000000 0.000000 1.000000
outer loop
vertex -1.526240 1.335676 -0.000000
vertex -1.556706 1.031537 -0.000000
vertex -1.166428 0.992442 -0.000000
endloop
endfacet
facet normal -0.000000 0.000000 1.000000
outer loop
vertex -1.166428 0.992442 -0.000000
vertex -1.135962 1.296582 -0.000000
vertex -1.526240 1.335676 -0.000000
endloop
endfacet
facet normal -0.000000 0.000000 1.000000
outer loop
vertex -1.556706 1.031537 -0.000000
vertex -1.587172 0.727397 -0.000000
vertex -1.196894 0.688303 -0.000000
endloop
endfacet
facet normal -0.000000 0.000000 1.000000
outer loop
vertex -1.196894 0.688303 -0.000000
vertex -1.166428 0.992442 -0.000000
vertex -1.556706 1.031537 -0.000000
endloop
endfacet
facet normal -0.000000 0.000000 1.000000
outer loop
vertex -1.587172 0.727397 -0.000000
vertex -1.617637 0.423258 -0.000000
vertex -1.227360 0.384163 -0.000000
endloop
endfacet
facet normal -0.000000 0.000000 1.000000
outer loop
vertex -1.227360 0.384163 -0.000000
vertex -1.196894 0.688303 -0.000000
vertex -1.587172 0.727397 -0.000000
endloop
endfacet
facet normal -0.000000 0.000000 1.000000
outer loop
vertex -1.617637 0.423258 -0.000000
vertex -1.648103 0.119118 -0.000000
vertex -1.257826 0.080024 -0.000000
endloop
endfacet
facet normal -0.000000 0.000000 1.000000
outer loop
vertex -1.257826 0.080024 -0.000000
vertex -1.227360 0.384163 -0.000000
vertex -1.617637 0.423258 -0.000000
endloop
endfacet
facet normal -0.000000 0.000000 1.000000
outer loop
vertex -1.648103 0.119118 -0.000000
vertex -1.678569 -0.185021 -0.000000
vertex -1.288292 -0.224116 -0.000000
endloop
endfacet
facet normal -0.000000 0.000000 1.000000
outer loop
vertex -1.288292 -0.224116 -0.000000
vertex -1.257826 0.080024 -0.000000
vertex -1.648103 0.119118 -0.000000
endloop
endfacet
facet normal -0.000000 0.000000 1.000000
outer loop
vertex -1.105496 1.600721 -0.000000
vertex -1.135962 1.296582 -0.000000
vertex -0.745684 1.257487 -0.000000
endloop
endfacet
facet normal -0.000000 0.000000 1.000000
outer loop
vertex -0.745684 1.257487 -0.000000
vertex -0.715218 1.561626 -0.000000
vertex -1.105496 1.600721 -0.000000
endloop
endfacet
facet normal -0.000000 0.000000 1.000000
outer loop
vertex -1.135962 1.296582 -0.000000
vertex -1.166428 0.992442 -0.000000
vertex -0.776150 0.953348 -0.000000
endloop
endfacet
facet normal -0.000000 0.000000 1.000000
outer loop
vertex -0.776150 0.953348 -0.000000
vertex -0.745684 1.257487 -0.000000
vertex -1.135962 1.296582 -0.000000
endloop
endfacet
facet normal -0.000000 0.000000 1.000000
outer loop
vertex -1.166428 0.992442 -0.000000
vertex -1.196894 0.688303 -0.000000
vertex -0.806616 0.649208 -0.000000
endloop
endfacet
facet normal -0.000000 0.000000 1.000000
outer loop
vertex -0.806616 0.649208 -0.000000
vertex -0.776150 0.953348 -0.000000
vertex -1.166428 0.992442 -0.000000
endloop
endfacet
facet normal -0.000000 0.000000 1.000000
outer loop
vertex -1.196894 0.688303 -0.000000
vertex -1.227360 0.384163 -0.000000
vertex -0.837082 0.345069 -0.000000
endloop
endfacet
facet normal -0.000000 0.000000 1.000000
outer loop
vertex -0.837082 0.345069 -0.000000
vertex -0.806616 0.649208 -0.000000
vertex -1.196894 0.688303 -0.000000
endloop
endfacet
facet normal -0.000000 0.000000 1.000000
outer loop
vertex -1.227360 0.384163 -0.000000
vertex -1.257826 0.080024 -0.000000
vertex -0.867548 0.040929 -0.000000
endloop
endfacet
facet normal -0.000000 0.000000 1.000000
outer loop
vertex -0.867548 0.040929 -0.000000
vertex -0.837082 0.345069 -0.000000
vertex -1.227360 0.384163 -0.000000
endloop
endfacet
facet normal -0.000000 0.000000 1.000000
outer loop
vertex -1.257826 0.080024 -0.000000
vertex -1.288292 -0.224116 -0.000000
vertex -0.898014 -0.263210 -0.000000
endloop
endfacet
facet normal -0.000000 0.000000 1.000000
outer loop
vertex -0.898014 -0.263210 -0.000000
vertex -0.867548 0.040929 -0.000000
vertex -1.257826 0.080024 -0.000000
endloop
endfacet
facet normal -0.000000 0.000000 1.000000
outer loop
vertex -0.715218 1.561626 -0.000000
vertex -0.745684 1.257487 -0.000000
vertex -0.355406 1.218392 -0.000000
endloop
endfacet
facet normal -0.000000 0.000000 1.000000
outer loop
vertex -0.355406 1.218392 -0.000000
vertex -0.324941 1.522532 -0.000000
vertex -0.715218 1.561626 -0.000000
endloop
endfacet
facet normal -0.000000 0.000000 1.000000
outer loop
vertex -0.776150 0.953348 -0.000000
vertex -0.806616 0.649208 -0.000000
vertex -0.416338 0.610114 -0.000000
endloop
endfacet
facet normal -0.000000 0.000000 1.000000
outer loop
vertex -0.416338 0.610114 -0.000000
vertex -0.385872 0.914253 -0.000000
vertex -0.776150 0.953348 -0.000000
endloop
endfacet
facet normal -0.000000 0.000000 1.000000
outer loop
vertex -0.837082 0.345069 -0.000000
vertex -0.867548 0.040929 -0.000000
vertex -0.477270 0.001835 -0.000000
endloop
endfacet
facet normal -0.000000 0.000000 1.000000
outer loop
vertex -0.477270 0.001835 -0.000000
vertex -0.446804 0.305974 -0.000000
vertex -0.837082 0.345069 -0.000000
endloop
endfacet
endsolid Exported from Blender-2.72 (sub 0)
