solid Cheetah3Dfile
 facet normal 0.0000 -0.0000 1.0000
   outer loop
     vertex -1.6401 7.6250 0.0000
     vertex -1.7213 7.5636 0.0000
     vertex -1.5510 7.5636 0.0000
   endloop
 endfacet
 facet normal 0.0000 -0.0000 1.0000
   outer loop
     vertex -1.6233 7.6250 0.0000
     vertex -1.6401 7.6250 0.0000
     vertex -1.5510 7.5636 0.0000
   endloop
 endfacet
 facet normal 0.0000 -0.0000 1.0000
   outer loop
     vertex -1.5065 7.6363 0.0000
     vertex -1.6233 7.6250 0.0000
     vertex -1.5510 7.5636 0.0000
   endloop
 endfacet
 facet normal -0.0000 -0.0000 1.0000
   outer loop
     vertex -1.5065 7.6363 0.0000
     vertex -1.5510 7.5636 0.0000
     vertex -1.4159 7.6007 0.0000
   endloop
 endfacet
 facet normal -0.0000 -0.0000 1.0000
   outer loop
     vertex -1.4638 7.6753 0.0000
     vertex -1.5065 7.6363 0.0000
     vertex -1.4159 7.6007 0.0000
   endloop
 endfacet
 facet normal -0.0000 -0.0000 1.0000
   outer loop
     vertex -1.7213 8.1417 0.0000
     vertex -1.7213 7.5636 0.0000
     vertex -1.6401 7.6250 0.0000
   endloop
 endfacet
 facet normal 0.0000 -0.0000 1.0000
   outer loop
     vertex -1.7213 8.1417 0.0000
     vertex -1.6401 7.6250 0.0000
     vertex -1.6401 7.8359 0.0000
   endloop
 endfacet
 facet normal -0.0000 -0.0000 1.0000
   outer loop
     vertex -1.7213 8.1417 0.0000
     vertex -1.6401 7.8359 0.0000
     vertex -1.6401 7.8878 0.0000
   endloop
 endfacet
 facet normal -0.0000 -0.0000 1.0000
   outer loop
     vertex -1.7213 8.1417 0.0000
     vertex -1.6401 7.8878 0.0000
     vertex -1.6401 8.0804 0.0000
   endloop
 endfacet
 facet normal 0.0000 -0.0000 1.0000
   outer loop
     vertex -1.5713 8.1417 0.0000
     vertex -1.7213 8.1417 0.0000
     vertex -1.6401 8.0804 0.0000
   endloop
 endfacet
 facet normal 0.0000 -0.0000 1.0000
   outer loop
     vertex -1.5713 8.1417 0.0000
     vertex -1.6401 8.0804 0.0000
     vertex -1.6080 8.0804 0.0000
   endloop
 endfacet
 facet normal 0.0000 -0.0000 1.0000
   outer loop
     vertex -1.5713 8.1417 0.0000
     vertex -1.6080 8.0804 0.0000
     vertex -1.5692 8.0782 0.0000
   endloop
 endfacet
 facet normal 0.0000 -0.0000 1.0000
   outer loop
     vertex -1.4383 8.1089 0.0000
     vertex -1.5713 8.1417 0.0000
     vertex -1.5692 8.0782 0.0000
   endloop
 endfacet
 facet normal 0.0000 -0.0000 1.0000
   outer loop
     vertex -1.4383 8.1089 0.0000
     vertex -1.5692 8.0782 0.0000
     vertex -1.4951 8.0477 0.0000
   endloop
 endfacet
 facet normal -0.0000 -0.0000 1.0000
   outer loop
     vertex -1.3957 8.0467 0.0000
     vertex -1.4383 8.1089 0.0000
     vertex -1.4951 8.0477 0.0000
   endloop
 endfacet
 facet normal -0.0000 -0.0000 1.0000
   outer loop
     vertex -1.3957 8.0467 0.0000
     vertex -1.4951 8.0477 0.0000
     vertex -1.4760 7.9953 0.0000
   endloop
 endfacet
 facet normal 0.0000 -0.0000 1.0000
   outer loop
     vertex -1.3920 8.0144 0.0000
     vertex -1.3957 8.0467 0.0000
     vertex -1.4760 7.9953 0.0000
   endloop
 endfacet
 facet normal 0.0000 -0.0000 1.0000
   outer loop
     vertex -1.4267 7.9186 0.0000
     vertex -1.3920 8.0144 0.0000
     vertex -1.4760 7.9953 0.0000
   endloop
 endfacet
 facet normal 0.0000 -0.0000 1.0000
   outer loop
     vertex -1.4267 7.9186 0.0000
     vertex -1.4760 7.9953 0.0000
     vertex -1.4781 7.9720 0.0000
   endloop
 endfacet
 facet normal -0.0000 -0.0000 1.0000
   outer loop
     vertex -1.4267 7.9186 0.0000
     vertex -1.4781 7.9720 0.0000
     vertex -1.5122 7.9160 0.0000
   endloop
 endfacet
 facet normal -0.0000 -0.0000 1.0000
   outer loop
     vertex -1.5108 7.8648 0.0000
     vertex -1.4267 7.9186 0.0000
     vertex -1.5122 7.9160 0.0000
   endloop
 endfacet
 facet normal -0.0000 -0.0000 1.0000
   outer loop
     vertex -1.5108 7.8648 0.0000
     vertex -1.5122 7.9160 0.0000
     vertex -1.6139 7.8878 0.0000
   endloop
 endfacet
 facet normal -0.0000 -0.0000 1.0000
   outer loop
     vertex -1.4638 7.6753 0.0000
     vertex -1.4159 7.6007 0.0000
     vertex -1.3990 7.6169 0.0000
   endloop
 endfacet
 facet normal -0.0000 -0.0000 1.0000
   outer loop
     vertex -1.4638 7.6753 0.0000
     vertex -1.3990 7.6169 0.0000
     vertex -1.3690 7.7082 0.0000
   endloop
 endfacet
 facet normal -0.0000 -0.0000 1.0000
   outer loop
     vertex -1.4557 7.7160 0.0000
     vertex -1.4638 7.6753 0.0000
     vertex -1.3690 7.7082 0.0000
   endloop
 endfacet
 facet normal -0.0000 -0.0000 1.0000
   outer loop
     vertex -1.4557 7.7160 0.0000
     vertex -1.3690 7.7082 0.0000
     vertex -1.3895 7.7842 0.0000
   endloop
 endfacet
 facet normal 0.0000 -0.0000 1.0000
   outer loop
     vertex -1.4809 7.7828 0.0000
     vertex -1.4557 7.7160 0.0000
     vertex -1.3895 7.7842 0.0000
   endloop
 endfacet
 facet normal 0.0000 -0.0000 1.0000
   outer loop
     vertex -1.4809 7.7828 0.0000
     vertex -1.3895 7.7842 0.0000
     vertex -1.5108 7.8648 0.0000
   endloop
 endfacet
 facet normal 0.0000 -0.0000 1.0000
   outer loop
     vertex -1.5018 7.8017 0.0000
     vertex -1.4809 7.7828 0.0000
     vertex -1.5108 7.8648 0.0000
   endloop
 endfacet
 facet normal 0.0000 -0.0000 1.0000
   outer loop
     vertex -1.6170 7.8359 0.0000
     vertex -1.5018 7.8017 0.0000
     vertex -1.5108 7.8648 0.0000
   endloop
 endfacet
 facet normal 0.0000 -0.0000 1.0000
   outer loop
     vertex -1.6170 7.8359 0.0000
     vertex -1.5108 7.8648 0.0000
     vertex -1.6139 7.8878 0.0000
   endloop
 endfacet
 facet normal 0.0000 -0.0000 1.0000
   outer loop
     vertex -1.6170 7.8359 0.0000
     vertex -1.6139 7.8878 0.0000
     vertex -1.6401 7.8878 0.0000
   endloop
 endfacet
 facet normal 0.0000 -0.0000 1.0000
   outer loop
     vertex -1.6170 7.8359 0.0000
     vertex -1.6401 7.8878 0.0000
     vertex -1.6401 7.8359 0.0000
   endloop
 endfacet
 facet normal 0.0000 -0.0000 1.0000
   outer loop
     vertex -1.0596 7.9300 0.0000
     vertex -1.0245 7.9234 0.0000
     vertex -1.0245 7.9953 0.0000
   endloop
 endfacet
 facet normal 0.0000 -0.0000 1.0000
   outer loop
     vertex -1.0596 7.9300 0.0000
     vertex -1.0245 7.9953 0.0000
     vertex -1.0491 7.9972 0.0000
   endloop
 endfacet
 facet normal -0.0000 -0.0000 1.0000
   outer loop
     vertex -1.0596 7.9300 0.0000
     vertex -1.0491 7.9972 0.0000
     vertex -1.1006 7.9881 0.0000
   endloop
 endfacet
 facet normal -0.0000 -0.0000 1.0000
   outer loop
     vertex -1.1387 7.8988 0.0000
     vertex -1.0596 7.9300 0.0000
     vertex -1.1006 7.9881 0.0000
   endloop
 endfacet
 facet normal 0.0000 -0.0000 1.0000
   outer loop
     vertex -1.1387 7.8988 0.0000
     vertex -1.1006 7.9881 0.0000
     vertex -1.1819 7.9082 0.0000
   endloop
 endfacet
 facet normal 0.0000 -0.0000 1.0000
   outer loop
     vertex -1.1819 7.8433 0.0000
     vertex -1.1387 7.8988 0.0000
     vertex -1.1819 7.9082 0.0000
   endloop
 endfacet
 facet normal 0.0000 -0.0000 1.0000
   outer loop
     vertex -1.1819 7.9082 0.0000
     vertex -1.1819 7.9878 0.0000
     vertex -1.2588 7.9878 0.0000
   endloop
 endfacet
 facet normal -0.0000 -0.0000 1.0000
   outer loop
     vertex -1.1819 7.9082 0.0000
     vertex -1.2588 7.9878 0.0000
     vertex -1.2588 7.5636 0.0000
   endloop
 endfacet
 facet normal 0.0000 -0.0000 1.0000
   outer loop
     vertex -1.1819 7.8433 0.0000
     vertex -1.1819 7.9082 0.0000
     vertex -1.2588 7.5636 0.0000
   endloop
 endfacet
 facet normal 0.0000 -0.0000 1.0000
   outer loop
     vertex -1.1819 7.8433 0.0000
     vertex -1.2588 7.5636 0.0000
     vertex -1.1819 7.5636 0.0000
   endloop
 endfacet
 facet normal 0.0000 -0.0000 1.0000
   outer loop
     vertex -0.9396 7.7518 0.0000
     vertex -0.9682 7.6703 0.0000
     vertex -0.8913 7.6828 0.0000
   endloop
 endfacet
 facet normal -0.0000 -0.0000 1.0000
   outer loop
     vertex -0.9396 7.7518 0.0000
     vertex -0.8913 7.6828 0.0000
     vertex -0.8882 7.7035 0.0000
   endloop
 endfacet
 facet normal 0.0000 -0.0000 1.0000
   outer loop
     vertex -0.9315 7.9656 0.0000
     vertex -0.9315 7.9019 0.0000
     vertex -0.7998 7.9394 0.0000
   endloop
 endfacet
 facet normal 0.0000 -0.0000 1.0000
   outer loop
     vertex -0.7858 7.9972 0.0000
     vertex -0.9315 7.9656 0.0000
     vertex -0.7998 7.9394 0.0000
   endloop
 endfacet
 facet normal -0.0000 -0.0000 1.0000
   outer loop
     vertex -0.7858 7.9972 0.0000
     vertex -0.7998 7.9394 0.0000
     vertex -0.7801 7.9380 0.0000
   endloop
 endfacet
 facet normal 0.0000 -0.0000 1.0000
   outer loop
     vertex -0.6837 7.9677 0.0000
     vertex -0.7858 7.9972 0.0000
     vertex -0.7801 7.9380 0.0000
   endloop
 endfacet
 facet normal -0.0000 -0.0000 1.0000
   outer loop
     vertex -0.6837 7.9677 0.0000
     vertex -0.7801 7.9380 0.0000
     vertex -0.7401 7.9179 0.0000
   endloop
 endfacet
 facet normal -0.0000 -0.0000 1.0000
   outer loop
     vertex -0.9098 7.7771 0.0000
     vertex -0.9396 7.7518 0.0000
     vertex -0.8882 7.7035 0.0000
   endloop
 endfacet
 facet normal -0.0000 -0.0000 1.0000
   outer loop
     vertex -0.9098 7.7771 0.0000
     vertex -0.8882 7.7035 0.0000
     vertex -0.8522 7.7458 0.0000
   endloop
 endfacet
 facet normal -0.0000 -0.0000 1.0000
   outer loop
     vertex -0.7424 7.8144 0.0000
     vertex -0.9098 7.7771 0.0000
     vertex -0.8522 7.7458 0.0000
   endloop
 endfacet
 facet normal 0.0000 -0.0000 1.0000
   outer loop
     vertex -0.7424 7.8144 0.0000
     vertex -0.8522 7.7458 0.0000
     vertex -0.7498 7.7699 0.0000
   endloop
 endfacet
 facet normal 0.0000 -0.0000 1.0000
   outer loop
     vertex -0.7424 7.8144 0.0000
     vertex -0.7498 7.7699 0.0000
     vertex -0.7241 7.7691 0.0000
   endloop
 endfacet
 facet normal 0.0000 -0.0000 1.0000
   outer loop
     vertex -0.7241 7.8144 0.0000
     vertex -0.7424 7.8144 0.0000
     vertex -0.7241 7.7691 0.0000
   endloop
 endfacet
 facet normal 0.0000 -0.0000 1.0000
   outer loop
     vertex -0.5862 7.5664 0.0000
     vertex -0.5916 7.6089 0.0000
     vertex -0.6065 7.6074 0.0000
   endloop
 endfacet
 facet normal 0.0000 -0.0000 1.0000
   outer loop
     vertex -0.6440 7.5539 0.0000
     vertex -0.5862 7.5664 0.0000
     vertex -0.6065 7.6074 0.0000
   endloop
 endfacet
 facet normal 0.0000 -0.0000 1.0000
   outer loop
     vertex -0.6440 7.5539 0.0000
     vertex -0.6065 7.6074 0.0000
     vertex -0.6112 7.6076 0.0000
   endloop
 endfacet
 facet normal -0.0000 -0.0000 1.0000
   outer loop
     vertex -0.6440 7.5539 0.0000
     vertex -0.6112 7.6076 0.0000
     vertex -0.6325 7.6179 0.0000
   endloop
 endfacet
 facet normal -0.0000 -0.0000 1.0000
   outer loop
     vertex -0.6867 7.5685 0.0000
     vertex -0.6440 7.5539 0.0000
     vertex -0.6325 7.6179 0.0000
   endloop
 endfacet
 facet normal 0.0000 -0.0000 1.0000
   outer loop
     vertex -0.7127 7.6175 0.0000
     vertex -0.6867 7.5685 0.0000
     vertex -0.6325 7.6179 0.0000
   endloop
 endfacet
 facet normal 0.0000 -0.0000 1.0000
   outer loop
     vertex -0.7127 7.6175 0.0000
     vertex -0.6325 7.6179 0.0000
     vertex -0.6471 7.6734 0.0000
   endloop
 endfacet
 facet normal 0.0000 -0.0000 1.0000
   outer loop
     vertex -0.6809 7.9652 0.0000
     vertex -0.6837 7.9677 0.0000
     vertex -0.7401 7.9179 0.0000
   endloop
 endfacet
 facet normal 0.0000 -0.0000 1.0000
   outer loop
     vertex -0.6482 7.8888 0.0000
     vertex -0.6809 7.9652 0.0000
     vertex -0.7401 7.9179 0.0000
   endloop
 endfacet
 facet normal -0.0000 -0.0000 1.0000
   outer loop
     vertex -0.6482 7.8888 0.0000
     vertex -0.7401 7.9179 0.0000
     vertex -0.7241 7.8656 0.0000
   endloop
 endfacet
 facet normal 0.0000 -0.0000 1.0000
   outer loop
     vertex -0.6471 7.8656 0.0000
     vertex -0.6482 7.8888 0.0000
     vertex -0.7241 7.8656 0.0000
   endloop
 endfacet
 facet normal 0.0000 -0.0000 1.0000
   outer loop
     vertex -0.6471 7.8656 0.0000
     vertex -0.7241 7.8656 0.0000
     vertex -0.7241 7.8144 0.0000
   endloop
 endfacet
 facet normal 0.0000 -0.0000 1.0000
   outer loop
     vertex -0.6471 7.6734 0.0000
     vertex -0.6471 7.8656 0.0000
     vertex -0.7241 7.8144 0.0000
   endloop
 endfacet
 facet normal -0.0000 -0.0000 1.0000
   outer loop
     vertex -0.6471 7.6734 0.0000
     vertex -0.7241 7.8144 0.0000
     vertex -0.7241 7.7691 0.0000
   endloop
 endfacet
 facet normal 0.0000 -0.0000 1.0000
   outer loop
     vertex -0.6471 7.6734 0.0000
     vertex -0.7241 7.7691 0.0000
     vertex -0.7241 7.6593 0.0000
   endloop
 endfacet
 facet normal 0.0000 -0.0000 1.0000
   outer loop
     vertex -0.7127 7.6175 0.0000
     vertex -0.6471 7.6734 0.0000
     vertex -0.7241 7.6593 0.0000
   endloop
 endfacet
 facet normal -0.0000 -0.0000 1.0000
   outer loop
     vertex -0.7127 7.6175 0.0000
     vertex -0.7241 7.6593 0.0000
     vertex -0.8241 7.6167 0.0000
   endloop
 endfacet
 facet normal -0.0000 -0.0000 1.0000
   outer loop
     vertex -0.8434 7.5539 0.0000
     vertex -0.7127 7.6175 0.0000
     vertex -0.8241 7.6167 0.0000
   endloop
 endfacet
 facet normal 0.0000 -0.0000 1.0000
   outer loop
     vertex -0.8434 7.5539 0.0000
     vertex -0.8241 7.6167 0.0000
     vertex -0.8285 7.6169 0.0000
   endloop
 endfacet
 facet normal -0.0000 -0.0000 1.0000
   outer loop
     vertex -0.8913 7.6828 0.0000
     vertex -0.9682 7.6703 0.0000
     vertex -0.9675 7.6565 0.0000
   endloop
 endfacet
 facet normal 0.0000 -0.0000 1.0000
   outer loop
     vertex -0.8913 7.6828 0.0000
     vertex -0.9675 7.6565 0.0000
     vertex -0.9334 7.5869 0.0000
   endloop
 endfacet
 facet normal -0.0000 -0.0000 1.0000
   outer loop
     vertex -0.8754 7.6398 0.0000
     vertex -0.8913 7.6828 0.0000
     vertex -0.9334 7.5869 0.0000
   endloop
 endfacet
 facet normal -0.0000 -0.0000 1.0000
   outer loop
     vertex -0.8754 7.6398 0.0000
     vertex -0.9334 7.5869 0.0000
     vertex -0.9292 7.5830 0.0000
   endloop
 endfacet
 facet normal 0.0000 -0.0000 1.0000
   outer loop
     vertex -0.8754 7.6398 0.0000
     vertex -0.9292 7.5830 0.0000
     vertex -0.8459 7.5539 0.0000
   endloop
 endfacet
 facet normal 0.0000 -0.0000 1.0000
   outer loop
     vertex -0.8717 7.6359 0.0000
     vertex -0.8754 7.6398 0.0000
     vertex -0.8459 7.5539 0.0000
   endloop
 endfacet
 facet normal 0.0000 -0.0000 1.0000
   outer loop
     vertex -0.8285 7.6169 0.0000
     vertex -0.8717 7.6359 0.0000
     vertex -0.8459 7.5539 0.0000
   endloop
 endfacet
 facet normal 0.0000 -0.0000 1.0000
   outer loop
     vertex -0.8285 7.6169 0.0000
     vertex -0.8459 7.5539 0.0000
     vertex -0.8434 7.5539 0.0000
   endloop
 endfacet
 facet normal 0.0000 -0.0000 1.0000
   outer loop
     vertex -0.4127 7.9082 0.0000
     vertex -0.4127 7.9878 0.0000
     vertex -0.4897 7.9878 0.0000
   endloop
 endfacet
 facet normal -0.0000 -0.0000 1.0000
   outer loop
     vertex -0.4127 7.9082 0.0000
     vertex -0.4897 7.9878 0.0000
     vertex -0.4897 7.5636 0.0000
   endloop
 endfacet
 facet normal 0.0000 -0.0000 1.0000
   outer loop
     vertex -0.4897 7.5636 0.0000
     vertex -0.4127 7.5636 0.0000
     vertex -0.4127 7.8382 0.0000
   endloop
 endfacet
 facet normal 0.0000 -0.0000 1.0000
   outer loop
     vertex -0.4127 7.9082 0.0000
     vertex -0.4897 7.5636 0.0000
     vertex -0.4127 7.8382 0.0000
   endloop
 endfacet
 facet normal -0.0000 -0.0000 1.0000
   outer loop
     vertex -0.4127 7.9082 0.0000
     vertex -0.4127 7.8382 0.0000
     vertex -0.3641 7.8952 0.0000
   endloop
 endfacet
 facet normal -0.0000 -0.0000 1.0000
   outer loop
     vertex -0.3043 7.9921 0.0000
     vertex -0.4127 7.9082 0.0000
     vertex -0.3641 7.8952 0.0000
   endloop
 endfacet
 facet normal -0.0000 -0.0000 1.0000
   outer loop
     vertex -0.3043 7.9921 0.0000
     vertex -0.3641 7.8952 0.0000
     vertex -0.2795 7.9308 0.0000
   endloop
 endfacet
 facet normal -0.0000 -0.0000 1.0000
   outer loop
     vertex -0.2635 7.9972 0.0000
     vertex -0.3043 7.9921 0.0000
     vertex -0.2795 7.9308 0.0000
   endloop
 endfacet
 facet normal -0.0000 -0.0000 1.0000
   outer loop
     vertex -0.2635 7.9972 0.0000
     vertex -0.2795 7.9308 0.0000
     vertex -0.2599 7.9285 0.0000
   endloop
 endfacet
 facet normal -0.0000 -0.0000 1.0000
   outer loop
     vertex -0.1838 7.9701 0.0000
     vertex -0.2635 7.9972 0.0000
     vertex -0.2599 7.9285 0.0000
   endloop
 endfacet
 facet normal 0.0000 -0.0000 1.0000
   outer loop
     vertex -0.1838 7.9701 0.0000
     vertex -0.2599 7.9285 0.0000
     vertex -0.2336 7.9107 0.0000
   endloop
 endfacet
 facet normal 0.0000 -0.0000 1.0000
   outer loop
     vertex -0.1756 7.9623 0.0000
     vertex -0.1838 7.9701 0.0000
     vertex -0.2336 7.9107 0.0000
   endloop
 endfacet
 facet normal -0.0000 -0.0000 1.0000
   outer loop
     vertex -0.1430 7.8776 0.0000
     vertex -0.1756 7.9623 0.0000
     vertex -0.2336 7.9107 0.0000
   endloop
 endfacet
 facet normal -0.0000 -0.0000 1.0000
   outer loop
     vertex -0.1430 7.8776 0.0000
     vertex -0.2336 7.9107 0.0000
     vertex -0.2198 7.8433 0.0000
   endloop
 endfacet
 facet normal -0.0000 -0.0000 1.0000
   outer loop
     vertex -0.1428 7.8683 0.0000
     vertex -0.1430 7.8776 0.0000
     vertex -0.2198 7.8433 0.0000
   endloop
 endfacet
 facet normal -0.0000 -0.0000 1.0000
   outer loop
     vertex -0.1428 7.5636 0.0000
     vertex -0.1428 7.8683 0.0000
     vertex -0.2198 7.8433 0.0000
   endloop
 endfacet
 facet normal 0.0000 -0.0000 1.0000
   outer loop
     vertex -0.1428 7.5636 0.0000
     vertex -0.2198 7.8433 0.0000
     vertex -0.2198 7.5636 0.0000
   endloop
 endfacet
 facet normal 0.0000 -0.0000 1.0000
   outer loop
     vertex 0.0230 7.9328 0.0000
     vertex -0.0268 7.7625 0.0000
     vertex 0.0552 7.7703 0.0000
   endloop
 endfacet
 facet normal -0.0000 -0.0000 1.0000
   outer loop
     vertex 0.0230 7.9328 0.0000
     vertex 0.0552 7.7703 0.0000
     vertex 0.0581 7.8201 0.0000
   endloop
 endfacet
 facet normal -0.0000 -0.0000 1.0000
   outer loop
     vertex 0.0230 7.9328 0.0000
     vertex 0.0581 7.8201 0.0000
     vertex 0.0977 7.9150 0.0000
   endloop
 endfacet
 facet normal -0.0000 -0.0000 1.0000
   outer loop
     vertex 0.1198 7.9941 0.0000
     vertex 0.0230 7.9328 0.0000
     vertex 0.0977 7.9150 0.0000
   endloop
 endfacet
 facet normal 0.0000 -0.0000 1.0000
   outer loop
     vertex 0.1198 7.9941 0.0000
     vertex 0.0977 7.9150 0.0000
     vertex 0.1658 7.9394 0.0000
   endloop
 endfacet
 facet normal -0.0000 -0.0000 1.0000
   outer loop
     vertex 0.1541 7.9972 0.0000
     vertex 0.1198 7.9941 0.0000
     vertex 0.1658 7.9394 0.0000
   endloop
 endfacet
 facet normal 0.0000 -0.0000 1.0000
   outer loop
     vertex 0.2604 7.9583 0.0000
     vertex 0.1541 7.9972 0.0000
     vertex 0.1658 7.9394 0.0000
   endloop
 endfacet
 facet normal 0.0000 -0.0000 1.0000
   outer loop
     vertex 0.2604 7.9583 0.0000
     vertex 0.1658 7.9394 0.0000
     vertex 0.2791 7.8867 0.0000
   endloop
 endfacet
 facet normal -0.0000 -0.0000 1.0000
   outer loop
     vertex 0.2791 7.9394 0.0000
     vertex 0.2604 7.9583 0.0000
     vertex 0.2791 7.8867 0.0000
   endloop
 endfacet
 facet normal 0.0000 -0.0000 1.0000
   outer loop
     vertex 0.0552 7.7703 0.0000
     vertex -0.0268 7.7625 0.0000
     vertex 0.0171 7.6097 0.0000
   endloop
 endfacet
 facet normal -0.0000 -0.0000 1.0000
   outer loop
     vertex 0.0883 7.6477 0.0000
     vertex 0.0552 7.7703 0.0000
     vertex 0.0171 7.6097 0.0000
   endloop
 endfacet
 facet normal 0.0000 -0.0000 1.0000
   outer loop
     vertex 0.0883 7.6477 0.0000
     vertex 0.0171 7.6097 0.0000
     vertex 0.0360 7.5896 0.0000
   endloop
 endfacet
 facet normal -0.0000 -0.0000 1.0000
   outer loop
     vertex 0.0883 7.6477 0.0000
     vertex 0.0360 7.5896 0.0000
     vertex 0.1377 7.5539 0.0000
   endloop
 endfacet
 facet normal 0.0000 -0.0000 1.0000
   outer loop
     vertex 0.1385 7.6224 0.0000
     vertex 0.0883 7.6477 0.0000
     vertex 0.1377 7.5539 0.0000
   endloop
 endfacet
 facet normal 0.0000 -0.0000 1.0000
   outer loop
     vertex 0.1385 7.6224 0.0000
     vertex 0.1377 7.5539 0.0000
     vertex 0.1964 7.5642 0.0000
   endloop
 endfacet
 facet normal 0.0000 -0.0000 1.0000
   outer loop
     vertex 0.1537 7.6214 0.0000
     vertex 0.1385 7.6224 0.0000
     vertex 0.1964 7.5642 0.0000
   endloop
 endfacet
 facet normal -0.0000 -0.0000 1.0000
   outer loop
     vertex 0.2495 7.6618 0.0000
     vertex 0.1537 7.6214 0.0000
     vertex 0.1964 7.5642 0.0000
   endloop
 endfacet
 facet normal -0.0000 -0.0000 1.0000
   outer loop
     vertex 0.2495 7.6618 0.0000
     vertex 0.1964 7.5642 0.0000
     vertex 0.2791 7.6433 0.0000
   endloop
 endfacet
 facet normal 0.0000 -0.0000 1.0000
   outer loop
     vertex 0.2791 7.6914 0.0000
     vertex 0.2495 7.6618 0.0000
     vertex 0.2791 7.6433 0.0000
   endloop
 endfacet
 facet normal 0.0000 -0.0000 1.0000
   outer loop
     vertex 0.2791 7.6433 0.0000
     vertex 0.2791 7.5636 0.0000
     vertex 0.3564 7.5636 0.0000
   endloop
 endfacet
 facet normal 0.0000 -0.0000 1.0000
   outer loop
     vertex 0.2791 7.6433 0.0000
     vertex 0.3564 7.5636 0.0000
     vertex 0.3564 8.1804 0.0000
   endloop
 endfacet
 facet normal -0.0000 -0.0000 1.0000
   outer loop
     vertex 0.2791 7.6914 0.0000
     vertex 0.2791 7.6433 0.0000
     vertex 0.3564 8.1804 0.0000
   endloop
 endfacet
 facet normal -0.0000 -0.0000 1.0000
   outer loop
     vertex 0.2791 7.8867 0.0000
     vertex 0.2791 7.6914 0.0000
     vertex 0.3564 8.1804 0.0000
   endloop
 endfacet
 facet normal 0.0000 -0.0000 1.0000
   outer loop
     vertex 0.2791 7.9394 0.0000
     vertex 0.2791 7.8867 0.0000
     vertex 0.3564 8.1804 0.0000
   endloop
 endfacet
 facet normal 0.0000 -0.0000 1.0000
   outer loop
     vertex 0.2791 7.9394 0.0000
     vertex 0.3564 8.1804 0.0000
     vertex 0.2791 8.1804 0.0000
   endloop
 endfacet
 facet normal 0.0000 -0.0000 1.0000
   outer loop
     vertex 0.6259 7.6117 0.0000
     vertex 0.4947 7.6492 0.0000
     vertex 0.4947 7.5785 0.0000
   endloop
 endfacet
 facet normal -0.0000 -0.0000 1.0000
   outer loop
     vertex 0.6259 7.6117 0.0000
     vertex 0.4947 7.5785 0.0000
     vertex 0.6228 7.5539 0.0000
   endloop
 endfacet
 facet normal -0.0000 -0.0000 1.0000
   outer loop
     vertex 0.6259 7.6117 0.0000
     vertex 0.6228 7.5539 0.0000
     vertex 0.7357 7.5898 0.0000
   endloop
 endfacet
 facet normal -0.0000 -0.0000 1.0000
   outer loop
     vertex 0.6810 7.6296 0.0000
     vertex 0.6259 7.6117 0.0000
     vertex 0.7357 7.5898 0.0000
   endloop
 endfacet
 facet normal 0.0000 -0.0000 1.0000
   outer loop
     vertex 0.6455 7.9394 0.0000
     vertex 0.7478 7.9203 0.0000
     vertex 0.7478 7.9843 0.0000
   endloop
 endfacet
 facet normal -0.0000 -0.0000 1.0000
   outer loop
     vertex 0.6455 7.9394 0.0000
     vertex 0.7478 7.9843 0.0000
     vertex 0.7318 7.9875 0.0000
   endloop
 endfacet
 facet normal 0.0000 -0.0000 1.0000
   outer loop
     vertex 0.6455 7.9394 0.0000
     vertex 0.7318 7.9875 0.0000
     vertex 0.6439 7.9972 0.0000
   endloop
 endfacet
 facet normal -0.0000 -0.0000 1.0000
   outer loop
     vertex 0.6455 7.9394 0.0000
     vertex 0.6439 7.9972 0.0000
     vertex 0.5363 7.9654 0.0000
   endloop
 endfacet
 facet normal -0.0000 -0.0000 1.0000
   outer loop
     vertex 0.5856 7.9225 0.0000
     vertex 0.6455 7.9394 0.0000
     vertex 0.5363 7.9654 0.0000
   endloop
 endfacet
 facet normal 0.0000 -0.0000 1.0000
   outer loop
     vertex 0.5856 7.9225 0.0000
     vertex 0.5363 7.9654 0.0000
     vertex 0.5222 7.9517 0.0000
   endloop
 endfacet
 facet normal 0.0000 -0.0000 1.0000
   outer loop
     vertex 0.5856 7.9225 0.0000
     vertex 0.5222 7.9517 0.0000
     vertex 0.4970 7.8781 0.0000
   endloop
 endfacet
 facet normal 0.0000 -0.0000 1.0000
   outer loop
     vertex 0.5717 7.8938 0.0000
     vertex 0.5856 7.9225 0.0000
     vertex 0.4970 7.8781 0.0000
   endloop
 endfacet
 facet normal -0.0000 -0.0000 1.0000
   outer loop
     vertex 0.5712 7.8855 0.0000
     vertex 0.5717 7.8938 0.0000
     vertex 0.4970 7.8781 0.0000
   endloop
 endfacet
 facet normal -0.0000 -0.0000 1.0000
   outer loop
     vertex 0.5712 7.8855 0.0000
     vertex 0.4970 7.8781 0.0000
     vertex 0.5072 7.8320 0.0000
   endloop
 endfacet
 facet normal 0.0000 -0.0000 1.0000
   outer loop
     vertex 0.5832 7.8558 0.0000
     vertex 0.5712 7.8855 0.0000
     vertex 0.5072 7.8320 0.0000
   endloop
 endfacet
 facet normal -0.0000 -0.0000 1.0000
   outer loop
     vertex 0.5832 7.8558 0.0000
     vertex 0.5072 7.8320 0.0000
     vertex 0.5966 7.7589 0.0000
   endloop
 endfacet
 facet normal -0.0000 -0.0000 1.0000
   outer loop
     vertex 0.6275 7.8269 0.0000
     vertex 0.5832 7.8558 0.0000
     vertex 0.5966 7.7589 0.0000
   endloop
 endfacet
 facet normal 0.0000 -0.0000 1.0000
   outer loop
     vertex 0.6275 7.8269 0.0000
     vertex 0.5966 7.7589 0.0000
     vertex 0.6416 7.7398 0.0000
   endloop
 endfacet
 facet normal -0.0000 -0.0000 1.0000
   outer loop
     vertex 0.6646 7.8113 0.0000
     vertex 0.6275 7.8269 0.0000
     vertex 0.6416 7.7398 0.0000
   endloop
 endfacet
 facet normal -0.0000 -0.0000 1.0000
   outer loop
     vertex 0.7537 7.7552 0.0000
     vertex 0.6646 7.8113 0.0000
     vertex 0.6416 7.7398 0.0000
   endloop
 endfacet
 facet normal -0.0000 -0.0000 1.0000
   outer loop
     vertex 0.7537 7.7552 0.0000
     vertex 0.6416 7.7398 0.0000
     vertex 0.6888 7.7093 0.0000
   endloop
 endfacet
 facet normal -0.0000 -0.0000 1.0000
   outer loop
     vertex 0.7798 7.6834 0.0000
     vertex 0.7537 7.7552 0.0000
     vertex 0.6888 7.7093 0.0000
   endloop
 endfacet
 facet normal -0.0000 -0.0000 1.0000
   outer loop
     vertex 0.7798 7.6834 0.0000
     vertex 0.6888 7.7093 0.0000
     vertex 0.7029 7.6746 0.0000
   endloop
 endfacet
 facet normal 0.0000 -0.0000 1.0000
   outer loop
     vertex 0.7798 7.6816 0.0000
     vertex 0.7798 7.6834 0.0000
     vertex 0.7029 7.6746 0.0000
   endloop
 endfacet
 facet normal 0.0000 -0.0000 1.0000
   outer loop
     vertex 0.7516 7.6050 0.0000
     vertex 0.7798 7.6816 0.0000
     vertex 0.7029 7.6746 0.0000
   endloop
 endfacet
 facet normal -0.0000 -0.0000 1.0000
   outer loop
     vertex 0.7516 7.6050 0.0000
     vertex 0.7029 7.6746 0.0000
     vertex 0.7020 7.6641 0.0000
   endloop
 endfacet
 facet normal 0.0000 -0.0000 1.0000
   outer loop
     vertex 0.7516 7.6050 0.0000
     vertex 0.7020 7.6641 0.0000
     vertex 0.6810 7.6296 0.0000
   endloop
 endfacet
 facet normal 0.0000 -0.0000 1.0000
   outer loop
     vertex 0.7516 7.6050 0.0000
     vertex 0.6810 7.6296 0.0000
     vertex 0.7357 7.5898 0.0000
   endloop
 endfacet
 facet normal 0.0000 -0.0000 1.0000
   outer loop
     vertex 1.6080 8.1417 0.0000
     vertex 1.5259 8.1417 0.0000
     vertex 1.5259 7.8980 0.0000
   endloop
 endfacet
 facet normal -0.0000 -0.0000 1.0000
   outer loop
     vertex 1.6080 7.5636 0.0000
     vertex 1.6080 8.1417 0.0000
     vertex 1.5259 7.8980 0.0000
   endloop
 endfacet
 facet normal 0.0000 -0.0000 1.0000
   outer loop
     vertex 1.2509 7.8980 0.0000
     vertex 1.2509 8.1417 0.0000
     vertex 1.1689 8.1417 0.0000
   endloop
 endfacet
 facet normal 0.0000 -0.0000 1.0000
   outer loop
     vertex 1.2509 7.8980 0.0000
     vertex 1.1689 8.1417 0.0000
     vertex 1.1689 7.5636 0.0000
   endloop
 endfacet
 facet normal 0.0000 -0.0000 1.0000
   outer loop
     vertex 1.5259 7.8367 0.0000
     vertex 1.5259 7.5636 0.0000
     vertex 1.6080 7.5636 0.0000
   endloop
 endfacet
 facet normal 0.0000 -0.0000 1.0000
   outer loop
     vertex 1.5259 7.8367 0.0000
     vertex 1.6080 7.5636 0.0000
     vertex 1.5259 7.8980 0.0000
   endloop
 endfacet
 facet normal 0.0000 -0.0000 1.0000
   outer loop
     vertex 1.2509 7.8367 0.0000
     vertex 1.5259 7.8367 0.0000
     vertex 1.5259 7.8980 0.0000
   endloop
 endfacet
 facet normal 0.0000 -0.0000 1.0000
   outer loop
     vertex 1.2509 7.8367 0.0000
     vertex 1.5259 7.8980 0.0000
     vertex 1.2509 7.8980 0.0000
   endloop
 endfacet
 facet normal -0.0000 -0.0000 1.0000
   outer loop
     vertex 1.2509 7.8367 0.0000
     vertex 1.2509 7.8980 0.0000
     vertex 1.1689 7.5636 0.0000
   endloop
 endfacet
 facet normal 0.0000 -0.0000 1.0000
   outer loop
     vertex 1.2509 7.8367 0.0000
     vertex 1.1689 7.5636 0.0000
     vertex 1.2509 7.5636 0.0000
   endloop
 endfacet
 facet normal 0.0000 -0.0000 1.0000
   outer loop
     vertex 1.7510 7.7518 0.0000
     vertex 1.7224 7.6703 0.0000
     vertex 1.7994 7.6828 0.0000
   endloop
 endfacet
 facet normal -0.0000 -0.0000 1.0000
   outer loop
     vertex 1.7510 7.7518 0.0000
     vertex 1.7994 7.6828 0.0000
     vertex 1.8024 7.7035 0.0000
   endloop
 endfacet
 facet normal 0.0000 -0.0000 1.0000
   outer loop
     vertex 1.7591 7.9656 0.0000
     vertex 1.7591 7.9019 0.0000
     vertex 1.8908 7.9394 0.0000
   endloop
 endfacet
 facet normal 0.0000 -0.0000 1.0000
   outer loop
     vertex 1.9048 7.9972 0.0000
     vertex 1.7591 7.9656 0.0000
     vertex 1.8908 7.9394 0.0000
   endloop
 endfacet
 facet normal -0.0000 -0.0000 1.0000
   outer loop
     vertex 1.9048 7.9972 0.0000
     vertex 1.8908 7.9394 0.0000
     vertex 1.9105 7.9380 0.0000
   endloop
 endfacet
 facet normal 0.0000 -0.0000 1.0000
   outer loop
     vertex 2.0070 7.9677 0.0000
     vertex 1.9048 7.9972 0.0000
     vertex 1.9105 7.9380 0.0000
   endloop
 endfacet
 facet normal -0.0000 -0.0000 1.0000
   outer loop
     vertex 2.0070 7.9677 0.0000
     vertex 1.9105 7.9380 0.0000
     vertex 1.9505 7.9179 0.0000
   endloop
 endfacet
 facet normal -0.0000 -0.0000 1.0000
   outer loop
     vertex 1.7808 7.7771 0.0000
     vertex 1.7510 7.7518 0.0000
     vertex 1.8024 7.7035 0.0000
   endloop
 endfacet
 facet normal -0.0000 -0.0000 1.0000
   outer loop
     vertex 1.7808 7.7771 0.0000
     vertex 1.8024 7.7035 0.0000
     vertex 1.8384 7.7458 0.0000
   endloop
 endfacet
 facet normal -0.0000 -0.0000 1.0000
   outer loop
     vertex 1.9482 7.8144 0.0000
     vertex 1.7808 7.7771 0.0000
     vertex 1.8384 7.7458 0.0000
   endloop
 endfacet
 facet normal 0.0000 -0.0000 1.0000
   outer loop
     vertex 1.9482 7.8144 0.0000
     vertex 1.8384 7.7458 0.0000
     vertex 1.9408 7.7699 0.0000
   endloop
 endfacet
 facet normal 0.0000 -0.0000 1.0000
   outer loop
     vertex 1.9482 7.8144 0.0000
     vertex 1.9408 7.7699 0.0000
     vertex 1.9666 7.7691 0.0000
   endloop
 endfacet
 facet normal 0.0000 -0.0000 1.0000
   outer loop
     vertex 1.9666 7.8144 0.0000
     vertex 1.9482 7.8144 0.0000
     vertex 1.9666 7.7691 0.0000
   endloop
 endfacet
 facet normal 0.0000 -0.0000 1.0000
   outer loop
     vertex 2.1045 7.5664 0.0000
     vertex 2.0990 7.6089 0.0000
     vertex 2.0841 7.6074 0.0000
   endloop
 endfacet
 facet normal 0.0000 -0.0000 1.0000
   outer loop
     vertex 2.0466 7.5539 0.0000
     vertex 2.1045 7.5664 0.0000
     vertex 2.0841 7.6074 0.0000
   endloop
 endfacet
 facet normal 0.0000 -0.0000 1.0000
   outer loop
     vertex 2.0466 7.5539 0.0000
     vertex 2.0841 7.6074 0.0000
     vertex 2.0794 7.6076 0.0000
   endloop
 endfacet
 facet normal -0.0000 -0.0000 1.0000
   outer loop
     vertex 2.0466 7.5539 0.0000
     vertex 2.0794 7.6076 0.0000
     vertex 2.0581 7.6179 0.0000
   endloop
 endfacet
 facet normal -0.0000 -0.0000 1.0000
   outer loop
     vertex 2.0039 7.5685 0.0000
     vertex 2.0466 7.5539 0.0000
     vertex 2.0581 7.6179 0.0000
   endloop
 endfacet
 facet normal 0.0000 -0.0000 1.0000
   outer loop
     vertex 1.9779 7.6175 0.0000
     vertex 2.0039 7.5685 0.0000
     vertex 2.0581 7.6179 0.0000
   endloop
 endfacet
 facet normal 0.0000 -0.0000 1.0000
   outer loop
     vertex 1.9779 7.6175 0.0000
     vertex 2.0581 7.6179 0.0000
     vertex 2.0435 7.6734 0.0000
   endloop
 endfacet
 facet normal 0.0000 -0.0000 1.0000
   outer loop
     vertex 2.0097 7.9652 0.0000
     vertex 2.0070 7.9677 0.0000
     vertex 1.9505 7.9179 0.0000
   endloop
 endfacet
 facet normal 0.0000 -0.0000 1.0000
   outer loop
     vertex 2.0424 7.8888 0.0000
     vertex 2.0097 7.9652 0.0000
     vertex 1.9505 7.9179 0.0000
   endloop
 endfacet
 facet normal -0.0000 -0.0000 1.0000
   outer loop
     vertex 2.0424 7.8888 0.0000
     vertex 1.9505 7.9179 0.0000
     vertex 1.9666 7.8656 0.0000
   endloop
 endfacet
 facet normal 0.0000 -0.0000 1.0000
   outer loop
     vertex 2.0435 7.8656 0.0000
     vertex 2.0424 7.8888 0.0000
     vertex 1.9666 7.8656 0.0000
   endloop
 endfacet
 facet normal 0.0000 -0.0000 1.0000
   outer loop
     vertex 2.0435 7.8656 0.0000
     vertex 1.9666 7.8656 0.0000
     vertex 1.9666 7.8144 0.0000
   endloop
 endfacet
 facet normal 0.0000 -0.0000 1.0000
   outer loop
     vertex 2.0435 7.6734 0.0000
     vertex 2.0435 7.8656 0.0000
     vertex 1.9666 7.8144 0.0000
   endloop
 endfacet
 facet normal -0.0000 -0.0000 1.0000
   outer loop
     vertex 2.0435 7.6734 0.0000
     vertex 1.9666 7.8144 0.0000
     vertex 1.9666 7.7691 0.0000
   endloop
 endfacet
 facet normal 0.0000 -0.0000 1.0000
   outer loop
     vertex 2.0435 7.6734 0.0000
     vertex 1.9666 7.7691 0.0000
     vertex 1.9666 7.6593 0.0000
   endloop
 endfacet
 facet normal 0.0000 -0.0000 1.0000
   outer loop
     vertex 1.9779 7.6175 0.0000
     vertex 2.0435 7.6734 0.0000
     vertex 1.9666 7.6593 0.0000
   endloop
 endfacet
 facet normal -0.0000 -0.0000 1.0000
   outer loop
     vertex 1.9779 7.6175 0.0000
     vertex 1.9666 7.6593 0.0000
     vertex 1.8666 7.6167 0.0000
   endloop
 endfacet
 facet normal -0.0000 -0.0000 1.0000
   outer loop
     vertex 1.8473 7.5539 0.0000
     vertex 1.9779 7.6175 0.0000
     vertex 1.8666 7.6167 0.0000
   endloop
 endfacet
 facet normal 0.0000 -0.0000 1.0000
   outer loop
     vertex 1.8473 7.5539 0.0000
     vertex 1.8666 7.6167 0.0000
     vertex 1.8621 7.6169 0.0000
   endloop
 endfacet
 facet normal -0.0000 -0.0000 1.0000
   outer loop
     vertex 1.7994 7.6828 0.0000
     vertex 1.7224 7.6703 0.0000
     vertex 1.7231 7.6565 0.0000
   endloop
 endfacet
 facet normal 0.0000 -0.0000 1.0000
   outer loop
     vertex 1.7994 7.6828 0.0000
     vertex 1.7231 7.6565 0.0000
     vertex 1.7572 7.5869 0.0000
   endloop
 endfacet
 facet normal -0.0000 -0.0000 1.0000
   outer loop
     vertex 1.8152 7.6398 0.0000
     vertex 1.7994 7.6828 0.0000
     vertex 1.7572 7.5869 0.0000
   endloop
 endfacet
 facet normal -0.0000 -0.0000 1.0000
   outer loop
     vertex 1.8152 7.6398 0.0000
     vertex 1.7572 7.5869 0.0000
     vertex 1.7614 7.5830 0.0000
   endloop
 endfacet
 facet normal 0.0000 -0.0000 1.0000
   outer loop
     vertex 1.8152 7.6398 0.0000
     vertex 1.7614 7.5830 0.0000
     vertex 1.8447 7.5539 0.0000
   endloop
 endfacet
 facet normal 0.0000 -0.0000 1.0000
   outer loop
     vertex 1.8189 7.6359 0.0000
     vertex 1.8152 7.6398 0.0000
     vertex 1.8447 7.5539 0.0000
   endloop
 endfacet
 facet normal 0.0000 -0.0000 1.0000
   outer loop
     vertex 1.8621 7.6169 0.0000
     vertex 1.8189 7.6359 0.0000
     vertex 1.8447 7.5539 0.0000
   endloop
 endfacet
 facet normal 0.0000 -0.0000 1.0000
   outer loop
     vertex 1.8621 7.6169 0.0000
     vertex 1.8447 7.5539 0.0000
     vertex 1.8473 7.5539 0.0000
   endloop
 endfacet
 facet normal -0.0000 -0.0000 1.0000
   outer loop
     vertex 2.3900 7.5636 0.0000
     vertex 2.3900 7.6167 0.0000
     vertex 2.3529 7.6117 0.0000
   endloop
 endfacet
 facet normal 0.0000 -0.0000 1.0000
   outer loop
     vertex 2.3283 7.5539 0.0000
     vertex 2.3900 7.5636 0.0000
     vertex 2.3529 7.6117 0.0000
   endloop
 endfacet
 facet normal 0.0000 -0.0000 1.0000
   outer loop
     vertex 2.3283 7.5539 0.0000
     vertex 2.3529 7.6117 0.0000
     vertex 2.3418 7.6122 0.0000
   endloop
 endfacet
 facet normal -0.0000 -0.0000 1.0000
   outer loop
     vertex 2.2423 7.5823 0.0000
     vertex 2.3283 7.5539 0.0000
     vertex 2.3418 7.6122 0.0000
   endloop
 endfacet
 facet normal -0.0000 -0.0000 1.0000
   outer loop
     vertex 2.2423 7.5823 0.0000
     vertex 2.3418 7.6122 0.0000
     vertex 2.3004 7.6308 0.0000
   endloop
 endfacet
 facet normal -0.0000 -0.0000 1.0000
   outer loop
     vertex 2.2810 7.9878 0.0000
     vertex 2.2810 8.0722 0.0000
     vertex 2.2041 8.0648 0.0000
   endloop
 endfacet
 facet normal 0.0000 -0.0000 1.0000
   outer loop
     vertex 2.2810 7.9878 0.0000
     vertex 2.2041 8.0648 0.0000
     vertex 2.2041 7.9878 0.0000
   endloop
 endfacet
 facet normal 0.0000 -0.0000 1.0000
   outer loop
     vertex 2.1509 7.9878 0.0000
     vertex 2.1509 7.9300 0.0000
     vertex 2.2041 7.9300 0.0000
   endloop
 endfacet
 facet normal 0.0000 -0.0000 1.0000
   outer loop
     vertex 2.2041 7.9878 0.0000
     vertex 2.1509 7.9878 0.0000
     vertex 2.2041 7.9300 0.0000
   endloop
 endfacet
 facet normal 0.0000 -0.0000 1.0000
   outer loop
     vertex 2.2810 7.9878 0.0000
     vertex 2.2041 7.9878 0.0000
     vertex 2.2041 7.9300 0.0000
   endloop
 endfacet
 facet normal -0.0000 -0.0000 1.0000
   outer loop
     vertex 2.2369 7.5875 0.0000
     vertex 2.2423 7.5823 0.0000
     vertex 2.3004 7.6308 0.0000
   endloop
 endfacet
 facet normal -0.0000 -0.0000 1.0000
   outer loop
     vertex 2.2045 7.6668 0.0000
     vertex 2.2369 7.5875 0.0000
     vertex 2.3004 7.6308 0.0000
   endloop
 endfacet
 facet normal 0.0000 -0.0000 1.0000
   outer loop
     vertex 2.2045 7.6668 0.0000
     vertex 2.3004 7.6308 0.0000
     vertex 2.2810 7.6949 0.0000
   endloop
 endfacet
 facet normal 0.0000 -0.0000 1.0000
   outer loop
     vertex 2.2041 7.6808 0.0000
     vertex 2.2045 7.6668 0.0000
     vertex 2.2810 7.6949 0.0000
   endloop
 endfacet
 facet normal 0.0000 -0.0000 1.0000
   outer loop
     vertex 2.3920 7.9300 0.0000
     vertex 2.3920 7.9878 0.0000
     vertex 2.2810 7.9878 0.0000
   endloop
 endfacet
 facet normal 0.0000 -0.0000 1.0000
   outer loop
     vertex 2.2810 7.9300 0.0000
     vertex 2.3920 7.9300 0.0000
     vertex 2.2810 7.9878 0.0000
   endloop
 endfacet
 facet normal 0.0000 -0.0000 1.0000
   outer loop
     vertex 2.2810 7.9300 0.0000
     vertex 2.2810 7.9878 0.0000
     vertex 2.2041 7.9300 0.0000
   endloop
 endfacet
 facet normal 0.0000 -0.0000 1.0000
   outer loop
     vertex 2.2041 7.9300 0.0000
     vertex 2.2041 7.6808 0.0000
     vertex 2.2810 7.6949 0.0000
   endloop
 endfacet
 facet normal 0.0000 -0.0000 1.0000
   outer loop
     vertex 2.2041 7.9300 0.0000
     vertex 2.2810 7.6949 0.0000
     vertex 2.2810 7.9300 0.0000
   endloop
 endfacet
 facet normal 0.0000 -0.0000 1.0000
   outer loop
     vertex 2.7947 7.5765 0.0000
     vertex 2.7947 7.6429 0.0000
     vertex 2.6861 7.6160 0.0000
   endloop
 endfacet
 facet normal 0.0000 -0.0000 1.0000
   outer loop
     vertex 2.6658 7.5539 0.0000
     vertex 2.7947 7.5765 0.0000
     vertex 2.6861 7.6160 0.0000
   endloop
 endfacet
 facet normal -0.0000 -0.0000 1.0000
   outer loop
     vertex 2.6658 7.5539 0.0000
     vertex 2.6861 7.6160 0.0000
     vertex 2.6632 7.6177 0.0000
   endloop
 endfacet
 facet normal -0.0000 -0.0000 1.0000
   outer loop
     vertex 2.5421 7.5988 0.0000
     vertex 2.6658 7.5539 0.0000
     vertex 2.6632 7.6177 0.0000
   endloop
 endfacet
 facet normal 0.0000 -0.0000 1.0000
   outer loop
     vertex 2.5421 7.5988 0.0000
     vertex 2.6632 7.6177 0.0000
     vertex 2.5900 7.6601 0.0000
   endloop
 endfacet
 facet normal -0.0000 -0.0000 1.0000
   outer loop
     vertex 2.5232 7.6175 0.0000
     vertex 2.5421 7.5988 0.0000
     vertex 2.5900 7.6601 0.0000
   endloop
 endfacet
 facet normal 0.0000 -0.0000 1.0000
   outer loop
     vertex 2.6837 7.9382 0.0000
     vertex 2.7900 7.9191 0.0000
     vertex 2.7900 7.9835 0.0000
   endloop
 endfacet
 facet normal -0.0000 -0.0000 1.0000
   outer loop
     vertex 2.6837 7.9382 0.0000
     vertex 2.7900 7.9835 0.0000
     vertex 2.6791 7.9972 0.0000
   endloop
 endfacet
 facet normal -0.0000 -0.0000 1.0000
   outer loop
     vertex 2.4666 7.7742 0.0000
     vertex 2.5232 7.6175 0.0000
     vertex 2.5900 7.6601 0.0000
   endloop
 endfacet
 facet normal 0.0000 -0.0000 1.0000
   outer loop
     vertex 2.4666 7.7742 0.0000
     vertex 2.5900 7.6601 0.0000
     vertex 2.5533 7.7757 0.0000
   endloop
 endfacet
 facet normal -0.0000 -0.0000 1.0000
   outer loop
     vertex 2.6837 7.9382 0.0000
     vertex 2.6791 7.9972 0.0000
     vertex 2.6518 7.9961 0.0000
   endloop
 endfacet
 facet normal -0.0000 -0.0000 1.0000
   outer loop
     vertex 2.6042 7.9099 0.0000
     vertex 2.6837 7.9382 0.0000
     vertex 2.6518 7.9961 0.0000
   endloop
 endfacet
 facet normal -0.0000 -0.0000 1.0000
   outer loop
     vertex 2.6042 7.9099 0.0000
     vertex 2.6518 7.9961 0.0000
     vertex 2.5226 7.9394 0.0000
   endloop
 endfacet
 facet normal -0.0000 -0.0000 1.0000
   outer loop
     vertex 2.5890 7.8939 0.0000
     vertex 2.6042 7.9099 0.0000
     vertex 2.5226 7.9394 0.0000
   endloop
 endfacet
 facet normal 0.0000 -0.0000 1.0000
   outer loop
     vertex 2.4666 7.7781 0.0000
     vertex 2.4666 7.7742 0.0000
     vertex 2.5533 7.7757 0.0000
   endloop
 endfacet
 facet normal 0.0000 -0.0000 1.0000
   outer loop
     vertex 2.5161 7.9323 0.0000
     vertex 2.4666 7.7781 0.0000
     vertex 2.5533 7.7757 0.0000
   endloop
 endfacet
 facet normal -0.0000 -0.0000 1.0000
   outer loop
     vertex 2.5161 7.9323 0.0000
     vertex 2.5533 7.7757 0.0000
     vertex 2.5890 7.8939 0.0000
   endloop
 endfacet
 facet normal 0.0000 -0.0000 1.0000
   outer loop
     vertex 2.5161 7.9323 0.0000
     vertex 2.5890 7.8939 0.0000
     vertex 2.5226 7.9394 0.0000
   endloop
 endfacet
 facet normal 0.0000 -0.0000 1.0000
   outer loop
     vertex 2.9869 7.9082 0.0000
     vertex 2.9869 8.1804 0.0000
     vertex 2.9099 8.1804 0.0000
   endloop
 endfacet
 facet normal -0.0000 -0.0000 1.0000
   outer loop
     vertex 2.9869 7.9082 0.0000
     vertex 2.9099 8.1804 0.0000
     vertex 2.9099 7.5636 0.0000
   endloop
 endfacet
 facet normal 0.0000 -0.0000 1.0000
   outer loop
     vertex 2.9099 7.5636 0.0000
     vertex 2.9869 7.5636 0.0000
     vertex 2.9869 7.8382 0.0000
   endloop
 endfacet
 facet normal 0.0000 -0.0000 1.0000
   outer loop
     vertex 2.9869 7.9082 0.0000
     vertex 2.9099 7.5636 0.0000
     vertex 2.9869 7.8382 0.0000
   endloop
 endfacet
 facet normal -0.0000 -0.0000 1.0000
   outer loop
     vertex 2.9869 7.9082 0.0000
     vertex 2.9869 7.8382 0.0000
     vertex 3.0356 7.8952 0.0000
   endloop
 endfacet
 facet normal -0.0000 -0.0000 1.0000
   outer loop
     vertex 3.0953 7.9921 0.0000
     vertex 2.9869 7.9082 0.0000
     vertex 3.0356 7.8952 0.0000
   endloop
 endfacet
 facet normal -0.0000 -0.0000 1.0000
   outer loop
     vertex 3.0953 7.9921 0.0000
     vertex 3.0356 7.8952 0.0000
     vertex 3.1201 7.9308 0.0000
   endloop
 endfacet
 facet normal -0.0000 -0.0000 1.0000
   outer loop
     vertex 3.1361 7.9972 0.0000
     vertex 3.0953 7.9921 0.0000
     vertex 3.1201 7.9308 0.0000
   endloop
 endfacet
 facet normal -0.0000 -0.0000 1.0000
   outer loop
     vertex 3.1361 7.9972 0.0000
     vertex 3.1201 7.9308 0.0000
     vertex 3.1398 7.9285 0.0000
   endloop
 endfacet
 facet normal -0.0000 -0.0000 1.0000
   outer loop
     vertex 3.2158 7.9701 0.0000
     vertex 3.1361 7.9972 0.0000
     vertex 3.1398 7.9285 0.0000
   endloop
 endfacet
 facet normal 0.0000 -0.0000 1.0000
   outer loop
     vertex 3.2158 7.9701 0.0000
     vertex 3.1398 7.9285 0.0000
     vertex 3.1660 7.9107 0.0000
   endloop
 endfacet
 facet normal 0.0000 -0.0000 1.0000
   outer loop
     vertex 3.2240 7.9623 0.0000
     vertex 3.2158 7.9701 0.0000
     vertex 3.1660 7.9107 0.0000
   endloop
 endfacet
 facet normal -0.0000 -0.0000 1.0000
   outer loop
     vertex 3.2566 7.8776 0.0000
     vertex 3.2240 7.9623 0.0000
     vertex 3.1660 7.9107 0.0000
   endloop
 endfacet
 facet normal -0.0000 -0.0000 1.0000
   outer loop
     vertex 3.2566 7.8776 0.0000
     vertex 3.1660 7.9107 0.0000
     vertex 3.1798 7.8433 0.0000
   endloop
 endfacet
 facet normal -0.0000 -0.0000 1.0000
   outer loop
     vertex 3.2568 7.8683 0.0000
     vertex 3.2566 7.8776 0.0000
     vertex 3.1798 7.8433 0.0000
   endloop
 endfacet
 facet normal -0.0000 -0.0000 1.0000
   outer loop
     vertex 3.2568 7.5636 0.0000
     vertex 3.2568 7.8683 0.0000
     vertex 3.1798 7.8433 0.0000
   endloop
 endfacet
 facet normal 0.0000 -0.0000 1.0000
   outer loop
     vertex 3.2568 7.5636 0.0000
     vertex 3.1798 7.8433 0.0000
     vertex 3.1798 7.5636 0.0000
   endloop
 endfacet
 facet normal 0.0000 -0.0000 1.0000
   outer loop
     vertex -3.1964 -10.9394 2.0000
     vertex -3.9170 -11.7277 2.0000
     vertex -3.4756 -12.6893 2.0000
   endloop
 endfacet
 facet normal -0.0000 0.0000 1.0000
   outer loop
     vertex -3.2885 -12.3944 3.0000
     vertex -3.0838 -12.5544 3.0000
     vertex -3.0476 -12.2971 3.0000
   endloop
 endfacet
 facet normal -0.0000 0.0000 1.0000
   outer loop
     vertex -3.1903 -11.9013 3.0000
     vertex -2.9856 -12.0613 3.0000
     vertex -2.9495 -11.8040 3.0000
   endloop
 endfacet
 facet normal -0.0000 0.0000 1.0000
   outer loop
     vertex -3.1002 -11.3980 3.0000
     vertex -2.8955 -11.5580 3.0000
     vertex -2.8593 -11.3007 3.0000
   endloop
 endfacet
 facet normal -0.0000 0.0000 1.0000
   outer loop
     vertex -2.8859 -12.4462 3.0000
     vertex -2.6812 -12.6061 3.0000
     vertex -2.6450 -12.3488 3.0000
   endloop
 endfacet
 facet normal -0.0000 0.0000 1.0000
   outer loop
     vertex -2.7877 -11.9531 3.0000
     vertex -2.5830 -12.1130 3.0000
     vertex -2.5468 -11.8558 3.0000
   endloop
 endfacet
 facet normal -0.0000 0.0000 1.0000
   outer loop
     vertex -2.6976 -11.4498 3.0000
     vertex -2.4929 -11.6097 3.0000
     vertex -2.4567 -11.3524 3.0000
   endloop
 endfacet
 facet normal -0.0000 0.0000 1.0000
   outer loop
     vertex -2.4831 -12.5374 3.0000
     vertex -2.2784 -12.6974 3.0000
     vertex -2.2422 -12.4401 3.0000
   endloop
 endfacet
 facet normal -0.0000 0.0000 1.0000
   outer loop
     vertex -2.3849 -12.0443 3.0000
     vertex -2.1802 -12.2043 3.0000
     vertex -2.1440 -11.9470 3.0000
   endloop
 endfacet
 facet normal -0.0000 0.0000 1.0000
   outer loop
     vertex -2.2948 -11.5410 3.0000
     vertex -2.0900 -11.7010 3.0000
     vertex -2.0539 -11.4437 3.0000
   endloop
 endfacet
 facet normal -0.0000 0.0000 1.0000
   outer loop
     vertex -2.0548 -12.5703 3.0000
     vertex -1.8500 -12.7303 3.0000
     vertex -1.8139 -12.4730 3.0000
   endloop
 endfacet
 facet normal -0.0000 0.0000 1.0000
   outer loop
     vertex -1.9566 -12.0772 3.0000
     vertex -1.7519 -12.2372 3.0000
     vertex -1.7157 -11.9799 3.0000
   endloop
 endfacet
 facet normal -0.0000 0.0000 1.0000
   outer loop
     vertex -1.8664 -11.5739 3.0000
     vertex -1.6617 -11.7339 3.0000
     vertex -1.6256 -11.4766 3.0000
   endloop
 endfacet
 facet normal -0.0000 0.0000 1.0000
   outer loop
     vertex -1.6376 -12.6420 3.0000
     vertex -1.4329 -12.8019 3.0000
     vertex -1.3967 -12.5446 3.0000
   endloop
 endfacet
 facet normal -0.0000 0.0000 1.0000
   outer loop
     vertex -1.5395 -12.1489 3.0000
     vertex -1.3347 -12.3088 3.0000
     vertex -1.2986 -12.0516 3.0000
   endloop
 endfacet
 facet normal -0.0000 0.0000 1.0000
   outer loop
     vertex -1.4493 -11.6456 3.0000
     vertex -1.2446 -11.8055 3.0000
     vertex -1.2084 -11.5482 3.0000
   endloop
 endfacet
 facet normal -0.0000 0.0000 1.0000
   outer loop
     vertex -1.2402 -12.7303 3.0000
     vertex -1.0355 -12.8902 3.0000
     vertex -0.9993 -12.6329 3.0000
   endloop
 endfacet
 facet normal -0.0000 0.0000 1.0000
   outer loop
     vertex -1.1420 -12.2372 3.0000
     vertex -0.9373 -12.3971 3.0000
     vertex -0.9011 -12.1399 3.0000
   endloop
 endfacet
 facet normal -0.0000 0.0000 1.0000
   outer loop
     vertex -1.0519 -11.7339 3.0000
     vertex -0.8471 -11.8938 3.0000
     vertex -0.8110 -11.6365 3.0000
   endloop
 endfacet
 facet normal -0.0000 0.0000 1.0000
   outer loop
     vertex -3.6141 -11.0420 0.0000
     vertex -7.4680 -9.8004 0.0000
     vertex -8.1353 -11.1439 0.0000
   endloop
 endfacet
 facet normal -0.0000 0.0000 1.0000
   outer loop
     vertex -8.1353 -11.1439 0.0000
     vertex -3.9652 -12.5004 0.0000
     vertex -3.6141 -11.0420 0.0000
   endloop
 endfacet
 facet normal -0.0000 0.0000 1.0000
   outer loop
     vertex -7.4680 -9.8004 0.0000
     vertex -7.9670 -9.4526 0.0000
     vertex -8.9975 -10.5427 0.0000
   endloop
 endfacet
 facet normal -0.0000 0.0000 1.0000
   outer loop
     vertex -8.9975 -10.5427 0.0000
     vertex -8.1353 -11.1439 0.0000
     vertex -7.4680 -9.8004 0.0000
   endloop
 endfacet
 facet normal -0.0000 0.0000 1.0000
   outer loop
     vertex -7.9670 -9.4526 0.0000
     vertex -8.3717 -8.9315 0.0000
     vertex -9.6525 -9.7124 -0.0000
   endloop
 endfacet
 facet normal -0.0000 0.0000 1.0000
   outer loop
     vertex -9.6525 -9.7124 -0.0000
     vertex -8.9975 -10.5427 0.0000
     vertex -7.9670 -9.4526 0.0000
   endloop
 endfacet
 facet normal -0.0000 0.0000 1.0000
   outer loop
     vertex -8.3717 -8.9315 0.0000
     vertex -8.5842 -8.4739 -0.0000
     vertex -10.0222 -8.9006 -0.0000
   endloop
 endfacet
 facet normal -0.0000 0.0000 1.0000
   outer loop
     vertex -10.0222 -8.9006 -0.0000
     vertex -9.6525 -9.7124 -0.0000
     vertex -8.3717 -8.9315 0.0000
   endloop
 endfacet
 facet normal -0.0000 0.0000 1.0000
   outer loop
     vertex -8.5842 -8.4739 -0.0000
     vertex -8.6131 -8.2781 -0.0000
     vertex -10.1130 -8.2875 -0.0000
   endloop
 endfacet
 facet normal -0.0000 0.0000 1.0000
   outer loop
     vertex -10.1130 -8.2875 -0.0000
     vertex -10.0222 -8.9006 -0.0000
     vertex -8.5842 -8.4739 -0.0000
   endloop
 endfacet
 facet normal -0.0000 0.0000 1.0000
   outer loop
     vertex -8.6131 -8.2781 -0.0000
     vertex -8.5692 -7.9482 -0.0000
     vertex -10.0099 -7.5305 -0.0000
   endloop
 endfacet
 facet normal -0.0000 0.0000 1.0000
   outer loop
     vertex -10.0099 -7.5305 -0.0000
     vertex -10.1130 -8.2875 -0.0000
     vertex -8.6131 -8.2781 -0.0000
   endloop
 endfacet
 facet normal -0.0000 0.0000 1.0000
   outer loop
     vertex -8.5692 -7.9482 -0.0000
     vertex -7.8355 -6.3624 -0.0000
     vertex -9.1453 -5.6313 -0.0000
   endloop
 endfacet
 facet normal -0.0000 0.0000 1.0000
   outer loop
     vertex -9.1453 -5.6313 -0.0000
     vertex -10.0099 -7.5305 -0.0000
     vertex -8.5692 -7.9482 -0.0000
   endloop
 endfacet
 facet normal -0.0000 0.0000 1.0000
   outer loop
     vertex -7.8355 -6.3624 -0.0000
     vertex -5.6790 -3.1159 -0.0000
     vertex -6.7811 -2.0984 -0.0000
   endloop
 endfacet
 facet normal -0.0000 0.0000 1.0000
   outer loop
     vertex -6.7811 -2.0984 -0.0000
     vertex -9.1453 -5.6313 -0.0000
     vertex -7.8355 -6.3624 -0.0000
   endloop
 endfacet
 facet normal -0.0000 0.0000 1.0000
   outer loop
     vertex -5.6790 -3.1159 -0.0000
     vertex -5.4095 -2.9056 -0.0000
     vertex -6.1643 -1.6093 -0.0000
   endloop
 endfacet
 facet normal -0.0000 0.0000 1.0000
   outer loop
     vertex -6.1643 -1.6093 -0.0000
     vertex -6.7811 -2.0984 -0.0000
     vertex -5.6790 -3.1159 -0.0000
   endloop
 endfacet
 facet normal -0.0000 0.0000 1.0000
   outer loop
     vertex -5.4095 -2.9056 -0.0000
     vertex -5.3324 -2.8744 -0.0000
     vertex -5.6999 -1.4201 -0.0000
   endloop
 endfacet
 facet normal -0.0000 0.0000 1.0000
   outer loop
     vertex -5.6999 -1.4201 -0.0000
     vertex -6.1643 -1.6093 -0.0000
     vertex -5.4095 -2.9056 -0.0000
   endloop
 endfacet
 facet normal -0.0000 0.0000 1.0000
   outer loop
     vertex -5.3324 -2.8744 -0.0000
     vertex -5.3070 -2.8717 -0.0000
     vertex -5.2618 -1.3724 -0.0000
   endloop
 endfacet
 facet normal -0.0000 0.0000 1.0000
   outer loop
     vertex -5.2618 -1.3724 -0.0000
     vertex -5.6999 -1.4201 -0.0000
     vertex -5.3324 -2.8744 -0.0000
   endloop
 endfacet
 facet normal 0.0000 0.0000 1.0000
   outer loop
     vertex -5.3070 -2.8717 -0.0000
     vertex -5.2087 -2.8895 -0.0000
     vertex -4.7694 -1.4552 -0.0000
   endloop
 endfacet
 facet normal 0.0000 0.0000 1.0000
   outer loop
     vertex -4.7694 -1.4552 -0.0000
     vertex -5.2618 -1.3724 -0.0000
     vertex -5.3070 -2.8717 -0.0000
   endloop
 endfacet
 facet normal 0.0000 0.0000 1.0000
   outer loop
     vertex -5.2087 -2.8895 -0.0000
     vertex -5.1685 -2.9064 -0.0000
     vertex -4.3648 -1.6400 -0.0000
   endloop
 endfacet
 facet normal 0.0000 0.0000 1.0000
   outer loop
     vertex -4.3648 -1.6400 -0.0000
     vertex -4.7694 -1.4552 -0.0000
     vertex -5.2087 -2.8895 -0.0000
   endloop
 endfacet
 facet normal 0.0000 0.0000 1.0000
   outer loop
     vertex -5.1685 -2.9064 -0.0000
     vertex -5.1437 -2.9286 -0.0000
     vertex -4.0291 -1.9247 -0.0000
   endloop
 endfacet
 facet normal 0.0000 0.0000 1.0000
   outer loop
     vertex -4.0291 -1.9247 -0.0000
     vertex -4.3648 -1.6400 -0.0000
     vertex -5.1685 -2.9064 -0.0000
   endloop
 endfacet
 facet normal 0.0000 0.0000 1.0000
   outer loop
     vertex -5.1437 -2.9286 -0.0000
     vertex -5.0922 -3.0029 -0.0000
     vertex -3.7510 -2.3313 -0.0000
   endloop
 endfacet
 facet normal 0.0000 0.0000 1.0000
   outer loop
     vertex -3.7510 -2.3313 -0.0000
     vertex -4.0291 -1.9247 -0.0000
     vertex -5.1437 -2.9286 -0.0000
   endloop
 endfacet
 facet normal 0.0000 0.0000 1.0000
   outer loop
     vertex -5.0922 -3.0029 -0.0000
     vertex -5.0808 -3.0350 -0.0000
     vertex -3.6068 -2.7568 -0.0000
   endloop
 endfacet
 facet normal 0.0000 0.0000 1.0000
   outer loop
     vertex -3.6068 -2.7568 -0.0000
     vertex -3.7510 -2.3313 -0.0000
     vertex -5.0922 -3.0029 -0.0000
   endloop
 endfacet
 facet normal 0.0000 0.0000 1.0000
   outer loop
     vertex -5.0808 -3.0350 -0.0000
     vertex -5.0797 -3.0687 -0.0000
     vertex -3.5860 -3.2058 -0.0000
   endloop
 endfacet
 facet normal 0.0000 0.0000 1.0000
   outer loop
     vertex -3.5860 -3.2058 -0.0000
     vertex -3.6068 -2.7568 -0.0000
     vertex -5.0808 -3.0350 -0.0000
   endloop
 endfacet
 facet normal 0.0000 0.0000 1.0000
   outer loop
     vertex -5.0797 -3.0687 -0.0000
     vertex -5.1105 -3.2102 -0.0000
     vertex -3.7200 -3.7728 -0.0000
   endloop
 endfacet
 facet normal 0.0000 0.0000 1.0000
   outer loop
     vertex -3.7200 -3.7728 -0.0000
     vertex -3.5860 -3.2058 -0.0000
     vertex -5.0797 -3.0687 -0.0000
   endloop
 endfacet
 facet normal 0.0000 0.0000 1.0000
   outer loop
     vertex -5.1105 -3.2102 -0.0000
     vertex -5.8575 -4.4378 -0.0000
     vertex -4.5613 -5.1925 -0.0000
   endloop
 endfacet
 facet normal 0.0000 0.0000 1.0000
   outer loop
     vertex -4.5613 -5.1925 -0.0000
     vertex -3.7200 -3.7728 -0.0000
     vertex -5.1105 -3.2102 -0.0000
   endloop
 endfacet
 facet normal 0.0000 0.0000 1.0000
   outer loop
     vertex -5.8575 -4.4378 -0.0000
     vertex -6.8784 -6.2627 -0.0000
     vertex -5.4755 -6.7937 -0.0000
   endloop
 endfacet
 facet normal 0.0000 0.0000 1.0000
   outer loop
     vertex -5.4755 -6.7937 -0.0000
     vertex -4.5613 -5.1925 -0.0000
     vertex -5.8575 -4.4378 -0.0000
   endloop
 endfacet
 facet normal 0.0000 0.0000 1.0000
   outer loop
     vertex -6.8784 -6.2627 -0.0000
     vertex -7.1255 -7.4124 -0.0000
     vertex -5.6305 -7.5352 -0.0000
   endloop
 endfacet
 facet normal 0.0000 0.0000 1.0000
   outer loop
     vertex -5.6305 -7.5352 -0.0000
     vertex -5.4755 -6.7937 -0.0000
     vertex -6.8784 -6.2627 -0.0000
   endloop
 endfacet
 facet normal 0.0000 0.0000 1.0000
   outer loop
     vertex -7.1255 -7.4124 -0.0000
     vertex -7.0940 -8.0722 -0.0000
     vertex -5.6203 -7.7926 -0.0000
   endloop
 endfacet
 facet normal 0.0000 0.0000 1.0000
   outer loop
     vertex -5.6203 -7.7926 -0.0000
     vertex -5.6305 -7.5352 -0.0000
     vertex -7.1255 -7.4124 -0.0000
   endloop
 endfacet
 facet normal 0.0000 0.0000 1.0000
   outer loop
     vertex -7.0940 -8.0722 -0.0000
     vertex -6.9359 -8.5348 -0.0000
     vertex -5.5992 -7.8542 -0.0000
   endloop
 endfacet
 facet normal 0.0000 0.0000 1.0000
   outer loop
     vertex -5.5992 -7.8542 -0.0000
     vertex -5.6203 -7.7926 -0.0000
     vertex -7.0940 -8.0722 -0.0000
   endloop
 endfacet
 facet normal 0.0000 0.0000 1.0000
   outer loop
     vertex -6.9359 -8.5348 -0.0000
     vertex -6.6635 -8.9221 0.0000
     vertex -5.5724 -7.8927 -0.0000
   endloop
 endfacet
 facet normal 0.0000 0.0000 1.0000
   outer loop
     vertex -5.5724 -7.8927 -0.0000
     vertex -5.5992 -7.8542 -0.0000
     vertex -6.9359 -8.5348 -0.0000
   endloop
 endfacet
 facet normal 0.0000 0.0000 1.0000
   outer loop
     vertex -6.6635 -8.9221 0.0000
     vertex -6.1745 -9.3098 0.0000
     vertex -5.4222 -8.0121 -0.0000
   endloop
 endfacet
 facet normal 0.0000 0.0000 1.0000
   outer loop
     vertex -5.4222 -8.0121 -0.0000
     vertex -5.5724 -7.8927 -0.0000
     vertex -6.6635 -8.9221 0.0000
   endloop
 endfacet
 facet normal 0.0000 0.0000 1.0000
   outer loop
     vertex -6.1745 -9.3098 0.0000
     vertex -3.1643 -10.5171 0.0000
     vertex -2.7462 -9.0765 -0.0000
   endloop
 endfacet
 facet normal 0.0000 0.0000 1.0000
   outer loop
     vertex -2.7462 -9.0765 -0.0000
     vertex -5.4222 -8.0121 -0.0000
     vertex -6.1745 -9.3098 0.0000
   endloop
 endfacet
 facet normal 0.0000 0.0000 1.0000
   outer loop
     vertex -3.1643 -10.5171 0.0000
     vertex 0.6425 -11.2263 0.0000
     vertex 0.7231 -9.7284 -0.0000
   endloop
 endfacet
 facet normal 0.0000 0.0000 1.0000
   outer loop
     vertex 0.7231 -9.7284 -0.0000
     vertex -2.7462 -9.0765 -0.0000
     vertex -3.1643 -10.5171 0.0000
   endloop
 endfacet
 facet normal -0.0000 0.0000 1.0000
   outer loop
     vertex 0.6425 -11.2263 0.0000
     vertex 1.7534 -11.1387 0.0000
     vertex 1.4229 -9.6755 -0.0000
   endloop
 endfacet
 facet normal -0.0000 0.0000 1.0000
   outer loop
     vertex 1.4229 -9.6755 -0.0000
     vertex 0.7231 -9.7284 -0.0000
     vertex 0.6425 -11.2263 0.0000
   endloop
 endfacet
 facet normal -0.0000 0.0000 1.0000
   outer loop
     vertex 1.7534 -11.1387 0.0000
     vertex 2.5235 -10.8445 0.0000
     vertex 1.8101 -9.5250 -0.0000
   endloop
 endfacet
 facet normal -0.0000 0.0000 1.0000
   outer loop
     vertex 1.8101 -9.5250 -0.0000
     vertex 1.4229 -9.6755 -0.0000
     vertex 1.7534 -11.1387 0.0000
   endloop
 endfacet
 facet normal -0.0000 0.0000 1.0000
   outer loop
     vertex 2.5235 -10.8445 0.0000
     vertex 3.1101 -10.4210 0.0000
     vertex 2.0771 -9.3333 -0.0000
   endloop
 endfacet
 facet normal -0.0000 0.0000 1.0000
   outer loop
     vertex 2.0771 -9.3333 -0.0000
     vertex 1.8101 -9.5250 -0.0000
     vertex 2.5235 -10.8445 0.0000
   endloop
 endfacet
 facet normal -0.0000 0.0000 1.0000
   outer loop
     vertex 3.1101 -10.4210 0.0000
     vertex 3.4624 -9.9817 0.0000
     vertex 2.1758 -9.2105 -0.0000
   endloop
 endfacet
 facet normal -0.0000 0.0000 1.0000
   outer loop
     vertex 2.1758 -9.2105 -0.0000
     vertex 2.0771 -9.3333 -0.0000
     vertex 3.1101 -10.4210 0.0000
   endloop
 endfacet
 facet normal -0.0000 0.0000 1.0000
   outer loop
     vertex 3.4624 -9.9817 0.0000
     vertex 3.6617 -9.5156 0.0000
     vertex 2.2154 -9.1176 -0.0000
   endloop
 endfacet
 facet normal -0.0000 0.0000 1.0000
   outer loop
     vertex 2.2154 -9.1176 -0.0000
     vertex 2.1758 -9.2105 -0.0000
     vertex 3.4624 -9.9817 0.0000
   endloop
 endfacet
 facet normal -0.0000 0.0000 1.0000
   outer loop
     vertex 3.6617 -9.5156 0.0000
     vertex 3.7316 -8.9959 0.0000
     vertex 2.2316 -8.9941 -0.0000
   endloop
 endfacet
 facet normal -0.0000 0.0000 1.0000
   outer loop
     vertex 2.2316 -8.9941 -0.0000
     vertex 2.2154 -9.1176 -0.0000
     vertex 3.6617 -9.5156 0.0000
   endloop
 endfacet
 facet normal -0.0000 0.0000 1.0000
   outer loop
     vertex 3.7316 -8.9959 0.0000
     vertex 3.6654 -8.5024 -0.0000
     vertex 2.2220 -8.9105 -0.0000
   endloop
 endfacet
 facet normal -0.0000 0.0000 1.0000
   outer loop
     vertex 2.2220 -8.9105 -0.0000
     vertex 2.2316 -8.9941 -0.0000
     vertex 3.7316 -8.9959 0.0000
   endloop
 endfacet
 facet normal -0.0000 0.0000 1.0000
   outer loop
     vertex 3.6654 -8.5024 -0.0000
     vertex 3.3833 -7.8537 -0.0000
     vertex 2.0406 -8.5223 -0.0000
   endloop
 endfacet
 facet normal -0.0000 0.0000 1.0000
   outer loop
     vertex 2.0406 -8.5223 -0.0000
     vertex 2.2220 -8.9105 -0.0000
     vertex 3.6654 -8.5024 -0.0000
   endloop
 endfacet
 facet normal -0.0000 0.0000 1.0000
   outer loop
     vertex 3.3833 -7.8537 -0.0000
     vertex -5.0780 7.4748 -0.0000
     vertex -6.5039 7.0091 -0.0000
   endloop
 endfacet
 facet normal -0.0000 0.0000 1.0000
   outer loop
     vertex -6.5039 7.0091 -0.0000
     vertex 2.0406 -8.5223 -0.0000
     vertex 3.3833 -7.8537 -0.0000
   endloop
 endfacet
 facet normal -0.0000 0.0000 1.0000
   outer loop
     vertex -5.0780 7.4748 -0.0000
     vertex -5.1774 8.2888 -0.0000
     vertex -6.6772 8.3169 -0.0000
   endloop
 endfacet
 facet normal -0.0000 0.0000 1.0000
   outer loop
     vertex -6.6772 8.3169 -0.0000
     vertex -6.5039 7.0091 -0.0000
     vertex -5.0780 7.4748 -0.0000
   endloop
 endfacet
 facet normal -0.0000 0.0000 1.0000
   outer loop
     vertex -5.1774 8.2888 -0.0000
     vertex -5.0995 8.7488 -0.0000
     vertex -6.5323 9.1928 -0.0000
   endloop
 endfacet
 facet normal -0.0000 0.0000 1.0000
   outer loop
     vertex -6.5323 9.1928 -0.0000
     vertex -6.6772 8.3169 -0.0000
     vertex -5.1774 8.2888 -0.0000
   endloop
 endfacet
 facet normal -0.0000 0.0000 1.0000
   outer loop
     vertex -5.0995 8.7488 -0.0000
     vertex -4.9721 9.0248 -0.0000
     vertex -6.2261 9.8480 -0.0000
   endloop
 endfacet
 facet normal -0.0000 0.0000 1.0000
   outer loop
     vertex -6.2261 9.8480 -0.0000
     vertex -6.5323 9.1928 -0.0000
     vertex -5.0995 8.7488 -0.0000
   endloop
 endfacet
 facet normal -0.0000 0.0000 1.0000
   outer loop
     vertex -4.9721 9.0248 -0.0000
     vertex -4.4743 9.5811 -0.0000
     vertex -5.4742 10.6992 -0.0000
   endloop
 endfacet
 facet normal -0.0000 0.0000 1.0000
   outer loop
     vertex -5.4742 10.6992 -0.0000
     vertex -6.2261 9.8480 -0.0000
     vertex -4.9721 9.0248 -0.0000
   endloop
 endfacet
 facet normal -0.0000 0.0000 1.0000
   outer loop
     vertex -4.4743 9.5811 -0.0000
     vertex 0.0119 12.7479 -0.0000
     vertex -0.6936 14.0716 -0.0000
   endloop
 endfacet
 facet normal -0.0000 0.0000 1.0000
   outer loop
     vertex -0.6936 14.0716 -0.0000
     vertex -5.4742 10.6992 -0.0000
     vertex -4.4743 9.5811 -0.0000
   endloop
 endfacet
 facet normal -0.0000 0.0000 1.0000
   outer loop
     vertex 0.0119 12.7479 -0.0000
     vertex 0.7627 13.0370 -0.0000
     vertex 0.4374 14.5013 -0.0000
   endloop
 endfacet
 facet normal -0.0000 0.0000 1.0000
   outer loop
     vertex 0.4374 14.5013 -0.0000
     vertex -0.6936 14.0716 -0.0000
     vertex 0.0119 12.7479 -0.0000
   endloop
 endfacet
 facet normal -0.0000 0.0000 1.0000
   outer loop
     vertex 0.7627 13.0370 -0.0000
     vertex 1.0626 13.0581 -0.0000
     vertex 1.1660 14.5546 -0.0000
   endloop
 endfacet
 facet normal -0.0000 0.0000 1.0000
   outer loop
     vertex 1.1660 14.5546 -0.0000
     vertex 0.4374 14.5013 -0.0000
     vertex 0.7627 13.0370 -0.0000
   endloop
 endfacet
 facet normal 0.0000 0.0000 1.0000
   outer loop
     vertex 1.0626 13.0581 -0.0000
     vertex 1.6423 12.9327 -0.0000
     vertex 2.1353 14.3494 -0.0000
   endloop
 endfacet
 facet normal 0.0000 0.0000 1.0000
   outer loop
     vertex 2.1353 14.3494 -0.0000
     vertex 1.1660 14.5546 -0.0000
     vertex 1.0626 13.0581 -0.0000
   endloop
 endfacet
 facet normal 0.0000 0.0000 1.0000
   outer loop
     vertex 1.6423 12.9327 -0.0000
     vertex 2.6484 12.4357 -0.0000
     vertex 3.4867 13.6796 -0.0000
   endloop
 endfacet
 facet normal 0.0000 0.0000 1.0000
   outer loop
     vertex 3.4867 13.6796 -0.0000
     vertex 2.1353 14.3494 -0.0000
     vertex 1.6423 12.9327 -0.0000
   endloop
 endfacet
 facet normal 0.0000 0.0000 1.0000
   outer loop
     vertex 2.6484 12.4357 -0.0000
     vertex 3.1741 11.9698 -0.0000
     vertex 4.3192 12.9386 -0.0000
   endloop
 endfacet
 facet normal 0.0000 0.0000 1.0000
   outer loop
     vertex 4.3192 12.9386 -0.0000
     vertex 3.4867 13.6796 -0.0000
     vertex 2.6484 12.4357 -0.0000
   endloop
 endfacet
 facet normal 0.0000 0.0000 1.0000
   outer loop
     vertex 3.1741 11.9698 -0.0000
     vertex 4.4251 9.9693 -0.0000
     vertex 5.7798 10.6133 -0.0000
   endloop
 endfacet
 facet normal 0.0000 0.0000 1.0000
   outer loop
     vertex 5.7798 10.6133 -0.0000
     vertex 4.3192 12.9386 -0.0000
     vertex 3.1741 11.9698 -0.0000
   endloop
 endfacet
 facet normal 0.0000 0.0000 1.0000
   outer loop
     vertex 4.4251 9.9693 -0.0000
     vertex 5.1583 7.8142 -0.0000
     vertex 6.6271 8.1182 -0.0000
   endloop
 endfacet
 facet normal 0.0000 0.0000 1.0000
   outer loop
     vertex 6.6271 8.1182 -0.0000
     vertex 5.7798 10.6133 -0.0000
     vertex 4.4251 9.9693 -0.0000
   endloop
 endfacet
 facet normal 0.0000 0.0000 1.0000
   outer loop
     vertex 5.1583 7.8142 -0.0000
     vertex 5.2439 6.7773 -0.0000
     vertex 6.7410 6.6848 -0.0000
   endloop
 endfacet
 facet normal 0.0000 0.0000 1.0000
   outer loop
     vertex 6.7410 6.6848 -0.0000
     vertex 6.6271 8.1182 -0.0000
     vertex 5.1583 7.8142 -0.0000
   endloop
 endfacet
 facet normal 0.0000 0.0000 1.0000
   outer loop
     vertex 5.2439 6.7773 -0.0000
     vertex 5.1612 6.3758 -0.0000
     vertex 6.5706 5.8622 -0.0000
   endloop
 endfacet
 facet normal 0.0000 0.0000 1.0000
   outer loop
     vertex 6.5706 5.8622 -0.0000
     vertex 6.7410 6.6848 -0.0000
     vertex 5.2439 6.7773 -0.0000
   endloop
 endfacet
 facet normal 0.0000 0.0000 1.0000
   outer loop
     vertex 5.1612 6.3758 -0.0000
     vertex 4.9261 5.9431 -0.0000
     vertex 6.1405 5.0627 -0.0000
   endloop
 endfacet
 facet normal 0.0000 0.0000 1.0000
   outer loop
     vertex 6.1405 5.0627 -0.0000
     vertex 6.5706 5.8622 -0.0000
     vertex 5.1612 6.3758 -0.0000
   endloop
 endfacet
 facet normal 0.0000 0.0000 1.0000
   outer loop
     vertex 4.9261 5.9431 -0.0000
     vertex 3.5238 4.4749 -0.0000
     vertex 4.5580 3.3883 -0.0000
   endloop
 endfacet
 facet normal 0.0000 0.0000 1.0000
   outer loop
     vertex 4.5580 3.3883 -0.0000
     vertex 6.1405 5.0627 -0.0000
     vertex 4.9261 5.9431 -0.0000
   endloop
 endfacet
 facet normal 0.0000 0.0000 1.0000
   outer loop
     vertex 3.5238 4.4749 -0.0000
     vertex 1.0768 2.3530 -0.0000
     vertex 2.2562 1.4262 -0.0000
   endloop
 endfacet
 facet normal 0.0000 0.0000 1.0000
   outer loop
     vertex 2.2562 1.4262 -0.0000
     vertex 4.5580 3.3883 -0.0000
     vertex 3.5238 4.4749 -0.0000
   endloop
 endfacet
 facet normal 0.0000 0.0000 1.0000
   outer loop
     vertex 1.0768 2.3530 -0.0000
     vertex 0.6950 1.6208 -0.0000
     vertex 2.1101 1.1233 -0.0000
   endloop
 endfacet
 facet normal 0.0000 0.0000 1.0000
   outer loop
     vertex 2.1101 1.1233 -0.0000
     vertex 2.2562 1.4262 -0.0000
     vertex 1.0768 2.3530 -0.0000
   endloop
 endfacet
 facet normal 0.0000 0.0000 1.0000
   outer loop
     vertex 0.6950 1.6208 -0.0000
     vertex 0.5606 0.9702 -0.0000
     vertex 2.0574 0.8721 -0.0000
   endloop
 endfacet
 facet normal 0.0000 0.0000 1.0000
   outer loop
     vertex 2.0574 0.8721 -0.0000
     vertex 2.1101 1.1233 -0.0000
     vertex 0.6950 1.6208 -0.0000
   endloop
 endfacet
 facet normal 0.0000 0.0000 1.0000
   outer loop
     vertex 0.5606 0.9702 -0.0000
     vertex 0.5995 0.4546 -0.0000
     vertex 2.0631 0.7834 -0.0000
   endloop
 endfacet
 facet normal 0.0000 0.0000 1.0000
   outer loop
     vertex 2.0631 0.7834 -0.0000
     vertex 2.0574 0.8721 -0.0000
     vertex 0.5606 0.9702 -0.0000
   endloop
 endfacet
 facet normal 0.0000 0.0000 1.0000
   outer loop
     vertex 0.5995 0.4546 -0.0000
     vertex 0.8431 -0.1927 -0.0000
     vertex 2.1953 0.4565 -0.0000
   endloop
 endfacet
 facet normal 0.0000 0.0000 1.0000
   outer loop
     vertex 2.1953 0.4565 -0.0000
     vertex 2.0631 0.7834 -0.0000
     vertex 0.5995 0.4546 -0.0000
   endloop
 endfacet
 facet normal 0.0000 0.0000 1.0000
   outer loop
     vertex 0.8431 -0.1927 -0.0000
     vertex 6.2693 -9.4831 0.0000
     vertex 7.7024 -9.0399 -0.0000
   endloop
 endfacet
 facet normal 0.0000 0.0000 1.0000
   outer loop
     vertex 7.7024 -9.0399 -0.0000
     vertex 2.1953 0.4565 -0.0000
     vertex 0.8431 -0.1927 -0.0000
   endloop
 endfacet
 facet normal 0.0000 0.0000 1.0000
   outer loop
     vertex 6.2693 -9.4831 0.0000
     vertex 6.2677 -9.6240 0.0000
     vertex 7.7643 -9.7261 -0.0000
   endloop
 endfacet
 facet normal 0.0000 0.0000 1.0000
   outer loop
     vertex 7.7643 -9.7261 -0.0000
     vertex 7.7024 -9.0399 -0.0000
     vertex 6.2693 -9.4831 0.0000
   endloop
 endfacet
 facet normal 0.0000 0.0000 1.0000
   outer loop
     vertex 6.2677 -9.6240 0.0000
     vertex 6.2140 -9.8738 0.0000
     vertex 7.6267 -10.3781 0.0000
   endloop
 endfacet
 facet normal 0.0000 0.0000 1.0000
   outer loop
     vertex 7.6267 -10.3781 0.0000
     vertex 7.7643 -9.7261 -0.0000
     vertex 6.2677 -9.6240 0.0000
   endloop
 endfacet
 facet normal 0.0000 0.0000 1.0000
   outer loop
     vertex 6.2140 -9.8738 0.0000
     vertex 6.0661 -10.1614 0.0000
     vertex 7.2902 -11.0282 0.0000
   endloop
 endfacet
 facet normal 0.0000 0.0000 1.0000
   outer loop
     vertex 7.2902 -11.0282 0.0000
     vertex 7.6267 -10.3781 0.0000
     vertex 6.2140 -9.8738 0.0000
   endloop
 endfacet
 facet normal 0.0000 0.0000 1.0000
   outer loop
     vertex 6.0661 -10.1614 0.0000
     vertex 5.5831 -10.6718 0.0000
     vertex 6.5415 -11.8256 0.0000
   endloop
 endfacet
 facet normal 0.0000 0.0000 1.0000
   outer loop
     vertex 6.5415 -11.8256 0.0000
     vertex 7.2902 -11.0282 0.0000
     vertex 6.0661 -10.1614 0.0000
   endloop
 endfacet
 facet normal 0.0000 0.0000 1.0000
   outer loop
     vertex 5.5831 -10.6718 0.0000
     vertex 4.3687 -11.4532 0.0000
     vertex 5.0040 -12.8120 0.0000
   endloop
 endfacet
 facet normal 0.0000 0.0000 1.0000
   outer loop
     vertex 5.0040 -12.8120 0.0000
     vertex 6.5415 -11.8256 0.0000
     vertex 5.5831 -10.6718 0.0000
   endloop
 endfacet
 facet normal 0.0000 0.0000 1.0000
   outer loop
     vertex 4.3687 -11.4532 0.0000
     vertex 3.2701 -11.7986 0.0000
     vertex 3.5099 -13.2793 0.0000
   endloop
 endfacet
 facet normal 0.0000 0.0000 1.0000
   outer loop
     vertex 3.5099 -13.2793 0.0000
     vertex 5.0040 -12.8120 0.0000
     vertex 4.3687 -11.4532 0.0000
   endloop
 endfacet
 facet normal 0.0000 0.0000 1.0000
   outer loop
     vertex 3.2701 -11.7986 0.0000
     vertex 1.2749 -11.8286 0.0000
     vertex 1.1686 -13.3249 0.0000
   endloop
 endfacet
 facet normal 0.0000 0.0000 1.0000
   outer loop
     vertex 1.1686 -13.3249 0.0000
     vertex 3.5099 -13.2793 0.0000
     vertex 3.2701 -11.7986 0.0000
   endloop
 endfacet
 facet normal -0.0000 0.0000 1.0000
   outer loop
     vertex 1.2749 -11.8286 0.0000
     vertex -3.6141 -11.0420 0.0000
     vertex -3.9652 -12.5004 0.0000
   endloop
 endfacet
 facet normal -0.0000 0.0000 1.0000
   outer loop
     vertex -3.9652 -12.5004 0.0000
     vertex 1.1686 -13.3249 0.0000
     vertex 1.2749 -11.8286 0.0000
   endloop
 endfacet
endsolid
