solid Cheetah3Dfile
 facet normal 0.0000 -0.0000 1.0000
   outer loop
     vertex 0.7690 -0.9622 -0.0000
     vertex 0.7690 -0.9009 -0.0000
     vertex 0.5089 -0.9009 -0.0000
   endloop
 endfacet
 facet normal 0.0000 -0.0000 1.0000
   outer loop
     vertex 0.4268 -0.9622 -0.0000
     vertex 0.7690 -0.9622 -0.0000
     vertex 0.5089 -0.9009 -0.0000
   endloop
 endfacet
 facet normal -0.0000 -0.0000 1.0000
   outer loop
     vertex 0.4268 -0.3841 0.0000
     vertex 0.4268 -0.9622 -0.0000
     vertex 0.5089 -0.9009 -0.0000
   endloop
 endfacet
 facet normal 0.0000 -0.0000 1.0000
   outer loop
     vertex 0.4268 -0.3841 0.0000
     vertex 0.5089 -0.9009 -0.0000
     vertex 0.5089 -0.3841 0.0000
   endloop
 endfacet
 facet normal -0.0000 -0.0000 1.0000
   outer loop
     vertex 0.8476 -0.7740 0.0000
     vertex 0.8190 -0.8556 0.0000
     vertex 0.8960 -0.8431 0.0000
   endloop
 endfacet
 facet normal 0.0000 -0.0000 1.0000
   outer loop
     vertex 0.8476 -0.7740 0.0000
     vertex 0.8960 -0.8431 0.0000
     vertex 0.8990 -0.8224 0.0000
   endloop
 endfacet
 facet normal 0.0000 -0.0000 1.0000
   outer loop
     vertex 0.8558 -0.5602 0.0000
     vertex 0.8558 -0.6239 0.0000
     vertex 0.9874 -0.5864 0.0000
   endloop
 endfacet
 facet normal -0.0000 -0.0000 1.0000
   outer loop
     vertex 1.0015 -0.5286 0.0000
     vertex 0.8558 -0.5602 0.0000
     vertex 0.9874 -0.5864 0.0000
   endloop
 endfacet
 facet normal -0.0000 -0.0000 1.0000
   outer loop
     vertex 1.0015 -0.5286 0.0000
     vertex 0.9874 -0.5864 0.0000
     vertex 1.0071 -0.5879 0.0000
   endloop
 endfacet
 facet normal 0.0000 -0.0000 1.0000
   outer loop
     vertex 1.1036 -0.5581 0.0000
     vertex 1.0015 -0.5286 0.0000
     vertex 1.0071 -0.5879 0.0000
   endloop
 endfacet
 facet normal 0.0000 -0.0000 1.0000
   outer loop
     vertex 1.1036 -0.5581 0.0000
     vertex 1.0071 -0.5879 0.0000
     vertex 1.0471 -0.6079 0.0000
   endloop
 endfacet
 facet normal 0.0000 -0.0000 1.0000
   outer loop
     vertex 0.8774 -0.7487 0.0000
     vertex 0.8476 -0.7740 0.0000
     vertex 0.8990 -0.8224 0.0000
   endloop
 endfacet
 facet normal 0.0000 -0.0000 1.0000
   outer loop
     vertex 0.8774 -0.7487 0.0000
     vertex 0.8990 -0.8224 0.0000
     vertex 0.9350 -0.7800 0.0000
   endloop
 endfacet
 facet normal -0.0000 -0.0000 1.0000
   outer loop
     vertex 1.0448 -0.7114 0.0000
     vertex 0.8774 -0.7487 0.0000
     vertex 0.9350 -0.7800 0.0000
   endloop
 endfacet
 facet normal -0.0000 -0.0000 1.0000
   outer loop
     vertex 1.0448 -0.7114 0.0000
     vertex 0.9350 -0.7800 0.0000
     vertex 1.0374 -0.7560 0.0000
   endloop
 endfacet
 facet normal 0.0000 -0.0000 1.0000
   outer loop
     vertex 1.0448 -0.7114 0.0000
     vertex 1.0374 -0.7560 0.0000
     vertex 1.0632 -0.7567 0.0000
   endloop
 endfacet
 facet normal 0.0000 -0.0000 1.0000
   outer loop
     vertex 1.0632 -0.7114 0.0000
     vertex 1.0448 -0.7114 0.0000
     vertex 1.0632 -0.7567 0.0000
   endloop
 endfacet
 facet normal 0.0000 -0.0000 1.0000
   outer loop
     vertex 1.2011 -0.9595 -0.0000
     vertex 1.1956 -0.9169 -0.0000
     vertex 1.1808 -0.9185 -0.0000
   endloop
 endfacet
 facet normal -0.0000 -0.0000 1.0000
   outer loop
     vertex 1.1433 -0.9720 -0.0000
     vertex 1.2011 -0.9595 -0.0000
     vertex 1.1808 -0.9185 -0.0000
   endloop
 endfacet
 facet normal -0.0000 -0.0000 1.0000
   outer loop
     vertex 1.1433 -0.9720 -0.0000
     vertex 1.1808 -0.9185 -0.0000
     vertex 1.1760 -0.9182 -0.0000
   endloop
 endfacet
 facet normal 0.0000 -0.0000 1.0000
   outer loop
     vertex 1.1433 -0.9720 -0.0000
     vertex 1.1760 -0.9182 -0.0000
     vertex 1.1548 -0.9079 -0.0000
   endloop
 endfacet
 facet normal -0.0000 -0.0000 1.0000
   outer loop
     vertex 1.1005 -0.9573 -0.0000
     vertex 1.1433 -0.9720 -0.0000
     vertex 1.1548 -0.9079 -0.0000
   endloop
 endfacet
 facet normal -0.0000 -0.0000 1.0000
   outer loop
     vertex 1.0745 -0.9083 -0.0000
     vertex 1.1005 -0.9573 -0.0000
     vertex 1.1548 -0.9079 -0.0000
   endloop
 endfacet
 facet normal -0.0000 -0.0000 1.0000
   outer loop
     vertex 1.0745 -0.9083 -0.0000
     vertex 1.1548 -0.9079 -0.0000
     vertex 1.1401 -0.8524 0.0000
   endloop
 endfacet
 facet normal 0.0000 -0.0000 1.0000
   outer loop
     vertex 1.1063 -0.5606 0.0000
     vertex 1.1036 -0.5581 0.0000
     vertex 1.0471 -0.6079 0.0000
   endloop
 endfacet
 facet normal -0.0000 -0.0000 1.0000
   outer loop
     vertex 1.1390 -0.6371 0.0000
     vertex 1.1063 -0.5606 0.0000
     vertex 1.0471 -0.6079 0.0000
   endloop
 endfacet
 facet normal -0.0000 -0.0000 1.0000
   outer loop
     vertex 1.1390 -0.6371 0.0000
     vertex 1.0471 -0.6079 0.0000
     vertex 1.0632 -0.6602 0.0000
   endloop
 endfacet
 facet normal 0.0000 -0.0000 1.0000
   outer loop
     vertex 1.1401 -0.6602 0.0000
     vertex 1.1390 -0.6371 0.0000
     vertex 1.0632 -0.6602 0.0000
   endloop
 endfacet
 facet normal 0.0000 -0.0000 1.0000
   outer loop
     vertex 1.1401 -0.6602 0.0000
     vertex 1.0632 -0.6602 0.0000
     vertex 1.0632 -0.7114 0.0000
   endloop
 endfacet
 facet normal -0.0000 -0.0000 1.0000
   outer loop
     vertex 1.1401 -0.8524 0.0000
     vertex 1.1401 -0.6602 0.0000
     vertex 1.0632 -0.7114 0.0000
   endloop
 endfacet
 facet normal -0.0000 -0.0000 1.0000
   outer loop
     vertex 1.1401 -0.8524 0.0000
     vertex 1.0632 -0.7114 0.0000
     vertex 1.0632 -0.7567 0.0000
   endloop
 endfacet
 facet normal -0.0000 -0.0000 1.0000
   outer loop
     vertex 1.1401 -0.8524 0.0000
     vertex 1.0632 -0.7567 0.0000
     vertex 1.0632 -0.8665 0.0000
   endloop
 endfacet
 facet normal -0.0000 -0.0000 1.0000
   outer loop
     vertex 1.0745 -0.9083 -0.0000
     vertex 1.1401 -0.8524 0.0000
     vertex 1.0632 -0.8665 0.0000
   endloop
 endfacet
 facet normal -0.0000 -0.0000 1.0000
   outer loop
     vertex 1.0745 -0.9083 -0.0000
     vertex 1.0632 -0.8665 0.0000
     vertex 0.9632 -0.9091 -0.0000
   endloop
 endfacet
 facet normal -0.0000 -0.0000 1.0000
   outer loop
     vertex 0.9439 -0.9719 -0.0000
     vertex 1.0745 -0.9083 -0.0000
     vertex 0.9632 -0.9091 -0.0000
   endloop
 endfacet
 facet normal 0.0000 -0.0000 1.0000
   outer loop
     vertex 0.9439 -0.9719 -0.0000
     vertex 0.9632 -0.9091 -0.0000
     vertex 0.9587 -0.9090 -0.0000
   endloop
 endfacet
 facet normal -0.0000 -0.0000 1.0000
   outer loop
     vertex 0.8960 -0.8431 0.0000
     vertex 0.8190 -0.8556 0.0000
     vertex 0.8197 -0.8693 0.0000
   endloop
 endfacet
 facet normal 0.0000 -0.0000 1.0000
   outer loop
     vertex 0.8960 -0.8431 0.0000
     vertex 0.8197 -0.8693 0.0000
     vertex 0.8538 -0.9390 -0.0000
   endloop
 endfacet
 facet normal -0.0000 -0.0000 1.0000
   outer loop
     vertex 0.9118 -0.8860 0.0000
     vertex 0.8960 -0.8431 0.0000
     vertex 0.8538 -0.9390 -0.0000
   endloop
 endfacet
 facet normal 0.0000 -0.0000 1.0000
   outer loop
     vertex 0.9118 -0.8860 0.0000
     vertex 0.8538 -0.9390 -0.0000
     vertex 0.8580 -0.9428 -0.0000
   endloop
 endfacet
 facet normal -0.0000 -0.0000 1.0000
   outer loop
     vertex 0.9118 -0.8860 0.0000
     vertex 0.8580 -0.9428 -0.0000
     vertex 0.9413 -0.9720 -0.0000
   endloop
 endfacet
 facet normal 0.0000 -0.0000 1.0000
   outer loop
     vertex 0.9155 -0.8899 0.0000
     vertex 0.9118 -0.8860 0.0000
     vertex 0.9413 -0.9720 -0.0000
   endloop
 endfacet
 facet normal 0.0000 -0.0000 1.0000
   outer loop
     vertex 0.9587 -0.9090 -0.0000
     vertex 0.9155 -0.8899 0.0000
     vertex 0.9413 -0.9720 -0.0000
   endloop
 endfacet
 facet normal -0.0000 -0.0000 1.0000
   outer loop
     vertex 0.9587 -0.9090 -0.0000
     vertex 0.9413 -0.9720 -0.0000
     vertex 0.9439 -0.9719 -0.0000
   endloop
 endfacet
 facet normal 0.0000 -0.0000 1.0000
   outer loop
     vertex 1.3151 -0.5895 0.0000
     vertex 1.2640 -0.7474 0.0000
     vertex 1.3460 -0.7458 0.0000
   endloop
 endfacet
 facet normal -0.0000 -0.0000 1.0000
   outer loop
     vertex 1.3151 -0.5895 0.0000
     vertex 1.3460 -0.7458 0.0000
     vertex 1.3761 -0.6290 0.0000
   endloop
 endfacet
 facet normal -0.0000 -0.0000 1.0000
   outer loop
     vertex 1.4163 -0.5310 0.0000
     vertex 1.3151 -0.5895 0.0000
     vertex 1.3761 -0.6290 0.0000
   endloop
 endfacet
 facet normal 0.0000 -0.0000 1.0000
   outer loop
     vertex 1.4163 -0.5310 0.0000
     vertex 1.3761 -0.6290 0.0000
     vertex 1.3933 -0.6097 0.0000
   endloop
 endfacet
 facet normal -0.0000 -0.0000 1.0000
   outer loop
     vertex 1.4163 -0.5310 0.0000
     vertex 1.3933 -0.6097 0.0000
     vertex 1.4593 -0.5864 0.0000
   endloop
 endfacet
 facet normal 0.0000 -0.0000 1.0000
   outer loop
     vertex 1.4475 -0.5286 0.0000
     vertex 1.4163 -0.5310 0.0000
     vertex 1.4593 -0.5864 0.0000
   endloop
 endfacet
 facet normal 0.0000 -0.0000 1.0000
   outer loop
     vertex 1.5507 -0.5675 0.0000
     vertex 1.4475 -0.5286 0.0000
     vertex 1.4593 -0.5864 0.0000
   endloop
 endfacet
 facet normal -0.0000 -0.0000 1.0000
   outer loop
     vertex 1.5507 -0.5675 0.0000
     vertex 1.4593 -0.5864 0.0000
     vertex 1.4711 -0.5869 0.0000
   endloop
 endfacet
 facet normal 0.0000 -0.0000 1.0000
   outer loop
     vertex 1.5507 -0.5675 0.0000
     vertex 1.4711 -0.5869 0.0000
     vertex 1.5698 -0.6392 0.0000
   endloop
 endfacet
 facet normal -0.0000 -0.0000 1.0000
   outer loop
     vertex 1.5698 -0.5864 0.0000
     vertex 1.5507 -0.5675 0.0000
     vertex 1.5698 -0.6392 0.0000
   endloop
 endfacet
 facet normal 0.0000 -0.0000 1.0000
   outer loop
     vertex 1.3460 -0.7458 0.0000
     vertex 1.2640 -0.7474 0.0000
     vertex 1.3089 -0.8970 -0.0000
   endloop
 endfacet
 facet normal 0.0000 -0.0000 1.0000
   outer loop
     vertex 1.3767 -0.8582 0.0000
     vertex 1.3460 -0.7458 0.0000
     vertex 1.3089 -0.8970 -0.0000
   endloop
 endfacet
 facet normal 0.0000 -0.0000 1.0000
   outer loop
     vertex 1.3767 -0.8582 0.0000
     vertex 1.3089 -0.8970 -0.0000
     vertex 1.3281 -0.9169 -0.0000
   endloop
 endfacet
 facet normal 0.0000 -0.0000 1.0000
   outer loop
     vertex 1.3767 -0.8582 0.0000
     vertex 1.3281 -0.9169 -0.0000
     vertex 1.4300 -0.9524 -0.0000
   endloop
 endfacet
 facet normal 0.0000 -0.0000 1.0000
   outer loop
     vertex 1.4290 -0.8844 0.0000
     vertex 1.3767 -0.8582 0.0000
     vertex 1.4300 -0.9524 -0.0000
   endloop
 endfacet
 facet normal 0.0000 -0.0000 1.0000
   outer loop
     vertex 1.4290 -0.8844 0.0000
     vertex 1.4300 -0.9524 -0.0000
     vertex 1.4929 -0.9409 -0.0000
   endloop
 endfacet
 facet normal -0.0000 -0.0000 1.0000
   outer loop
     vertex 1.4440 -0.8852 0.0000
     vertex 1.4290 -0.8844 0.0000
     vertex 1.4929 -0.9409 -0.0000
   endloop
 endfacet
 facet normal 0.0000 -0.0000 1.0000
   outer loop
     vertex 1.5411 -0.8449 0.0000
     vertex 1.4440 -0.8852 0.0000
     vertex 1.4929 -0.9409 -0.0000
   endloop
 endfacet
 facet normal 0.0000 -0.0000 1.0000
   outer loop
     vertex 1.5411 -0.8449 0.0000
     vertex 1.4929 -0.9409 -0.0000
     vertex 1.5698 -0.8634 0.0000
   endloop
 endfacet
 facet normal 0.0000 -0.0000 1.0000
   outer loop
     vertex 1.5698 -0.8153 0.0000
     vertex 1.5411 -0.8449 0.0000
     vertex 1.5698 -0.8634 0.0000
   endloop
 endfacet
 facet normal 0.0000 -0.0000 1.0000
   outer loop
     vertex 1.6472 -0.5380 0.0000
     vertex 1.5698 -0.5380 0.0000
     vertex 1.5698 -0.5864 0.0000
   endloop
 endfacet
 facet normal -0.0000 -0.0000 1.0000
   outer loop
     vertex 1.6472 -0.8466 0.0000
     vertex 1.6472 -0.5380 0.0000
     vertex 1.5698 -0.5864 0.0000
   endloop
 endfacet
 facet normal 0.0000 -0.0000 1.0000
   outer loop
     vertex 1.6472 -0.8466 0.0000
     vertex 1.5698 -0.5864 0.0000
     vertex 1.5698 -0.6392 0.0000
   endloop
 endfacet
 facet normal -0.0000 -0.0000 1.0000
   outer loop
     vertex 1.6472 -0.8466 0.0000
     vertex 1.5698 -0.6392 0.0000
     vertex 1.5698 -0.8153 0.0000
   endloop
 endfacet
 facet normal -0.0000 -0.0000 1.0000
   outer loop
     vertex 1.6472 -0.8466 0.0000
     vertex 1.5698 -0.8153 0.0000
     vertex 1.5698 -0.8634 0.0000
   endloop
 endfacet
 facet normal -0.0000 -0.0000 1.0000
   outer loop
     vertex 1.6368 -0.9940 -0.0000
     vertex 1.6472 -0.8466 0.0000
     vertex 1.5698 -0.8634 0.0000
   endloop
 endfacet
 facet normal 0.0000 -0.0000 1.0000
   outer loop
     vertex 1.6368 -0.9940 -0.0000
     vertex 1.5698 -0.8634 0.0000
     vertex 1.5698 -0.9302 -0.0000
   endloop
 endfacet
 facet normal 0.0000 -0.0000 1.0000
   outer loop
     vertex 1.6368 -0.9940 -0.0000
     vertex 1.5698 -0.9302 -0.0000
     vertex 1.5679 -0.9613 -0.0000
   endloop
 endfacet
 facet normal -0.0000 -0.0000 1.0000
   outer loop
     vertex 1.4397 -1.0681 -0.0000
     vertex 1.3081 -1.0364 -0.0000
     vertex 1.2991 -1.1032 -0.0000
   endloop
 endfacet
 facet normal -0.0000 -0.0000 1.0000
   outer loop
     vertex 1.4397 -1.0681 -0.0000
     vertex 1.2991 -1.1032 -0.0000
     vertex 1.4413 -1.1259 -0.0000
   endloop
 endfacet
 facet normal 0.0000 -0.0000 1.0000
   outer loop
     vertex 1.4397 -1.0681 -0.0000
     vertex 1.4413 -1.1259 -0.0000
     vertex 1.4777 -1.1241 -0.0000
   endloop
 endfacet
 facet normal -0.0000 -0.0000 1.0000
   outer loop
     vertex 1.5319 -1.0389 -0.0000
     vertex 1.4397 -1.0681 -0.0000
     vertex 1.4777 -1.1241 -0.0000
   endloop
 endfacet
 facet normal 0.0000 -0.0000 1.0000
   outer loop
     vertex 1.5319 -1.0389 -0.0000
     vertex 1.4777 -1.1241 -0.0000
     vertex 1.5979 -1.0724 -0.0000
   endloop
 endfacet
 facet normal 0.0000 -0.0000 1.0000
   outer loop
     vertex 1.5979 -1.0724 -0.0000
     vertex 1.6368 -0.9940 -0.0000
     vertex 1.5679 -0.9613 -0.0000
   endloop
 endfacet
 facet normal 0.0000 -0.0000 1.0000
   outer loop
     vertex 1.5979 -1.0724 -0.0000
     vertex 1.5679 -0.9613 -0.0000
     vertex 1.5319 -1.0389 -0.0000
   endloop
 endfacet
 facet normal 0.0000 -0.0000 1.0000
   outer loop
     vertex 2.0616 -0.8825 0.0000
     vertex 2.0616 -0.9622 -0.0000
     vertex 2.1386 -0.9622 -0.0000
   endloop
 endfacet
 facet normal -0.0000 -0.0000 1.0000
   outer loop
     vertex 2.0616 -0.8825 0.0000
     vertex 2.1386 -0.9622 -0.0000
     vertex 2.1386 -0.5380 0.0000
   endloop
 endfacet
 facet normal 0.0000 -0.0000 1.0000
   outer loop
     vertex 2.1386 -0.5380 0.0000
     vertex 2.0616 -0.5380 0.0000
     vertex 2.0616 -0.8130 0.0000
   endloop
 endfacet
 facet normal 0.0000 -0.0000 1.0000
   outer loop
     vertex 2.0616 -0.8825 0.0000
     vertex 2.1386 -0.5380 0.0000
     vertex 2.0616 -0.8130 0.0000
   endloop
 endfacet
 facet normal 0.0000 -0.0000 1.0000
   outer loop
     vertex 2.0616 -0.8825 0.0000
     vertex 2.0616 -0.8130 0.0000
     vertex 2.0130 -0.8700 0.0000
   endloop
 endfacet
 facet normal 0.0000 -0.0000 1.0000
   outer loop
     vertex 1.9533 -0.9668 -0.0000
     vertex 2.0616 -0.8825 0.0000
     vertex 2.0130 -0.8700 0.0000
   endloop
 endfacet
 facet normal 0.0000 -0.0000 1.0000
   outer loop
     vertex 1.9533 -0.9668 -0.0000
     vertex 2.0130 -0.8700 0.0000
     vertex 1.9288 -0.9056 -0.0000
   endloop
 endfacet
 facet normal 0.0000 -0.0000 1.0000
   outer loop
     vertex 1.9128 -0.9720 -0.0000
     vertex 1.9533 -0.9668 -0.0000
     vertex 1.9288 -0.9056 -0.0000
   endloop
 endfacet
 facet normal -0.0000 -0.0000 1.0000
   outer loop
     vertex 1.9128 -0.9720 -0.0000
     vertex 1.9288 -0.9056 -0.0000
     vertex 1.9089 -0.9032 -0.0000
   endloop
 endfacet
 facet normal -0.0000 -0.0000 1.0000
   outer loop
     vertex 1.8327 -0.9449 -0.0000
     vertex 1.9128 -0.9720 -0.0000
     vertex 1.9089 -0.9032 -0.0000
   endloop
 endfacet
 facet normal -0.0000 -0.0000 1.0000
   outer loop
     vertex 1.8327 -0.9449 -0.0000
     vertex 1.9089 -0.9032 -0.0000
     vertex 1.8825 -0.8854 0.0000
   endloop
 endfacet
 facet normal 0.0000 -0.0000 1.0000
   outer loop
     vertex 1.8245 -0.9370 -0.0000
     vertex 1.8327 -0.9449 -0.0000
     vertex 1.8825 -0.8854 0.0000
   endloop
 endfacet
 facet normal 0.0000 -0.0000 1.0000
   outer loop
     vertex 1.7919 -0.8520 0.0000
     vertex 1.8245 -0.9370 -0.0000
     vertex 1.8825 -0.8854 0.0000
   endloop
 endfacet
 facet normal 0.0000 -0.0000 1.0000
   outer loop
     vertex 1.7919 -0.8520 0.0000
     vertex 1.8825 -0.8854 0.0000
     vertex 1.8686 -0.8177 0.0000
   endloop
 endfacet
 facet normal 0.0000 -0.0000 1.0000
   outer loop
     vertex 1.7917 -0.8427 0.0000
     vertex 1.7919 -0.8520 0.0000
     vertex 1.8686 -0.8177 0.0000
   endloop
 endfacet
 facet normal 0.0000 -0.0000 1.0000
   outer loop
     vertex 1.7917 -0.5380 0.0000
     vertex 1.7917 -0.8427 0.0000
     vertex 1.8686 -0.8177 0.0000
   endloop
 endfacet
 facet normal 0.0000 -0.0000 1.0000
   outer loop
     vertex 1.7917 -0.5380 0.0000
     vertex 1.8686 -0.8177 0.0000
     vertex 1.8686 -0.5380 0.0000
   endloop
 endfacet
 facet normal 0.0000 -0.0000 1.0000
   outer loop
     vertex 2.3698 -0.6177 0.0000
     vertex 2.3698 -0.5380 0.0000
     vertex 2.2929 -0.5380 0.0000
   endloop
 endfacet
 facet normal 0.0000 -0.0000 1.0000
   outer loop
     vertex 2.3698 -0.6177 0.0000
     vertex 2.2929 -0.5380 0.0000
     vertex 2.2929 -0.9622 -0.0000
   endloop
 endfacet
 facet normal 0.0000 -0.0000 1.0000
   outer loop
     vertex 2.2929 -0.9622 -0.0000
     vertex 2.3698 -0.9622 -0.0000
     vertex 2.3698 -0.6876 0.0000
   endloop
 endfacet
 facet normal 0.0000 -0.0000 1.0000
   outer loop
     vertex 2.3698 -0.6177 0.0000
     vertex 2.2929 -0.9622 -0.0000
     vertex 2.3698 -0.6876 0.0000
   endloop
 endfacet
 facet normal 0.0000 -0.0000 1.0000
   outer loop
     vertex 2.3698 -0.6177 0.0000
     vertex 2.3698 -0.6876 0.0000
     vertex 2.4185 -0.6306 0.0000
   endloop
 endfacet
 facet normal 0.0000 -0.0000 1.0000
   outer loop
     vertex 2.4782 -0.5337 0.0000
     vertex 2.3698 -0.6177 0.0000
     vertex 2.4185 -0.6306 0.0000
   endloop
 endfacet
 facet normal -0.0000 -0.0000 1.0000
   outer loop
     vertex 2.4782 -0.5337 0.0000
     vertex 2.4185 -0.6306 0.0000
     vertex 2.5030 -0.5950 0.0000
   endloop
 endfacet
 facet normal 0.0000 -0.0000 1.0000
   outer loop
     vertex 2.5190 -0.5286 0.0000
     vertex 2.4782 -0.5337 0.0000
     vertex 2.5030 -0.5950 0.0000
   endloop
 endfacet
 facet normal -0.0000 -0.0000 1.0000
   outer loop
     vertex 2.5190 -0.5286 0.0000
     vertex 2.5030 -0.5950 0.0000
     vertex 2.5227 -0.5973 0.0000
   endloop
 endfacet
 facet normal 0.0000 -0.0000 1.0000
   outer loop
     vertex 2.5987 -0.5557 0.0000
     vertex 2.5190 -0.5286 0.0000
     vertex 2.5227 -0.5973 0.0000
   endloop
 endfacet
 facet normal 0.0000 -0.0000 1.0000
   outer loop
     vertex 2.5987 -0.5557 0.0000
     vertex 2.5227 -0.5973 0.0000
     vertex 2.5489 -0.6151 0.0000
   endloop
 endfacet
 facet normal -0.0000 -0.0000 1.0000
   outer loop
     vertex 2.6069 -0.5636 0.0000
     vertex 2.5987 -0.5557 0.0000
     vertex 2.5489 -0.6151 0.0000
   endloop
 endfacet
 facet normal 0.0000 -0.0000 1.0000
   outer loop
     vertex 2.6395 -0.6482 0.0000
     vertex 2.6069 -0.5636 0.0000
     vertex 2.5489 -0.6151 0.0000
   endloop
 endfacet
 facet normal -0.0000 -0.0000 1.0000
   outer loop
     vertex 2.6395 -0.6482 0.0000
     vertex 2.5489 -0.6151 0.0000
     vertex 2.5628 -0.6825 0.0000
   endloop
 endfacet
 facet normal 0.0000 -0.0000 1.0000
   outer loop
     vertex 2.6397 -0.6575 0.0000
     vertex 2.6395 -0.6482 0.0000
     vertex 2.5628 -0.6825 0.0000
   endloop
 endfacet
 facet normal 0.0000 -0.0000 1.0000
   outer loop
     vertex 2.6397 -0.9622 -0.0000
     vertex 2.6397 -0.6575 0.0000
     vertex 2.5628 -0.6825 0.0000
   endloop
 endfacet
 facet normal 0.0000 -0.0000 1.0000
   outer loop
     vertex 2.6397 -0.9622 -0.0000
     vertex 2.5628 -0.6825 0.0000
     vertex 2.5628 -0.9622 -0.0000
   endloop
 endfacet
 facet normal -0.0000 -0.0000 1.0000
   outer loop
     vertex 2.7812 -0.7740 0.0000
     vertex 2.7526 -0.8556 0.0000
     vertex 2.8296 -0.8431 0.0000
   endloop
 endfacet
 facet normal 0.0000 -0.0000 1.0000
   outer loop
     vertex 2.7812 -0.7740 0.0000
     vertex 2.8296 -0.8431 0.0000
     vertex 2.8326 -0.8224 0.0000
   endloop
 endfacet
 facet normal 0.0000 -0.0000 1.0000
   outer loop
     vertex 2.7893 -0.5602 0.0000
     vertex 2.7893 -0.6239 0.0000
     vertex 2.9210 -0.5864 0.0000
   endloop
 endfacet
 facet normal -0.0000 -0.0000 1.0000
   outer loop
     vertex 2.9350 -0.5286 0.0000
     vertex 2.7893 -0.5602 0.0000
     vertex 2.9210 -0.5864 0.0000
   endloop
 endfacet
 facet normal -0.0000 -0.0000 1.0000
   outer loop
     vertex 2.9350 -0.5286 0.0000
     vertex 2.9210 -0.5864 0.0000
     vertex 2.9407 -0.5879 0.0000
   endloop
 endfacet
 facet normal 0.0000 -0.0000 1.0000
   outer loop
     vertex 3.0372 -0.5581 0.0000
     vertex 2.9350 -0.5286 0.0000
     vertex 2.9407 -0.5879 0.0000
   endloop
 endfacet
 facet normal 0.0000 -0.0000 1.0000
   outer loop
     vertex 3.0372 -0.5581 0.0000
     vertex 2.9407 -0.5879 0.0000
     vertex 2.9807 -0.6079 0.0000
   endloop
 endfacet
 facet normal 0.0000 -0.0000 1.0000
   outer loop
     vertex 2.8110 -0.7487 0.0000
     vertex 2.7812 -0.7740 0.0000
     vertex 2.8326 -0.8224 0.0000
   endloop
 endfacet
 facet normal 0.0000 -0.0000 1.0000
   outer loop
     vertex 2.8110 -0.7487 0.0000
     vertex 2.8326 -0.8224 0.0000
     vertex 2.8686 -0.7800 0.0000
   endloop
 endfacet
 facet normal -0.0000 -0.0000 1.0000
   outer loop
     vertex 2.9784 -0.7114 0.0000
     vertex 2.8110 -0.7487 0.0000
     vertex 2.8686 -0.7800 0.0000
   endloop
 endfacet
 facet normal -0.0000 -0.0000 1.0000
   outer loop
     vertex 2.9784 -0.7114 0.0000
     vertex 2.8686 -0.7800 0.0000
     vertex 2.9710 -0.7560 0.0000
   endloop
 endfacet
 facet normal 0.0000 -0.0000 1.0000
   outer loop
     vertex 2.9784 -0.7114 0.0000
     vertex 2.9710 -0.7560 0.0000
     vertex 2.9968 -0.7567 0.0000
   endloop
 endfacet
 facet normal 0.0000 -0.0000 1.0000
   outer loop
     vertex 2.9968 -0.7114 0.0000
     vertex 2.9784 -0.7114 0.0000
     vertex 2.9968 -0.7567 0.0000
   endloop
 endfacet
 facet normal 0.0000 -0.0000 1.0000
   outer loop
     vertex 3.1347 -0.9595 -0.0000
     vertex 3.1292 -0.9169 -0.0000
     vertex 3.1143 -0.9185 -0.0000
   endloop
 endfacet
 facet normal -0.0000 -0.0000 1.0000
   outer loop
     vertex 3.0768 -0.9720 -0.0000
     vertex 3.1347 -0.9595 -0.0000
     vertex 3.1143 -0.9185 -0.0000
   endloop
 endfacet
 facet normal -0.0000 -0.0000 1.0000
   outer loop
     vertex 3.0768 -0.9720 -0.0000
     vertex 3.1143 -0.9185 -0.0000
     vertex 3.1096 -0.9182 -0.0000
   endloop
 endfacet
 facet normal 0.0000 -0.0000 1.0000
   outer loop
     vertex 3.0768 -0.9720 -0.0000
     vertex 3.1096 -0.9182 -0.0000
     vertex 3.0883 -0.9079 -0.0000
   endloop
 endfacet
 facet normal -0.0000 -0.0000 1.0000
   outer loop
     vertex 3.0341 -0.9573 -0.0000
     vertex 3.0768 -0.9720 -0.0000
     vertex 3.0883 -0.9079 -0.0000
   endloop
 endfacet
 facet normal -0.0000 -0.0000 1.0000
   outer loop
     vertex 3.0081 -0.9083 -0.0000
     vertex 3.0341 -0.9573 -0.0000
     vertex 3.0883 -0.9079 -0.0000
   endloop
 endfacet
 facet normal -0.0000 -0.0000 1.0000
   outer loop
     vertex 3.0081 -0.9083 -0.0000
     vertex 3.0883 -0.9079 -0.0000
     vertex 3.0737 -0.8524 0.0000
   endloop
 endfacet
 facet normal 0.0000 -0.0000 1.0000
   outer loop
     vertex 3.0399 -0.5606 0.0000
     vertex 3.0372 -0.5581 0.0000
     vertex 2.9807 -0.6079 0.0000
   endloop
 endfacet
 facet normal -0.0000 -0.0000 1.0000
   outer loop
     vertex 3.0726 -0.6371 0.0000
     vertex 3.0399 -0.5606 0.0000
     vertex 2.9807 -0.6079 0.0000
   endloop
 endfacet
 facet normal -0.0000 -0.0000 1.0000
   outer loop
     vertex 3.0726 -0.6371 0.0000
     vertex 2.9807 -0.6079 0.0000
     vertex 2.9968 -0.6602 0.0000
   endloop
 endfacet
 facet normal 0.0000 -0.0000 1.0000
   outer loop
     vertex 3.0737 -0.6602 0.0000
     vertex 3.0726 -0.6371 0.0000
     vertex 2.9968 -0.6602 0.0000
   endloop
 endfacet
 facet normal 0.0000 -0.0000 1.0000
   outer loop
     vertex 3.0737 -0.6602 0.0000
     vertex 2.9968 -0.6602 0.0000
     vertex 2.9968 -0.7114 0.0000
   endloop
 endfacet
 facet normal -0.0000 -0.0000 1.0000
   outer loop
     vertex 3.0737 -0.8524 0.0000
     vertex 3.0737 -0.6602 0.0000
     vertex 2.9968 -0.7114 0.0000
   endloop
 endfacet
 facet normal -0.0000 -0.0000 1.0000
   outer loop
     vertex 3.0737 -0.8524 0.0000
     vertex 2.9968 -0.7114 0.0000
     vertex 2.9968 -0.7567 0.0000
   endloop
 endfacet
 facet normal -0.0000 -0.0000 1.0000
   outer loop
     vertex 3.0737 -0.8524 0.0000
     vertex 2.9968 -0.7567 0.0000
     vertex 2.9968 -0.8665 0.0000
   endloop
 endfacet
 facet normal -0.0000 -0.0000 1.0000
   outer loop
     vertex 3.0081 -0.9083 -0.0000
     vertex 3.0737 -0.8524 0.0000
     vertex 2.9968 -0.8665 0.0000
   endloop
 endfacet
 facet normal -0.0000 -0.0000 1.0000
   outer loop
     vertex 3.0081 -0.9083 -0.0000
     vertex 2.9968 -0.8665 0.0000
     vertex 2.8968 -0.9091 -0.0000
   endloop
 endfacet
 facet normal -0.0000 -0.0000 1.0000
   outer loop
     vertex 2.8775 -0.9719 -0.0000
     vertex 3.0081 -0.9083 -0.0000
     vertex 2.8968 -0.9091 -0.0000
   endloop
 endfacet
 facet normal 0.0000 -0.0000 1.0000
   outer loop
     vertex 2.8775 -0.9719 -0.0000
     vertex 2.8968 -0.9091 -0.0000
     vertex 2.8923 -0.9090 -0.0000
   endloop
 endfacet
 facet normal -0.0000 -0.0000 1.0000
   outer loop
     vertex 2.8296 -0.8431 0.0000
     vertex 2.7526 -0.8556 0.0000
     vertex 2.7533 -0.8693 0.0000
   endloop
 endfacet
 facet normal 0.0000 -0.0000 1.0000
   outer loop
     vertex 2.8296 -0.8431 0.0000
     vertex 2.7533 -0.8693 0.0000
     vertex 2.7874 -0.9390 -0.0000
   endloop
 endfacet
 facet normal 0.0000 -0.0000 1.0000
   outer loop
     vertex 2.8447 -0.8852 0.0000
     vertex 2.8296 -0.8431 0.0000
     vertex 2.7874 -0.9390 -0.0000
   endloop
 endfacet
 facet normal 0.0000 -0.0000 1.0000
   outer loop
     vertex 2.8447 -0.8852 0.0000
     vertex 2.7874 -0.9390 -0.0000
     vertex 2.7916 -0.9428 -0.0000
   endloop
 endfacet
 facet normal 0.0000 -0.0000 1.0000
   outer loop
     vertex 2.8447 -0.8852 0.0000
     vertex 2.7916 -0.9428 -0.0000
     vertex 2.8749 -0.9720 -0.0000
   endloop
 endfacet
 facet normal -0.0000 -0.0000 1.0000
   outer loop
     vertex 2.8491 -0.8899 0.0000
     vertex 2.8447 -0.8852 0.0000
     vertex 2.8749 -0.9720 -0.0000
   endloop
 endfacet
 facet normal 0.0000 -0.0000 1.0000
   outer loop
     vertex 2.8923 -0.9090 -0.0000
     vertex 2.8491 -0.8899 0.0000
     vertex 2.8749 -0.9720 -0.0000
   endloop
 endfacet
 facet normal -0.0000 -0.0000 1.0000
   outer loop
     vertex 2.8923 -0.9090 -0.0000
     vertex 2.8749 -0.9720 -0.0000
     vertex 2.8775 -0.9719 -0.0000
   endloop
 endfacet
 facet normal -0.0000 -0.0000 1.0000
   outer loop
     vertex 3.6261 -0.4310 0.0000
     vertex 3.7624 -0.4669 0.0000
     vertex 3.7624 -0.3919 0.0000
   endloop
 endfacet
 facet normal 0.0000 -0.0000 1.0000
   outer loop
     vertex 3.6261 -0.4310 0.0000
     vertex 3.7624 -0.3919 0.0000
     vertex 3.6214 -0.3696 0.0000
   endloop
 endfacet
 facet normal 0.0000 -0.0000 1.0000
   outer loop
     vertex 3.6069 -0.9153 -0.0000
     vertex 3.4464 -0.8700 0.0000
     vertex 3.4464 -0.9513 -0.0000
   endloop
 endfacet
 facet normal -0.0000 -0.0000 1.0000
   outer loop
     vertex 3.6069 -0.9153 -0.0000
     vertex 3.4464 -0.9513 -0.0000
     vertex 3.5952 -0.9767 -0.0000
   endloop
 endfacet
 facet normal 0.0000 -0.0000 1.0000
   outer loop
     vertex 3.6069 -0.9153 -0.0000
     vertex 3.5952 -0.9767 -0.0000
     vertex 3.7427 -0.9310 -0.0000
   endloop
 endfacet
 facet normal 0.0000 -0.0000 1.0000
   outer loop
     vertex 3.6849 -0.8899 0.0000
     vertex 3.6069 -0.9153 -0.0000
     vertex 3.7427 -0.9310 -0.0000
   endloop
 endfacet
 facet normal -0.0000 -0.0000 1.0000
   outer loop
     vertex 3.6261 -0.4310 0.0000
     vertex 3.6214 -0.3696 0.0000
     vertex 3.6154 -0.3697 0.0000
   endloop
 endfacet
 facet normal 0.0000 -0.0000 1.0000
   outer loop
     vertex 3.6261 -0.4310 0.0000
     vertex 3.6154 -0.3697 0.0000
     vertex 3.4979 -0.4128 0.0000
   endloop
 endfacet
 facet normal 0.0000 -0.0000 1.0000
   outer loop
     vertex 3.5558 -0.4536 0.0000
     vertex 3.6261 -0.4310 0.0000
     vertex 3.4979 -0.4128 0.0000
   endloop
 endfacet
 facet normal -0.0000 -0.0000 1.0000
   outer loop
     vertex 3.5291 -0.4974 0.0000
     vertex 3.5558 -0.4536 0.0000
     vertex 3.4979 -0.4128 0.0000
   endloop
 endfacet
 facet normal 0.0000 -0.0000 1.0000
   outer loop
     vertex 3.5291 -0.4974 0.0000
     vertex 3.4979 -0.4128 0.0000
     vertex 3.4837 -0.4272 0.0000
   endloop
 endfacet
 facet normal 0.0000 -0.0000 1.0000
   outer loop
     vertex 3.5291 -0.4974 0.0000
     vertex 3.4837 -0.4272 0.0000
     vertex 3.4495 -0.5227 0.0000
   endloop
 endfacet
 facet normal -0.0000 -0.0000 1.0000
   outer loop
     vertex 3.5280 -0.5106 0.0000
     vertex 3.5291 -0.4974 0.0000
     vertex 3.4495 -0.5227 0.0000
   endloop
 endfacet
 facet normal -0.0000 -0.0000 1.0000
   outer loop
     vertex 3.5280 -0.5106 0.0000
     vertex 3.4495 -0.5227 0.0000
     vertex 3.4798 -0.6097 0.0000
   endloop
 endfacet
 facet normal -0.0000 -0.0000 1.0000
   outer loop
     vertex 3.5467 -0.5600 0.0000
     vertex 3.5280 -0.5106 0.0000
     vertex 3.4798 -0.6097 0.0000
   endloop
 endfacet
 facet normal 0.0000 -0.0000 1.0000
   outer loop
     vertex 3.5467 -0.5600 0.0000
     vertex 3.4798 -0.6097 0.0000
     vertex 3.5839 -0.6892 0.0000
   endloop
 endfacet
 facet normal 0.0000 -0.0000 1.0000
   outer loop
     vertex 3.5483 -0.5618 0.0000
     vertex 3.5467 -0.5600 0.0000
     vertex 3.5839 -0.6892 0.0000
   endloop
 endfacet
 facet normal -0.0000 -0.0000 1.0000
   outer loop
     vertex 3.6225 -0.6149 0.0000
     vertex 3.5483 -0.5618 0.0000
     vertex 3.5839 -0.6892 0.0000
   endloop
 endfacet
 facet normal -0.0000 -0.0000 1.0000
   outer loop
     vertex 3.6640 -0.6384 0.0000
     vertex 3.6225 -0.6149 0.0000
     vertex 3.5839 -0.6892 0.0000
   endloop
 endfacet
 facet normal -0.0000 -0.0000 1.0000
   outer loop
     vertex 3.6640 -0.6384 0.0000
     vertex 3.5839 -0.6892 0.0000
     vertex 3.6237 -0.7122 0.0000
   endloop
 endfacet
 facet normal 0.0000 -0.0000 1.0000
   outer loop
     vertex 3.7686 -0.7188 0.0000
     vertex 3.6640 -0.6384 0.0000
     vertex 3.6237 -0.7122 0.0000
   endloop
 endfacet
 facet normal 0.0000 -0.0000 1.0000
   outer loop
     vertex 3.7686 -0.7188 0.0000
     vertex 3.6237 -0.7122 0.0000
     vertex 3.6950 -0.7653 0.0000
   endloop
 endfacet
 facet normal -0.0000 -0.0000 1.0000
   outer loop
     vertex 3.7983 -0.8099 0.0000
     vertex 3.7686 -0.7188 0.0000
     vertex 3.6950 -0.7653 0.0000
   endloop
 endfacet
 facet normal -0.0000 -0.0000 1.0000
   outer loop
     vertex 3.7983 -0.8099 0.0000
     vertex 3.6950 -0.7653 0.0000
     vertex 3.7143 -0.8231 0.0000
   endloop
 endfacet
 facet normal -0.0000 -0.0000 1.0000
   outer loop
     vertex 3.7627 -0.9115 -0.0000
     vertex 3.7983 -0.8099 0.0000
     vertex 3.7143 -0.8231 0.0000
   endloop
 endfacet
 facet normal 0.0000 -0.0000 1.0000
   outer loop
     vertex 3.7627 -0.9115 -0.0000
     vertex 3.7143 -0.8231 0.0000
     vertex 3.7132 -0.8391 0.0000
   endloop
 endfacet
 facet normal 0.0000 -0.0000 1.0000
   outer loop
     vertex 3.7627 -0.9115 -0.0000
     vertex 3.7132 -0.8391 0.0000
     vertex 3.6849 -0.8899 0.0000
   endloop
 endfacet
 facet normal 0.0000 -0.0000 1.0000
   outer loop
     vertex 3.7627 -0.9115 -0.0000
     vertex 3.6849 -0.8899 0.0000
     vertex 3.7427 -0.9310 -0.0000
   endloop
 endfacet
 facet normal -0.0000 -0.0000 1.0000
   outer loop
     vertex 4.2261 -0.9485 -0.0000
     vertex 4.2261 -0.8876 0.0000
     vertex 4.1081 -0.9134 -0.0000
   endloop
 endfacet
 facet normal -0.0000 -0.0000 1.0000
   outer loop
     vertex 4.0936 -0.9720 -0.0000
     vertex 4.2261 -0.9485 -0.0000
     vertex 4.1081 -0.9134 -0.0000
   endloop
 endfacet
 facet normal -0.0000 -0.0000 1.0000
   outer loop
     vertex 4.0936 -0.9720 -0.0000
     vertex 4.1081 -0.9134 -0.0000
     vertex 4.1029 -0.9133 -0.0000
   endloop
 endfacet
 facet normal 0.0000 -0.0000 1.0000
   outer loop
     vertex 3.9554 -0.9237 -0.0000
     vertex 4.0936 -0.9720 -0.0000
     vertex 4.1029 -0.9133 -0.0000
   endloop
 endfacet
 facet normal 0.0000 -0.0000 1.0000
   outer loop
     vertex 3.9554 -0.9237 -0.0000
     vertex 4.1029 -0.9133 -0.0000
     vertex 4.0116 -0.8814 0.0000
   endloop
 endfacet
 facet normal 0.0000 -0.0000 1.0000
   outer loop
     vertex 3.9407 -0.9097 -0.0000
     vertex 3.9554 -0.9237 -0.0000
     vertex 4.0116 -0.8814 0.0000
   endloop
 endfacet
 facet normal 0.0000 -0.0000 1.0000
   outer loop
     vertex 3.9407 -0.9097 -0.0000
     vertex 4.0116 -0.8814 0.0000
     vertex 3.9600 -0.7622 0.0000
   endloop
 endfacet
 facet normal -0.0000 -0.0000 1.0000
   outer loop
     vertex 3.8819 -0.7638 0.0000
     vertex 3.9407 -0.9097 -0.0000
     vertex 3.9600 -0.7622 0.0000
   endloop
 endfacet
 facet normal -0.0000 -0.0000 1.0000
   outer loop
     vertex 3.8815 -0.7481 0.0000
     vertex 3.8819 -0.7638 0.0000
     vertex 3.9600 -0.7622 0.0000
   endloop
 endfacet
 facet normal -0.0000 -0.0000 1.0000
   outer loop
     vertex 3.8815 -0.7481 0.0000
     vertex 3.9600 -0.7622 0.0000
     vertex 3.9636 -0.7044 0.0000
   endloop
 endfacet
 facet normal -0.0000 -0.0000 1.0000
   outer loop
     vertex 3.9337 -0.5899 0.0000
     vertex 3.8815 -0.7481 0.0000
     vertex 3.9636 -0.7044 0.0000
   endloop
 endfacet
 facet normal 0.0000 -0.0000 1.0000
   outer loop
     vertex 3.9337 -0.5899 0.0000
     vertex 3.9636 -0.7044 0.0000
     vertex 3.9657 -0.6862 0.0000
   endloop
 endfacet
 facet normal 0.0000 -0.0000 1.0000
   outer loop
     vertex 3.9337 -0.5899 0.0000
     vertex 3.9657 -0.6862 0.0000
     vertex 4.0018 -0.6069 0.0000
   endloop
 endfacet
 facet normal 0.0000 -0.0000 1.0000
   outer loop
     vertex 4.0357 -0.5307 0.0000
     vertex 3.9337 -0.5899 0.0000
     vertex 4.0018 -0.6069 0.0000
   endloop
 endfacet
 facet normal -0.0000 -0.0000 1.0000
   outer loop
     vertex 4.0357 -0.5307 0.0000
     vertex 4.0018 -0.6069 0.0000
     vertex 4.0624 -0.5860 0.0000
   endloop
 endfacet
 facet normal -0.0000 -0.0000 1.0000
   outer loop
     vertex 4.0671 -0.5282 0.0000
     vertex 4.0357 -0.5307 0.0000
     vertex 4.0624 -0.5860 0.0000
   endloop
 endfacet
 facet normal 0.0000 -0.0000 1.0000
   outer loop
     vertex 4.1659 -0.5615 0.0000
     vertex 4.0671 -0.5282 0.0000
     vertex 4.0624 -0.5860 0.0000
   endloop
 endfacet
 facet normal -0.0000 -0.0000 1.0000
   outer loop
     vertex 4.1659 -0.5615 0.0000
     vertex 4.0624 -0.5860 0.0000
     vertex 4.0792 -0.5872 0.0000
   endloop
 endfacet
 facet normal 0.0000 -0.0000 1.0000
   outer loop
     vertex 4.1659 -0.5615 0.0000
     vertex 4.0792 -0.5872 0.0000
     vertex 4.1249 -0.6111 0.0000
   endloop
 endfacet
 facet normal -0.0000 -0.0000 1.0000
   outer loop
     vertex 4.1860 -0.5829 0.0000
     vertex 4.1659 -0.5615 0.0000
     vertex 4.1249 -0.6111 0.0000
   endloop
 endfacet
 facet normal -0.0000 -0.0000 1.0000
   outer loop
     vertex 4.2280 -0.7384 0.0000
     vertex 4.1860 -0.5829 0.0000
     vertex 4.1249 -0.6111 0.0000
   endloop
 endfacet
 facet normal 0.0000 -0.0000 1.0000
   outer loop
     vertex 4.2280 -0.7384 0.0000
     vertex 4.1249 -0.6111 0.0000
     vertex 4.1507 -0.7044 0.0000
   endloop
 endfacet
 facet normal 0.0000 -0.0000 1.0000
   outer loop
     vertex 4.1507 -0.7044 0.0000
     vertex 3.9636 -0.7044 0.0000
     vertex 3.9600 -0.7622 0.0000
   endloop
 endfacet
 facet normal 0.0000 -0.0000 1.0000
   outer loop
     vertex 4.1507 -0.7044 0.0000
     vertex 3.9600 -0.7622 0.0000
     vertex 4.2276 -0.7622 0.0000
   endloop
 endfacet
 facet normal 0.0000 -0.0000 1.0000
   outer loop
     vertex 4.1507 -0.7044 0.0000
     vertex 4.2276 -0.7622 0.0000
     vertex 4.2280 -0.7384 0.0000
   endloop
 endfacet
 facet normal -0.0000 -0.0000 1.0000
   outer loop
     vertex 4.6554 -0.9493 -0.0000
     vertex 4.6554 -0.8829 0.0000
     vertex 4.5468 -0.9099 -0.0000
   endloop
 endfacet
 facet normal 0.0000 -0.0000 1.0000
   outer loop
     vertex 4.5265 -0.9720 -0.0000
     vertex 4.6554 -0.9493 -0.0000
     vertex 4.5468 -0.9099 -0.0000
   endloop
 endfacet
 facet normal 0.0000 -0.0000 1.0000
   outer loop
     vertex 4.5265 -0.9720 -0.0000
     vertex 4.5468 -0.9099 -0.0000
     vertex 4.5239 -0.9081 -0.0000
   endloop
 endfacet
 facet normal 0.0000 -0.0000 1.0000
   outer loop
     vertex 4.4028 -0.9270 -0.0000
     vertex 4.5265 -0.9720 -0.0000
     vertex 4.5239 -0.9081 -0.0000
   endloop
 endfacet
 facet normal 0.0000 -0.0000 1.0000
   outer loop
     vertex 4.4028 -0.9270 -0.0000
     vertex 4.5239 -0.9081 -0.0000
     vertex 4.4507 -0.8657 0.0000
   endloop
 endfacet
 facet normal 0.0000 -0.0000 1.0000
   outer loop
     vertex 4.3839 -0.9083 -0.0000
     vertex 4.4028 -0.9270 -0.0000
     vertex 4.4507 -0.8657 0.0000
   endloop
 endfacet
 facet normal -0.0000 -0.0000 1.0000
   outer loop
     vertex 4.5444 -0.5876 0.0000
     vertex 4.6507 -0.6067 0.0000
     vertex 4.6507 -0.5423 0.0000
   endloop
 endfacet
 facet normal 0.0000 -0.0000 1.0000
   outer loop
     vertex 4.5444 -0.5876 0.0000
     vertex 4.6507 -0.5423 0.0000
     vertex 4.5397 -0.5286 0.0000
   endloop
 endfacet
 facet normal -0.0000 -0.0000 1.0000
   outer loop
     vertex 4.3273 -0.7516 0.0000
     vertex 4.3839 -0.9083 -0.0000
     vertex 4.4507 -0.8657 0.0000
   endloop
 endfacet
 facet normal -0.0000 -0.0000 1.0000
   outer loop
     vertex 4.3273 -0.7516 0.0000
     vertex 4.4507 -0.8657 0.0000
     vertex 4.4140 -0.7501 0.0000
   endloop
 endfacet
 facet normal 0.0000 -0.0000 1.0000
   outer loop
     vertex 4.5444 -0.5876 0.0000
     vertex 4.5397 -0.5286 0.0000
     vertex 4.5125 -0.5297 0.0000
   endloop
 endfacet
 facet normal 0.0000 -0.0000 1.0000
   outer loop
     vertex 4.4649 -0.6160 0.0000
     vertex 4.5444 -0.5876 0.0000
     vertex 4.5125 -0.5297 0.0000
   endloop
 endfacet
 facet normal -0.0000 -0.0000 1.0000
   outer loop
     vertex 4.4649 -0.6160 0.0000
     vertex 4.5125 -0.5297 0.0000
     vertex 4.3833 -0.5864 0.0000
   endloop
 endfacet
 facet normal -0.0000 -0.0000 1.0000
   outer loop
     vertex 4.4497 -0.6319 0.0000
     vertex 4.4649 -0.6160 0.0000
     vertex 4.3833 -0.5864 0.0000
   endloop
 endfacet
 facet normal -0.0000 -0.0000 1.0000
   outer loop
     vertex 4.3272 -0.7477 0.0000
     vertex 4.3273 -0.7516 0.0000
     vertex 4.4140 -0.7501 0.0000
   endloop
 endfacet
 facet normal -0.0000 -0.0000 1.0000
   outer loop
     vertex 4.3768 -0.5935 0.0000
     vertex 4.3272 -0.7477 0.0000
     vertex 4.4140 -0.7501 0.0000
   endloop
 endfacet
 facet normal 0.0000 -0.0000 1.0000
   outer loop
     vertex 4.3768 -0.5935 0.0000
     vertex 4.4140 -0.7501 0.0000
     vertex 4.4497 -0.6319 0.0000
   endloop
 endfacet
 facet normal -0.0000 -0.0000 1.0000
   outer loop
     vertex 4.3768 -0.5935 0.0000
     vertex 4.4497 -0.6319 0.0000
     vertex 4.3833 -0.5864 0.0000
   endloop
 endfacet
 facet normal -0.0000 -0.0000 1.0000
   outer loop
     vertex 4.7625 -0.7740 0.0000
     vertex 4.7339 -0.8556 0.0000
     vertex 4.8108 -0.8431 0.0000
   endloop
 endfacet
 facet normal 0.0000 -0.0000 1.0000
   outer loop
     vertex 4.7625 -0.7740 0.0000
     vertex 4.8108 -0.8431 0.0000
     vertex 4.8139 -0.8224 0.0000
   endloop
 endfacet
 facet normal 0.0000 -0.0000 1.0000
   outer loop
     vertex 4.7706 -0.5602 0.0000
     vertex 4.7706 -0.6239 0.0000
     vertex 4.9022 -0.5864 0.0000
   endloop
 endfacet
 facet normal -0.0000 -0.0000 1.0000
   outer loop
     vertex 4.9163 -0.5286 0.0000
     vertex 4.7706 -0.5602 0.0000
     vertex 4.9022 -0.5864 0.0000
   endloop
 endfacet
 facet normal -0.0000 -0.0000 1.0000
   outer loop
     vertex 4.9163 -0.5286 0.0000
     vertex 4.9022 -0.5864 0.0000
     vertex 4.9220 -0.5879 0.0000
   endloop
 endfacet
 facet normal 0.0000 -0.0000 1.0000
   outer loop
     vertex 5.0184 -0.5581 0.0000
     vertex 4.9163 -0.5286 0.0000
     vertex 4.9220 -0.5879 0.0000
   endloop
 endfacet
 facet normal 0.0000 -0.0000 1.0000
   outer loop
     vertex 5.0184 -0.5581 0.0000
     vertex 4.9220 -0.5879 0.0000
     vertex 4.9620 -0.6079 0.0000
   endloop
 endfacet
 facet normal 0.0000 -0.0000 1.0000
   outer loop
     vertex 4.7923 -0.7487 0.0000
     vertex 4.7625 -0.7740 0.0000
     vertex 4.8139 -0.8224 0.0000
   endloop
 endfacet
 facet normal 0.0000 -0.0000 1.0000
   outer loop
     vertex 4.7923 -0.7487 0.0000
     vertex 4.8139 -0.8224 0.0000
     vertex 4.8499 -0.7800 0.0000
   endloop
 endfacet
 facet normal -0.0000 -0.0000 1.0000
   outer loop
     vertex 4.9597 -0.7114 0.0000
     vertex 4.7923 -0.7487 0.0000
     vertex 4.8499 -0.7800 0.0000
   endloop
 endfacet
 facet normal -0.0000 -0.0000 1.0000
   outer loop
     vertex 4.9597 -0.7114 0.0000
     vertex 4.8499 -0.7800 0.0000
     vertex 4.9522 -0.7560 0.0000
   endloop
 endfacet
 facet normal 0.0000 -0.0000 1.0000
   outer loop
     vertex 4.9597 -0.7114 0.0000
     vertex 4.9522 -0.7560 0.0000
     vertex 4.9780 -0.7567 0.0000
   endloop
 endfacet
 facet normal 0.0000 -0.0000 1.0000
   outer loop
     vertex 4.9780 -0.7114 0.0000
     vertex 4.9597 -0.7114 0.0000
     vertex 4.9780 -0.7567 0.0000
   endloop
 endfacet
 facet normal 0.0000 -0.0000 1.0000
   outer loop
     vertex 5.1159 -0.9595 -0.0000
     vertex 5.1104 -0.9169 -0.0000
     vertex 5.0956 -0.9185 -0.0000
   endloop
 endfacet
 facet normal -0.0000 -0.0000 1.0000
   outer loop
     vertex 5.0581 -0.9720 -0.0000
     vertex 5.1159 -0.9595 -0.0000
     vertex 5.0956 -0.9185 -0.0000
   endloop
 endfacet
 facet normal -0.0000 -0.0000 1.0000
   outer loop
     vertex 5.0581 -0.9720 -0.0000
     vertex 5.0956 -0.9185 -0.0000
     vertex 5.0909 -0.9182 -0.0000
   endloop
 endfacet
 facet normal 0.0000 -0.0000 1.0000
   outer loop
     vertex 5.0581 -0.9720 -0.0000
     vertex 5.0909 -0.9182 -0.0000
     vertex 5.0696 -0.9079 -0.0000
   endloop
 endfacet
 facet normal -0.0000 -0.0000 1.0000
   outer loop
     vertex 5.0153 -0.9573 -0.0000
     vertex 5.0581 -0.9720 -0.0000
     vertex 5.0696 -0.9079 -0.0000
   endloop
 endfacet
 facet normal -0.0000 -0.0000 1.0000
   outer loop
     vertex 4.9893 -0.9083 -0.0000
     vertex 5.0153 -0.9573 -0.0000
     vertex 5.0696 -0.9079 -0.0000
   endloop
 endfacet
 facet normal -0.0000 -0.0000 1.0000
   outer loop
     vertex 4.9893 -0.9083 -0.0000
     vertex 5.0696 -0.9079 -0.0000
     vertex 5.0550 -0.8524 0.0000
   endloop
 endfacet
 facet normal 0.0000 -0.0000 1.0000
   outer loop
     vertex 5.0212 -0.5606 0.0000
     vertex 5.0184 -0.5581 0.0000
     vertex 4.9620 -0.6079 0.0000
   endloop
 endfacet
 facet normal -0.0000 -0.0000 1.0000
   outer loop
     vertex 5.0539 -0.6371 0.0000
     vertex 5.0212 -0.5606 0.0000
     vertex 4.9620 -0.6079 0.0000
   endloop
 endfacet
 facet normal -0.0000 -0.0000 1.0000
   outer loop
     vertex 5.0539 -0.6371 0.0000
     vertex 4.9620 -0.6079 0.0000
     vertex 4.9780 -0.6602 0.0000
   endloop
 endfacet
 facet normal 0.0000 -0.0000 1.0000
   outer loop
     vertex 5.0550 -0.6602 0.0000
     vertex 5.0539 -0.6371 0.0000
     vertex 4.9780 -0.6602 0.0000
   endloop
 endfacet
 facet normal 0.0000 -0.0000 1.0000
   outer loop
     vertex 5.0550 -0.6602 0.0000
     vertex 4.9780 -0.6602 0.0000
     vertex 4.9780 -0.7114 0.0000
   endloop
 endfacet
 facet normal -0.0000 -0.0000 1.0000
   outer loop
     vertex 5.0550 -0.8524 0.0000
     vertex 5.0550 -0.6602 0.0000
     vertex 4.9780 -0.7114 0.0000
   endloop
 endfacet
 facet normal -0.0000 -0.0000 1.0000
   outer loop
     vertex 5.0550 -0.8524 0.0000
     vertex 4.9780 -0.7114 0.0000
     vertex 4.9780 -0.7567 0.0000
   endloop
 endfacet
 facet normal -0.0000 -0.0000 1.0000
   outer loop
     vertex 5.0550 -0.8524 0.0000
     vertex 4.9780 -0.7567 0.0000
     vertex 4.9780 -0.8665 0.0000
   endloop
 endfacet
 facet normal -0.0000 -0.0000 1.0000
   outer loop
     vertex 4.9893 -0.9083 -0.0000
     vertex 5.0550 -0.8524 0.0000
     vertex 4.9780 -0.8665 0.0000
   endloop
 endfacet
 facet normal -0.0000 -0.0000 1.0000
   outer loop
     vertex 4.9893 -0.9083 -0.0000
     vertex 4.9780 -0.8665 0.0000
     vertex 4.8780 -0.9091 -0.0000
   endloop
 endfacet
 facet normal -0.0000 -0.0000 1.0000
   outer loop
     vertex 4.8587 -0.9719 -0.0000
     vertex 4.9893 -0.9083 -0.0000
     vertex 4.8780 -0.9091 -0.0000
   endloop
 endfacet
 facet normal 0.0000 -0.0000 1.0000
   outer loop
     vertex 4.8587 -0.9719 -0.0000
     vertex 4.8780 -0.9091 -0.0000
     vertex 4.8736 -0.9090 -0.0000
   endloop
 endfacet
 facet normal -0.0000 -0.0000 1.0000
   outer loop
     vertex 4.8108 -0.8431 0.0000
     vertex 4.7339 -0.8556 0.0000
     vertex 4.7346 -0.8693 0.0000
   endloop
 endfacet
 facet normal 0.0000 -0.0000 1.0000
   outer loop
     vertex 4.8108 -0.8431 0.0000
     vertex 4.7346 -0.8693 0.0000
     vertex 4.7686 -0.9390 -0.0000
   endloop
 endfacet
 facet normal -0.0000 -0.0000 1.0000
   outer loop
     vertex 4.8266 -0.8860 0.0000
     vertex 4.8108 -0.8431 0.0000
     vertex 4.7686 -0.9390 -0.0000
   endloop
 endfacet
 facet normal 0.0000 -0.0000 1.0000
   outer loop
     vertex 4.8266 -0.8860 0.0000
     vertex 4.7686 -0.9390 -0.0000
     vertex 4.7729 -0.9428 -0.0000
   endloop
 endfacet
 facet normal -0.0000 -0.0000 1.0000
   outer loop
     vertex 4.8266 -0.8860 0.0000
     vertex 4.7729 -0.9428 -0.0000
     vertex 4.8561 -0.9720 -0.0000
   endloop
 endfacet
 facet normal 0.0000 -0.0000 1.0000
   outer loop
     vertex 4.8304 -0.8899 0.0000
     vertex 4.8266 -0.8860 0.0000
     vertex 4.8561 -0.9720 -0.0000
   endloop
 endfacet
 facet normal 0.0000 -0.0000 1.0000
   outer loop
     vertex 4.8736 -0.9090 -0.0000
     vertex 4.8304 -0.8899 0.0000
     vertex 4.8561 -0.9720 -0.0000
   endloop
 endfacet
 facet normal -0.0000 -0.0000 1.0000
   outer loop
     vertex 4.8736 -0.9090 -0.0000
     vertex 4.8561 -0.9720 -0.0000
     vertex 4.8587 -0.9719 -0.0000
   endloop
 endfacet
 facet normal 0.0000 0.0000 1.0000
   outer loop
     vertex -3.4416 -14.9506 2.0000
     vertex -2.6303 -14.2559 2.0000
     vertex -2.9512 -13.2478 2.0000
   endloop
 endfacet
 facet normal 0.0000 0.0000 1.0000
   outer loop
     vertex -3.1773 -13.5342 3.0000
     vertex -3.3610 -13.3505 3.0000
     vertex -3.4282 -13.6014 3.0000
   endloop
 endfacet
 facet normal 0.0000 0.0000 1.0000
   outer loop
     vertex -3.3348 -14.0116 3.0000
     vertex -3.5185 -13.8279 3.0000
     vertex -3.5858 -14.0788 3.0000
   endloop
 endfacet
 facet normal 0.0000 0.0000 1.0000
   outer loop
     vertex -3.4856 -14.5002 3.0000
     vertex -3.6693 -14.3165 3.0000
     vertex -3.7366 -14.5674 3.0000
   endloop
 endfacet
 facet normal 0.0000 0.0000 1.0000
   outer loop
     vertex -3.5706 -13.4337 3.0000
     vertex -3.7543 -13.2500 3.0000
     vertex -3.8215 -13.5010 3.0000
   endloop
 endfacet
 facet normal 0.0000 0.0000 1.0000
   outer loop
     vertex -3.7281 -13.9112 3.0000
     vertex -3.9118 -13.7275 3.0000
     vertex -3.9791 -13.9784 3.0000
   endloop
 endfacet
 facet normal 0.0000 0.0000 1.0000
   outer loop
     vertex -3.8789 -14.3998 3.0000
     vertex -4.0626 -14.2161 3.0000
     vertex -4.1299 -14.4670 3.0000
   endloop
 endfacet
 facet normal 0.0000 0.0000 1.0000
   outer loop
     vertex -3.9593 -13.2941 3.0000
     vertex -4.1430 -13.1104 3.0000
     vertex -4.2102 -13.3613 3.0000
   endloop
 endfacet
 facet normal 0.0000 0.0000 1.0000
   outer loop
     vertex -4.1168 -13.7715 3.0000
     vertex -4.3005 -13.5878 3.0000
     vertex -4.3677 -13.8387 3.0000
   endloop
 endfacet
 facet normal 0.0000 0.0000 1.0000
   outer loop
     vertex -4.2676 -14.2601 3.0000
     vertex -4.4513 -14.0764 3.0000
     vertex -4.5186 -14.3273 3.0000
   endloop
 endfacet
 facet normal 0.0000 0.0000 1.0000
   outer loop
     vertex -4.3804 -13.2092 3.0000
     vertex -4.5641 -13.0255 3.0000
     vertex -4.6313 -13.2765 3.0000
   endloop
 endfacet
 facet normal 0.0000 0.0000 1.0000
   outer loop
     vertex -4.5379 -13.6867 3.0000
     vertex -4.7216 -13.5029 3.0000
     vertex -4.7889 -13.7539 3.0000
   endloop
 endfacet
 facet normal 0.0000 0.0000 1.0000
   outer loop
     vertex -4.6887 -14.1752 3.0000
     vertex -4.8724 -13.9915 3.0000
     vertex -4.9397 -14.2425 3.0000
   endloop
 endfacet
 facet normal 0.0000 0.0000 1.0000
   outer loop
     vertex -4.7857 -13.0873 3.0000
     vertex -4.9694 -12.9036 3.0000
     vertex -5.0366 -13.1545 3.0000
   endloop
 endfacet
 facet normal 0.0000 0.0000 1.0000
   outer loop
     vertex -4.9432 -13.5647 3.0000
     vertex -5.1269 -13.3810 3.0000
     vertex -5.1941 -13.6319 3.0000
   endloop
 endfacet
 facet normal 0.0000 0.0000 1.0000
   outer loop
     vertex -5.0940 -14.0533 3.0000
     vertex -5.2777 -13.8696 3.0000
     vertex -5.3450 -14.1205 3.0000
   endloop
 endfacet
 facet normal 0.0000 0.0000 1.0000
   outer loop
     vertex -5.1694 -12.9512 3.0000
     vertex -5.3531 -12.7675 3.0000
     vertex -5.4203 -13.0184 3.0000
   endloop
 endfacet
 facet normal 0.0000 0.0000 1.0000
   outer loop
     vertex -5.3269 -13.4286 3.0000
     vertex -5.5106 -13.2449 3.0000
     vertex -5.5779 -13.4959 3.0000
   endloop
 endfacet
 facet normal 0.0000 0.0000 1.0000
   outer loop
     vertex -5.4777 -13.9172 3.0000
     vertex -5.6614 -13.7335 3.0000
     vertex -5.7287 -13.9845 3.0000
   endloop
 endfacet
 facet normal -0.0000 0.0000 1.0000
   outer loop
     vertex -8.1089 -1.3799 0.0000
     vertex -8.0912 -1.2080 -0.0000
     vertex -9.5436 -0.8329 -0.0000
   endloop
 endfacet
 facet normal -0.0000 0.0001 1.0000
   outer loop
     vertex -9.5436 -0.8329 -0.0000
     vertex -9.6089 -1.3836 0.0000
     vertex -8.1089 -1.3799 0.0000
   endloop
 endfacet
 facet normal 0.0001 0.0002 1.0000
   outer loop
     vertex -8.0912 -1.2080 -0.0000
     vertex -8.0684 -1.1614 -0.0000
     vertex -9.3905 -0.4528 -0.0001
   endloop
 endfacet
 facet normal 0.0000 0.0001 1.0000
   outer loop
     vertex -9.3905 -0.4528 -0.0001
     vertex -9.5436 -0.8329 -0.0000
     vertex -8.0912 -1.2080 -0.0000
   endloop
 endfacet
 facet normal 0.0001 0.0002 1.0000
   outer loop
     vertex -8.0684 -1.1614 -0.0000
     vertex -8.0230 -1.0938 -0.0000
     vertex -9.1748 -0.1329 -0.0002
   endloop
 endfacet
 facet normal 0.0000 0.0002 1.0000
   outer loop
     vertex -9.1748 -0.1329 -0.0002
     vertex -9.3905 -0.4528 -0.0001
     vertex -8.0684 -1.1614 -0.0000
   endloop
 endfacet
 facet normal 0.0001 0.0003 1.0000
   outer loop
     vertex -8.0230 -1.0938 -0.0000
     vertex -7.8660 -0.9409 -0.0001
     vertex -8.8020 0.2312 -0.0003
   endloop
 endfacet
 facet normal 0.0001 0.0003 1.0000
   outer loop
     vertex -8.8020 0.2312 -0.0003
     vertex -9.1748 -0.1329 -0.0002
     vertex -8.0230 -1.0938 -0.0000
   endloop
 endfacet
 facet normal 0.0002 0.0003 1.0000
   outer loop
     vertex -7.8660 -0.9409 -0.0001
     vertex -7.5129 -0.7147 -0.0002
     vertex -8.2418 0.5963 -0.0005
   endloop
 endfacet
 facet normal 0.0001 0.0003 1.0000
   outer loop
     vertex -8.2418 0.5963 -0.0005
     vertex -8.8020 0.2312 -0.0003
     vertex -7.8660 -0.9409 -0.0001
   endloop
 endfacet
 facet normal 0.0001 0.0002 1.0000
   outer loop
     vertex -7.5129 -0.7147 -0.0002
     vertex -4.3922 0.7745 -0.0008
     vertex -5.3163 1.9560 -0.0010
   endloop
 endfacet
 facet normal 0.0001 0.0002 1.0000
   outer loop
     vertex -5.3163 1.9560 -0.0010
     vertex -8.2418 0.5963 -0.0005
     vertex -7.5129 -0.7147 -0.0002
   endloop
 endfacet
 facet normal -0.0003 -0.0001 1.0000
   outer loop
     vertex -4.3922 0.7745 -0.0008
     vertex -4.0095 1.2250 -0.0006
     vertex -5.2865 2.0119 -0.0010
   endloop
 endfacet
 facet normal -0.0006 -0.0003 1.0000
   outer loop
     vertex -5.2865 2.0119 -0.0010
     vertex -5.3163 1.9560 -0.0010
     vertex -4.3922 0.7745 -0.0008
   endloop
 endfacet
 facet normal -0.0004 -0.0003 1.0000
   outer loop
     vertex -4.0095 1.2250 -0.0006
     vertex -3.8462 1.5875 -0.0005
     vertex -5.2799 2.0287 -0.0009
   endloop
 endfacet
 facet normal -0.0005 -0.0005 1.0000
   outer loop
     vertex -5.2799 2.0287 -0.0009
     vertex -5.2865 2.0119 -0.0010
     vertex -4.0095 1.2250 -0.0006
   endloop
 endfacet
 facet normal -0.0005 -0.0005 1.0000
   outer loop
     vertex -3.8462 1.5875 -0.0005
     vertex -3.7770 1.9761 -0.0002
     vertex -5.2748 2.0577 -0.0009
   endloop
 endfacet
 facet normal -0.0005 -0.0006 1.0000
   outer loop
     vertex -5.2748 2.0577 -0.0009
     vertex -5.2799 2.0287 -0.0009
     vertex -3.8462 1.5875 -0.0005
   endloop
 endfacet
 facet normal -0.0005 -0.0007 1.0000
   outer loop
     vertex -3.7770 1.9761 -0.0002
     vertex -3.8027 2.3767 0.0000
     vertex -5.2801 2.1170 -0.0009
   endloop
 endfacet
 facet normal -0.0005 -0.0008 1.0000
   outer loop
     vertex -5.2801 2.1170 -0.0009
     vertex -5.2748 2.0577 -0.0009
     vertex -3.7770 1.9761 -0.0002
   endloop
 endfacet
 facet normal -0.0005 -0.0009 1.0000
   outer loop
     vertex -3.8027 2.3767 0.0000
     vertex -3.9142 2.7690 0.0003
     vertex -5.3146 2.2314 -0.0008
   endloop
 endfacet
 facet normal -0.0005 -0.0009 1.0000
   outer loop
     vertex -5.3146 2.2314 -0.0008
     vertex -5.2801 2.1170 -0.0009
     vertex -3.8027 2.3767 0.0000
   endloop
 endfacet
 facet normal -0.0004 -0.0010 1.0000
   outer loop
     vertex -3.9142 2.7690 0.0003
     vertex -4.0706 3.0968 0.0006
     vertex -5.4291 2.4609 -0.0006
   endloop
 endfacet
 facet normal -0.0004 -0.0011 1.0000
   outer loop
     vertex -5.4291 2.4609 -0.0006
     vertex -5.3146 2.2314 -0.0008
     vertex -3.9142 2.7690 0.0003
   endloop
 endfacet
 facet normal -0.0002 -0.0013 1.0000
   outer loop
     vertex -4.0706 3.0968 0.0006
     vertex -4.3353 3.6744 0.0013
     vertex -5.7608 3.2074 0.0003
   endloop
 endfacet
 facet normal -0.0003 -0.0013 1.0000
   outer loop
     vertex -5.7608 3.2074 0.0003
     vertex -5.4291 2.4609 -0.0006
     vertex -4.0706 3.0968 0.0006
   endloop
 endfacet
 facet normal -0.0004 -0.0008 1.0000
   outer loop
     vertex -4.3353 3.6744 0.0013
     vertex -4.3754 3.8673 0.0014
     vertex -5.8652 3.6925 0.0007
   endloop
 endfacet
 facet normal -0.0004 -0.0008 1.0000
   outer loop
     vertex -5.8652 3.6925 0.0007
     vertex -5.7608 3.2074 0.0003
     vertex -4.3353 3.6744 0.0013
   endloop
 endfacet
 facet normal -0.0004 -0.0003 1.0000
   outer loop
     vertex -4.3754 3.8673 0.0014
     vertex -4.3776 3.9613 0.0014
     vertex -5.8740 4.0663 0.0008
   endloop
 endfacet
 facet normal -0.0005 -0.0004 1.0000
   outer loop
     vertex -5.8740 4.0663 0.0008
     vertex -5.8652 3.6925 0.0007
     vertex -4.3754 3.8673 0.0014
   endloop
 endfacet
 facet normal -0.0004 0.0001 1.0000
   outer loop
     vertex -4.3776 3.9613 0.0014
     vertex -4.3676 4.0236 0.0014
     vertex -5.8168 4.4109 0.0008
   endloop
 endfacet
 facet normal -0.0004 0.0001 1.0000
   outer loop
     vertex -5.8168 4.4109 0.0008
     vertex -5.8740 4.0663 0.0008
     vertex -4.3776 3.9613 0.0014
   endloop
 endfacet
 facet normal -0.0003 0.0006 1.0000
   outer loop
     vertex -4.3676 4.0236 0.0014
     vertex -4.3518 4.0650 0.0014
     vertex -5.7010 4.7206 0.0007
   endloop
 endfacet
 facet normal -0.0003 0.0005 1.0000
   outer loop
     vertex -5.7010 4.7206 0.0007
     vertex -5.8168 4.4109 0.0008
     vertex -4.3676 4.0236 0.0014
   endloop
 endfacet
 facet normal -0.0001 0.0009 1.0000
   outer loop
     vertex -4.3518 4.0650 0.0014
     vertex -4.3325 4.0965 0.0014
     vertex -5.5378 4.9894 0.0005
   endloop
 endfacet
 facet normal -0.0001 0.0009 1.0000
   outer loop
     vertex -5.5378 4.9894 0.0005
     vertex -5.7010 4.7206 0.0007
     vertex -4.3518 4.0650 0.0014
   endloop
 endfacet
 facet normal 0.0002 0.0012 1.0000
   outer loop
     vertex -4.3325 4.0965 0.0014
     vertex -4.2856 4.1491 0.0013
     vertex -5.3061 5.2485 0.0001
   endloop
 endfacet
 facet normal 0.0001 0.0012 1.0000
   outer loop
     vertex -5.3061 5.2485 0.0001
     vertex -5.5378 4.9894 0.0005
     vertex -4.3325 4.0965 0.0014
   endloop
 endfacet
 facet normal 0.0005 0.0015 1.0000
   outer loop
     vertex -4.2856 4.1491 0.0013
     vertex -4.1651 4.2401 0.0011
     vertex -4.9898 5.4930 -0.0003
   endloop
 endfacet
 facet normal 0.0004 0.0015 1.0000
   outer loop
     vertex -4.9898 5.4930 -0.0003
     vertex -5.3061 5.2485 0.0001
     vertex -4.2856 4.1491 0.0013
   endloop
 endfacet
 facet normal 0.0006 0.0016 1.0000
   outer loop
     vertex -4.1651 4.2401 0.0011
     vertex -3.9908 4.3371 0.0009
     vertex -4.6305 5.6939 -0.0009
   endloop
 endfacet
 facet normal 0.0006 0.0016 1.0000
   outer loop
     vertex -4.6305 5.6939 -0.0009
     vertex -4.9898 5.4930 -0.0003
     vertex -4.1651 4.2401 0.0011
   endloop
 endfacet
 facet normal -0.0000 0.0013 1.0000
   outer loop
     vertex -3.9908 4.3371 0.0009
     vertex -3.9165 4.3683 0.0008
     vertex -4.3177 5.8137 -0.0010
   endloop
 endfacet
 facet normal -0.0001 0.0012 1.0000
   outer loop
     vertex -4.3177 5.8137 -0.0010
     vertex -4.6305 5.6939 -0.0009
     vertex -3.9908 4.3371 0.0009
   endloop
 endfacet
 facet normal -0.0002 0.0012 1.0000
   outer loop
     vertex -3.9165 4.3683 0.0008
     vertex -3.8863 4.3735 0.0008
     vertex -3.9898 5.8699 -0.0010
   endloop
 endfacet
 facet normal -0.0003 0.0012 1.0000
   outer loop
     vertex -3.9898 5.8699 -0.0010
     vertex -4.3177 5.8137 -0.0010
     vertex -3.9165 4.3683 0.0008
   endloop
 endfacet
 facet normal -0.0004 0.0012 1.0000
   outer loop
     vertex -3.8863 4.3735 0.0008
     vertex -3.7917 4.3674 0.0009
     vertex -3.6785 5.8631 -0.0008
   endloop
 endfacet
 facet normal -0.0004 0.0012 1.0000
   outer loop
     vertex -3.6785 5.8631 -0.0008
     vertex -3.9898 5.8699 -0.0010
     vertex -3.8863 4.3735 0.0008
   endloop
 endfacet
 facet normal -0.0002 0.0011 1.0000
   outer loop
     vertex -3.7917 4.3674 0.0009
     vertex -2.8034 4.2584 0.0012
     vertex -2.8740 5.7567 -0.0005
   endloop
 endfacet
 facet normal -0.0003 0.0012 1.0000
   outer loop
     vertex -2.8740 5.7567 -0.0005
     vertex -3.6785 5.8631 -0.0008
     vertex -3.7917 4.3674 0.0009
   endloop
 endfacet
 facet normal 0.0004 0.0011 1.0000
   outer loop
     vertex -2.8034 4.2584 0.0012
     vertex -2.3542 4.3471 0.0009
     vertex -2.7742 5.7871 -0.0006
   endloop
 endfacet
 facet normal 0.0005 0.0011 1.0000
   outer loop
     vertex -2.7742 5.7871 -0.0006
     vertex -2.8740 5.7567 -0.0005
     vertex -2.8034 4.2584 0.0012
   endloop
 endfacet
 facet normal 0.0006 0.0012 1.0000
   outer loop
     vertex -2.3542 4.3471 0.0009
     vertex -2.1374 4.4254 0.0007
     vertex -2.6866 5.8213 -0.0007
   endloop
 endfacet
 facet normal 0.0005 0.0012 1.0000
   outer loop
     vertex -2.6866 5.8213 -0.0007
     vertex -2.7742 5.7871 -0.0006
     vertex -2.3542 4.3471 0.0009
   endloop
 endfacet
 facet normal -0.0002 0.0006 1.0000
   outer loop
     vertex -2.1374 4.4254 0.0007
     vertex 6.1549 7.9005 0.0005
     vertex 5.7922 9.3560 -0.0005
   endloop
 endfacet
 facet normal -0.0003 0.0008 1.0000
   outer loop
     vertex 5.7922 9.3560 -0.0005
     vertex -2.6866 5.8213 -0.0007
     vertex -2.1374 4.4254 0.0007
   endloop
 endfacet
 facet normal -0.0001 0.0007 1.0000
   outer loop
     vertex 6.1549 7.9005 0.0005
     vertex 7.1398 7.9865 0.0005
     vertex 7.1400 9.4865 -0.0005
   endloop
 endfacet
 facet normal -0.0001 0.0007 1.0000
   outer loop
     vertex 7.1400 9.4865 -0.0005
     vertex 5.7922 9.3560 -0.0005
     vertex 6.1549 7.9005 0.0005
   endloop
 endfacet
 facet normal 0.0001 0.0006 1.0000
   outer loop
     vertex 7.1398 7.9865 0.0005
     vertex 7.3160 7.9719 0.0005
     vertex 7.6266 9.4394 -0.0005
   endloop
 endfacet
 facet normal 0.0001 0.0007 1.0000
   outer loop
     vertex 7.6266 9.4394 -0.0005
     vertex 7.1400 9.4865 -0.0005
     vertex 7.1398 7.9865 0.0005
   endloop
 endfacet
 facet normal 0.0002 0.0006 1.0000
   outer loop
     vertex 7.3160 7.9719 0.0005
     vertex 7.5508 7.8934 0.0005
     vertex 8.1962 9.2475 -0.0005
   endloop
 endfacet
 facet normal 0.0002 0.0006 1.0000
   outer loop
     vertex 8.1962 9.2475 -0.0005
     vertex 7.6266 9.4394 -0.0005
     vertex 7.3160 7.9719 0.0005
   endloop
 endfacet
 facet normal 0.0004 0.0005 1.0000
   outer loop
     vertex 7.5508 7.8934 0.0005
     vertex 7.8401 7.7074 0.0005
     vertex 8.7601 8.8922 -0.0005
   endloop
 endfacet
 facet normal 0.0003 0.0005 1.0000
   outer loop
     vertex 8.7601 8.8922 -0.0005
     vertex 8.1962 9.2475 -0.0005
     vertex 7.5508 7.8934 0.0005
   endloop
 endfacet
 facet normal 0.0004 0.0004 1.0000
   outer loop
     vertex 7.8401 7.7074 0.0005
     vertex 8.4878 7.0971 0.0005
     vertex 9.6089 8.0937 -0.0005
   endloop
 endfacet
 facet normal 0.0004 0.0005 1.0000
   outer loop
     vertex 9.6089 8.0937 -0.0005
     vertex 8.7601 8.8922 -0.0005
     vertex 7.8401 7.7074 0.0005
   endloop
 endfacet
 facet normal 0.0005 0.0003 1.0000
   outer loop
     vertex 8.4878 7.0971 0.0005
     vertex 9.9454 5.1291 0.0004
     vertex 11.2158 5.9267 -0.0004
   endloop
 endfacet
 facet normal 0.0005 0.0004 1.0000
   outer loop
     vertex 11.2158 5.9267 -0.0004
     vertex 9.6089 8.0937 -0.0005
     vertex 8.4878 7.0971 0.0005
   endloop
 endfacet
 facet normal 0.0004 0.0002 1.0000
   outer loop
     vertex 9.9454 5.1291 0.0004
     vertex 12.4268 0.4030 0.0004
     vertex 13.8046 0.9960 -0.0004
   endloop
 endfacet
 facet normal 0.0005 0.0003 1.0000
   outer loop
     vertex 13.8046 0.9960 -0.0004
     vertex 11.2158 5.9267 -0.0004
     vertex 9.9454 5.1291 0.0004
   endloop
 endfacet
 facet normal 0.0004 0.0001 1.0000
   outer loop
     vertex 12.4268 0.4030 0.0004
     vertex 12.6444 -0.2266 0.0003
     vertex 14.1083 0.1008 -0.0003
   endloop
 endfacet
 facet normal 0.0004 0.0002 1.0000
   outer loop
     vertex 14.1083 0.1008 -0.0003
     vertex 13.8046 0.9960 -0.0004
     vertex 12.4268 0.4030 0.0004
   endloop
 endfacet
 facet normal 0.0004 0.0000 1.0000
   outer loop
     vertex 12.6444 -0.2266 0.0003
     vertex 12.7237 -0.9406 0.0003
     vertex 14.2237 -0.9378 -0.0003
   endloop
 endfacet
 facet normal 0.0005 0.0001 1.0000
   outer loop
     vertex 14.2237 -0.9378 -0.0003
     vertex 14.1083 0.1008 -0.0003
     vertex 12.6444 -0.2266 0.0003
   endloop
 endfacet
 facet normal 0.0004 -0.0001 1.0000
   outer loop
     vertex 12.7237 -0.9406 0.0003
     vertex 12.7050 -1.1032 0.0003
     vertex 14.1752 -1.4007 -0.0003
   endloop
 endfacet
 facet normal 0.0004 -0.0000 1.0000
   outer loop
     vertex 14.1752 -1.4007 -0.0003
     vertex 14.2237 -0.9378 -0.0003
     vertex 12.7237 -0.9406 0.0003
   endloop
 endfacet
 facet normal 0.0004 -0.0001 1.0000
   outer loop
     vertex 12.7050 -1.1032 0.0003
     vertex 12.6650 -1.2370 0.0003
     vertex 14.0530 -1.8057 -0.0003
   endloop
 endfacet
 facet normal 0.0004 -0.0001 1.0000
   outer loop
     vertex 14.0530 -1.8057 -0.0003
     vertex 14.1752 -1.4007 -0.0003
     vertex 12.7050 -1.1032 0.0003
   endloop
 endfacet
 facet normal 0.0004 -0.0002 1.0000
   outer loop
     vertex 12.6650 -1.2370 0.0003
     vertex 12.5619 -1.4306 0.0003
     vertex 13.8259 -2.2383 -0.0003
   endloop
 endfacet
 facet normal 0.0004 -0.0002 1.0000
   outer loop
     vertex 13.8259 -2.2383 -0.0003
     vertex 14.0530 -1.8057 -0.0003
     vertex 12.6650 -1.2370 0.0003
   endloop
 endfacet
 facet normal 0.0003 -0.0003 1.0000
   outer loop
     vertex 12.5619 -1.4306 0.0003
     vertex 12.4179 -1.6191 0.0003
     vertex 13.5319 -2.6237 -0.0003
   endloop
 endfacet
 facet normal 0.0003 -0.0003 1.0000
   outer loop
     vertex 13.5319 -2.6237 -0.0003
     vertex 13.8259 -2.2383 -0.0003
     vertex 12.5619 -1.4306 0.0003
   endloop
 endfacet
 facet normal 0.0003 -0.0003 1.0000
   outer loop
     vertex 12.4179 -1.6191 0.0003
     vertex 12.2703 -1.7589 0.0003
     vertex 13.1947 -2.9402 -0.0003
   endloop
 endfacet
 facet normal 0.0003 -0.0003 1.0000
   outer loop
     vertex 13.1947 -2.9402 -0.0003
     vertex 13.5319 -2.6237 -0.0003
     vertex 12.4179 -1.6191 0.0003
   endloop
 endfacet
 facet normal 0.0002 -0.0004 1.0000
   outer loop
     vertex 12.2703 -1.7589 0.0003
     vertex 12.0605 -1.8938 0.0003
     vertex 12.7620 -3.2197 -0.0003
   endloop
 endfacet
 facet normal 0.0002 -0.0003 1.0000
   outer loop
     vertex 12.7620 -3.2197 -0.0003
     vertex 13.1947 -2.9402 -0.0003
     vertex 12.2703 -1.7589 0.0003
   endloop
 endfacet
 facet normal 0.0001 -0.0004 1.0000
   outer loop
     vertex 12.0605 -1.8938 0.0003
     vertex 11.7020 -2.0455 0.0003
     vertex 12.1694 -3.4708 -0.0003
   endloop
 endfacet
 facet normal 0.0002 -0.0004 1.0000
   outer loop
     vertex 12.1694 -3.4708 -0.0003
     vertex 12.7620 -3.2197 -0.0003
     vertex 12.0605 -1.8938 0.0003
   endloop
 endfacet
 facet normal 0.0001 -0.0004 1.0000
   outer loop
     vertex 11.7020 -2.0455 0.0003
     vertex 11.1696 -2.1703 0.0003
     vertex 11.4355 -3.6466 -0.0003
   endloop
 endfacet
 facet normal 0.0001 -0.0004 1.0000
   outer loop
     vertex 11.4355 -3.6466 -0.0003
     vertex 12.1694 -3.4708 -0.0003
     vertex 11.7020 -2.0455 0.0003
   endloop
 endfacet
 facet normal 0.0000 -0.0004 1.0000
   outer loop
     vertex 11.1696 -2.1703 0.0003
     vertex 11.1180 -2.1765 0.0003
     vertex 11.2302 -3.6723 -0.0003
   endloop
 endfacet
 facet normal 0.0001 -0.0004 1.0000
   outer loop
     vertex 11.2302 -3.6723 -0.0003
     vertex 11.4355 -3.6466 -0.0003
     vertex 11.1696 -2.1703 0.0003
   endloop
 endfacet
 facet normal -0.0000 -0.0003 1.0000
   outer loop
     vertex 11.1180 -2.1765 0.0003
     vertex 7.6301 -2.2750 0.0003
     vertex 7.8754 -3.7548 -0.0003
   endloop
 endfacet
 facet normal 0.0000 -0.0004 1.0000
   outer loop
     vertex 7.8754 -3.7548 -0.0003
     vertex 11.2302 -3.6723 -0.0003
     vertex 11.1180 -2.1765 0.0003
   endloop
 endfacet
 facet normal 0.0002 -0.0003 1.0000
   outer loop
     vertex 7.6301 -2.2750 0.0003
     vertex 6.1806 -2.7213 0.0004
     vertex 6.7313 -4.1166 -0.0001
   endloop
 endfacet
 facet normal 0.0002 -0.0003 1.0000
   outer loop
     vertex 6.7313 -4.1166 -0.0001
     vertex 7.8754 -3.7548 -0.0003
     vertex 7.6301 -2.2750 0.0003
   endloop
 endfacet
 facet normal 0.0001 -0.0003 1.0000
   outer loop
     vertex 6.1806 -2.7213 0.0004
     vertex 2.1445 -4.6706 0.0002
     vertex 2.9023 -5.9651 -0.0002
   endloop
 endfacet
 facet normal 0.0001 -0.0003 1.0000
   outer loop
     vertex 2.9023 -5.9651 -0.0002
     vertex 6.7313 -4.1166 -0.0001
     vertex 6.1806 -2.7213 0.0004
   endloop
 endfacet
 facet normal -0.0004 -0.0005 1.0000
   outer loop
     vertex 2.1445 -4.6706 0.0002
     vertex 1.6563 -5.0129 -0.0002
     vertex 2.6319 -6.1523 -0.0004
   endloop
 endfacet
 facet normal -0.0003 -0.0005 1.0000
   outer loop
     vertex 2.6319 -6.1523 -0.0004
     vertex 2.9023 -5.9651 -0.0002
     vertex 2.1445 -4.6706 0.0002
   endloop
 endfacet
 facet normal 0.0002 -0.0000 1.0000
   outer loop
     vertex 1.6563 -5.0129 -0.0002
     vertex 1.3190 -5.3652 -0.0001
     vertex 2.5017 -6.2879 -0.0003
   endloop
 endfacet
 facet normal 0.0002 -0.0000 1.0000
   outer loop
     vertex 2.5017 -6.2879 -0.0003
     vertex 2.6319 -6.1523 -0.0004
     vertex 1.6563 -5.0129 -0.0002
   endloop
 endfacet
 facet normal 0.0003 0.0002 1.0000
   outer loop
     vertex 1.3190 -5.3652 -0.0001
     vertex 1.0864 -5.7351 0.0000
     vertex 2.4294 -6.4032 -0.0003
   endloop
 endfacet
 facet normal 0.0003 0.0002 1.0000
   outer loop
     vertex 2.4294 -6.4032 -0.0003
     vertex 2.5017 -6.2879 -0.0003
     vertex 1.3190 -5.3652 -0.0001
   endloop
 endfacet
 facet normal 0.0003 0.0002 1.0000
   outer loop
     vertex 1.0864 -5.7351 0.0000
     vertex 0.9387 -6.1247 0.0001
     vertex 2.3866 -6.5166 -0.0003
   endloop
 endfacet
 facet normal 0.0004 0.0002 1.0000
   outer loop
     vertex 2.3866 -6.5166 -0.0003
     vertex 2.4294 -6.4032 -0.0003
     vertex 1.0864 -5.7351 0.0000
   endloop
 endfacet
 facet normal 0.0003 0.0001 1.0000
   outer loop
     vertex 0.9387 -6.1247 0.0001
     vertex 0.8672 -6.5385 0.0002
     vertex 2.3598 -6.6869 -0.0002
   endloop
 endfacet
 facet normal 0.0003 0.0001 1.0000
   outer loop
     vertex 2.3598 -6.6869 -0.0002
     vertex 2.3866 -6.5166 -0.0003
     vertex 0.9387 -6.1247 0.0001
   endloop
 endfacet
 facet normal 0.0003 0.0000 1.0000
   outer loop
     vertex 0.8672 -6.5385 0.0002
     vertex 0.8591 -6.7465 0.0002
     vertex 2.3591 -6.7559 -0.0002
   endloop
 endfacet
 facet normal 0.0003 0.0000 1.0000
   outer loop
     vertex 2.3591 -6.7559 -0.0002
     vertex 2.3598 -6.6869 -0.0002
     vertex 0.8672 -6.5385 0.0002
   endloop
 endfacet
 facet normal 0.0002 -0.0001 1.0000
   outer loop
     vertex 0.8591 -6.7465 0.0002
     vertex 0.9513 -11.1752 -0.0003
     vertex 2.4313 -10.9309 -0.0006
   endloop
 endfacet
 facet normal 0.0003 -0.0001 1.0000
   outer loop
     vertex 2.4313 -10.9309 -0.0006
     vertex 2.3591 -6.7559 -0.0002
     vertex 0.8591 -6.7465 0.0002
   endloop
 endfacet
 facet normal 0.0001 0.0006 1.0000
   outer loop
     vertex 0.9513 -11.1752 -0.0003
     vertex 1.2011 -11.9743 0.0001
     vertex 2.5799 -11.3837 -0.0004
   endloop
 endfacet
 facet normal 0.0001 0.0006 1.0000
   outer loop
     vertex 2.5799 -11.3837 -0.0004
     vertex 2.4313 -10.9309 -0.0006
     vertex 0.9513 -11.1752 -0.0003
   endloop
 endfacet
 facet normal 0.0001 0.0006 1.0000
   outer loop
     vertex 1.2011 -11.9743 0.0001
     vertex 1.3870 -12.3144 0.0003
     vertex 2.6317 -11.4773 -0.0003
   endloop
 endfacet
 facet normal 0.0001 0.0006 1.0000
   outer loop
     vertex 2.6317 -11.4773 -0.0003
     vertex 2.5799 -11.3837 -0.0004
     vertex 1.2011 -11.9743 0.0001
   endloop
 endfacet
 facet normal 0.0002 0.0005 1.0000
   outer loop
     vertex 1.3870 -12.3144 0.0003
     vertex 1.6290 -12.6117 0.0004
     vertex 2.6998 -11.5613 -0.0003
   endloop
 endfacet
 facet normal 0.0002 0.0005 1.0000
   outer loop
     vertex 2.6998 -11.5613 -0.0003
     vertex 2.6317 -11.4773 -0.0003
     vertex 1.3870 -12.3144 0.0003
   endloop
 endfacet
 facet normal 0.0003 0.0004 1.0000
   outer loop
     vertex 1.6290 -12.6117 0.0004
     vertex 2.0253 -12.9469 0.0004
     vertex 2.8830 -11.7163 -0.0003
   endloop
 endfacet
 facet normal 0.0003 0.0004 1.0000
   outer loop
     vertex 2.8830 -11.7163 -0.0003
     vertex 2.6998 -11.5613 -0.0003
     vertex 1.6290 -12.6117 0.0004
   endloop
 endfacet
 facet normal 0.0003 0.0004 1.0000
   outer loop
     vertex 2.0253 -12.9469 0.0004
     vertex 2.5300 -13.2324 0.0004
     vertex 3.1397 -11.8619 -0.0003
   endloop
 endfacet
 facet normal 0.0003 0.0004 1.0000
   outer loop
     vertex 3.1397 -11.8619 -0.0003
     vertex 2.8830 -11.7163 -0.0003
     vertex 2.0253 -12.9469 0.0004
   endloop
 endfacet
 facet normal 0.0002 0.0004 1.0000
   outer loop
     vertex 2.5300 -13.2324 0.0004
     vertex 3.0757 -13.4142 0.0004
     vertex 3.4066 -11.9512 -0.0003
   endloop
 endfacet
 facet normal 0.0002 0.0004 1.0000
   outer loop
     vertex 3.4066 -11.9512 -0.0003
     vertex 3.1397 -11.8619 -0.0003
     vertex 2.5300 -13.2324 0.0004
   endloop
 endfacet
 facet normal 0.0001 0.0004 1.0000
   outer loop
     vertex 3.0757 -13.4142 0.0004
     vertex 3.6142 -13.4818 0.0003
     vertex 3.6714 -11.9828 -0.0003
   endloop
 endfacet
 facet normal 0.0001 0.0004 1.0000
   outer loop
     vertex 3.6714 -11.9828 -0.0003
     vertex 3.4066 -11.9512 -0.0003
     vertex 3.0757 -13.4142 0.0004
   endloop
 endfacet
 facet normal 0.0000 0.0004 1.0000
   outer loop
     vertex 3.6142 -13.4818 0.0003
     vertex 4.0067 -13.4635 0.0003
     vertex 3.8116 -11.9762 -0.0003
   endloop
 endfacet
 facet normal -0.0000 0.0004 1.0000
   outer loop
     vertex 3.8116 -11.9762 -0.0003
     vertex 3.6714 -11.9828 -0.0003
     vertex 3.6142 -13.4818 0.0003
   endloop
 endfacet
 facet normal -0.0001 0.0004 1.0000
   outer loop
     vertex 4.0067 -13.4635 0.0003
     vertex 4.7380 -13.3040 0.0003
     vertex 4.2883 -11.8730 -0.0003
   endloop
 endfacet
 facet normal -0.0001 0.0004 1.0000
   outer loop
     vertex 4.2883 -11.8730 -0.0003
     vertex 3.8116 -11.9762 -0.0003
     vertex 4.0067 -13.4635 0.0003
   endloop
 endfacet
 facet normal -0.0001 0.0004 1.0000
   outer loop
     vertex 4.7380 -13.3040 0.0003
     vertex 5.8040 -12.8614 0.0003
     vertex 5.1390 -11.5169 -0.0003
   endloop
 endfacet
 facet normal -0.0002 0.0004 1.0000
   outer loop
     vertex 5.1390 -11.5169 -0.0003
     vertex 4.2883 -11.8730 -0.0003
     vertex 4.7380 -13.3040 0.0003
   endloop
 endfacet
 facet normal -0.0002 0.0003 1.0000
   outer loop
     vertex 5.8040 -12.8614 0.0003
     vertex 6.7683 -12.3059 0.0003
     vertex 5.9858 -11.0261 -0.0003
   endloop
 endfacet
 facet normal -0.0002 0.0003 1.0000
   outer loop
     vertex 5.9858 -11.0261 -0.0003
     vertex 5.1390 -11.5169 -0.0003
     vertex 5.8040 -12.8614 0.0003
   endloop
 endfacet
 facet normal -0.0002 0.0003 1.0000
   outer loop
     vertex 6.7683 -12.3059 0.0003
     vertex 7.9424 -11.5472 0.0003
     vertex 7.1044 -10.3031 -0.0003
   endloop
 endfacet
 facet normal -0.0002 0.0003 1.0000
   outer loop
     vertex 7.1044 -10.3031 -0.0003
     vertex 5.9858 -11.0261 -0.0003
     vertex 6.7683 -12.3059 0.0003
   endloop
 endfacet
 facet normal -0.0001 0.0003 1.0000
   outer loop
     vertex 7.9424 -11.5472 0.0003
     vertex 8.3294 -11.2716 0.0002
     vertex 7.5911 -9.9658 -0.0002
   endloop
 endfacet
 facet normal -0.0002 0.0003 1.0000
   outer loop
     vertex 7.5911 -9.9658 -0.0002
     vertex 7.1044 -10.3031 -0.0003
     vertex 7.9424 -11.5472 0.0003
   endloop
 endfacet
 facet normal -0.0005 0.0001 1.0000
   outer loop
     vertex 8.3294 -11.2716 0.0002
     vertex 8.5475 -11.1750 0.0003
     vertex 8.0719 -9.7524 -0.0000
   endloop
 endfacet
 facet normal -0.0005 0.0001 1.0000
   outer loop
     vertex 8.0719 -9.7524 -0.0000
     vertex 7.5911 -9.9658 -0.0002
     vertex 8.3294 -11.2716 0.0002
   endloop
 endfacet
 facet normal -0.0004 0.0001 1.0000
   outer loop
     vertex 8.5475 -11.1750 0.0003
     vertex 8.6795 -11.1448 0.0004
     vertex 8.4735 -9.6590 0.0002
   endloop
 endfacet
 facet normal -0.0004 0.0001 1.0000
   outer loop
     vertex 8.4735 -9.6590 0.0002
     vertex 8.0719 -9.7524 -0.0000
     vertex 8.5475 -11.1750 0.0003
   endloop
 endfacet
 facet normal -0.0001 0.0001 1.0000
   outer loop
     vertex 8.6795 -11.1448 0.0004
     vertex 8.7825 -11.1396 0.0004
     vertex 8.8516 -9.6412 0.0002
   endloop
 endfacet
 facet normal -0.0001 0.0001 1.0000
   outer loop
     vertex 8.8516 -9.6412 0.0002
     vertex 8.4735 -9.6590 0.0002
     vertex 8.6795 -11.1448 0.0004
   endloop
 endfacet
 facet normal 0.0003 0.0001 1.0000
   outer loop
     vertex 8.7825 -11.1396 0.0004
     vertex 8.8899 -11.1544 0.0003
     vertex 9.2434 -9.6967 0.0001
   endloop
 endfacet
 facet normal 0.0003 0.0001 1.0000
   outer loop
     vertex 9.2434 -9.6967 0.0001
     vertex 8.8516 -9.6412 0.0002
     vertex 8.7825 -11.1396 0.0004
   endloop
 endfacet
 facet normal 0.0008 -0.0000 1.0000
   outer loop
     vertex 8.8899 -11.1544 0.0003
     vertex 9.0004 -11.1921 0.0003
     vertex 9.6464 -9.8383 -0.0003
   endloop
 endfacet
 facet normal 0.0008 -0.0000 1.0000
   outer loop
     vertex 9.6464 -9.8383 -0.0003
     vertex 9.2434 -9.6967 0.0001
     vertex 8.8899 -11.1544 0.0003
   endloop
 endfacet
 facet normal 0.0002 0.0002 1.0000
   outer loop
     vertex 9.0004 -11.1921 0.0003
     vertex 9.0626 -11.2303 0.0002
     vertex 9.9906 -10.0518 -0.0003
   endloop
 endfacet
 facet normal 0.0002 0.0003 1.0000
   outer loop
     vertex 9.9906 -10.0518 -0.0003
     vertex 9.6464 -9.8383 -0.0003
     vertex 9.0004 -11.1921 0.0003
   endloop
 endfacet
 facet normal 0.0003 0.0001 1.0000
   outer loop
     vertex 9.0626 -11.2303 0.0002
     vertex 9.0793 -11.2483 0.0002
     vertex 10.2339 -10.2908 -0.0003
   endloop
 endfacet
 facet normal 0.0002 0.0002 1.0000
   outer loop
     vertex 10.2339 -10.2908 -0.0003
     vertex 9.9906 -10.0518 -0.0003
     vertex 9.0626 -11.2303 0.0002
   endloop
 endfacet
 facet normal 0.0003 0.0001 1.0000
   outer loop
     vertex 9.0793 -11.2483 0.0002
     vertex 9.0979 -11.2762 0.0002
     vertex 10.4158 -10.5600 -0.0003
   endloop
 endfacet
 facet normal 0.0003 0.0002 1.0000
   outer loop
     vertex 10.4158 -10.5600 -0.0003
     vertex 10.2339 -10.2908 -0.0003
     vertex 9.0793 -11.2483 0.0002
   endloop
 endfacet
 facet normal 0.0003 0.0001 1.0000
   outer loop
     vertex 9.0979 -11.2762 0.0002
     vertex 9.1125 -11.3112 0.0002
     vertex 10.5411 -10.8539 -0.0003
   endloop
 endfacet
 facet normal 0.0003 0.0001 1.0000
   outer loop
     vertex 10.5411 -10.8539 -0.0003
     vertex 10.4158 -10.5600 -0.0003
     vertex 9.0979 -11.2762 0.0002
   endloop
 endfacet
 facet normal 0.0003 0.0000 1.0000
   outer loop
     vertex 9.1125 -11.3112 0.0002
     vertex 9.1219 -11.3548 0.0002
     vertex 10.6095 -11.1624 -0.0003
   endloop
 endfacet
 facet normal 0.0003 0.0001 1.0000
   outer loop
     vertex 10.6095 -11.1624 -0.0003
     vertex 10.5411 -10.8539 -0.0003
     vertex 9.1125 -11.3112 0.0002
   endloop
 endfacet
 facet normal 0.0003 -0.0000 1.0000
   outer loop
     vertex 9.1219 -11.3548 0.0002
     vertex 9.1242 -11.3988 0.0002
     vertex 10.6217 -11.4851 -0.0003
   endloop
 endfacet
 facet normal 0.0003 0.0000 1.0000
   outer loop
     vertex 10.6217 -11.4851 -0.0003
     vertex 10.6095 -11.1624 -0.0003
     vertex 9.1219 -11.3548 0.0002
   endloop
 endfacet
 facet normal 0.0003 -0.0001 1.0000
   outer loop
     vertex 9.1242 -11.3988 0.0002
     vertex 9.1119 -11.4818 0.0002
     vertex 10.5613 -11.8682 -0.0002
   endloop
 endfacet
 facet normal 0.0003 -0.0000 1.0000
   outer loop
     vertex 10.5613 -11.8682 -0.0002
     vertex 10.6217 -11.4851 -0.0003
     vertex 9.1242 -11.3988 0.0002
   endloop
 endfacet
 facet normal 0.0003 -0.0001 1.0000
   outer loop
     vertex 9.1119 -11.4818 0.0002
     vertex 9.0800 -11.5646 0.0002
     vertex 10.4170 -12.2446 -0.0002
   endloop
 endfacet
 facet normal 0.0003 -0.0001 1.0000
   outer loop
     vertex 10.4170 -12.2446 -0.0002
     vertex 10.5613 -11.8682 -0.0002
     vertex 9.1119 -11.4818 0.0002
   endloop
 endfacet
 facet normal 0.0002 -0.0002 1.0000
   outer loop
     vertex 9.0800 -11.5646 0.0002
     vertex 9.0228 -11.6526 0.0002
     vertex 10.1922 -12.5922 -0.0002
   endloop
 endfacet
 facet normal 0.0003 -0.0002 1.0000
   outer loop
     vertex 10.1922 -12.5922 -0.0002
     vertex 10.4170 -12.2446 -0.0002
     vertex 9.0800 -11.5646 0.0002
   endloop
 endfacet
 facet normal 0.0002 -0.0002 1.0000
   outer loop
     vertex 9.0228 -11.6526 0.0002
     vertex 8.9332 -11.7430 0.0002
     vertex 9.8913 -12.8972 -0.0002
   endloop
 endfacet
 facet normal 0.0002 -0.0002 1.0000
   outer loop
     vertex 9.8913 -12.8972 -0.0002
     vertex 10.1922 -12.5922 -0.0002
     vertex 9.0228 -11.6526 0.0002
   endloop
 endfacet
 facet normal 0.0001 -0.0003 1.0000
   outer loop
     vertex 8.9332 -11.7430 0.0002
     vertex 8.7910 -11.8373 0.0002
     vertex 9.5322 -13.1415 -0.0002
   endloop
 endfacet
 facet normal 0.0002 -0.0002 1.0000
   outer loop
     vertex 9.5322 -13.1415 -0.0002
     vertex 9.8913 -12.8972 -0.0002
     vertex 8.9332 -11.7430 0.0002
   endloop
 endfacet
 facet normal 0.0001 -0.0002 1.0000
   outer loop
     vertex 8.7910 -11.8373 0.0002
     vertex 4.6796 -13.7717 0.0002
     vertex 5.1944 -15.1806 -0.0002
   endloop
 endfacet
 facet normal 0.0001 -0.0003 1.0000
   outer loop
     vertex 5.1944 -15.1806 -0.0002
     vertex 9.5322 -13.1415 -0.0002
     vertex 8.7910 -11.8373 0.0002
   endloop
 endfacet
 facet normal 0.0000 -0.0002 1.0000
   outer loop
     vertex 4.6796 -13.7717 0.0002
     vertex 3.8617 -13.9894 0.0001
     vertex 4.1377 -15.4638 -0.0001
   endloop
 endfacet
 facet normal 0.0001 -0.0002 1.0000
   outer loop
     vertex 4.1377 -15.4638 -0.0001
     vertex 5.1944 -15.1806 -0.0002
     vertex 4.6796 -13.7717 0.0002
   endloop
 endfacet
 facet normal 0.0000 -0.0002 1.0000
   outer loop
     vertex 3.8617 -13.9894 0.0001
     vertex 2.0419 -14.1900 0.0001
     vertex 2.0621 -15.6899 -0.0001
   endloop
 endfacet
 facet normal 0.0000 -0.0002 1.0000
   outer loop
     vertex 2.0621 -15.6899 -0.0001
     vertex 4.1377 -15.4638 -0.0001
     vertex 3.8617 -13.9894 0.0001
   endloop
 endfacet
 facet normal -0.0000 -0.0001 1.0000
   outer loop
     vertex 2.0419 -14.1900 0.0001
     vertex -0.7149 -13.9623 0.0001
     vertex -0.9624 -15.4417 -0.0001
   endloop
 endfacet
 facet normal -0.0000 -0.0002 1.0000
   outer loop
     vertex -0.9624 -15.4417 -0.0001
     vertex 2.0621 -15.6899 -0.0001
     vertex 2.0419 -14.1900 0.0001
   endloop
 endfacet
 facet normal -0.0000 -0.0001 1.0000
   outer loop
     vertex -0.7149 -13.9623 0.0001
     vertex -3.5857 -13.2292 0.0000
     vertex -4.0055 -14.6692 -0.0000
   endloop
 endfacet
 facet normal -0.0000 -0.0001 1.0000
   outer loop
     vertex -4.0055 -14.6692 -0.0000
     vertex -0.9624 -15.4417 -0.0001
     vertex -0.7149 -13.9623 0.0001
   endloop
 endfacet
 facet normal -0.0000 -0.0000 1.0000
   outer loop
     vertex -3.5857 -13.2292 0.0000
     vertex -5.9789 -12.4422 0.0000
     vertex -6.3640 -13.8919 -0.0000
   endloop
 endfacet
 facet normal -0.0000 -0.0001 1.0000
   outer loop
     vertex -6.3640 -13.8919 -0.0000
     vertex -4.0055 -14.6692 -0.0000
     vertex -3.5857 -13.2292 0.0000
   endloop
 endfacet
 facet normal -0.0000 0.0000 1.0000
   outer loop
     vertex -5.9789 -12.4422 0.0000
     vertex -7.4197 -12.1472 -0.0000
     vertex -7.6924 -13.6222 0.0000
   endloop
 endfacet
 facet normal 0.0000 -0.0000 1.0000
   outer loop
     vertex -7.6924 -13.6222 0.0000
     vertex -6.3640 -13.8919 -0.0000
     vertex -5.9789 -12.4422 0.0000
   endloop
 endfacet
 facet normal -0.0000 0.0000 1.0000
   outer loop
     vertex -7.4197 -12.1472 -0.0000
     vertex -9.0074 -11.8898 -0.0000
     vertex -9.4393 -13.3263 0.0000
   endloop
 endfacet
 facet normal 0.0000 0.0000 1.0000
   outer loop
     vertex -9.4393 -13.3263 0.0000
     vertex -7.6924 -13.6222 0.0000
     vertex -7.4197 -12.1472 -0.0000
   endloop
 endfacet
 facet normal -0.0000 0.0000 1.0000
   outer loop
     vertex -9.0074 -11.8898 -0.0000
     vertex -9.1472 -11.8243 -0.0000
     vertex -9.8823 -13.1318 0.0000
   endloop
 endfacet
 facet normal 0.0000 0.0000 1.0000
   outer loop
     vertex -9.8823 -13.1318 0.0000
     vertex -9.4393 -13.3263 0.0000
     vertex -9.0074 -11.8898 -0.0000
   endloop
 endfacet
 facet normal 0.0000 0.0000 1.0000
   outer loop
     vertex -9.1472 -11.8243 -0.0000
     vertex -9.2983 -11.7199 -0.0000
     vertex -10.2632 -12.8684 0.0000
   endloop
 endfacet
 facet normal 0.0000 0.0000 1.0000
   outer loop
     vertex -10.2632 -12.8684 0.0000
     vertex -9.8823 -13.1318 0.0000
     vertex -9.1472 -11.8243 -0.0000
   endloop
 endfacet
 facet normal 0.0000 0.0001 1.0000
   outer loop
     vertex -9.2983 -11.7199 -0.0000
     vertex -9.3783 -11.6385 -0.0000
     vertex -10.5378 -12.5901 0.0000
   endloop
 endfacet
 facet normal 0.0000 0.0000 1.0000
   outer loop
     vertex -10.5378 -12.5901 0.0000
     vertex -10.2632 -12.8684 0.0000
     vertex -9.2983 -11.7199 -0.0000
   endloop
 endfacet
 facet normal 0.0000 0.0001 1.0000
   outer loop
     vertex -9.3783 -11.6385 -0.0000
     vertex -9.4315 -11.5604 -0.0000
     vertex -10.7456 -12.2837 0.0000
   endloop
 endfacet
 facet normal 0.0000 0.0000 1.0000
   outer loop
     vertex -10.7456 -12.2837 0.0000
     vertex -10.5378 -12.5901 0.0000
     vertex -9.3783 -11.6385 -0.0000
   endloop
 endfacet
 facet normal 0.0000 0.0000 1.0000
   outer loop
     vertex -9.4315 -11.5604 -0.0000
     vertex -9.4790 -11.4507 -0.0000
     vertex -10.9031 -11.9216 0.0000
   endloop
 endfacet
 facet normal 0.0001 0.0000 1.0000
   outer loop
     vertex -10.9031 -11.9216 0.0000
     vertex -10.7456 -12.2837 0.0000
     vertex -9.4315 -11.5604 -0.0000
   endloop
 endfacet
 facet normal 0.0001 0.0000 1.0000
   outer loop
     vertex -9.4790 -11.4507 -0.0000
     vertex -9.5157 -11.2947 -0.0000
     vertex -11.0024 -11.4942 0.0000
   endloop
 endfacet
 facet normal 0.0001 0.0000 1.0000
   outer loop
     vertex -11.0024 -11.4942 0.0000
     vertex -10.9031 -11.9216 0.0000
     vertex -9.4790 -11.4507 -0.0000
   endloop
 endfacet
 facet normal 0.0001 0.0000 1.0000
   outer loop
     vertex -9.5157 -11.2947 -0.0000
     vertex -9.5179 -11.2326 -0.0000
     vertex -11.0156 -11.1481 0.0000
   endloop
 endfacet
 facet normal 0.0001 -0.0000 1.0000
   outer loop
     vertex -11.0156 -11.1481 0.0000
     vertex -11.0024 -11.4942 0.0000
     vertex -9.5157 -11.2947 -0.0000
   endloop
 endfacet
 facet normal 0.0001 0.0000 1.0000
   outer loop
     vertex -9.5179 -11.2326 -0.0000
     vertex -9.5110 -11.1866 -0.0000
     vertex -10.9661 -10.8222 0.0001
   endloop
 endfacet
 facet normal 0.0001 -0.0000 1.0000
   outer loop
     vertex -10.9661 -10.8222 0.0001
     vertex -11.0156 -11.1481 0.0000
     vertex -9.5179 -11.2326 -0.0000
   endloop
 endfacet
 facet normal 0.0001 -0.0000 1.0000
   outer loop
     vertex -9.5110 -11.1866 -0.0000
     vertex -9.4441 -11.0053 -0.0001
     vertex -10.8340 -10.4412 0.0001
   endloop
 endfacet
 facet normal 0.0001 -0.0000 1.0000
   outer loop
     vertex -10.8340 -10.4412 0.0001
     vertex -10.9661 -10.8222 0.0001
     vertex -9.5110 -11.1866 -0.0000
   endloop
 endfacet
 facet normal 0.0001 -0.0000 1.0000
   outer loop
     vertex -9.4441 -11.0053 -0.0001
     vertex -9.4084 -10.9264 -0.0001
     vertex -10.7327 -10.2221 0.0001
   endloop
 endfacet
 facet normal 0.0001 -0.0000 1.0000
   outer loop
     vertex -10.7327 -10.2221 0.0001
     vertex -10.8340 -10.4412 0.0001
     vertex -9.4441 -11.0053 -0.0001
   endloop
 endfacet
 facet normal 0.0002 0.0002 1.0000
   outer loop
     vertex -9.4084 -10.9264 -0.0001
     vertex -9.2507 -10.6612 -0.0001
     vertex -10.4393 -9.7462 -0.0001
   endloop
 endfacet
 facet normal 0.0002 0.0002 1.0000
   outer loop
     vertex -10.4393 -9.7462 -0.0001
     vertex -10.7327 -10.2221 0.0001
     vertex -9.4084 -10.9264 -0.0001
   endloop
 endfacet
 facet normal 0.0000 -0.0001 1.0000
   outer loop
     vertex -9.2507 -10.6612 -0.0001
     vertex -7.2355 -8.5690 -0.0001
     vertex -8.2830 -7.4954 0.0001
   endloop
 endfacet
 facet normal -0.0000 -0.0001 1.0000
   outer loop
     vertex -8.2830 -7.4954 0.0001
     vertex -10.4393 -9.7462 -0.0001
     vertex -9.2507 -10.6612 -0.0001
   endloop
 endfacet
 facet normal 0.0001 -0.0001 1.0000
   outer loop
     vertex -7.2355 -8.5690 -0.0001
     vertex -5.7399 -7.1852 -0.0001
     vertex -6.9367 -6.2809 0.0001
   endloop
 endfacet
 facet normal 0.0000 -0.0001 1.0000
   outer loop
     vertex -6.9367 -6.2809 0.0001
     vertex -8.2830 -7.4954 0.0001
     vertex -7.2355 -8.5690 -0.0001
   endloop
 endfacet
 facet normal 0.0001 -0.0001 1.0000
   outer loop
     vertex -5.7399 -7.1852 -0.0001
     vertex -5.4905 -6.7066 -0.0001
     vertex -6.8915 -6.1709 0.0001
   endloop
 endfacet
 facet normal 0.0001 -0.0001 1.0000
   outer loop
     vertex -6.8915 -6.1709 0.0001
     vertex -6.9367 -6.2809 0.0001
     vertex -5.7399 -7.1852 -0.0001
   endloop
 endfacet
 facet normal 0.0001 -0.0000 1.0000
   outer loop
     vertex -5.4905 -6.7066 -0.0001
     vertex -5.3581 -6.2214 -0.0001
     vertex -6.8372 -5.9721 0.0001
   endloop
 endfacet
 facet normal 0.0001 -0.0001 1.0000
   outer loop
     vertex -6.8372 -5.9721 0.0001
     vertex -6.8915 -6.1709 0.0001
     vertex -5.4905 -6.7066 -0.0001
   endloop
 endfacet
 facet normal 0.0001 -0.0000 1.0000
   outer loop
     vertex -5.3581 -6.2214 -0.0001
     vertex -5.3208 -5.7019 -0.0001
     vertex -6.8208 -5.6968 0.0001
   endloop
 endfacet
 facet normal 0.0001 -0.0000 1.0000
   outer loop
     vertex -6.8208 -5.6968 0.0001
     vertex -6.8372 -5.9721 0.0001
     vertex -5.3581 -6.2214 -0.0001
   endloop
 endfacet
 facet normal 0.0001 0.0000 1.0000
   outer loop
     vertex -5.3208 -5.7019 -0.0001
     vertex -5.3374 -5.4290 -0.0001
     vertex -6.8256 -5.6173 0.0001
   endloop
 endfacet
 facet normal 0.0001 -0.0000 1.0000
   outer loop
     vertex -6.8256 -5.6173 0.0001
     vertex -6.8208 -5.6968 0.0001
     vertex -5.3208 -5.7019 -0.0001
   endloop
 endfacet
 facet normal 0.0000 0.0009 1.0000
   outer loop
     vertex -5.3374 -5.4290 -0.0001
     vertex -5.4334 -4.9426 -0.0005
     vertex -6.8722 -5.3668 -0.0001
   endloop
 endfacet
 facet normal 0.0000 0.0008 1.0000
   outer loop
     vertex -6.8722 -5.3668 -0.0001
     vertex -6.8256 -5.6173 0.0001
     vertex -5.3374 -5.4290 -0.0001
   endloop
 endfacet
 facet normal 0.0001 0.0006 1.0000
   outer loop
     vertex -5.4334 -4.9426 -0.0005
     vertex -5.6173 -4.4851 -0.0008
     vertex -6.9500 -5.1736 -0.0002
   endloop
 endfacet
 facet normal 0.0001 0.0006 1.0000
   outer loop
     vertex -6.9500 -5.1736 -0.0002
     vertex -6.8722 -5.3668 -0.0001
     vertex -5.4334 -4.9426 -0.0005
   endloop
 endfacet
 facet normal 0.0002 0.0004 1.0000
   outer loop
     vertex -5.6173 -4.4851 -0.0008
     vertex -5.9092 -4.0308 -0.0009
     vertex -7.0907 -4.9549 -0.0003
   endloop
 endfacet
 facet normal 0.0002 0.0004 1.0000
   outer loop
     vertex -7.0907 -4.9549 -0.0003
     vertex -6.9500 -5.1736 -0.0002
     vertex -5.6173 -4.4851 -0.0008
   endloop
 endfacet
 facet normal 0.0004 0.0002 1.0000
   outer loop
     vertex -5.9092 -4.0308 -0.0009
     vertex -6.3063 -3.6093 -0.0009
     vertex -7.3023 -4.7310 -0.0002
   endloop
 endfacet
 facet normal 0.0004 0.0002 1.0000
   outer loop
     vertex -7.3023 -4.7310 -0.0002
     vertex -7.0907 -4.9549 -0.0003
     vertex -5.9092 -4.0308 -0.0009
   endloop
 endfacet
 facet normal 0.0005 0.0001 1.0000
   outer loop
     vertex -6.3063 -3.6093 -0.0009
     vertex -6.8655 -3.1941 -0.0006
     vertex -7.6645 -4.4636 -0.0000
   endloop
 endfacet
 facet normal 0.0005 0.0001 1.0000
   outer loop
     vertex -7.6645 -4.4636 -0.0000
     vertex -7.3023 -4.7310 -0.0002
     vertex -6.3063 -3.6093 -0.0009
   endloop
 endfacet
 facet normal 0.0006 0.0000 1.0000
   outer loop
     vertex -6.8655 -3.1941 -0.0006
     vertex -7.4557 -2.8807 -0.0003
     vertex -8.2114 -4.1764 0.0003
   endloop
 endfacet
 facet normal 0.0006 0.0001 1.0000
   outer loop
     vertex -8.2114 -4.1764 0.0003
     vertex -7.6645 -4.4636 -0.0000
     vertex -6.8655 -3.1941 -0.0006
   endloop
 endfacet
 facet normal -0.0004 0.0006 1.0000
   outer loop
     vertex -7.4557 -2.8807 -0.0003
     vertex -7.5753 -2.8072 -0.0003
     vertex -8.4996 -3.9886 -0.0000
   endloop
 endfacet
 facet normal -0.0005 0.0007 1.0000
   outer loop
     vertex -8.4996 -3.9886 -0.0000
     vertex -8.2114 -4.1764 0.0003
     vertex -7.4557 -2.8807 -0.0003
   endloop
 endfacet
 facet normal -0.0012 0.0013 1.0000
   outer loop
     vertex -7.5753 -2.8072 -0.0003
     vertex -7.6589 -2.7279 -0.0005
     vertex -8.7852 -3.7186 -0.0007
   endloop
 endfacet
 facet normal -0.0012 0.0012 1.0000
   outer loop
     vertex -8.7852 -3.7186 -0.0007
     vertex -8.4996 -3.9886 -0.0000
     vertex -7.5753 -2.8072 -0.0003
   endloop
 endfacet
 facet normal -0.0014 0.0015 1.0000
   outer loop
     vertex -7.6589 -2.7279 -0.0005
     vertex -7.7922 -2.5448 -0.0010
     vertex -9.0795 -3.3147 -0.0017
   endloop
 endfacet
 facet normal -0.0014 0.0015 1.0000
   outer loop
     vertex -9.0795 -3.3147 -0.0017
     vertex -8.7852 -3.7186 -0.0007
     vertex -7.6589 -2.7279 -0.0005
   endloop
 endfacet
 facet normal -0.0011 0.0010 1.0000
   outer loop
     vertex -7.7922 -2.5448 -0.0010
     vertex -7.9273 -2.2633 -0.0015
     vertex -9.3303 -2.7939 -0.0025
   endloop
 endfacet
 facet normal -0.0011 0.0010 1.0000
   outer loop
     vertex -9.3303 -2.7939 -0.0025
     vertex -9.0795 -3.3147 -0.0017
     vertex -7.7922 -2.5448 -0.0010
   endloop
 endfacet
 facet normal -0.0006 -0.0005 1.0000
   outer loop
     vertex -7.9273 -2.2633 -0.0015
     vertex -8.0545 -1.8104 -0.0013
     vertex -9.5254 -2.1041 -0.0023
   endloop
 endfacet
 facet normal -0.0006 -0.0005 1.0000
   outer loop
     vertex -9.5254 -2.1041 -0.0023
     vertex -9.3303 -2.7939 -0.0025
     vertex -7.9273 -2.2633 -0.0015
   endloop
 endfacet
 facet normal 0.0000 -0.0030 1.0000
   outer loop
     vertex -8.0545 -1.8104 -0.0013
     vertex -8.1089 -1.3799 0.0000
     vertex -9.6089 -1.3836 0.0000
   endloop
 endfacet
 facet normal -0.0000 -0.0032 1.0000
   outer loop
     vertex -9.6089 -1.3836 0.0000
     vertex -9.5254 -2.1041 -0.0023
     vertex -8.0545 -1.8104 -0.0013
   endloop
 endfacet
endsolid
